<svg xmlns="http://www.w3.org/2000/svg" width="129.387" height="129.387" viewBox="0 0 129.387 129.387"><defs><style>.a{fill:none;}.b{fill:#4895F1;}</style></defs><path class="a" d="M0,0H129.387V129.387H0Z"/><path class="b" d="M55.855,2A53.855,53.855,0,1,0,109.71,55.855,53.875,53.875,0,0,0,55.855,2Zm0,16.156A16.156,16.156,0,1,1,39.7,34.313,16.135,16.135,0,0,1,55.855,18.156Zm0,76.474A38.778,38.778,0,0,1,23.542,77.289C23.7,66.572,45.084,60.7,55.855,60.7c10.717,0,32.151,5.87,32.313,16.587A38.778,38.778,0,0,1,55.855,94.63Z" transform="translate(8.838 8.838)"/></svg>