<?xml version="1.0" standalone="no"?>
<!DOCTYPE svg PUBLIC "-//W3C//DTD SVG 20010904//EN"
 "http://www.w3.org/TR/2001/REC-SVG-20010904/DTD/svg10.dtd">
<svg version="1.0" xmlns="http://www.w3.org/2000/svg"
 width="62.000000pt" height="76.000000pt" viewBox="0 0 62.000000 76.000000"
 preserveAspectRatio="xMidYMid meet">

<g transform="translate(0.000000,76.000000) scale(0.100000,-0.100000)"
fill="#000000" stroke="none">
<path d="M0 430 l0 -330 164 0 c155 0 165 -1 171 -20 16 -49 101 -85 162 -68
125 34 158 230 51 306 -16 12 -18 29 -18 168 l0 156 -51 59 -52 59 -213 0
-214 0 0 -330z m400 245 l0 -55 50 0 50 0 0 -135 0 -135 -39 0 c-79 0 -142
-68 -149 -160 l-4 -60 -139 0 -139 0 0 300 0 300 185 0 185 0 0 -55z m60 0
l23 -25 -26 0 c-22 0 -27 5 -27 25 0 14 1 25 3 25 2 0 14 -11 27 -25z m82
-393 c65 -64 53 -188 -22 -227 -53 -27 -98 -20 -141 24 -35 35 -39 44 -39 90
0 63 20 105 63 132 44 28 101 20 139 -19z"/>
<path d="M450 226 c0 -33 -2 -36 -30 -36 -20 0 -30 -5 -30 -15 0 -10 10 -15
30 -15 27 0 30 -3 30 -30 0 -20 5 -30 15 -30 10 0 15 10 15 30 0 25 4 30 25
30 16 0 25 6 25 15 0 9 -9 15 -24 15 -20 0 -25 6 -28 32 -4 46 -28 49 -28 4z"/>
</g>
</svg>
