<svg xmlns="http://www.w3.org/2000/svg" xmlns:xlink="http://www.w3.org/1999/xlink" width="250.962" height="279.201" viewBox="0 0 250.962 279.201"><defs><style>.a{fill:#1d2741;opacity:0.18;}.b,.e,.i,.o{fill:#fff;}.b{opacity:0.19;}.c{fill:#77b2f6;}.d{fill:url(#a);}.f{fill:url(#b);}.g{fill:#ebebf0;}.h{fill:url(#c);}.i{opacity:0.38;}.j{fill:#3f3d56;}.k{fill:url(#d);}.l{fill:url(#e);}.m{fill:url(#f);}.n{fill:url(#g);}.o{opacity:0.25;}.p{fill:#222a72;}.q{fill:url(#h);}</style><linearGradient id="a" x1="-0.714" y1="-0.5" x2="1.377" y2="0.609" gradientUnits="objectBoundingBox"><stop offset="0" stop-opacity="0"/><stop offset="0.85" stop-opacity="0.51"/><stop offset="0.99"/></linearGradient><linearGradient id="b" x1="0.504" y1="29.272" x2="0.495" y2="33.197" xlink:href="#a"/><linearGradient id="c" x1="0.501" y1="1.546" x2="0.498" y2="3.264" xlink:href="#a"/><linearGradient id="d" x1="4.061" y1="-3.798" x2="6.795" y2="-2.066" xlink:href="#a"/><linearGradient id="e" x1="0.468" y1="-1.549" x2="0.563" y2="4.469" xlink:href="#a"/><linearGradient id="f" x1="0.193" y1="-3.719" x2="1.839" y2="-3.707" gradientUnits="objectBoundingBox"><stop offset="0" stop-color="#ecc4d7"/><stop offset="0.42" stop-color="#efd4d1"/><stop offset="1" stop-color="#f2eac9"/></linearGradient><linearGradient id="g" x1="5.752" y1="-3.155" x2="5.573" y2="-3.219" xlink:href="#f"/><linearGradient id="h" x1="5.294" y1="-9.009" x2="6.295" y2="-9.009" xlink:href="#f"/></defs><g transform="translate(0.002 -0.001)"><path class="a" d="M263.981,549.937c-8.09.935-16.179,1.73-24.269,2.432a3.485,3.485,0,0,0,.327.561c.842,1.263,2.572,1.5,4.021,2.1s2.759,2.338,1.824,3.554a2.978,2.978,0,0,1-2.057.888l-8.37,1.4c-10.194,1.683-20.949,3.367-30.582-.327-3.975-1.543-4.255-3.834-2.9-5.752-51.765,2.245-103.763.514-155.622-1.169-4.209,0-8.931-1.122-10.054-5.378,26.7-12.018,52.606-12.064,81.552-12.859l101.706-2.712a9.439,9.439,0,0,1,5.1.842c1.5.888,2.338,2.665,3.6,3.975,3.741,3.881,10.007,3.086,15.384,2.665a59.083,59.083,0,0,1,23.194,2.946,4.407,4.407,0,0,1,2.665,1.73C270.9,547.459,266.927,549.61,263.981,549.937Z" transform="translate(-19.341 -283.561)"/><path class="b" d="M108.688.909C95.034,3.762,83.016,11.9,72.635,21.2S53,41.077,42.381,50.149C25.967,64.224,4.925,76.85.763,98.079c-3.32,17.021,5.658,34.042,6.079,51.391.234,13.14-4.4,25.859-5.378,38.952-.982,12.906,1.964,26.56,10.428,36.334,12.064,13.935,32.733,17.208,51.017,14.59S98.4,229.245,116.4,225.27c21.7-4.77,44.283-4.4,66.4-2.011,13.514,1.45,27.683,3.554,40.4-1.309,11.316-4.3,20.248-13.935,24.55-25.251s4.162-24.082.468-35.585c-5.1-15.946-16.366-29.132-23.568-44.236-6.126-12.859-9.165-26.888-12.532-40.729-2.245-9.165-4.77-18.658-10.989-25.765-7.061-8.183-17.769-11.971-27.262-17.161C150.914,20.689,138.662-5.357,108.688.909Z" transform="translate(-0.03 0.05)"/><path class="c" d="M102.877,36.5h81.084V286.579H102.877A14.777,14.777,0,0,1,88.1,271.8h0V51.277A14.777,14.777,0,0,1,102.877,36.5Z" transform="translate(-46.918 -19.408)"/><path class="d" d="M102.877,36.5h81.084V286.579H102.877A14.777,14.777,0,0,1,88.1,271.8h0V51.277A14.777,14.777,0,0,1,102.877,36.5Z" transform="translate(-46.918 -19.408)"/><path class="c" d="M119.042,36.5h106.85a17.442,17.442,0,0,1,17.442,17.442v215.2a17.442,17.442,0,0,1-17.442,17.442H119.042A17.442,17.442,0,0,1,101.6,269.138V53.942A17.442,17.442,0,0,1,119.042,36.5Z" transform="translate(-54.106 -19.408)"/><path class="e" d="M244.248,58.538V266.532a8.885,8.885,0,0,1-8.838,8.838H123.791A8.819,8.819,0,0,1,115,266.532h0V58.538a8.819,8.819,0,0,1,8.791-8.838h22.071v2.759a8.885,8.885,0,0,0,8.885,8.885h49.52a8.885,8.885,0,0,0,8.885-8.885V49.7H235.41a8.829,8.829,0,0,1,8.838,8.838Z" transform="translate(-61.24 -26.436)"/><path class="f" d="M224.469,51.3h25.578a1.16,1.16,0,0,1,1.169,1.169V52.7a1.16,1.16,0,0,1-1.169,1.169H224.469A1.16,1.16,0,0,1,223.3,52.7v-.234A1.188,1.188,0,0,1,224.469,51.3Z" transform="translate(-118.897 -27.287)"/><path class="g" d="M234.569,49.7V237.727a15.964,15.964,0,0,1-15.946,15.946H115V58.538a8.819,8.819,0,0,1,8.791-8.838h22.071v2.759a8.885,8.885,0,0,0,8.885,8.885h49.52a8.885,8.885,0,0,0,8.885-8.885V49.7Z" transform="translate(-61.24 -26.436)"/><path class="c" d="M159.757,227H290.97a8.562,8.562,0,0,1,8.557,8.557v32.312a8.562,8.562,0,0,1-8.557,8.557H159.757a8.562,8.562,0,0,1-8.557-8.557V235.557A8.562,8.562,0,0,1,159.757,227Z" transform="translate(-80.512 -120.828)"/><path class="h" d="M159.757,227H290.97a8.562,8.562,0,0,1,8.557,8.557v32.312a8.562,8.562,0,0,1-8.557,8.557H159.757a8.562,8.562,0,0,1-8.557-8.557V235.557A8.562,8.562,0,0,1,159.757,227Z" transform="translate(-80.512 -120.828)"/><path class="e" d="M165.257,220.4H296.47a8.562,8.562,0,0,1,8.557,8.557v32.312a8.562,8.562,0,0,1-8.557,8.557H165.257a8.562,8.562,0,0,1-8.557-8.557V228.957A8.562,8.562,0,0,1,165.257,220.4Z" transform="translate(-83.44 -117.314)"/><rect class="e" width="22.165" height="22.165" transform="translate(66.947 48.095)"/><path class="g" d="M180.342,239.8h22.445a4.442,4.442,0,0,1,4.442,4.442v22.445a4.442,4.442,0,0,1-4.442,4.442H180.342a4.442,4.442,0,0,1-4.442-4.442V244.242a4.41,4.41,0,0,1,4.442-4.442Z" transform="translate(-93.662 -127.642)"/><rect class="e" width="22.165" height="22.165" transform="translate(66.947 75.59)"/><rect class="e" width="22.165" height="22.165" transform="translate(66.947 163.034)"/><rect class="e" width="22.165" height="22.165" transform="translate(66.947 190.529)"/><path class="i" d="M207.13,268.761v4.162a4.442,4.442,0,0,1-4.442,4.442H180.242a4.442,4.442,0,0,1-4.442-4.442v-4.162a31.2,31.2,0,0,1,12.392-4.816,6.64,6.64,0,1,1,6.406.047A38.509,38.509,0,0,1,207.13,268.761Z" transform="translate(-93.609 -133.878)"/><path class="g" d="M352.241,248.306H267.6a1.4,1.4,0,0,1-1.4-1.4h0a1.4,1.4,0,0,1,1.4-1.4h84.638a1.4,1.4,0,0,1,1.4,1.4h0A1.4,1.4,0,0,1,352.241,248.306Z" transform="translate(-141.737 -130.677)"/><path class="e" d="M206.809,115.2h79.307a1.309,1.309,0,0,1,1.309,1.309h0a1.309,1.309,0,0,1-1.309,1.309H206.809a1.309,1.309,0,0,1-1.309-1.309h0A1.309,1.309,0,0,1,206.809,115.2Z" transform="translate(-109.421 -61.307)"/><path class="e" d="M286.116,136.819H206.809a1.309,1.309,0,0,1-1.309-1.309h0a1.309,1.309,0,0,1,1.309-1.309h79.307a1.309,1.309,0,0,1,1.309,1.309h0A1.337,1.337,0,0,1,286.116,136.819Z" transform="translate(-109.421 -71.422)"/><path class="e" d="M286.116,175.019H206.809a1.309,1.309,0,0,1-1.309-1.309h0a1.309,1.309,0,0,1,1.309-1.309h79.307a1.309,1.309,0,0,1,1.309,1.309h0A1.337,1.337,0,0,1,286.116,175.019Z" transform="translate(-109.421 -91.76)"/><path class="e" d="M286.116,191.119H206.809a1.309,1.309,0,0,1-1.309-1.309h0a1.309,1.309,0,0,1,1.309-1.309h79.307a1.309,1.309,0,0,1,1.309,1.309h0a1.337,1.337,0,0,1-1.309,1.309Z" transform="translate(-109.421 -100.331)"/><path class="e" d="M286.116,364.119H206.809a1.309,1.309,0,0,1-1.309-1.309h0a1.309,1.309,0,0,1,1.309-1.309h79.307a1.309,1.309,0,0,1,1.309,1.309h0A1.337,1.337,0,0,1,286.116,364.119Z" transform="translate(-109.421 -192.434)"/><path class="e" d="M286.116,380.219H206.809a1.309,1.309,0,0,1-1.309-1.309h0a1.309,1.309,0,0,1,1.309-1.309h79.307a1.309,1.309,0,0,1,1.309,1.309h0A1.337,1.337,0,0,1,286.116,380.219Z" transform="translate(-109.421 -201.005)"/><path class="e" d="M286.116,422.919H206.809a1.309,1.309,0,0,1-1.309-1.309h0a1.309,1.309,0,0,1,1.309-1.309h79.307a1.309,1.309,0,0,1,1.309,1.309h0a1.337,1.337,0,0,1-1.309,1.309Z" transform="translate(-109.421 -223.738)"/><path class="e" d="M286.116,439.019H206.809a1.309,1.309,0,0,1-1.309-1.309h0a1.309,1.309,0,0,1,1.309-1.309h79.307a1.309,1.309,0,0,1,1.309,1.309h0A1.337,1.337,0,0,1,286.116,439.019Z" transform="translate(-109.421 -232.31)"/><path class="g" d="M352.241,267.606H267.6a1.4,1.4,0,0,1-1.4-1.4h0a1.4,1.4,0,0,1,1.4-1.4h84.638a1.4,1.4,0,0,1,1.4,1.4h0A1.4,1.4,0,0,1,352.241,267.606Z" transform="translate(-141.737 -140.952)"/><path class="g" d="M352.241,286.906H267.6a1.4,1.4,0,0,1-1.4-1.4h0a1.4,1.4,0,0,1,1.4-1.4h84.638a1.4,1.4,0,0,1,1.4,1.4h0A1.4,1.4,0,0,1,352.241,286.906Z" transform="translate(-141.737 -151.227)"/><path class="j" d="M409.622,420.847l-5.331,38.812a10.17,10.17,0,0,0,.514,4.863l9.539,28.057,5.565-1.73L415.7,462.932a4.33,4.33,0,0,1,.094-1.73l7.248-24.971,3.133,56.3h5.144l4.442-55.6A32.98,32.98,0,0,0,434.5,420.8Z" transform="translate(-215.203 -224.004)"/><path class="c" d="M412.017,330.5v26.654c0,3.273-.514,5.892-3.788,5.892H385.41c-3.273,0-3.367-2.619-3.414-5.892l-.187-18.143s-4.91,8.791-8.838,7.949S357.4,330.036,357.4,330.036l5.8-4.863,9.773,9.82a93.82,93.82,0,0,0,3.834-11.55,10.577,10.577,0,0,1,9.726-8.043h19.827C413.514,315.4,412.017,330.5,412.017,330.5Z" transform="translate(-190.29 -167.891)"/><path class="c" d="M467.565,290.1s7.248,14.87,7.622,19.967-7.388,11.971-7.388,11.971L462,301.931h5.518V290.1Z" transform="translate(-245.978 -154.422)"/><path class="k" d="M467.565,290.1s7.248,14.87,7.622,19.967-7.388,11.971-7.388,11.971L462,301.931h5.518V290.1Z" transform="translate(-245.978 -154.422)"/><path class="c" d="M466.248,326.137s4.723-13,4.209-15.946-4.489-12.392-4.489-12.392v8.277l-6.967.14Z" transform="translate(-244.381 -158.521)"/><rect class="c" width="24.877" height="1.824" transform="translate(194.418 195.019)"/><rect class="l" width="24.877" height="1.824" transform="translate(194.418 195.019)"/><rect class="m" width="7.154" height="18.237" transform="translate(202.882 129.412)"/><path class="n" d="M433.761,272.4v20.248h-3.788v-1.216a2.712,2.712,0,0,0-2.712-2.712h-.234a6.794,6.794,0,0,1-6.827-6.78h0v-9.493h13.561Z" transform="translate(-223.724 -144.998)"/><path class="j" d="M420.671,257.957a10.927,10.927,0,0,1,5.1-.982l3.694-.094a14.653,14.653,0,0,1,2.478.094,6.079,6.079,0,0,1,5,7.014h0a6.461,6.461,0,0,1-.374,1.263,3.105,3.105,0,0,0-.281.935,4.144,4.144,0,0,0,.514,1.45c.514,1.4-.327,2.9-1.263,4.021s-2.057,2.291-2.2,3.788a2.4,2.4,0,0,1-.327,1.4,1.2,1.2,0,0,1-1.5.094,3.666,3.666,0,0,1-1.029-1.216c.047.7-.935,1.076-1.543.748a2.418,2.418,0,0,1-1.029-1.73,5.659,5.659,0,0,0-.608-1.964c-.327-.468-.842-.795-.982-1.356-.281-.935.655-1.964.281-2.9a1.605,1.605,0,0,0-2.1-.655,4.6,4.6,0,0,0-1.73,1.683c.7-.935.14-2.525-.608-3.273-1.169-1.263-2.9-.187-3.881-1.076C416.462,263.428,419.034,258.892,420.671,257.957Z" transform="translate(-222.371 -136.728)"/><path class="o" d="M416.465,315.494s-2.806,3.647-6.64,3.647-15.1,11.036-15.852,14.356-3.273,1.5-3.273,1.5a93.826,93.826,0,0,0,3.834-11.55,10.577,10.577,0,0,1,9.726-8.043h10.1Z" transform="translate(-208.019 -167.891)"/><path class="p" d="M422.32,569.6l1.964,4.816-7.9,3.741-7.342.514s-1.263-4.816,2.151-5.237a11.606,11.606,0,0,0,5.518-2.151Z" transform="translate(-217.661 -303.224)"/><path class="p" d="M446.734,574.2h0a6,6,0,0,0-3.647,4.91l-.187,2.011h8.978V574.2Z" transform="translate(-235.809 -305.673)"/><path class="q" d="M354.74,327.749l-3.788-4.676s-1.309-5-2.011-1.917c-.421,1.73-1.543,4.863-1.543,4.863h-5.8s4.068,4.3,5.8,5.1a9.353,9.353,0,0,0,2.478.7Z" transform="translate(-181.878 -170.42)"/></g></svg>