<svg xmlns="http://www.w3.org/2000/svg" xmlns:xlink="http://www.w3.org/1999/xlink" width="21.187" height="26.208" viewBox="0 0 21.187 26.208"><defs><style>.a,.d{fill:#2d3047;}.a,.b{stroke-miterlimit:10;}.b{fill:#fff;stroke:#2d3047;stroke-width:0.79px;fill-rule:evenodd;}.c,.d{stroke:none;}.e{filter:url(#c);}.f{filter:url(#a);}</style><filter id="a" x="0" y="0" width="21.187" height="26.208" filterUnits="userSpaceOnUse"><feOffset dy="1" input="SourceAlpha"/><feGaussianBlur stdDeviation="0.5" result="b"/><feFlood flood-opacity="0.161"/><feComposite operator="in" in2="b"/><feComposite in="SourceGraphic"/></filter><filter id="c" x="7.403" y="13.316" width="6.309" height="10.061" filterUnits="userSpaceOnUse"><feOffset dy="1" input="SourceAlpha"/><feGaussianBlur stdDeviation="0.5" result="d"/><feFlood flood-opacity="0.161"/><feComposite operator="in" in2="d"/><feComposite in="SourceGraphic"/></filter></defs><g transform="translate(2.3 1.3)"><g transform="translate(0 0)"><g class="f" transform="matrix(1, 0, 0, 1, -2.3, -1.3)"><g class="a" transform="translate(0.95 -0.42)"><path class="c" d="M 18.3371410369873 23.724853515625 L 17.93714141845703 23.724853515625 L 1.350000858306885 23.724853515625 L 0.9500008821487427 23.724853515625 L 0.9500008821487427 23.32485389709473 L 0.9500008821487427 9.847804069519043 L 0.9500008821487427 9.447803497314453 L 1.350000858306885 9.447803497314453 L 3.603940963745117 9.447803497314453 L 3.603940963745117 7.58583927154541 C 3.512213468551636 5.376269817352295 4.634294986724854 3.300540208816528 6.533880710601807 2.167243957519531 C 7.465950965881348 1.611163973808289 8.53230094909668 1.317243933677673 9.617650985717773 1.317243933677673 C 10.70300102233887 1.317243933677673 11.76936054229736 1.611163973808289 12.70143127441406 2.167243957519531 C 14.60102653503418 3.300540208816528 15.7230978012085 5.376269817352295 15.63136100769043 7.585839748382568 L 15.63136100769043 9.447803497314453 L 17.93714141845703 9.447803497314453 L 18.3371410369873 9.447803497314453 L 18.3371410369873 9.847804069519043 L 18.3371410369873 23.32485389709473 L 18.3371410369873 23.724853515625 Z M 2.102480888366699 22.54127311706543 L 17.17430114746094 22.54127311706543 L 17.17430114746094 10.61064434051514 L 2.102480888366699 10.61064434051514 L 2.102480888366699 22.54127311706543 Z M 4.756421089172363 9.447803497314453 L 14.47889137268066 9.447803497314453 L 14.47889137268066 7.577434062957764 C 14.47889137268066 4.899794101715088 12.30048084259033 2.721384048461914 9.622840881347656 2.721384048461914 C 6.944760799407959 2.721384048461914 4.761691093444824 4.900154113769531 4.756421089172363 7.578224182128906 L 4.756421089172363 9.447803497314453 Z"/><path class="d" d="M 9.617650985717773 1.717239379882813 C 8.621582984924316 1.717239379882813 7.625515937805176 1.981744766235352 6.738810539245605 2.510753631591797 C 4.965411186218262 3.56877326965332 3.915261268615723 5.514303207397461 4.003940582275391 7.577434539794922 L 4.003940582275391 9.847804069519043 L 1.350000381469727 9.847804069519043 L 1.350000381469727 23.32485389709473 L 17.93714141845703 23.32485389709473 L 17.93714141845703 9.847804069519043 L 15.23136138916016 9.847804069519043 L 15.23136138916016 7.577434539794922 C 15.3200511932373 5.514303207397461 14.26990127563477 3.56877326965332 12.49649047851563 2.510753631591797 C 11.60978603363037 1.981744766235352 10.61371803283691 1.717239379882813 9.617650985717773 1.717239379882813 M 14.87889099121094 9.847804069519043 L 4.356420516967773 9.847804069519043 L 4.356420516967773 7.577434539794922 C 4.362140655517578 4.672924041748047 6.718320846557617 2.321384429931641 9.622840881347656 2.321384429931641 C 12.52567100524902 2.321384429931641 14.87889099121094 4.674594879150391 14.87889099121094 7.577434539794922 L 14.87889099121094 9.847804069519043 M 17.57430076599121 22.94127464294434 L 1.702480316162109 22.94127464294434 L 1.702480316162109 10.21064376831055 L 17.57430076599121 10.21064376831055 L 17.57430076599121 22.94127464294434 M 9.617650985717773 0.9172344207763672 C 10.77512073516846 0.9172344207763672 11.91234111785889 1.230693817138672 12.90637111663818 1.823734283447266 C 14.92985439300537 3.03094482421875 16.12607765197754 5.24064826965332 16.0313606262207 7.593986511230469 L 16.0313606262207 9.04780387878418 L 17.93714141845703 9.04780387878418 L 18.73714065551758 9.04780387878418 L 18.73714065551758 9.847804069519043 L 18.73714065551758 23.32485389709473 L 18.73714065551758 24.12485313415527 L 17.93714141845703 24.12485313415527 L 1.350000381469727 24.12485313415527 L 0.5500011444091797 24.12485313415527 L 0.5500011444091797 23.32485389709473 L 0.5500011444091797 9.847804069519043 L 0.5500011444091797 9.04780387878418 L 1.350000381469727 9.04780387878418 L 3.203941345214844 9.04780387878418 L 3.203941345214844 7.593975067138672 C 3.109233856201172 5.240636825561523 4.30545711517334 3.03094482421875 6.328930854797363 1.823734283447266 C 7.322951316833496 1.230693817138672 8.460170745849609 0.9172344207763672 9.617650985717773 0.9172344207763672 Z M 14.07889080047607 9.04780387878418 L 14.07889080047607 7.577434539794922 C 14.07889080047607 5.120363235473633 12.07991027832031 3.121383666992188 9.622840881347656 3.121383666992188 C 7.164891242980957 3.121383666992188 5.161260604858398 5.121063232421875 5.156420707702637 7.579013824462891 L 5.156420707702637 9.04780387878418 L 14.07889080047607 9.04780387878418 Z M 16.77430152893066 11.01064395904541 L 2.502481460571289 11.01064395904541 L 2.502481460571289 22.14127349853516 L 16.77430152893066 22.14127349853516 L 16.77430152893066 11.01064395904541 Z"/></g></g><g class="e" transform="matrix(1, 0, 0, 1, -2.3, -1.3)"><path class="b" d="M10.619,15.435a1.244,1.244,0,0,1-1.037,1.223v3.784H9.116V16.658a1.254,1.254,0,1,1,1.5-1.223Z" transform="translate(1.2 0.04)"/></g></g></g></svg>