<?xml version="1.0" standalone="no"?>
<!DOCTYPE svg PUBLIC "-//W3C//DTD SVG 20010904//EN"
 "http://www.w3.org/TR/2001/REC-SVG-20010904/DTD/svg10.dtd">
<svg version="1.0" xmlns="http://www.w3.org/2000/svg"
 width="46.000000pt" height="64.000000pt" viewBox="0 0 46.000000 64.000000"
 preserveAspectRatio="xMidYMid meet">

<g transform="translate(0.000000,64.000000) scale(0.100000,-0.100000)"
fill="#000000" stroke="none">
<path d="M160 622 c-61 -32 -71 -66 -68 -229 l3 -142 30 -31 c44 -46 93 -57
151 -35 74 28 84 53 84 220 0 123 -3 144 -20 173 -36 58 -116 78 -180 44z
m109 -36 c42 -22 51 -55 51 -182 0 -134 -11 -166 -63 -183 -40 -13 -72 -4
-102 29 -18 20 -20 36 -20 149 0 136 9 170 49 189 30 15 53 14 85 -2z"/>
<path d="M5 309 c-11 -16 4 -80 27 -117 26 -43 91 -90 134 -98 30 -5 34 -10
34 -38 0 -40 14 -61 34 -53 11 4 16 19 16 45 0 36 2 38 45 50 82 22 163 124
153 193 -5 41 -29 27 -47 -29 -22 -63 -44 -89 -96 -113 -53 -24 -109 -24 -162
2 -51 25 -78 59 -94 122 -11 45 -30 60 -44 36z"/>
</g>
</svg>
