<?xml version="1.0" standalone="no"?>
<!DOCTYPE svg PUBLIC "-//W3C//DTD SVG 20010904//EN"
 "http://www.w3.org/TR/2001/REC-SVG-20010904/DTD/svg10.dtd">
<svg version="1.0" xmlns="http://www.w3.org/2000/svg"
 width="46.000000pt" height="67.000000pt" viewBox="0 0 46.000000 67.000000"
 preserveAspectRatio="xMidYMid meet">

<g transform="translate(0.000000,67.000000) scale(0.100000,-0.100000)"
fill="#000000" stroke="none">
<path d="M25 645 l-25 -24 0 -284 c0 -266 1 -286 19 -308 19 -24 22 -24 206
-24 184 0 187 0 206 24 18 22 19 42 19 308 l0 284 -25 24 c-24 25 -27 25 -200
25 -173 0 -176 0 -200 -25z m374 -29 c8 -9 11 -81 9 -237 l-3 -224 -180 0
-180 0 -3 224 c-2 156 1 228 9 237 9 11 48 14 174 14 126 0 165 -3 174 -14z
m11 -525 c0 -45 -22 -51 -185 -51 -163 0 -185 6 -185 51 0 18 9 19 185 19 176
0 185 -1 185 -19z"/>
<path d="M96 478 c-17 -24 -20 -46 -10 -72 13 -35 44 -11 44 35 0 14 7 19 29
19 27 0 47 20 34 34 -4 3 -23 6 -44 6 -28 0 -42 -6 -53 -22z"/>
<path d="M258 494 c-14 -13 6 -34 33 -34 22 0 29 -5 29 -19 0 -53 35 -71 46
-24 11 44 -14 77 -62 81 -22 2 -43 0 -46 -4z"/>
<path d="M87 324 c-10 -11 -9 -52 3 -74 13 -24 75 -37 95 -20 20 17 2 40 -31
40 -17 0 -23 6 -26 27 -3 27 -26 41 -41 27z"/>
<path d="M327 324 c-4 -4 -7 -18 -7 -31 0 -18 -6 -23 -24 -23 -33 0 -51 -23
-31 -40 21 -17 82 -4 95 21 22 41 -5 100 -33 73z"/>
</g>
</svg>
