<?xml version="1.0" standalone="no"?>
<!DOCTYPE svg PUBLIC "-//W3C//DTD SVG 20010904//EN"
 "http://www.w3.org/TR/2001/REC-SVG-20010904/DTD/svg10.dtd">
<svg version="1.0" xmlns="http://www.w3.org/2000/svg"
 width="72.000000pt" height="67.000000pt" viewBox="0 0 72.000000 67.000000"
 preserveAspectRatio="xMidYMid meet">

<g transform="translate(0.000000,67.000000) scale(0.100000,-0.100000)"
fill="#000000" stroke="none">
<path d="M630 647 c0 -19 -6 -26 -22 -29 -31 -4 -35 -28 -4 -28 20 0 25 -6 28
-27 4 -34 22 -33 26 2 3 19 9 25 28 25 31 0 27 24 -4 28 -12 2 -22 12 -24 24
-4 31 -28 35 -28 5z"/>
<path d="M208 505 l-23 -34 -90 -3 -90 -3 0 -225 0 -225 320 0 320 0 3 219 c2
169 -1 221 -10 228 -7 4 -50 8 -95 8 l-81 0 -21 35 -20 35 -96 0 -95 0 -22
-35z m216 -30 l19 -35 89 0 88 0 0 -65 0 -65 -93 0 c-81 0 -96 3 -112 20 -43
47 -137 48 -180 0 -16 -17 -31 -20 -112 -20 l-93 0 0 65 0 65 88 0 87 0 19 35
19 35 81 0 81 0 19 -35z m-87 -141 c-3 -3 -12 -4 -19 -1 -8 3 -5 6 6 6 11 1
17 -2 13 -5z m-52 -16 c-22 -12 -36 -32 -47 -63 -6 -19 -6 -19 -7 1 -1 23 41
74 61 74 7 0 4 -6 -7 -12z m110 -14 c56 -61 11 -164 -72 -164 -39 0 -93 45
-93 77 1 11 6 6 15 -14 38 -88 165 -61 165 36 0 32 -6 44 -31 65 -17 14 -25
26 -19 26 6 0 22 -12 35 -26z m-37 -20 c42 -29 18 -104 -34 -104 -49 0 -72 64
-37 102 20 22 42 23 71 2z m-158 -49 c0 -38 6 -52 34 -83 32 -34 38 -37 91
-37 53 0 59 3 91 37 28 31 34 45 34 83 l0 45 85 0 85 0 0 -120 0 -120 -295 0
-295 0 0 120 0 120 85 0 85 0 0 -45z"/>
</g>
</svg>
