<svg xmlns="http://www.w3.org/2000/svg" width="23.604" height="20.653" viewBox="0 0 23.604 20.653">
  <path id="Icon_awesome-camera" data-name="Icon awesome-camera" d="M23.6,7.413V20.69A2.213,2.213,0,0,1,21.391,22.9H2.213A2.213,2.213,0,0,1,0,20.69V7.413A2.213,2.213,0,0,1,2.213,5.2H6.27l.567-1.517A2.21,2.21,0,0,1,8.907,2.25h5.786a2.21,2.21,0,0,1,2.07,1.434L17.334,5.2h4.057A2.213,2.213,0,0,1,23.6,7.413Zm-6.27,6.638A5.532,5.532,0,1,0,11.8,19.584,5.536,5.536,0,0,0,17.334,14.052Zm-1.475,0A4.057,4.057,0,1,1,11.8,9.995,4.063,4.063,0,0,1,15.859,14.052Z" transform="translate(0 -2.25)" fill="#562AD5"/>
</svg>
