<svg xmlns="http://www.w3.org/2000/svg" width="26" height="26" viewBox="0 0 26 26"><defs><style>.a{fill:none;}.b{fill:#4895F1;}</style></defs><path class="a" d="M0,0H26V26H0Z"/><path class="b" d="M12.667,20.5a2.167,2.167,0,1,0,2.167,2.167A2.173,2.173,0,0,0,12.667,20.5ZM6.167,1A2.167,2.167,0,1,0,8.333,3.167,2.173,2.173,0,0,0,6.167,1Zm0,6.5A2.167,2.167,0,1,0,8.333,9.667,2.173,2.173,0,0,0,6.167,7.5Zm0,6.5a2.167,2.167,0,1,0,2.167,2.167A2.173,2.173,0,0,0,6.167,14Zm13-8.667A2.167,2.167,0,1,0,17,3.167,2.173,2.173,0,0,0,19.167,5.333ZM12.667,14a2.167,2.167,0,1,0,2.167,2.167A2.173,2.173,0,0,0,12.667,14Zm6.5,0a2.167,2.167,0,1,0,2.167,2.167A2.173,2.173,0,0,0,19.167,14Zm0-6.5a2.167,2.167,0,1,0,2.167,2.167A2.173,2.173,0,0,0,19.167,7.5Zm-6.5,0a2.167,2.167,0,1,0,2.167,2.167A2.173,2.173,0,0,0,12.667,7.5Zm0-6.5a2.167,2.167,0,1,0,2.167,2.167A2.173,2.173,0,0,0,12.667,1Z" transform="translate(0.333 0.083)"/></svg>