<svg xmlns="http://www.w3.org/2000/svg" width="24" height="24" viewBox="0 0 24 24"><defs><style>.a{fill:none;}.b{fill:#4895F1;}.c{fill:#ff715b;}</style></defs><path class="a" d="M0,0H24V24H0Z"/><g transform="translate(-1365.799 -9315.524)"><path class="b" d="M63.546,18.693a.475.475,0,0,1-.242-.065,11.9,11.9,0,0,0-11.7,0,.522.522,0,0,1-.714-.22.564.564,0,0,1,.21-.742,12.942,12.942,0,0,1,12.692-.009.545.545,0,0,1,.22.731A.514.514,0,0,1,63.546,18.693ZM48.512,24.42a.533.533,0,0,1-.3-.1.557.557,0,0,1-.126-.764,10.993,10.993,0,0,1,3.94-3.567,11.734,11.734,0,0,1,10.832-.011,11.035,11.035,0,0,1,3.94,3.545.559.559,0,0,1-.126.764.512.512,0,0,1-.735-.131,9.978,9.978,0,0,0-3.562-3.207,10.707,10.707,0,0,0-9.876.011,10.1,10.1,0,0,0-3.572,3.227A.455.455,0,0,1,48.512,24.42Zm6.566,13.168a.485.485,0,0,1-.368-.164A11.026,11.026,0,0,1,52.6,34.543a9.955,9.955,0,0,1-1.1-4.734,5.948,5.948,0,0,1,11.9,0,.525.525,0,1,1-1.05,0,4.9,4.9,0,0,0-9.794,0,8.809,8.809,0,0,0,.977,4.2,10.327,10.327,0,0,0,1.944,2.64.576.576,0,0,1,0,.773A.565.565,0,0,1,55.078,37.588Zm7.534-2.018a5.507,5.507,0,0,1-3.257-.971,5.868,5.868,0,0,1-2.5-4.789.526.526,0,1,1,1.051,0,4.74,4.74,0,0,0,2.038,3.883,4.482,4.482,0,0,0,2.669.773,6.7,6.7,0,0,0,1.091-.109.526.526,0,0,1,.609.447.542.542,0,0,1-.43.633,6.922,6.922,0,0,1-1.27.131ZM60.5,37.815a.591.591,0,0,1-.136-.022,8.24,8.24,0,0,1-6.189-7.985,3.236,3.236,0,0,1,6.472,0,2.186,2.186,0,0,0,4.371,0,7.539,7.539,0,0,0-7.617-7.45,7.643,7.643,0,0,0-6.944,4.4,7.256,7.256,0,0,0-.62,3.054,11.21,11.21,0,0,0,.7,3.938.538.538,0,0,1-.3.7.515.515,0,0,1-.672-.318,12.562,12.562,0,0,1-.767-4.318,8.457,8.457,0,0,1,.714-3.534A8.686,8.686,0,0,1,66.067,29.8a3.236,3.236,0,0,1-6.472,0,2.186,2.186,0,0,0-4.37,0,7.008,7.008,0,0,0,1.965,4.92,7.107,7.107,0,0,0,3.436,2.018.544.544,0,0,1,.368.665A.518.518,0,0,1,60.5,37.815Z" transform="translate(1320.696 9301.001)"/><path class="c" d="M54.662,36.649a.484.484,0,0,1-.368-.164A11.026,11.026,0,0,1,52.182,33.6a9.955,9.955,0,0,1-1.1-4.734,5.948,5.948,0,0,1,11.9,0,.525.525,0,1,1-1.05,0,4.9,4.9,0,0,0-9.794,0,8.809,8.809,0,0,0,.977,4.2,10.327,10.327,0,0,0,1.944,2.64.576.576,0,0,1,0,.773A.565.565,0,0,1,54.662,36.649ZM62.2,34.631a5.507,5.507,0,0,1-3.257-.971,5.868,5.868,0,0,1-2.5-4.789.526.526,0,1,1,1.051,0,4.74,4.74,0,0,0,2.038,3.883,4.482,4.482,0,0,0,2.669.773,6.7,6.7,0,0,0,1.091-.109.525.525,0,0,1,.609.447.542.542,0,0,1-.43.633,6.921,6.921,0,0,1-1.27.131Z" transform="translate(1321.112 9301.94)"/></g></svg>