<svg xmlns="http://www.w3.org/2000/svg" xmlns:xlink="http://www.w3.org/1999/xlink" width="134.22" height="53.501" viewBox="0 0 134.22 53.501"><defs><linearGradient id="a" y1="0.5" x2="1" y2="0.5" gradientUnits="objectBoundingBox"><stop offset="0" stop-color="#e5c6d6"/><stop offset="0.42" stop-color="#ead4d0"/><stop offset="1" stop-color="#f0e9cb"/></linearGradient><linearGradient id="b" x1="0" y1="0.5" x2="1" y2="0.5" xlink:href="#a"/><linearGradient id="c" x1="0.524" y1="-0.483" x2="0.475" y2="2.402" gradientUnits="objectBoundingBox"><stop offset="0" stop-color="#010101" stop-opacity="0"/><stop offset="0.95" stop-color="#010101"/></linearGradient><linearGradient id="d" x1="0.464" y1="-0.129" x2="0.52" y2="0.833" xlink:href="#c"/><linearGradient id="e" x1="0.38" y1="1.26" x2="0.754" y2="-0.922" xlink:href="#c"/><linearGradient id="f" x1="-0.784" y1="0.907" x2="3.646" y2="-0.467" xlink:href="#c"/><linearGradient id="g" x1="-1.657" y1="0.019" x2="6.616" y2="1.846" xlink:href="#c"/><linearGradient id="h" x1="0" y1="0.5" x2="1.001" y2="0.5" xlink:href="#a"/><linearGradient id="i" x1="0.414" y1="1.384" x2="1.147" y2="-7.192" xlink:href="#c"/><linearGradient id="j" x1="0.582" y1="-0.514" x2="1.606" y2="-0.514" xlink:href="#a"/><linearGradient id="k" x1="0.499" y1="1.326" x2="0.51" y2="-2.634" xlink:href="#c"/><linearGradient id="l" x1="0.055" y1="1.008" x2="2.485" y2="-1.875" xlink:href="#c"/><linearGradient id="m" x1="0" y1="0.5" x2="1" y2="0.5" xlink:href="#a"/><linearGradient id="n" x1="-0.084" y1="-1.434" x2="1.057" y2="2.487" xlink:href="#c"/><linearGradient id="o" x1="0.51" y1="-0.388" x2="0.45" y2="3.441" xlink:href="#c"/><linearGradient id="p" x1="0.423" y1="0.858" x2="0.72" y2="-0.246" xlink:href="#c"/><linearGradient id="q" x1="0.292" y1="1.069" x2="1.215" y2="-2.269" xlink:href="#c"/><linearGradient id="r" x1="0.497" y1="0.699" x2="0.824" y2="-2.957" xlink:href="#c"/><linearGradient id="s" x1="0.503" y1="0.86" x2="0.152" y2="-3.987" xlink:href="#c"/></defs><g transform="translate(-4.004 -0.022)"><path d="M146.7,165.054c-2.408,5.127.744,8.8-4.521,10.906-2.718,1.057.463,1.833-2.413,2.317-2.7.484-5.453.8-8.19,1.073-4.378.439-8.777.8-13.164,1.1-.608.047-1.2.094-1.812.131h0c-7.573.5-15.145.8-22.736.991h-.054c-.5,0-1,.028-1.5.038q-10.756.235-21.52.223-7.328,0-14.64-.047c-3.549-.019-7.1-.038-10.655-.139a122.5,122.5,0,0,1-21.718-2.26c-1.392-.279-2.775-.617-4.155-.981-3.829-1.016,1.324-2.408-1.7-4.986s-5.115-6.54-4.556-10.467c.514-3.622,3.131-6.636,6.089-8.786s4.338-9.678,7.335-11.76c5.744-3.951,2.955-3.749,8.408-8.084,4.331-3.455,10.354-6.22,16-5.033,5.324,1.12,9.889,4.826,15.258,5.882,7.042,1.38,13.809-2.784,20.657-4.951a38.175,38.175,0,0,1,26.405,1.383c7.814,3.4,9.481,9.422,17.753,11.476,7.638,1.894,4.807.568,10.354,6.143C145.609,153.243,149.125,159.918,146.7,165.054Z" transform="translate(-9.27 -128.48)" fill="#fff" opacity="0.7"/><path d="M263.68,326.575c-1.43.1-2.753.054-4.19.066.085-1.11.444-6.054.526-7.164a1.816,1.816,0,0,1,.458-1.3,1.6,1.6,0,0,1,.751-.3,4.932,4.932,0,0,1,1.833-.108c.469.108.453.519.469.925C263.6,320.024,263.389,325.279,263.68,326.575Z" transform="translate(-199.578 -273.28)" fill="url(#a)"/><path d="M187.186,320.64l-.136,8.065,3.7.185s-.056-6.274-1.237-7.185A5.467,5.467,0,0,0,187.186,320.64Z" transform="translate(-144.142 -275.517)" fill="url(#b)"/><path d="M204.167,222.372a13.629,13.629,0,0,0-.446,4.674,69.2,69.2,0,0,1-.2,7.676,19.2,19.2,0,0,0-.16,4.115,4.939,4.939,0,0,0,1.878,3.521,5.948,5.948,0,0,0,2.76.85,27.671,27.671,0,0,0,2.974.124,12.138,12.138,0,0,0,3.169-.305,4.636,4.636,0,0,0,2.627-1.7,6.526,6.526,0,0,0,.915-2.777,44.794,44.794,0,0,0,.023-13.819,6.807,6.807,0,0,0-.441-1.742,7.4,7.4,0,0,0-1.523-2.021,6.625,6.625,0,0,0-2.054-1.643,5.751,5.751,0,0,0-2.042-.392C208.587,218.767,205.312,219.035,204.167,222.372Z" transform="translate(-156.576 -197.654)" fill="#ffe368"/><path d="M220.912,250.634l-.315.667a5.847,5.847,0,0,1-.08-1.718l.113-2.124a11.36,11.36,0,0,0-.08-2.782,3.808,3.808,0,0,0-1.361-2.361,5.682,5.682,0,0,0-3.441-.737,3.976,3.976,0,0,0-4.345,2.1,5.848,5.848,0,0,0-.878,1.725,5.43,5.43,0,0,0-.129,1.31,26.025,26.025,0,0,1-.533,6.706,13.638,13.638,0,0,0-.556,2.15.509.509,0,0,0,.066.369.519.519,0,0,0,.284.141,22.716,22.716,0,0,0,2.582.432l4.636.6a5.068,5.068,0,0,0,1.552.042c.354-.061.7-.2,1.049-.263,1.174-.214,1.8-.838,1.624-2.047a27.094,27.094,0,0,1-.188-4.2Z" transform="translate(-161.167 -215.013)" fill="url(#c)"/><path d="M192.428,294.316a8.685,8.685,0,0,0-5.868,5.4c1.484.939,3.127,2.134,3.246,3.887a39.787,39.787,0,0,0,.2,4.413.664.664,0,0,0,.364.087q6.993.289,13.988-.021c.028-.939.054-5.706.08-6.652a.854.854,0,0,1,.077-.4.826.826,0,0,1,.376-.3,21.029,21.029,0,0,1,3.1-1.277,13.394,13.394,0,0,0-1.744-3.192c-.671-.911-4.206-2.871-10.049-2.8A15.361,15.361,0,0,0,192.428,294.316Z" transform="translate(-143.767 -254.718)" fill="#68e1fd"/><path d="M109.038,316.937a122.5,122.5,0,0,1-21.718-2.26c.176-1.174.214-2.361.392-3.521a6.025,6.025,0,0,1,2.026-3.99c1.336-.991,3.073-1.019,4.584-1.587,1.587-.589,3.521-.113,5.2,0,2.1.138,4.321.326,6.021,1.559a7.448,7.448,0,0,1,2.493,3.5,18.207,18.207,0,0,1,.869,4.265C108.925,314.994,109.019,316.207,109.038,316.937Z" transform="translate(-67.822 -263.77)" fill="#68e1fd"/><path d="M95.43,244.57a6.638,6.638,0,0,1-3.887-.972,4.325,4.325,0,0,1-.819-.636,6.647,6.647,0,0,1-.758-.993l-1.408-2.113a4.612,4.612,0,0,1-.725-1.408,1.559,1.559,0,0,1,.34-1.488,6.2,6.2,0,0,1,.146-4.378,14.388,14.388,0,0,1,1.805-2.026c.685-.829,1.122-1.925,2.068-2.437,1.035-.559,2.3-.218,3.472-.141,2.089.134,4.211-.622,6.253-.157a3.974,3.974,0,0,1,1.376.577c1,.685,1.5,1.878,2.3,2.782s1.939,1.643,2.164,2.817c.235,1.246-.662,2.418-.812,3.678-.087.716.075,1.446-.04,2.157a3.5,3.5,0,0,1-2.5,2.629,5.31,5.31,0,0,0-2.232.824c-.488.469-.7,1.249-1.343,1.476a1.963,1.963,0,0,1-.777.054A38.171,38.171,0,0,0,95.43,244.57Z" transform="translate(-68.165 -204.369)" fill="#606161"/><path d="M95.43,244.57a6.638,6.638,0,0,1-3.887-.972,4.325,4.325,0,0,1-.819-.636,6.647,6.647,0,0,1-.758-.993l-1.408-2.113a4.612,4.612,0,0,1-.725-1.408,1.559,1.559,0,0,1,.34-1.488,6.2,6.2,0,0,1,.146-4.378,14.388,14.388,0,0,1,1.805-2.026c.685-.829,1.122-1.925,2.068-2.437,1.035-.559,2.3-.218,3.472-.141,2.089.134,4.211-.622,6.253-.157a3.974,3.974,0,0,1,1.376.577c1,.685,1.5,1.878,2.3,2.782s1.939,1.643,2.164,2.817c.235,1.246-.662,2.418-.812,3.678-.087.716.075,1.446-.04,2.157a3.5,3.5,0,0,1-2.5,2.629,5.31,5.31,0,0,0-2.232.824c-.488.469-.7,1.249-1.343,1.476a1.963,1.963,0,0,1-.777.054A38.171,38.171,0,0,0,95.43,244.57Z" transform="translate(-68.165 -204.369)" fill="url(#d)"/><path d="M120.708,293.6a2.974,2.974,0,0,0-.31.829,1.664,1.664,0,0,0,.216,1.016,2.627,2.627,0,0,0,2.124,1.305,3.326,3.326,0,0,0,2.378-.871,1.6,1.6,0,0,0,.563-.873,2.347,2.347,0,0,0-.1-.9,7.9,7.9,0,0,1-.2-1.85,2.807,2.807,0,0,0-.192-1.408,1.887,1.887,0,0,0-1.34-.775c-.73-.141-2.077-.359-2.326.573A16.538,16.538,0,0,1,120.708,293.6Z" transform="translate(-93.128 -252.028)" fill="#775339"/><path d="M122.231,293.6a.651.651,0,0,0,.049.143,2.741,2.741,0,0,0,.6.73,1.514,1.514,0,0,0,1.082.31,2.817,2.817,0,0,0,1.784-.829c.744-.728,1.441-2.061.85-3.077a1.887,1.887,0,0,0-1.34-.775c-.73-.141-2.077-.359-2.326.573-.2.758-.312,1.54-.559,2.286A1.216,1.216,0,0,0,122.231,293.6Z" transform="translate(-94.529 -252.05)" fill="url(#e)"/><path d="M108.272,269.648a.6.6,0,0,0-.725.1.648.648,0,0,0-.085.254,2.138,2.138,0,0,0,1.016,2.209.469.469,0,0,0,.251.07c.207-.019.315-.251.357-.453A1.736,1.736,0,0,0,108.272,269.648Z" transform="translate(-83.215 -236.437)" fill="#775339"/><path d="M149.592,270.332a1.188,1.188,0,0,1,.31-.338.415.415,0,0,1,.437-.031.62.62,0,0,1,.211.425,1.227,1.227,0,0,1-.077.915.979.979,0,0,1-.369.3.592.592,0,0,1-.451.087.559.559,0,0,1-.293-.31.674.674,0,0,1-.08-.275A1.709,1.709,0,0,1,149.592,270.332Z" transform="translate(-115.238 -236.699)" fill="#775339"/><path d="M111.332,255.692a5.328,5.328,0,0,0,3.176,3.075,4.221,4.221,0,0,0,4.124-1.589,7.468,7.468,0,0,0,1.425-4.366,6.059,6.059,0,0,0-1.627-4.854,4.676,4.676,0,0,0-3.185-1.089,7.235,7.235,0,0,0-3.286.967C109.041,249.427,110.158,253.263,111.332,255.692Z" transform="translate(-85.259 -219.059)" fill="#775339"/><path d="M110.382,249.826s-1.122-2.838,2.094-5.251,6.753.538,7.291,2.681.371,2.6.371,2.6-1.087-3.645-4.007-3.7S111.65,247.383,110.382,249.826Z" transform="translate(-85.326 -216.616)" fill="#68e1fd"/><path d="M109.539,273.172a1.7,1.7,0,0,0,0-.345c-.023-.11-.089-.235-.2-.246a.221.221,0,0,0-.2.16.47.47,0,0,0,0,.27,3.466,3.466,0,0,0,.235.634c.045.1.1.207.2.235a.218.218,0,0,0,.268-.277C109.793,273.446,109.558,273.42,109.539,273.172Z" transform="translate(-84.501 -238.738)" fill="url(#f)"/><path d="M152.574,271.975a.258.258,0,0,1,0-.2.279.279,0,0,1,.171-.11.4.4,0,0,1,.031.183v.42a.559.559,0,0,1-.023.188.319.319,0,0,1-.176.19c-.068.031-.167.023-.2-.047-.054-.122.077-.218.153-.284C152.642,272.209,152.62,272.118,152.574,271.975Z" transform="translate(-117.6 -238.034)" fill="url(#g)"/><path d="M220.61,275.855a5.1,5.1,0,0,0-.7,3.169,2.748,2.748,0,0,0,2.671,1.981,3.668,3.668,0,0,0,2.972-1.739,2.608,2.608,0,0,0,.469-1.9c-.1-.469-.366-.873-.469-1.331-.235-.955.235-2.012-.129-2.925a2.665,2.665,0,0,0-1.84-1.408,2.594,2.594,0,0,0-1.408-.045c-.857.261-.991.88-.939,1.643A5.655,5.655,0,0,1,220.61,275.855Z" transform="translate(-169.233 -237.976)" fill="url(#h)"/><path d="M225.757,280.374a2.486,2.486,0,0,0,1.439,1,1.676,1.676,0,0,0,1.7-.406,2.843,2.843,0,0,0,.939-2.113,1.174,1.174,0,0,0-.235-.763,1.191,1.191,0,0,0-.512-.307,3.627,3.627,0,0,0-3.11.373A1.5,1.5,0,0,0,225.757,280.374Z" transform="translate(-173.471 -242.572)" fill="url(#i)"/><path d="M213.62,243.757a5.388,5.388,0,0,0,2.927,2.6,4.014,4.014,0,0,0,4.108-1.188,6.952,6.952,0,0,0,1.04-1.714,10.607,10.607,0,0,0,1.108-4.225,5.439,5.439,0,0,0-1.467-3.976,5.321,5.321,0,0,0-2.744-1.326,5.789,5.789,0,0,0-3.958.57,3.934,3.934,0,0,0-2.063,3.962A9.594,9.594,0,0,0,213.62,243.757Z" transform="translate(-163.663 -209.07)" fill="url(#j)"/><path d="M209.843,234.754a.408.408,0,0,0,.047.235.444.444,0,0,0,.38.136,17.769,17.769,0,0,0,2.317-.113,6.6,6.6,0,0,0,.183-1.422,4.034,4.034,0,0,1,.277,1.263,29.555,29.555,0,0,1,3.472-.1,2.645,2.645,0,0,1-.108-1.324,3.2,3.2,0,0,0,.338,1.2.453.453,0,0,0,.155.2.542.542,0,0,0,.451-.021,5.427,5.427,0,0,1,2.512-.216l.045-.554a5.03,5.03,0,0,1,.415.951,1.437,1.437,0,0,1,1.1-.249l-.322-1.925a2.951,2.951,0,0,0-1.38-2.371,9.288,9.288,0,0,0-1.606-1.129,5.4,5.4,0,0,0-3.216-.469,7.69,7.69,0,0,0-3.052,1.214,3.127,3.127,0,0,0-.89.793,4.854,4.854,0,0,0-.387,1.042A7.22,7.22,0,0,0,209.843,234.754Z" transform="translate(-161.583 -205.214)" fill="#ffe368"/><path d="M408.257,323.375c-7.573.5-15.154.8-22.746.991a.157.157,0,0,1-.063-.066.47.47,0,0,1-.047-.207,21.828,21.828,0,0,1,.261-3.735,5.989,5.989,0,0,1,.746-2.305,3.367,3.367,0,0,1,2.232-1.577c.915-.038,1.878.185,2.817.176,1.122,0,2.242-.1,3.361-.214,2.2-.216,4.39-.561,6.6-.692a9.156,9.156,0,0,0,2.66-.383,1.909,1.909,0,0,1,1.242-.223,1.643,1.643,0,0,1,.448.261,4.464,4.464,0,0,1,2.195,3.8A20.107,20.107,0,0,1,408.257,323.375Z" transform="translate(-295.931 -271.273)" fill="#68e1fd"/><path d="M408.214,323.441c-7.573.5-15.145.8-22.736.991h-.054s-.019,0-.028-.028a.4.4,0,0,1-.038-.207,21.831,21.831,0,0,1,.251-3.735,5.89,5.89,0,0,1,.756-2.314,3.308,3.308,0,0,1,2.223-1.57c.915-.045,1.878.178,2.817.169,1.122,0,2.242-.094,3.361-.2,2.2-.235,4.4-.561,6.6-.7a9.438,9.438,0,0,0,2.66-.383,1.989,1.989,0,0,1,1.242-.235,1.677,1.677,0,0,1,.448.27,5.8,5.8,0,0,1,1.523,1.483,5.968,5.968,0,0,1,.681,2.307A21.416,21.416,0,0,1,408.214,323.441Z" transform="translate(-295.897 -271.339)" fill="url(#k)"/><path d="M402.678,241.183a12.227,12.227,0,0,0-2.307,11.213,5.086,5.086,0,0,1,.406,2.613c-.251,1.035-1.228,1.707-1.857,2.568a.6.6,0,0,0-.15.4c.021.188.2.312.371.4a3.78,3.78,0,0,0,1.451.4,5.168,5.168,0,0,1,1.35.127,3.624,3.624,0,0,1,.96.6,19.142,19.142,0,0,0,4.49,2.26,4.066,4.066,0,0,0,1.742.408,3.231,3.231,0,0,0,1.329-.451,8.3,8.3,0,0,0,3.669-4.113.977.977,0,0,1,.34-.512c.286-.169.669,0,.974-.124.519-.223.338-1.038-.08-1.408s-1.007-.622-1.211-1.146c-.251-.648.209-1.326.486-1.962a7.592,7.592,0,0,0,.275-3.824c-.293-2.8-.793-5.835-2.873-7.732a10.35,10.35,0,0,0-2.918-1.723c-1.091-.469-2.486-.939-3.613-.331A10.347,10.347,0,0,0,402.678,241.183Z" transform="translate(-306.164 -212.696)" fill="#68e1fd"/><path d="M409.724,270.413a5.934,5.934,0,0,1,1.026-6.573,4.208,4.208,0,0,0-1.58,2.453,13.24,13.24,0,0,0-.2,2.57,7.6,7.6,0,0,0,1.8,5.047l.329-.547a24.564,24.564,0,0,0,3.542,3.911,1.3,1.3,0,0,1,.366.434,1.622,1.622,0,0,1,.07.6,3.354,3.354,0,0,0,.789,2.113.629.629,0,0,0,.282.214.652.652,0,0,0,.347-.028,6.547,6.547,0,0,0,3.415-2.347,6.824,6.824,0,0,1-3.009,1.073,1.193,1.193,0,0,1-.681-.07.986.986,0,0,1-.437-.6,2.563,2.563,0,0,1,.235-1.939,7.614,7.614,0,0,1,1.2-1.6l1.136-1.26a3.6,3.6,0,0,0,.512-.667,4.588,4.588,0,0,0,.324-.939c.235-.822.582-1.608.831-2.425a4.916,4.916,0,0,0,.2-2.528,2.44,2.44,0,0,0-1.615-1.833,3.73,3.73,0,0,0-1.061-.082l-3.411.052a3.971,3.971,0,0,0-1.441.2,6.755,6.755,0,0,0-2.211,1.941,2.171,2.171,0,0,0-.394,1.023C409.994,268.964,409.583,270.079,409.724,270.413Z" transform="translate(-313.966 -232.049)" fill="url(#l)"/><path d="M418.741,261.32a1.07,1.07,0,0,1,.549-.141,1.265,1.265,0,0,1,.566.277c1.2.824,2.8,1.263,3.462,2.561a4.6,4.6,0,0,1,.284,2.5,9.932,9.932,0,0,1-.974,3.875,4.329,4.329,0,0,1-3.08,2.347,4.508,4.508,0,0,1-4.284-2.5c-.73-1.317-1.6-3.929-.725-5.338A10.354,10.354,0,0,1,418.741,261.32Z" transform="translate(-317.949 -230.013)" fill="url(#m)"/><path d="M439.269,247.09c.291.221,1.678,1.716,2.012,1.878s.57-5.683-3.756-7.573c-.3-.129-.676-.282-.89-.038a.8.8,0,0,0-.049.7,9.862,9.862,0,0,1,.223,1.946,4.039,4.039,0,0,0,.092,1.643C437.321,246.4,438.6,246.588,439.269,247.09Z" transform="translate(-335.06 -214.745)" fill="url(#n)"/><path d="M309.12,309.022q-10.755.235-21.52.223c.045-1.606.129-3.688.392-5.742a6.5,6.5,0,0,1,3.08-4.695c.15-.085.31-.188.345-.354a.756.756,0,0,0-.073-.345,1.326,1.326,0,0,1,1.307-1.624,1.732,1.732,0,0,1,1.512-1.458c1.521-.235,2.894.915,4.46.831.878-.038,1.746-.214,2.624-.169a10.34,10.34,0,0,1,2.232.42,2.253,2.253,0,0,1,.784.338,2.354,2.354,0,0,1,.549,2.113,5.254,5.254,0,0,1,3.437,3.145,15.518,15.518,0,0,1,1,4.695C309.252,306.5,309.186,307.853,309.12,309.022Z" transform="translate(-221.089 -255.891)" fill="#68e1fd"/><path d="M315.383,299.076c-.207-.307-.387-.742-.141-1.019a.9.9,0,0,1,.777-.171l6.744.624a.737.737,0,0,1,.458.153.535.535,0,0,1-.045.7,3.854,3.854,0,0,1-.606.469c-.413.329-.671.845-1.146,1.077a2.347,2.347,0,0,1-1.021.157h-2.42a1.664,1.664,0,0,1-1.408-.491C316.179,300.093,315.74,299.6,315.383,299.076Z" transform="translate(-242.152 -258.094)" fill="url(#o)"/><path d="M307.132,233.386a8.415,8.415,0,0,0,.3-.878,11.149,11.149,0,0,0,.035-2.31,2.134,2.134,0,0,1,.979-1.967,4.252,4.252,0,0,1,2.035-.026c1.307.063,2.582-.62,3.878-.519a3.326,3.326,0,0,1,2.467,1.437,7.56,7.56,0,0,0,1.23,1.894c.181.146.39.254.577.39a3.052,3.052,0,0,1,1.089,1.826,9.154,9.154,0,0,1,.124,2.164,4.189,4.189,0,0,1-.646,2.608,3.938,3.938,0,0,1-2.493,1.108,26.858,26.858,0,0,1-7.413.155c-1.228-.146-2.237-.469-2.486-1.77A7.857,7.857,0,0,1,307.132,233.386Z" transform="translate(-235.685 -204.375)" fill="#606161"/><path d="M307.132,233.386a8.415,8.415,0,0,0,.3-.878,11.149,11.149,0,0,0,.035-2.31,2.134,2.134,0,0,1,.979-1.967,4.252,4.252,0,0,1,2.035-.026c1.307.063,2.582-.62,3.878-.519a3.326,3.326,0,0,1,2.467,1.437,7.56,7.56,0,0,0,1.23,1.894c.181.146.39.254.577.39a3.052,3.052,0,0,1,1.089,1.826,9.154,9.154,0,0,1,.124,2.164,4.189,4.189,0,0,1-.646,2.608,3.938,3.938,0,0,1-2.493,1.108,26.858,26.858,0,0,1-7.413.155c-1.228-.146-2.237-.469-2.486-1.77A7.857,7.857,0,0,1,307.132,233.386Z" transform="translate(-235.685 -204.375)" fill="url(#p)"/><path d="M321.628,294.47a.767.767,0,0,0-.12.549.7.7,0,0,0,.209.272,5.131,5.131,0,0,0,2.131,1.378,2.817,2.817,0,0,0,3.185-1.549.958.958,0,0,0,.087-.307,1.556,1.556,0,0,0-.235-.664,4.245,4.245,0,0,1-.19-1.573,2.086,2.086,0,0,0-.486-1.474,1.9,1.9,0,0,0-1.286-.439c-.636-.021-2.483.094-2.77.768a7.759,7.759,0,0,0-.11,1.549A5.236,5.236,0,0,1,321.628,294.47Z" transform="translate(-247.03 -252.574)" fill="#f1b475"/><path d="M323.491,289.556a9.734,9.734,0,0,0,.427,1.312,1.657,1.657,0,0,0,.972.927,2.115,2.115,0,0,0,1.357-.2,4.6,4.6,0,0,0,.838-.423,4.756,4.756,0,0,0,.768-.674,3.144,3.144,0,0,0,.575-.756,1.141,1.141,0,0,0-.439-1.58,3.051,3.051,0,0,0-.817-.324,6.12,6.12,0,0,0-1.908-.235,2.761,2.761,0,0,0-1.669.5A1.472,1.472,0,0,0,323.491,289.556Z" transform="translate(-248.45 -250.235)" fill="url(#q)"/><path d="M306.177,269.312a1.62,1.62,0,0,0,.991,2.57.638.638,0,0,0,.638-.164.6.6,0,0,0,.1-.254,3.2,3.2,0,0,0-.4-1.824C307.264,269.222,306.517,268.854,306.177,269.312Z" transform="translate(-235.054 -236.075)" fill="#f1b475"/><path d="M358.306,266.986c.289.045.453.359.5.646a1.784,1.784,0,0,1-.629,1.678.852.852,0,0,1-.378.185.47.47,0,0,1-.4-.106.688.688,0,0,1-.155-.451,2.292,2.292,0,0,1,.167-1.317C357.587,267.352,357.956,266.934,358.306,266.986Z" transform="translate(-274.375 -234.453)" fill="#f1b475"/><path d="M311.276,253.511a9.177,9.177,0,0,0,1.131,4.793,5.326,5.326,0,0,0,3.99,2.662,7.953,7.953,0,0,0,2.178-.235,5.127,5.127,0,0,0,1.1-.319,4.459,4.459,0,0,0,2.026-2.371,11.152,11.152,0,0,0,.394-7.875c-.146-.451-.392-.953-.857-1.047a1.137,1.137,0,0,0-.559.056c-.7.221-1.31.718-2.012.969a4.94,4.94,0,0,1-2.782,0c-.9-.216-1.805-.547-2.737-.681a1.8,1.8,0,0,0-.831.028C311.025,249.94,311.283,252.461,311.276,253.511Z" transform="translate(-239.195 -220.774)" fill="#f1b475"/><path d="M303.142,315.1a23.07,23.07,0,0,1-3.286-.333,9.106,9.106,0,0,0-1.592-.2,3.843,3.843,0,0,0-3.235,1.878,1.723,1.723,0,0,1,.047-1.8A5.1,5.1,0,0,1,296.4,313.3a1.828,1.828,0,0,1,.6-.362c.859-.246,1.969.838,2.706,1.174A12.038,12.038,0,0,0,303.142,315.1Z" transform="translate(-226.596 -269.598)" fill="url(#r)"/><path d="M340.61,313.457a14.07,14.07,0,0,1,5.955,0,1.157,1.157,0,0,0,.8.054.7.7,0,0,0,.312-.317,1.239,1.239,0,0,0-.084-1.157,2.817,2.817,0,0,0-.847-.847c-.408-.289-1.174-.761-1.7-.526-.4.178-.756.838-1.1,1.141a7.256,7.256,0,0,1-3.326,1.653Z" transform="translate(-261.656 -267.833)" fill="url(#s)"/></g></svg>