<svg xmlns="http://www.w3.org/2000/svg" xmlns:xlink="http://www.w3.org/1999/xlink" width="66.572" height="75.351" viewBox="0 0 66.572 75.351">
  <defs>
    <linearGradient id="linear-gradient" x1="0.5" y1="1" x2="0.5" gradientUnits="objectBoundingBox">
      <stop offset="0" stop-color="#757de8"/>
      <stop offset="1" stop-color="#757de8"/>
    </linearGradient>
    <linearGradient id="linear-gradient-2" x1="0.105" y1="0.856" x2="0.701" y2="0.319" gradientUnits="objectBoundingBox">
      <stop offset="0" stop-color="#fff" stop-opacity="0.4"/>
      <stop offset="0.45" stop-color="#fff"/>
      <stop offset="1" stop-color="#fff" stop-opacity="0.4"/>
    </linearGradient>
    <filter id="Path_3708" x="25.456" y="0" width="41.117" height="41.117" filterUnits="userSpaceOnUse">
      <feOffset dy="3" input="SourceAlpha"/>
      <feGaussianBlur stdDeviation="3" result="blur"/>
      <feFlood flood-opacity="0.09"/>
      <feComposite operator="in" in2="blur"/>
      <feComposite in="SourceGraphic"/>
    </filter>
    <linearGradient id="linear-gradient-3" x1="0.105" y1="0.856" x2="0.701" y2="0.319" gradientUnits="objectBoundingBox">
      <stop offset="0" stop-color="#fff" stop-opacity="0"/>
      <stop offset="0.45" stop-color="#fff"/>
      <stop offset="1" stop-color="#fff" stop-opacity="0"/>
    </linearGradient>
    <filter id="Path_3709" x="31.456" y="1" width="29.117" height="29.117" filterUnits="userSpaceOnUse">
      <feOffset dy="-2" input="SourceAlpha"/>
      <feGaussianBlur stdDeviation="1" result="blur-2"/>
      <feFlood flood-opacity="0.161"/>
      <feComposite operator="in" in2="blur-2"/>
      <feComposite in="SourceGraphic"/>
    </filter>
  </defs>
  <g id="Asset_1" data-name="Asset 1" transform="translate(-13.879 -2)">
    <g id="Layer_2" data-name="Layer 2" transform="translate(6.867 8)">
      <g id="Layer_10" data-name="Layer 10">
        <path id="Path_3707" data-name="Path 3707" d="M76.792,31.117V69.26A8.091,8.091,0,0,1,68.7,77.351H27.091A8.091,8.091,0,0,1,19,69.26V16.091A8.091,8.091,0,0,1,27.091,8H53.675Z" transform="translate(-11.988 -8)" fill="url(#linear-gradient)"/>
        <g id="Path-2" transform="translate(41.468)">
          <g transform="matrix(1, 0, 0, 1, -34.46, -6)" filter="url(#Path_3708)">
            <path id="Path_3708-2" data-name="Path 3708" d="M101.737,31.117H94.322a15.748,15.748,0,0,1-15.7-15.7V8Z" transform="translate(-44.16 -2)" fill="url(#linear-gradient-2)"/>
          </g>
        </g>
        <g id="Path-2-2" data-name="Path-2" transform="translate(41.468)">
          <g transform="matrix(1, 0, 0, 1, -34.46, -6)" filter="url(#Path_3709)">
            <path id="Path_3709-2" data-name="Path 3709" d="M101.737,31.117H94.322a15.748,15.748,0,0,1-15.7-15.7V8Z" transform="translate(-44.16 -2)" fill="url(#linear-gradient-3)"/>
          </g>
        </g>
        <rect id="Rectangle_1698" data-name="Rectangle 1698" width="46.037" height="4.889" rx="1" transform="translate(11.601 35.789)" fill="#fff"/>
        <rect id="Rectangle_1699" data-name="Rectangle 1699" width="32.242" height="4.889" rx="1" transform="translate(11.601 42.58)" fill="#fff"/>
        <rect id="Rectangle_1700" data-name="Rectangle 1700" width="32.242" height="4.889" rx="1" transform="translate(11.601 28.854)" fill="#fff"/>
      </g>
    </g>
  </g>
</svg>
