<svg xmlns="http://www.w3.org/2000/svg" xmlns:xlink="http://www.w3.org/1999/xlink" width="75.573" height="87.351" viewBox="0 0 75.573 87.351"><defs><style>.a{fill:url(#a);}.b{fill:url(#b);}.c{fill:url(#e);}.d,.g,.h{fill:#fff;}.e{fill:url(#j);}.f{fill:url(#k);}.g{opacity:0.27;}.h{opacity:0.9;}.i{filter:url(#h);}.j{filter:url(#f);}.k{filter:url(#c);}</style><linearGradient id="a" x1="0.5" y1="1" x2="0.5" gradientUnits="objectBoundingBox"><stop offset="0" stop-color="#757de8"/><stop offset="1" stop-color="#757de8"/></linearGradient><linearGradient id="b" x1="0.105" y1="0.856" x2="0.701" y2="0.319" gradientUnits="objectBoundingBox"><stop offset="0" stop-color="#fff" stop-opacity="0.4"/><stop offset="0.45" stop-color="#fff"/><stop offset="1" stop-color="#fff" stop-opacity="0.4"/></linearGradient><filter id="c" x="34.456" y="0" width="41.117" height="41.117" filterUnits="userSpaceOnUse"><feOffset dy="3" input="SourceAlpha"/><feGaussianBlur stdDeviation="3" result="d"/><feFlood flood-opacity="0.09"/><feComposite operator="in" in2="d"/><feComposite in="SourceGraphic"/></filter><linearGradient id="e" x1="0.105" y1="0.856" x2="0.701" y2="0.319" gradientUnits="objectBoundingBox"><stop offset="0" stop-color="#fff" stop-opacity="0"/><stop offset="0.45" stop-color="#fff"/><stop offset="1" stop-color="#fff" stop-opacity="0"/></linearGradient><filter id="f" x="40.456" y="1" width="29.117" height="29.117" filterUnits="userSpaceOnUse"><feOffset dy="-2" input="SourceAlpha"/><feGaussianBlur stdDeviation="1" result="g"/><feFlood flood-opacity="0.161"/><feComposite operator="in" in2="g"/><feComposite in="SourceGraphic"/></filter><filter id="h" x="0" y="37.759" width="40.296" height="49.592" filterUnits="userSpaceOnUse"><feOffset dy="3" input="SourceAlpha"/><feGaussianBlur stdDeviation="3" result="i"/><feFlood flood-opacity="0.161"/><feComposite operator="in" in2="i"/><feComposite in="SourceGraphic"/></filter><linearGradient id="j" x1="0.025" y1="0.45" x2="1.017" y2="0.553" gradientUnits="objectBoundingBox"><stop offset="0.18" stop-color="#64dd17"/><stop offset="0.29" stop-color="#51cf11"/><stop offset="0.48" stop-color="#36bb08"/><stop offset="0.65" stop-color="#25ae02"/><stop offset="0.78" stop-color="#1faa00"/></linearGradient><linearGradient id="k" x1="0.023" y1="0.451" x2="1.018" y2="0.554" xlink:href="#j"/></defs><g transform="translate(-4.879 -2)"><g transform="translate(6.867 8)"><path class="a" d="M76.792,31.117V69.26A8.091,8.091,0,0,1,68.7,77.351H27.091A8.091,8.091,0,0,1,19,69.26V16.091A8.091,8.091,0,0,1,27.091,8H53.675Z" transform="translate(-11.988 -8)"/><g transform="translate(41.468)"><g class="k" transform="matrix(1, 0, 0, 1, -43.46, -6)"><path class="b" d="M101.737,31.117H94.322a15.748,15.748,0,0,1-15.7-15.7V8Z" transform="translate(-35.16 -2)"/></g></g><g transform="translate(41.468)"><g class="j" transform="matrix(1, 0, 0, 1, -43.46, -6)"><path class="c" d="M101.737,31.117H94.322a15.748,15.748,0,0,1-15.7-15.7V8Z" transform="translate(-35.16 -2)"/></g></g><rect class="d" width="46.037" height="4.889" rx="1" transform="translate(11.601 43.789)"/><rect class="d" width="32.242" height="4.889" rx="1" transform="translate(11.601 50.58)"/><rect class="d" width="32.242" height="4.889" rx="1" transform="translate(11.601 36.854)"/><g class="i" transform="matrix(1, 0, 0, 1, -1.99, -6)"><path class="d" d="M41.3,81.707c0,.769,0,1.532-.04,2.312v1.924c-.029,1.555-.058,3.1-.081,4.658v.289a19.071,19.071,0,0,1-2.988,8.721,18.568,18.568,0,0,1-5.2,5.317H27.207A8.2,8.2,0,0,1,19,96.738v-19.5a10.472,10.472,0,0,0,3.739-1.589c.249-.185.532-.416.907-.694s.9-.653,1.555-1.115c.1-.069.237-.144.364-.22a2.075,2.075,0,0,1,2.081,0l.277.168L28,73.83c1.277.844,1.942,1.422,2.462,1.809a8.906,8.906,0,0,0,1.058.653l.225.1a10.848,10.848,0,0,0,1.572.578c.353.1.717.208,1.092.306,2.734.74,3.982.341,5.109.977a2.126,2.126,0,0,1,.347.231.717.717,0,0,1,.127.1l.144.133c.069.069.133.133.191.2l.1.116.04.058h0a4.046,4.046,0,0,1,.428.7,3.82,3.82,0,0,1,.208.537h0a4.4,4.4,0,0,1,.168,1.011h0A1.789,1.789,0,0,1,41.3,81.707Z" transform="translate(-10 -29.58)"/></g><path class="e" d="M35.912,82.294q-.075,4.386-.15,8.767a18.881,18.881,0,0,1-2.919,8.917,19.71,19.71,0,0,1-11.368,8.091h-.133A19.494,19.494,0,0,1,9.981,99.978a18.881,18.881,0,0,1-2.89-8.917q-.139-4.375-.2-8.767a4.121,4.121,0,0,1,.387-1.855,3.612,3.612,0,0,1,.9-1.214c1.26-1.092,2.427-.462,5.513-1.3a10.819,10.819,0,0,0,3.889-1.589c.514-.376,1.156-.954,2.433-1.786l.358-.22a2.069,2.069,0,0,1,2.057,0l.272.168.075.046c1.26.832,1.919,1.4,2.433,1.786a8.23,8.23,0,0,0,1.046.641l.22.1a15.153,15.153,0,0,0,2.635.878c2.7.734,3.93.341,5.045.965a2.37,2.37,0,0,1,.341.231.717.717,0,0,1,.127.1.982.982,0,0,1,.139.127c.069.069.133.133.191.2l.139.168h0a4.364,4.364,0,0,1,.422.693,3.717,3.717,0,0,1,.2.532h0a4.259,4.259,0,0,1,.168,1h0A1.343,1.343,0,0,1,35.912,82.294Z" transform="translate(-6.876 -35.881)"/><path class="f" d="M35.84,82.28q-.081,4.386-.15,8.767a18.811,18.811,0,0,1-2.89,8.917,19.533,19.533,0,0,1-11.408,8.074h-.127A19.528,19.528,0,0,1,9.909,99.947a18.748,18.748,0,0,1-2.89-8.917q-.075-4.375-.15-8.767a4.115,4.115,0,0,1,.381-1.855A3.693,3.693,0,0,1,8.1,79.2c1.26-1.092,2.433-.462,5.513-1.3a10.842,10.842,0,0,0,3.913-1.589c.514-.376,1.156-.954,2.427-1.786.1-.069.231-.144.364-.22A2.017,2.017,0,0,1,21.259,74a2.04,2.04,0,0,1,1.11.272l.272.162.081.052c1.254.832,1.913,1.4,2.427,1.786a8.231,8.231,0,0,0,1.046.641l.225.1a14.991,14.991,0,0,0,2.635.878c2.693.734,3.93.341,5.039.965a2.086,2.086,0,0,1,.341.231,1.045,1.045,0,0,1,.133.1l.139.127.191.2.133.168h0a3.652,3.652,0,0,1,.422.694,4.224,4.224,0,0,1,.208.532h0a4.26,4.26,0,0,1,.179,1.052h0Z" transform="translate(-6.867 -35.856)"/><path class="g" d="M46.465,81.606v.329h0l-.156,9.056a18.881,18.881,0,0,1-2.89,8.917A19.592,19.592,0,0,1,31.971,108h-.064v-.035c.052-11.339-.058-22.678,0-34.017a2.04,2.04,0,0,1,1.11.272l.277.168.075.046c1.26.832,1.919,1.4,2.433,1.786a8.23,8.23,0,0,0,1.046.641l.22.1a15.69,15.69,0,0,0,2.624.873c2.7.74,3.941.341,5.051.971a2.409,2.409,0,0,1,.347.231l.116.1.15.133a3.976,3.976,0,0,1,.93,1.641h0a6.062,6.062,0,0,1,.179.694Z" transform="translate(-17.429 -35.835)"/><path class="h" d="M34.5,96.569a9.455,9.455,0,1,1-9.426-9.449A9.455,9.455,0,0,1,34.5,96.569Zm-6.432-2.375h-.5V93.188a2.52,2.52,0,0,0-5.034,0v1.006h-.5a1.011,1.011,0,0,0-1,1.006v5.034a1.011,1.011,0,0,0,1.006,1.006h6.034a1.006,1.006,0,0,0,1.006-1.006V95.2a1.011,1.011,0,0,0-1.006-1.006Zm-2.994,4.531a1.006,1.006,0,1,1,1.006-1.006,1.006,1.006,0,0,1-1.006,1.006Zm1.56-4.531H23.513V93.188a1.56,1.56,0,1,1,3.121,0Z" transform="translate(-10.549 -41.395)"/></g></g></svg>