<svg xmlns="http://www.w3.org/2000/svg" xmlns:xlink="http://www.w3.org/1999/xlink" width="66.573" height="75.351" viewBox="0 0 66.573 75.351"><defs><style>.a{fill:url(#a);}.b{fill:url(#b);}.c{fill:url(#e);}.d{fill:#fff;}.e{filter:url(#f);}.f{filter:url(#c);}</style><linearGradient id="a" x1="0.5" y1="1" x2="0.5" gradientUnits="objectBoundingBox"><stop offset="0" stop-color="#757de8"/><stop offset="1" stop-color="#757de8"/></linearGradient><linearGradient id="b" x1="0.105" y1="0.856" x2="0.701" y2="0.319" gradientUnits="objectBoundingBox"><stop offset="0" stop-color="#fff" stop-opacity="0.4"/><stop offset="0.45" stop-color="#fff"/><stop offset="1" stop-color="#fff" stop-opacity="0.4"/></linearGradient><filter id="c" x="25.456" y="0" width="41.117" height="41.117" filterUnits="userSpaceOnUse"><feOffset dy="3" input="SourceAlpha"/><feGaussianBlur stdDeviation="3" result="d"/><feFlood flood-opacity="0.09"/><feComposite operator="in" in2="d"/><feComposite in="SourceGraphic"/></filter><linearGradient id="e" x1="0.105" y1="0.856" x2="0.701" y2="0.319" gradientUnits="objectBoundingBox"><stop offset="0" stop-color="#fff" stop-opacity="0"/><stop offset="0.45" stop-color="#fff"/><stop offset="1" stop-color="#fff" stop-opacity="0"/></linearGradient><filter id="f" x="31.456" y="1" width="29.117" height="29.117" filterUnits="userSpaceOnUse"><feOffset dy="-2" input="SourceAlpha"/><feGaussianBlur stdDeviation="1" result="g"/><feFlood flood-opacity="0.161"/><feComposite operator="in" in2="g"/><feComposite in="SourceGraphic"/></filter></defs><g transform="translate(-13.879 -2)"><g transform="translate(6.867 8)"><path class="a" d="M76.792,31.117V69.26A8.091,8.091,0,0,1,68.7,77.351H27.091A8.091,8.091,0,0,1,19,69.26V16.091A8.091,8.091,0,0,1,27.091,8H53.675Z" transform="translate(-11.988 -8)"/><g transform="translate(41.468)"><g class="f" transform="matrix(1, 0, 0, 1, -34.46, -6)"><path class="b" d="M101.737,31.117H94.322a15.748,15.748,0,0,1-15.7-15.7V8Z" transform="translate(-44.16 -2)"/></g></g><g transform="translate(41.468)"><g class="e" transform="matrix(1, 0, 0, 1, -34.46, -6)"><path class="c" d="M101.737,31.117H94.322a15.748,15.748,0,0,1-15.7-15.7V8Z" transform="translate(-44.16 -2)"/></g></g><rect class="d" width="46.037" height="4.889" rx="1" transform="translate(11.601 43.789)"/><rect class="d" width="32.242" height="4.889" rx="1" transform="translate(11.601 50.58)"/><rect class="d" width="32.242" height="4.889" rx="1" transform="translate(11.601 36.854)"/></g></g></svg>