<svg xmlns="http://www.w3.org/2000/svg" width="67.25" height="67.25" viewBox="0 0 67.25 67.25">
  <path id="Icon_ionic-ios-contact" data-name="Icon ionic-ios-contact" d="M37,3.375h0A33.61,33.61,0,0,0,3.569,33.46a32.4,32.4,0,0,0,0,7.081A33.61,33.61,0,0,0,37,70.625h0a33.625,33.625,0,0,0,0-67.25ZM58.954,56.092c-3.67-1.39-9.619-3.427-13.321-4.526-.388-.113-.436-.145-.436-1.73a9.2,9.2,0,0,1,1.067-3.767,18.788,18.788,0,0,0,1.487-5.108,11.358,11.358,0,0,0,2.2-5.319c.517-2.619.275-3.573-.065-4.462a2.864,2.864,0,0,1-.1-.275,29.07,29.07,0,0,1,.5-6.272A11.55,11.55,0,0,0,47.88,16.34c-1.471-1.891-4.3-4.2-9.457-4.526H35.594c-5.076.323-7.889,2.635-9.376,4.526a11.5,11.5,0,0,0-2.425,8.293,29.071,29.071,0,0,1,.5,6.272c-.032.113-.065.194-.1.291-.339.889-.6,1.843-.065,4.462a11.534,11.534,0,0,0,2.2,5.319,19.565,19.565,0,0,0,1.487,5.108,9.031,9.031,0,0,1,.614,3.815c0,1.6-.065,1.617-.42,1.73-3.831,1.132-9.522,3.136-12.933,4.494a29.1,29.1,0,0,1,42.5-39.7,29.1,29.1,0,0,1,1.374,39.671Z" transform="translate(-3.375 -3.375)" fill="#4895F1"/>
</svg>
