<svg xmlns="http://www.w3.org/2000/svg" xmlns:xlink="http://www.w3.org/1999/xlink" width="98.506" height="81.941" viewBox="0 0 98.506 81.941"><defs><style>.a,.u,.v{fill:none;}.b,.m{opacity:0.8;}.c{fill:url(#a);}.d{fill:#fff;}.e{fill:#64ffda;}.f{opacity:0.7;}.g{opacity:0.6;}.h{opacity:0.5;}.i{opacity:0.4;}.j{opacity:0.3;}.k{clip-path:url(#b);}.l{fill:#f5f5f5;}.m,.r{fill:#e0e0e0;}.n{fill:#ff5252;}.o{fill:#ff0;}.p{fill:#69f0ae;}.q{fill:url(#d);}.s{fill:#6c63ff;}.t{opacity:0.05;}.u,.v{stroke:#3ad29f;stroke-miterlimit:10;stroke-width:2px;}.u{stroke-dasharray:1.5;}.v{stroke-dasharray:1;}.w{fill:rgba(100,255,218,0.95);}.x{fill:rgba(100,255,218,0.9);}.y{fill:rgba(100,255,218,0.85);}</style><linearGradient id="a" x1="0.5" y1="1" x2="0.5" gradientUnits="objectBoundingBox"><stop offset="0" stop-color="gray" stop-opacity="0.251"/><stop offset="0.54" stop-color="gray" stop-opacity="0.122"/><stop offset="1" stop-color="gray" stop-opacity="0.102"/></linearGradient><clipPath id="b"><rect class="a" width="4.752" height="8.304"/></clipPath><linearGradient id="d" xlink:href="#a"/></defs><g transform="translate(0)"><g class="b" transform="translate(51.755)"><rect class="c" width="46.75" height="52.178"/></g><rect class="d" width="45.205" height="16.205" transform="translate(52.527 34.838)"/><rect class="e" width="1.752" height="8.304" transform="translate(56.238 38.681)"/><g class="f" transform="translate(59.696 38.681)"><rect class="e" width="1.752" height="8.304"/></g><g class="g" transform="translate(63.155 38.681)"><rect class="e" width="1.752" height="8.304"/></g><g class="h" transform="translate(66.613 38.681)"><rect class="e" width="1.752" height="8.304"/></g><g class="h" transform="translate(70.071 38.681)"><rect class="e" width="1.752" height="8.304"/></g><g class="i" transform="translate(73.529 38.681)"><rect class="e" width="1.752" height="8.304"/></g><g class="j" transform="translate(76.988 38.681)"><rect class="e" width="1.752" height="8.304"/></g><rect class="d" width="45.205" height="16.205" transform="translate(52.527 18.002)"/><g class="k" transform="translate(63.238 21.845)"><g transform="translate(-56.238 -21.845)"><rect class="e" width="1.752" height="8.304" transform="translate(56.238 21.845)"/></g><g transform="translate(-53.238 -21.845)"><rect class="e" width="1.752" height="8.304" transform="translate(56.238 21.845)"/></g></g><g class="f" transform="translate(59.696 21.845)"><rect class="e" width="1.752" height="8.304" transform="translate(10)"/></g><g class="g" transform="translate(63.155 21.845)"><rect class="e" width="1.752" height="8.304" transform="translate(10)"/></g><g class="h" transform="translate(66.613 21.845)"><rect class="e" width="1.752" height="8.304" transform="translate(10)"/></g><g class="h" transform="translate(70.071 21.845)"><rect class="e" width="1.752" height="8.304" transform="translate(10)"/></g><g class="i" transform="translate(73.529 21.845)"><rect class="e" width="1.752" height="8.304" transform="translate(10)"/></g><g class="j" transform="translate(76.988 21.845)"><rect class="e" width="1.752" height="8.304" transform="translate(10)"/></g><rect class="d" width="45.205" height="16.205" transform="translate(52.527 1)"/><rect class="e" width="1.752" height="8.304" transform="translate(66.238 5.011)"/><g class="f" transform="translate(59.696 5.011)"><rect class="e" width="1.752" height="8.304" transform="translate(10)"/></g><g class="g" transform="translate(63.155 5.011)"><rect class="e" width="1.752" height="8.304" transform="translate(10)"/></g><g class="h" transform="translate(66.613 5.011)"><rect class="e" width="1.752" height="8.304" transform="translate(10)"/></g><g class="h" transform="translate(70.071 5.011)"><rect class="e" width="1.752" height="8.304" transform="translate(10)"/></g><g class="i" transform="translate(73.529 5.011)"><rect class="e" width="1.752" height="8.304" transform="translate(10)"/></g><g class="j" transform="translate(76.988 5.011)"><rect class="e" width="1.752" height="8.304" transform="translate(10)"/></g><g class="b" transform="translate(3.761 37.354)"><path class="c" d="M262.638,459.943H200.07V420a1.8,1.8,0,0,1,1.8-1.8H260.84a1.8,1.8,0,0,1,1.8,1.8Z" transform="translate(-200.07 -418.2)"/></g><path class="d" d="M42.447,334.85H99.7a1.8,1.8,0,0,1,1.8,1.8v39.211H40.65V336.647a1.8,1.8,0,0,1,1.8-1.8Z" transform="translate(-36.027 -296.761)"/><rect class="l" width="56.926" height="37.338" transform="translate(6.582 40.474)"/><rect class="m" width="56.685" height="33.592" transform="translate(6.801 42.287)"/><rect class="l" width="56.685" height="1.785" transform="translate(6.801 40.502)"/><circle class="n" cx="0.432" cy="0.432" r="0.432" transform="translate(7.583 40.934)"/><circle class="o" cx="0.432" cy="0.432" r="0.432" transform="translate(8.773 40.934)"/><circle class="p" cx="0.432" cy="0.432" r="0.432" transform="translate(9.964 40.934)"/><g class="b" transform="translate(0 75.153)"><path class="q" d="M235.08,757.137c-3.483.264-63.3.158-65.387,0-2.74-1.321-2.694-6.444-2.694-6.444l27.43-.183.092,1.559h11.743l.455-1.376h30.4S237.727,755.394,235.08,757.137Z" transform="translate(-167 -750.51)"/></g><path class="l" d="M239.894,755.75H210.085a.91.91,0,0,1-.695,1.514H198.016a.91.91,0,0,1-.7-1.514H170.63s-.045,4.45,2.661,5.6c2.065.138,61.146.227,64.586,0C240.491,759.832,239.894,755.75,239.894,755.75Z" transform="translate(-170.217 -680.001)"/><circle class="r" cx="0.367" cy="0.367" r="0.367" transform="translate(6.238 76.344)"/><circle class="r" cx="0.367" cy="0.367" r="0.367" transform="translate(7.339 76.344)"/><circle class="r" cx="0.367" cy="0.367" r="0.367" transform="translate(8.44 76.344)"/><g class="f" transform="translate(22.236 43.608)"><path class="c" d="M373.53,473.18l-11.04,6.794s0,14.014,11.04,21.656c11.04-7.644,11.04-21.656,11.04-21.656Z" transform="translate(-362.49 -473.18)"/></g><path class="s" d="M378.414,480.23,368,486.642s0,13.224,10.419,20.437c10.419-7.213,10.419-20.437,10.419-20.437Z" transform="translate(-345.137 -435.821)"/><path class="t" d="M459.719,480.23l-.179.114v26.617l.179.125c10.419-7.213,10.419-20.437,10.419-20.437Z" transform="translate(-426.265 -435.821)"/><path class="u" d="M239,122.926V99.38h19.451" transform="translate(-211.815 -88.076)"/><path class="v" d="M186,59.926V36.38h19.451" transform="translate(-164.843 -32.242)"/><path class="v" d="M636.237,477.38v18.427H626" transform="translate(-554.794 -423.079)"/><path class="u" d="M690.237,513.38v18.427H680" transform="translate(-602.652 -454.984)"/><rect class="e" width="1.752" height="8.304" transform="translate(57.238 5)"/><rect class="w" width="1.752" height="8.304" transform="translate(60.238 5)"/><rect class="x" width="1.752" height="8.304" transform="translate(63.238 5)"/><rect class="y" width="1.752" height="8.304" transform="translate(66.238 5)"/></g></svg>