<?xml version="1.0" encoding="utf-8"?>
<!-- Generator: Adobe Illustrator 23.0.5, SVG Export Plug-In . SVG Version: 6.00 Build 0)  -->
<svg version="1.1" id="Layer_1" xmlns="http://www.w3.org/2000/svg" xmlns:xlink="http://www.w3.org/1999/xlink" x="0px" y="0px"
	 viewBox="0 0 69.9 69.9" style="enable-background:new 0 0 69.9 69.9;" xml:space="preserve">
<style type="text/css">
	.st0{fill:#FFFFFF;}
</style>
<path class="st0" d="M68.1,23.8c-0.3-0.8-0.6-1.6-0.9-2.4C67.5,22.2,67.8,22.9,68.1,23.8z M68.1,46.1c-0.3,0.8-0.6,1.6-0.9,2.4
	C67.5,47.8,67.8,47,68.1,46.1z M50.1,3.5c7.1,3.5,12.9,9.2,16.4,16.3C63,12.7,57.2,6.9,50.1,3.5z M50.1,66.5
	C57.2,63,63,57.2,66.5,50.1C63,57.2,57.2,63,50.1,66.5z M48.5,2.8c-0.8-0.3-1.6-0.7-2.4-0.9C47,2.1,47.8,2.4,48.5,2.8z M48.5,67.2
	c-0.8,0.3-1.6,0.6-2.4,0.9C47,67.8,47.8,67.5,48.5,67.2z M23.8,1.8c-0.8,0.3-1.6,0.6-2.4,0.9C22.2,2.4,22.9,2.1,23.8,1.8z
	 M23.8,68.1c-0.8-0.3-1.6-0.6-2.4-0.9C22.1,67.5,23,67.8,23.8,68.1z M3.5,19.8c3.5-7.1,9.2-12.9,16.3-16.3
	C12.7,6.9,6.9,12.7,3.5,19.8z M3.5,50.1c3.4,7.1,9.2,12.9,16.3,16.4C12.7,63,6.9,57.2,3.5,50.1z M2.8,21.4c-0.3,0.8-0.7,1.6-0.9,2.4
	C2.1,22.9,2.4,22.2,2.8,21.4z M2.8,48.5c-0.3-0.8-0.6-1.6-0.9-2.4C2.1,47,2.4,47.8,2.8,48.5z M69.2,27.9c-0.1-0.6-0.3-1.1-0.4-1.7
	c-0.2-0.8-0.5-1.7-0.7-2.5c-0.3-0.8-0.6-1.6-0.9-2.4c-0.2-0.5-0.5-1-0.7-1.6C63,12.7,57.2,6.9,50.1,3.5c-0.5-0.2-1-0.5-1.6-0.7
	c-0.8-0.3-1.6-0.6-2.4-0.9c-0.8-0.3-1.6-0.5-2.5-0.7C43.1,1,42.6,0.8,42,0.7C39.7,0.3,37.4,0,35,0c-2.4,0-4.8,0.3-7,0.7
	c-0.6,0.1-1.1,0.3-1.7,0.4c-0.8,0.2-1.7,0.5-2.5,0.7c-0.8,0.3-1.6,0.6-2.4,0.9c-0.5,0.2-1,0.5-1.6,0.7C12.7,6.9,6.9,12.7,3.5,19.8
	c-0.2,0.5-0.5,1-0.7,1.6c-0.3,0.8-0.6,1.6-0.9,2.4c-0.3,0.8-0.5,1.6-0.7,2.5c-0.1,0.6-0.3,1.1-0.4,1.7C0.3,30.2,0,32.5,0,35
	c0,2.4,0.3,4.8,0.7,7c0.1,0.6,0.3,1.1,0.4,1.7c0.2,0.8,0.5,1.7,0.7,2.5c0.3,0.8,0.6,1.6,0.9,2.4c0.2,0.5,0.5,1.1,0.7,1.6
	c3.5,7.1,9.2,12.9,16.3,16.4c0.5,0.2,1,0.5,1.6,0.7c0.8,0.3,1.6,0.6,2.4,0.9c0.8,0.3,1.6,0.5,2.5,0.7c0.6,0.1,1.1,0.3,1.7,0.4
	c2.3,0.5,4.6,0.7,7,0.7c2.4,0,4.8-0.3,7-0.7c0.6-0.1,1.1-0.3,1.7-0.4c0.8-0.2,1.7-0.5,2.5-0.7c0.8-0.3,1.6-0.6,2.4-0.9
	c0.5-0.2,1.1-0.5,1.6-0.7C57.2,63,63,57.2,66.5,50.1c0.2-0.5,0.5-1,0.7-1.6c0.3-0.8,0.6-1.6,0.9-2.4c0.3-0.8,0.5-1.6,0.7-2.5
	c0.1-0.5,0.3-1.1,0.4-1.7c0.5-2.3,0.7-4.6,0.7-7C69.9,32.5,69.7,30.2,69.2,27.9z M35,66.9c-17.6,0-32-14.3-32-32S17.3,3,35,3
	s32,14.3,32,32S52.6,66.9,35,66.9z M28.1,47.9c-0.4,0-0.8-0.2-1.1-0.4L16.4,36.9c-0.6-0.6-0.6-1.5,0-2.1c0.6-0.6,1.5-0.6,2.1,0
	l9.5,9.5l21.8-21.8c0.6-0.6,1.5-0.6,2.1,0c0.6,0.6,0.6,1.5,0,2.1L29.1,47.5C28.8,47.7,28.5,47.9,28.1,47.9z"/>
</svg>
