<svg xmlns="http://www.w3.org/2000/svg" xmlns:xlink="http://www.w3.org/1999/xlink" width="323.807" height="230.637" viewBox="0 0 323.807 230.637"><defs><filter id="a" x="0" y="0" width="323.807" height="230.637" filterUnits="userSpaceOnUse"><feOffset dy="3" input="SourceAlpha"/><feGaussianBlur stdDeviation="3" result="b"/><feFlood flood-color="#0059c4" flood-opacity="0.502"/><feComposite operator="in" in2="b"/><feComposite in="SourceGraphic"/></filter><linearGradient id="c" y1="0.5" x2="1" y2="0.5" gradientUnits="objectBoundingBox"><stop offset="0.12" stop-color="#010101" stop-opacity="0"/><stop offset="0.67" stop-color="#010101" stop-opacity="0.671"/><stop offset="0.95" stop-color="#010101"/></linearGradient><linearGradient id="d" x1="0" y1="0.5" x2="1" y2="0.5" xlink:href="#c"/><linearGradient id="e" x1="0.451" y1="0.866" x2="0.518" y2="0.161" gradientUnits="objectBoundingBox"><stop offset="0" stop-color="#fff" stop-opacity="0"/><stop offset="0.95" stop-color="#fff"/></linearGradient><linearGradient id="f" x1="1.785" y1="0.273" x2="-1.92" y2="0.945" xlink:href="#c"/><linearGradient id="g" x1="-0.535" y1="0.453" x2="2.476" y2="0.659" xlink:href="#c"/><linearGradient id="h" x1="0.235" y1="1.177" x2="0.798" y2="-0.183" xlink:href="#c"/><linearGradient id="i" x1="0.435" y1="1.036" x2="0.527" y2="0.239" xlink:href="#e"/><linearGradient id="j" x1="1.256" y1="0.445" x2="-2.858" y2="0.656" xlink:href="#c"/><linearGradient id="k" x1="0.517" y1="0.466" x2="-0.874" y2="0.935" xlink:href="#c"/><linearGradient id="l" x1="1.124" y1="0.717" x2="0.177" y2="0.337" xlink:href="#e"/><linearGradient id="m" x1="0.43" y1="-0.455" x2="0.56" y2="1.012" xlink:href="#c"/><linearGradient id="n" x1="0.88" y1="0.338" x2="-1.216" y2="1.271" xlink:href="#c"/><linearGradient id="o" y1="0.499" x2="0.999" y2="0.499" gradientUnits="objectBoundingBox"><stop offset="0" stop-color="#e5c6d6"/><stop offset="0.42" stop-color="#ead4d0"/><stop offset="1" stop-color="#f0e9cb"/></linearGradient><linearGradient id="p" x1="0" y1="0.5" x2="0.999" y2="0.5" xlink:href="#o"/><linearGradient id="q" x1="0.965" y1="0.42" x2="-1.575" y2="0.997" gradientUnits="objectBoundingBox"><stop offset="0.12" stop-color="#010101" stop-opacity="0"/><stop offset="0.95" stop-color="#010101"/></linearGradient><linearGradient id="r" x1="0" y1="0.5" x2="1" y2="0.5" xlink:href="#o"/><linearGradient id="s" x1="0.032" y1="1.148" x2="1.478" y2="-1.032" xlink:href="#c"/><linearGradient id="t" x1="0.474" y1="-0.055" x2="0.508" y2="0.648" xlink:href="#c"/><linearGradient id="u" x1="-0.003" y1="0.498" x2="1.001" y2="0.498" xlink:href="#o"/><linearGradient id="v" x1="0" y1="0.5" x2="1" y2="0.5" xlink:href="#o"/><linearGradient id="w" x1="0" y1="0.5" x2="1" y2="0.5" xlink:href="#o"/><linearGradient id="x" x1="0.361" y1="1.26" x2="0.607" y2="-0.733" xlink:href="#c"/><linearGradient id="y" x1="0" y1="0.501" x2="0.999" y2="0.501" xlink:href="#o"/><linearGradient id="z" x1="1.786" y1="0.137" x2="2.799" y2="0.137" xlink:href="#o"/><linearGradient id="aa" x1="0" y1="0.5" x2="1" y2="0.5" xlink:href="#c"/><linearGradient id="ab" x1="0.477" y1="1.198" x2="0.557" y2="-0.035" xlink:href="#c"/><linearGradient id="ac" x1="0" y1="0.501" x2="1" y2="0.501" xlink:href="#c"/><linearGradient id="ad" x1="0" y1="0.499" x2="1.001" y2="0.499" xlink:href="#c"/><linearGradient id="ae" x1="0" y1="0.5" x2="1" y2="0.5" xlink:href="#c"/><linearGradient id="af" x1="0" y1="0.5" x2="1" y2="0.5" xlink:href="#c"/><linearGradient id="ag" x1="-4.53" y1="4.49" x2="-3.587" y2="4.49" xlink:href="#o"/><linearGradient id="ah" x1="0.001" y1="0.5" x2="0.999" y2="0.5" xlink:href="#c"/><linearGradient id="ai" x1="1.088" y1="1.009" x2="0.165" y2="0.259" xlink:href="#c"/><linearGradient id="aj" x1="0" y1="0.5" x2="1" y2="0.5" xlink:href="#o"/><linearGradient id="ak" x1="-0.002" y1="0.5" x2="1" y2="0.5" xlink:href="#o"/><linearGradient id="al" x1="-0.001" y1="0.5" x2="1" y2="0.5" xlink:href="#o"/><linearGradient id="am" x1="-0.001" y1="0.499" x2="0.999" y2="0.499" xlink:href="#o"/><linearGradient id="an" x1="0" y1="0.501" x2="1" y2="0.501" xlink:href="#c"/><linearGradient id="ao" x1="0" y1="0.502" x2="1.002" y2="0.502" xlink:href="#o"/><linearGradient id="ap" x1="0" y1="0.5" x2="1" y2="0.5" xlink:href="#c"/><linearGradient id="aq" x1="0.001" y1="0.5" x2="1" y2="0.5" xlink:href="#o"/><linearGradient id="ar" x1="0.344" y1="-0.501" x2="0.591" y2="1.29" gradientUnits="objectBoundingBox"><stop offset="0.12" stop-color="#010101" stop-opacity="0"/><stop offset="0.45" stop-color="#010101" stop-opacity="0.349"/><stop offset="0.67" stop-color="#010101" stop-opacity="0.671"/><stop offset="0.95" stop-color="#010101"/></linearGradient><linearGradient id="as" x1="-0.001" y1="0.5" x2="0.999" y2="0.5" xlink:href="#e"/><linearGradient id="at" x1="-2.521" y1="1.916" x2="-1.447" y2="1.916" xlink:href="#o"/><linearGradient id="au" x1="-0.003" y1="0.5" x2="0.998" y2="0.5" xlink:href="#ar"/><linearGradient id="av" x1="-7.044" y1="2.812" x2="-5.866" y2="2.812" xlink:href="#o"/><linearGradient id="aw" x1="2.634" y1="0.841" x2="3.223" y2="-2.662" xlink:href="#c"/><linearGradient id="ax" x1="0" y1="0.5" x2="1" y2="0.5" xlink:href="#o"/><linearGradient id="ay" x1="0" y1="0.5" x2="1" y2="0.5" xlink:href="#c"/><linearGradient id="az" x1="-0.886" y1="0.64" x2="1.6" y2="0.336" gradientUnits="objectBoundingBox"><stop offset="0" stop-color="#fff" stop-opacity="0"/><stop offset="0.66" stop-color="#fff"/></linearGradient><linearGradient id="ba" x1="-0.29" y1="0.568" x2="0.931" y2="0.476" xlink:href="#e"/><linearGradient id="bb" x1="0" y1="0.5" x2="1" y2="0.5" xlink:href="#c"/><linearGradient id="bc" x1="0" y1="0.499" x2="1.002" y2="0.499" xlink:href="#o"/><linearGradient id="bd" x1="0" y1="0.5" x2="1" y2="0.5" xlink:href="#o"/><linearGradient id="be" x1="0" y1="0.5" x2="1.001" y2="0.5" xlink:href="#o"/><linearGradient id="bf" x1="0" y1="0.5" x2="1" y2="0.5" xlink:href="#o"/><linearGradient id="bg" x1="0.003" y1="0.499" x2="1" y2="0.499" xlink:href="#o"/><linearGradient id="bh" x1="0.096" y1="0.724" x2="2.144" y2="-0.27" xlink:href="#c"/><linearGradient id="bi" x1="0.878" y1="0.199" x2="-0.185" y2="0.99" xlink:href="#c"/><linearGradient id="bj" x1="0" y1="0.5" x2="1.003" y2="0.5" xlink:href="#o"/><linearGradient id="bk" x1="0.049" y1="0.522" x2="2.624" y2="0.38" xlink:href="#c"/><linearGradient id="bl" x1="-0.952" y1="0.293" x2="4.845" y2="1.106" xlink:href="#c"/></defs><g transform="translate(9.008 6.02)"><g transform="matrix(1, 0, 0, 1, -9.01, -6.02)" filter="url(#a)"><path d="M301.179,176.378c-5.716,11.61-15.344,21.716-15.746,35.037-.326,10.82,5.68,20.658,6.506,31.437a34.114,34.114,0,0,1-.268,7.663,44.79,44.79,0,0,1-5.93,16.469c-8.837,14.977-23.909,23.85-39.333,27.566s-31.321,2.813-47.049,1.907L99.6,290.692c-13.419-.773-26.932-1.558-39.949-5.359A95.607,95.607,0,0,1,30.2,270.762a79.818,79.818,0,0,1-15.558-14.736A59,59,0,0,1,2.635,231.4c-4.064-19.059,2.733-39.676,14.477-53.9,2.617-3.175,5.546-6.2,7.123-10.181,3.313-8.355-.116-18.077.326-27.24.522-10.53,6.7-20.408,15.25-24.257,6.252-2.831,13.2-2.541,19.925-2.2,14.821.732,34.612,6.087,48.281-1.558,14.687-8.2,25.507-16.938,42.927-14.736,7.971,1,15.71,3.925,23.7,4.622,22.426,1.925,43.142-13.785,65.451-16.826,20.483-2.791,42.275,6.2,55.27,24.6S311.324,155.743,301.179,176.378Z" transform="translate(7.55 -78.62)" fill="#9bc9ff" opacity="0.24"/></g><path d="M237.327,189.1a11.677,11.677,0,0,0-3.8,3.273c-3.514,5.055-.348,12.7-3.818,17.791a44.057,44.057,0,0,1-3.014,3.389,16.456,16.456,0,0,0-3.465,9.489,49.44,49.44,0,0,0,.7,10.226,4.858,4.858,0,0,0,.893,2.594A4.962,4.962,0,0,0,227.5,237.1a97.349,97.349,0,0,0,26.9,2.027,9.056,9.056,0,0,0,4.506-1.134c3.068-2.036,2.737-6.515,3.608-10.1.732-3.014,2.514-5.662,3.572-8.578a37.042,37.042,0,0,0,1.692-10.534c.3-4.912.263-10.606-3.514-13.767a16.079,16.079,0,0,0-4.166-2.26c-3.827-1.6-7.917-2.715-11.668-4.354A11.313,11.313,0,0,0,237.327,189.1Z" transform="translate(-124.165 -141.452)" fill="#606161"/><path d="M293.881,215.58s6.774,4.439,6.613,11.526-5.193,19.528-5.193,19.528l-8.431,1.152Z" transform="translate(-159.423 -157.119)" fill="url(#c)"/><path d="M241.954,238.2a10.042,10.042,0,0,0-2.474,3.644,37.126,37.126,0,0,0-3.3,13.669l10.2.1a1.983,1.983,0,0,0,1.009-.17,1.951,1.951,0,0,0,.741-1.112c1.085-2.9,2.152-5.89,2.126-8.985C250.229,241.436,246.62,234.3,241.954,238.2Z" transform="translate(-131.369 -169.011)" fill="url(#d)"/><path d="M311.688,238.4c3.572-.071,7.123.183,10.677.447a27.917,27.917,0,0,1,6.39.965,24.734,24.734,0,0,1,4.76,2.233,107.93,107.93,0,0,1,20.729,15.37,10.111,10.111,0,0,0,4.2,2.541,4.281,4.281,0,0,0,4.34-1.206,7.451,7.451,0,0,0,1.054-2.586c.786-2.679,2.456-5.506,5.2-6.131,2.679-.607,5.443,1.192,6.739,3.6s1.4,5.278,1.232,8.011a50.971,50.971,0,0,1-2.76,13.325,10.763,10.763,0,0,1-3.01,5.064,9.983,9.983,0,0,1-5.546,1.786c-11.164.844-21.792-4.492-31.728-9.686-.13,5.359,1.085,10.641,1.371,15.987s-.531,11.092-4.068,15.107c-4.533,5.091-12.124,6.02-18.938,5.72a81.053,81.053,0,0,1-17.34-2.679,11,11,0,0,1-4.363-1.934,8.355,8.355,0,0,1-2.193-3.162c-3.684-8.583-.295-21.939-3.934-30.544-18.907,3.894-37.2,4.72-54.926-2.947a4.66,4.66,0,0,1-2.121-1.46,4.4,4.4,0,0,1-.447-2.9,34.523,34.523,0,0,1,1.786-8.435c7.145,3.389,14.41,6.814,22.216,8.065s8.672-.4,14.759-5.448c4.416-3.662,14.879-8.552,19.273-12.236C292.133,239.343,302.444,238.6,311.688,238.4Z" transform="translate(-126.265 -169.745)" fill="#78b2f7"/><path d="M311.688,238.4c3.572-.071,7.123.183,10.677.447a27.917,27.917,0,0,1,6.39.965,24.734,24.734,0,0,1,4.76,2.233,107.93,107.93,0,0,1,20.729,15.37,10.111,10.111,0,0,0,4.2,2.541,4.281,4.281,0,0,0,4.34-1.206,7.451,7.451,0,0,0,1.054-2.586c.786-2.679,2.456-5.506,5.2-6.131,2.679-.607,5.443,1.192,6.739,3.6s1.4,5.278,1.232,8.011a50.971,50.971,0,0,1-2.76,13.325,10.763,10.763,0,0,1-3.01,5.064,9.983,9.983,0,0,1-5.546,1.786c-11.164.844-21.792-4.492-31.728-9.686-.13,5.359,1.085,10.641,1.371,15.987s-.531,11.092-4.068,15.107c-4.533,5.091-12.124,6.02-18.938,5.72a81.053,81.053,0,0,1-17.34-2.679,11,11,0,0,1-4.363-1.934,8.355,8.355,0,0,1-2.193-3.162c-3.684-8.583-.295-21.939-3.934-30.544-18.907,3.894-37.2,4.72-54.926-2.947a4.66,4.66,0,0,1-2.121-1.46,4.4,4.4,0,0,1-.447-2.9,34.523,34.523,0,0,1,1.786-8.435c7.145,3.389,14.41,6.814,22.216,8.065s8.672-.4,14.759-5.448c4.416-3.662,14.879-8.552,19.273-12.236C292.133,239.343,302.444,238.6,311.688,238.4Z" transform="translate(-126.265 -169.745)" fill="url(#e)"/><path d="M308.025,456.12a44.79,44.79,0,0,1-5.93,16.469c-8.837,14.977-23.909,23.85-39.333,27.566s-31.321,2.813-47.049,1.907L115.957,496.3c-13.419-.772-26.932-1.558-39.949-5.359a95.607,95.607,0,0,1-29.45-14.571A79.818,79.818,0,0,1,31,461.63c10.186-1.6,22.64.094,29.745-.058L121,460.233q59.392-1.3,118.739-2.617Z" transform="translate(-17.813 -290.245)" fill="#78b2f7" opacity="0.24"/><path d="M106.6,461.81c8.4,7.5,22.118,2.751,32.433,7.274a24.855,24.855,0,0,0-8.377,8.3q21.5.79,43.03.509a8.641,8.641,0,0,0-3.537,5.336q62.352,1.925,124.736-.965c2.92-.134,5.993-.326,8.449-1.916s3.934-5.082,2.34-7.533c-1.125-1.733-3.3-2.376-5.149-3.3s-3.684-2.8-3.126-4.783c1.076-3.769,8.891-2.813,8.685-6.725-.094-1.755-1.992-2.751-3.626-3.4l3.742-1.424-102.306-.79c-18.045-.143-36.171-.281-54.1,2.161C136.122,456.411,119.251,456.42,106.6,461.81Z" transform="translate(-59.654 -288.142)" fill="#78b2f7" opacity="0.5"/><path d="M508.888,345.491c3.184-2.032,6.658-4.149,10.423-3.881s7.408,4.229,5.859,7.672c-.473,1.054-1.34,1.893-1.84,2.943a9.115,9.115,0,0,0-.281,5.14c1.291,9.065,3.157,18.545.094,27.173-1.143,3.2-2.961,6.3-2.943,9.7,0,1.688.482,3.363.339,5.046s-1.179,3.5-2.854,3.7c-2.492.3-3.831-2.782-5.805-4.349-3.032-2.42-7.453-1.023-11.32-1.34-4.385-.348-8.217-2.992-12.4-4.367-5.243-1.728-11.1-1.465-16.027-3.952-5.618-2.836-9.07-8.886-10.226-15.071s-.326-12.553.719-18.755c1.4-8.315,4.166-24.243,14.991-24.694,5.113-.214,11.133,2.639,15.629,4.742C494.812,335.935,509,345.429,508.888,345.491Z" transform="translate(-255.986 -220.69)" fill="#fff"/><path d="M487.612,391.337a11.792,11.792,0,0,0,.447,4.6c1.728,4.622,8.552,6.5,8.855,11.427a13.842,13.842,0,0,1-16.522-6.462c-1.55-3.037-1.876-6.52-2.179-9.914-.634-7.123-1.407-14.25-1.907-21.381-.286-4.153.121-7.8,5.234-7.2C492.654,363.722,487.916,384.223,487.612,391.337Z" transform="translate(-264.227 -238.344)" opacity="0.45" fill="url(#f)"/><path d="M76.752,367.451c-3.452,1.4-6.868,3.438-10.588,3.233-2.233-.125-4.416-1.076-6.663-.969s-4.711,2.018-4.122,4.189a9.3,9.3,0,0,0,1.63,2.528c1.576,2.327,1.273,5.381,1.21,8.19a39.506,39.506,0,0,0,2.929,15.8c1.518,3.7,3.622,7.225,4.309,11.164.621,3.519.518,7.958,3.7,9.574,5.332-4.367,13.084-3.126,19.934-3.912,8.109-.929,15.491-4.943,22.636-8.886a5.564,5.564,0,0,0,1.978-1.523,4.912,4.912,0,0,0,.661-2.728,33.114,33.114,0,0,0-2.291-11.508,83.581,83.581,0,0,0-12.441-22.944c-2.746-3.572-3.97-6.024-8.574-5.484A54.941,54.941,0,0,0,76.752,367.451Z" transform="translate(-31.257 -239.318)" fill="#fff"/><path d="M125.124,388.052a8.83,8.83,0,0,0-1.054,3.6c0,3.532,3.943,5.662,5.457,8.855a12.791,12.791,0,0,0-3.354,16.112c.969,1.679,2.385,3.3,2.273,5.234-.067,1.188-.706,2.447-.138,3.492,2.974.192,5.747-1.34,8.485-2.505a79.767,79.767,0,0,1,14.29-4.122,22.134,22.134,0,0,0-3.193-7.042c-4.912-8.176-9.9-16.4-16.268-23.507-1.487-1.657-2.161-4.488-3.684-5.778C126.647,383.681,125.919,386.306,125.124,388.052Z" transform="translate(-69.322 -249.439)" opacity="0.45" fill="url(#g)"/><path d="M487.347,461.273a5.227,5.227,0,0,1,1.639,3.831,4.035,4.035,0,0,1-3.2,3.126,13.833,13.833,0,0,1-6.064-.33l-16.545-3.389a2.313,2.313,0,0,1-1.085-.42,2.429,2.429,0,0,1-.652-1.183c-.808-2.679-.589-6.935,1.438-9.034,1.67-1.733,4.51-1.447,6.649-1.34A25.351,25.351,0,0,1,487.347,461.273Z" transform="translate(-255.795 -288.212)" fill="#606161"/><path d="M485.644,464.666c.893.965,1.786,2.166,1.608,3.474-.192,1.487-1.679,2.483-3.126,2.818a14.608,14.608,0,0,1-5.939-.295l-16.219-3.072a2.479,2.479,0,0,1-1.067-.384,2.148,2.148,0,0,1-.634-1.072c-.795-2.438-.581-6.287,1.407-8.194,1.639-1.567,4.425-1.308,6.52-1.215A25.659,25.659,0,0,1,485.644,464.666Z" transform="translate(-255.15 -290.539)" fill="#606161"/><path d="M485.644,464.666c.893.965,1.786,2.166,1.608,3.474-.192,1.487-1.679,2.483-3.126,2.818a14.608,14.608,0,0,1-5.939-.295l-16.219-3.072a2.479,2.479,0,0,1-1.067-.384,2.148,2.148,0,0,1-.634-1.072c-.795-2.438-.581-6.287,1.407-8.194,1.639-1.567,4.425-1.308,6.52-1.215A25.659,25.659,0,0,1,485.644,464.666Z" transform="translate(-255.15 -290.539)" fill="url(#h)"/><path d="M245.934,289.771c3.443,3.764,4.845,9.1,4.541,14.191a35.6,35.6,0,0,1-4.573,14.482c-1.21,2.264.447,8.627.13,11.164-.4,3.1-.746,3.179-1.179,6.279-.482,3.47-4.407,5.283-6.872,7.77A104.174,104.174,0,0,1,227.389,353c-5.064,3.885-11.209,7.462-17.478,6.252a23.768,23.768,0,0,1-7.346-3.175q-4.256-2.487-8.359-5.207a3.764,3.764,0,0,1-2.188-3.778c-.3-5.216-.607-10.574.554-15.692.991-4.425,3.028-8.565,4.019-12.986,1.947-8.654-.183-17.929,2.353-26.432a8.713,8.713,0,0,1,2.407-4.26,11.13,11.13,0,0,1,3.738-1.786c5.609-1.786,11.253-3.6,17.09-4.345C232.046,280.349,239.3,282.506,245.934,289.771Z" transform="translate(-106.774 -193.469)" fill="#78b2f7"/><path d="M249.1,290.988c.933,5.167,10.539-4.836,10.239.527s-10.507,16.469-12.914,21.207c-1.21,2.385-.143,10.387-.473,13.071-.4,3.264-.67,2.094-1.1,5.359-.482,3.648-4.407,4.318-6.872,6.939a105.828,105.828,0,0,1-10.592,9.824c-5.064,4.095-11.209,7.859-17.478,6.6a23.175,23.175,0,0,1-7.346-3.345q-4.256-2.612-8.359-5.484a5.082,5.082,0,0,1-1.746-1.71,5.524,5.524,0,0,1-.447-2.264c-.3-5.528-.6-11.137.554-16.523.991-4.658,3.028-9.011,4.019-13.665,1.947-9.11-.183-18.871,2.353-27.82a9.163,9.163,0,0,1,2.407-4.466,10.3,10.3,0,0,1,3.738-1.867c5.609-1.893,11.253-3.791,17.09-4.573C232.045,271.438,247.375,281.382,249.1,290.988Z" transform="translate(-106.773 -188.715)" fill="url(#i)"/><path d="M306,314.16s.317,11.235,3.278,33.67c0,0,5.1-10.039,5.207-11.432S311.323,314.16,306,314.16Z" transform="translate(-170.011 -211.678)" fill="url(#j)"/><path d="M235,331.32s6.087,18.478,11.338,21.435,8.61,2.309,8.61,2.309l1.259,7.56s-13.106,4.126-16.59,0S235,331.32,235,331.32Z" transform="translate(-130.716 -221.175)" fill="#78b2f7"/><path d="M235,331.32s6.087,18.478,11.338,21.435,8.61,2.309,8.61,2.309l1.259,7.56s-13.106,4.126-16.59,0S235,331.32,235,331.32Z" transform="translate(-130.716 -221.175)" fill="url(#k)"/><path d="M131.311,329.571a12.389,12.389,0,0,0-1.362,4.434,9.788,9.788,0,0,0,1.179,4.778,18.469,18.469,0,0,0,9.342,8.8c4.256,1.786,9.007,1.9,13.624,1.943,1.491,0,3.1,0,4.3-.893,1.817-1.317,1.965-3.93,1.938-6.176a37.364,37.364,0,0,1-8.815-5.752,5.332,5.332,0,0,1-1.585-1.96c-.487-1.273,0-2.679.5-3.956A55.851,55.851,0,0,1,161.98,313.16c3.894-4.019,8.7-8.038,9.141-13.624a6.3,6.3,0,0,0-.768-3.809,7.287,7.287,0,0,0-3.188-2.545c-4.349-2.094-7.087-2.679-10.338.92s-6.533,7.35-9.646,11.164C141.05,312.772,135.415,320.752,131.311,329.571Z" transform="translate(-72.576 -199.139)" fill="#78b2f7"/><path d="M131.311,329.571a12.389,12.389,0,0,0-1.362,4.434,9.788,9.788,0,0,0,1.179,4.778,18.469,18.469,0,0,0,9.342,8.8c4.256,1.786,9.007,1.9,13.624,1.943,1.491,0,3.1,0,4.3-.893,1.817-1.317,1.965-3.93,1.938-6.176a37.364,37.364,0,0,1-8.815-5.752,5.332,5.332,0,0,1-1.585-1.96c-.487-1.273,0-2.679.5-3.956A55.851,55.851,0,0,1,161.98,313.16c3.894-4.019,8.7-8.038,9.141-13.624a6.3,6.3,0,0,0-.768-3.809,7.287,7.287,0,0,0-3.188-2.545c-4.349-2.094-7.087-2.679-10.338.92s-6.533,7.35-9.646,11.164C141.05,312.772,135.415,320.752,131.311,329.571Z" transform="translate(-72.576 -199.139)" fill="url(#l)"/><path d="M178.5,330.02c-1.786,4.756-2.076,9.918-2.1,14.991-.031,5.72.353,11.709,3.273,16.634a18.413,18.413,0,0,0,20.908,7.859,10.526,10.526,0,0,0,5.7-3.988c1.621-2.527,1.536-5.756,1.228-8.739-.447-4.265-1.206-8.485-1.438-12.776-.263-4.787.147-9.659-.933-14.334s-4.1-9.311-8.744-10.534C187.964,316.918,181.328,322.371,178.5,330.02Z" transform="translate(-98.282 -214.154)" fill="#78b2f7"/><path d="M204.113,404.142s21.1-10.4,23.623-4.095-15.442,19.215-18.568,20.787-12.6,2.523-12.6,2.523-26.458-5.988-24.252-12.285S201.576,404.459,204.113,404.142Z" transform="translate(-95.953 -258.089)" fill="#78b2f7"/><path d="M204.113,404.612s21.1-10.4,23.623-4.095-15.442,19.215-18.568,20.787-12.6,2.523-12.6,2.523-26.458-5.988-24.252-12.285S201.576,404.929,204.113,404.612Z" transform="translate(-95.953 -258.349)" fill="url(#m)"/><path d="M179.2,331s-16.523,11.338-17.009,28.191,8.346,16.773,12.285,17.951,18.581-12.124,18.581-12.124l-5.359-6.774s-10.561,5.573-11.7,3.309C173.055,355.712,179.2,331,179.2,331Z" transform="translate(-90.407 -220.998)" fill="url(#n)"/><path d="M172.145,325.68s-16.523,11.338-17.009,28.191,8.19,14.093,12.124,15.268,18.755-9.449,18.755-9.449l-5.359-6.774s-10.561,5.573-11.7,3.309C166,350.406,172.145,325.68,172.145,325.68Z" transform="translate(-86.505 -218.053)" fill="#78b2f7"/><path d="M197.825,316.149a6.523,6.523,0,0,0,1.809,4.689c1.621,1.433,4.068,1.38,6.167.893a3.3,3.3,0,0,0,2.139-1.206,3.372,3.372,0,0,0,.237-2.349q-.281-1.96-.728-3.894a4.269,4.269,0,0,0-.572-1.527,3.849,3.849,0,0,0-1.5-1.157c-1.518-.755-5.176-2.13-6.8-1.063C197.262,311.375,197.771,314.863,197.825,316.149Z" transform="translate(-110.063 -209.455)" fill="url(#o)"/><path d="M181.894,295.978a1.96,1.96,0,0,0-.991.862,2.507,2.507,0,0,0,.322,2.09,3.845,3.845,0,0,0,1.2,1.652,3.3,3.3,0,0,0,1.04.393,3.7,3.7,0,0,0,1.514.107,1.545,1.545,0,0,0,1.174-.893,1.679,1.679,0,0,0,.058-.893C185.841,296.916,184.524,294.937,181.894,295.978Z" transform="translate(-100.705 -201.458)" fill="url(#p)"/><path d="M185.2,298.663a.991.991,0,0,0-.576.246,1.013,1.013,0,0,0-.188.322,1.563,1.563,0,0,0-.125.893,1.416,1.416,0,0,0,.33.639,2.179,2.179,0,0,0,1.831.741.612.612,0,0,0,.308-.1c.205-.152.192-.447.147-.706a6.829,6.829,0,0,0-.491-1.728C186.223,298.537,185.629,298.6,185.2,298.663Z" transform="translate(-102.65 -203.075)" fill="url(#q)"/><path d="M272.362,266.951a4.484,4.484,0,0,1-3.51,3.5,5.742,5.742,0,0,1-3.943-1.572,11.977,11.977,0,0,1-2.773-2.845c-1.911-2.943-1.612-6.761-1.076-10.231.3-1.92.773-4.041,2.376-5.144a2.233,2.233,0,0,1,1.228-.447,2.68,2.68,0,0,1,.978.219,10.273,10.273,0,0,1,5.055,4.792A15.886,15.886,0,0,1,272.362,266.951Z" transform="translate(-144.915 -176.285)" fill="url(#r)"/><path d="M263.19,256.32s1.362,10.369,5.685,11.61,5.225-.8,5.225-.8l.116-7.632Z" transform="translate(-146.318 -179.666)" fill="url(#s)"/><path d="M400.68,392.959a11.6,11.6,0,0,1-5.265-.674c-4.564-1.987-5.577-7.891-5.957-12.856-.237-3.041-.447-6.252.96-8.985,1.916-3.729,5.832-4.912,9.2-6.868,4.2-2.46,5.832-5.015,9.11-8.355a13.92,13.92,0,0,1,21.345,1.978C441.9,374.293,415.121,392.2,400.68,392.959Z" transform="translate(-216.105 -232.139)" fill="#606161"/><path d="M400.68,392.959a11.6,11.6,0,0,1-5.265-.674c-4.564-1.987-5.577-7.891-5.957-12.856-.237-3.041-.447-6.252.96-8.985,1.916-3.729,5.832-4.912,9.2-6.868,4.2-2.46,5.832-5.015,9.11-8.355a13.92,13.92,0,0,1,21.345,1.978C441.9,374.293,415.121,392.2,400.68,392.959Z" transform="translate(-216.105 -232.139)" fill="url(#t)"/><path d="M234.812,286.373a1.717,1.717,0,0,1,.915,1.514,4.542,4.542,0,0,1-1.125,3.474,1.425,1.425,0,0,1-.585.447.625.625,0,0,1-.679-.156.92.92,0,0,1-.156-.406C233.026,290.3,232.615,285.556,234.812,286.373Z" transform="translate(-129.635 -196.247)" fill="url(#u)"/><path d="M207.549,281.646c-.1,1.487-.25,2.965-.447,4.439a13.217,13.217,0,0,1-.75,3.229,8.23,8.23,0,0,1-7.145,4.859,10.226,10.226,0,0,1-8.038-3.626,21.761,21.761,0,0,1-2.836-4.626,28.582,28.582,0,0,1-2.068-4.961c-.764-2.715-.7-5.836.956-8.114a6.726,6.726,0,0,1,2.233-1.96,12.687,12.687,0,0,1,5.113-1.161,14.163,14.163,0,0,1,3.983.1,10.218,10.218,0,0,1,2.809,1.112,13.6,13.6,0,0,1,5.122,4.537A11.1,11.1,0,0,1,207.549,281.646Z" transform="translate(-103.484 -187.032)" fill="url(#v)"/><path d="M397.82,225.3c.893,2.268,2.233,4.564,1.813,6.957-.384,2.108-2.108,3.738-3.974,4.792a8.377,8.377,0,0,1-5.408,1.237,7.6,7.6,0,0,1-5.229-4.233,18.36,18.36,0,0,1-1.6-6.752,14.409,14.409,0,0,1,.125-4.533,8.212,8.212,0,0,1,4.7-5.613c1.978-.848,5.515-1.139,7.252.5C397.306,219.385,396.958,223.074,397.82,225.3Z" transform="translate(-212.79 -157.611)" fill="url(#w)"/><path d="M399.824,224.11s-2.126,7.011-3.622,8.98-5.359,2.438-5.359,2.438l-2.514-8.342Z" transform="translate(-215.576 -161.84)" fill="url(#x)"/><path d="M547.237,248.678a2.8,2.8,0,0,0,1.34-.188c1.411-.607,1.719-2.411,2.166-3.881.893-2.929,2.956-5.323,4.466-7.984s2.407-6.082.844-8.712a16.59,16.59,0,0,0-3.782,2.849c-.478.482-1.04,1.036-1.715.965a2.192,2.192,0,0,1-1.25-.831l-3.255-3.523c-.38-.406-.871-.853-1.407-.714-.732.183-.786,1.232-.5,1.934.447,1.09,1.273,2,1.612,3.126.567,1.858-.317,3.706-.96,5.417-.594,1.585-.947,3.242-1.424,4.867C542.517,244.878,543.879,248.454,547.237,248.678Z" transform="translate(-301.243 -163.236)" fill="url(#y)"/><path d="M271.608,239.865c-1.17.848-6.189-1.032-7.5-1.643a11.49,11.49,0,0,1-3.572-2.461,16.321,16.321,0,0,1-1.545-2.041,9.632,9.632,0,0,1-1.38-2.532c-.192-.621-.259-1.277-.5-1.88-.563-1.407-3.572-2.983-3.572-4.666a4.074,4.074,0,0,1,.581-2.434,1.619,1.619,0,0,1,2.233-.447c-.348-1.1-.393-6.091.147-7.109a8.82,8.82,0,0,1,2.26-2.59,14.225,14.225,0,0,1,10.293-3.438,10.557,10.557,0,0,1,6.4,3.059C277.453,213.76,280,233.765,271.608,239.865Z" transform="translate(-140.977 -153.236)" fill="url(#z)"/><path d="M199.536,252.261a7.18,7.18,0,0,0-2.76-1.965,14.012,14.012,0,0,0-3.9-.2c-.978-.027-1.947-.214-2.925-.268a11.351,11.351,0,0,0-9.467,4.537,12.9,12.9,0,0,0-2.148,10.373,17.336,17.336,0,0,0,1.527,4.113,16.776,16.776,0,0,0,3.979,5.251l-.2-9.288a4.814,4.814,0,0,0,4.041-.514,9.088,9.088,0,0,0,2.9-3c.13-.2.295-.447.536-.447s.447.308.558.563a8.478,8.478,0,0,0,4.631,4.1,19.727,19.727,0,0,0,6.212,1.139,1.6,1.6,0,0,0,1.34-.339,1.559,1.559,0,0,0,.281-.893A15.225,15.225,0,0,0,199.536,252.261Z" transform="translate(-99.186 -176.072)" fill="#606161"/><path d="M199.536,252.261a7.18,7.18,0,0,0-2.76-1.965,14.012,14.012,0,0,0-3.9-.2c-.978-.027-1.947-.214-2.925-.268a11.351,11.351,0,0,0-9.467,4.537,12.9,12.9,0,0,0-2.148,10.373,17.336,17.336,0,0,0,1.527,4.113,16.776,16.776,0,0,0,3.979,5.251l-.2-9.288a4.814,4.814,0,0,0,4.041-.514,9.088,9.088,0,0,0,2.9-3c.13-.2.295-.447.536-.447s.447.308.558.563a8.478,8.478,0,0,0,4.631,4.1,19.727,19.727,0,0,0,6.212,1.139,1.6,1.6,0,0,0,1.34-.339,1.559,1.559,0,0,0,.281-.893A15.225,15.225,0,0,0,199.536,252.261Z" transform="translate(-99.186 -176.072)" fill="url(#aa)"/><path d="M328.934,406.87c-3.644,2.8-7.641,5.278-10.476,8.9s-4.256,8.837-2.005,12.843c2.818,5.019,9.588,5.805,15.339,5.988,16.871.536,33.9.938,50.483-2.2a28.959,28.959,0,0,0-1.442-11.414,2.6,2.6,0,0,0-.6-1.094,2.9,2.9,0,0,0-2.286-.375,43.852,43.852,0,0,1-20.577-2.577l5.6-4.707c3.2-2.679,6.622-5.734,7.261-9.86.848-5.515-3.934-10.628-9.3-12.169-5.055-1.451-14.433-1.581-18.255,2.277C337.936,397.282,334.417,402.654,328.934,406.87Z" transform="translate(-175.181 -253.248)" fill="#606161"/><path d="M328.934,406.87c-3.644,2.8-7.641,5.278-10.476,8.9s-4.256,8.837-2.005,12.843c2.818,5.019,9.588,5.805,15.339,5.988,16.871.536,33.9.938,50.483-2.2a28.959,28.959,0,0,0-1.442-11.414,2.6,2.6,0,0,0-.6-1.094,2.9,2.9,0,0,0-2.286-.375,43.852,43.852,0,0,1-20.577-2.577l5.6-4.707c3.2-2.679,6.622-5.734,7.261-9.86.848-5.515-3.934-10.628-9.3-12.169-5.055-1.451-14.433-1.581-18.255,2.277C337.936,397.282,334.417,402.654,328.934,406.87Z" transform="translate(-175.181 -253.248)" fill="url(#ab)"/><path d="M361.868,424.745a4.739,4.739,0,0,1-1.63-1.233,56.513,56.513,0,0,0-5.47-4.823,4.659,4.659,0,0,0-1.786-.987c-1.224-.268-2.42.415-3.537.974a21.033,21.033,0,0,1-9.342,2.233,8.892,8.892,0,0,0-2.362.17,8.454,8.454,0,0,0-2.291,1.219,32.058,32.058,0,0,1-11.53,4.671c.634-1.809,2.429-2.885,3.983-4.019a24.941,24.941,0,0,0,4.564-4.274c1.491-1.786,2.746-3.831,4.533-5.359a22.266,22.266,0,0,1,5.055-2.934l7.453-3.483a6.131,6.131,0,0,1,2.26-.714c1.831-.076,3.3,1.465,4.39,2.934a45.511,45.511,0,0,1,5.024,8.592C361.707,418.887,365.168,425.938,361.868,424.745Z" transform="translate(-179.928 -262.608)" fill="url(#ac)"/><path d="M466.084,457.577a3.01,3.01,0,0,0-1.67.411,2.782,2.782,0,0,0-.862,1.5c-1.148,3.782-1.04,7.819-.893,11.771a4.149,4.149,0,0,0,.348,1.84,3.9,3.9,0,0,0,1.34,1.3,27.32,27.32,0,0,0,14.142,4.555,4.668,4.668,0,0,0,3.537-.942,4.5,4.5,0,0,0,.808-3.742,14.879,14.879,0,0,0-2-5.636c-1.076-1.764-2.51-3.282-3.7-4.97-1.121-1.6-1.5-5.068-3.077-6.136S468,457.47,466.084,457.577Z" transform="translate(-256.664 -290.755)" fill="#606161"/><path d="M465.851,452.876a3.014,3.014,0,0,0-1.67.415,2.756,2.756,0,0,0-.862,1.5c-1.152,3.782-1.045,7.819-.893,11.771a4.18,4.18,0,0,0,.348,1.835,3.9,3.9,0,0,0,1.362,1.308,27.348,27.348,0,0,0,14.125,4.555,4.694,4.694,0,0,0,3.532-.942,4.5,4.5,0,0,0,.808-3.742,14.8,14.8,0,0,0-2.014-5.636c-1.076-1.764-2.505-3.282-3.693-4.975-1.125-1.594-1.5-5.064-3.081-6.131S467.766,452.787,465.851,452.876Z" transform="translate(-256.533 -288.158)" fill="url(#ad)"/><path d="M149.664,416.783c-4.019-1.259-8.931-2.094-11.905.853a8.031,8.031,0,0,0-1.858,7.207,14.61,14.61,0,0,0,5.359,8.293,36.732,36.732,0,0,0,8.757,4.912c11.092,4.8,22.716,8.217,34.309,11.61a11.4,11.4,0,0,0,5.448.674c3.421-.719,5.359-4.269,6.819-7.44a1.683,1.683,0,0,0-.6-2.456c-6.229-5.6-13.4-9.078-20.836-12.874C166.959,423.41,158.493,419.414,149.664,416.783Z" transform="translate(-75.773 -267.837)" fill="#606161"/><path d="M149.664,416.783c-4.019-1.259-8.931-2.094-11.905.853a8.031,8.031,0,0,0-1.858,7.207,14.61,14.61,0,0,0,5.359,8.293,36.732,36.732,0,0,0,8.757,4.912c11.092,4.8,22.716,8.217,34.309,11.61a11.4,11.4,0,0,0,5.448.674c3.421-.719,5.359-4.269,6.819-7.44a1.683,1.683,0,0,0-.6-2.456c-6.229-5.6-13.4-9.078-20.836-12.874C166.959,423.41,158.493,419.414,149.664,416.783Z" transform="translate(-75.773 -267.837)" fill="url(#ae)"/><path d="M189.243,475.675a5.811,5.811,0,0,0-1.871,2.469,4.133,4.133,0,0,0,1.831,4.376,8.816,8.816,0,0,0,4.854,1.237c3.831.063,18.4-6.453,17.992-7.4-.933-2.152-4.381-7.591-7.011-7.873C201.515,468.1,191.668,473.523,189.243,475.675Z" transform="translate(-104.282 -297.078)" fill="#78b2f7"/><path d="M189.243,475.675a5.811,5.811,0,0,0-1.871,2.469,4.133,4.133,0,0,0,1.831,4.376,8.816,8.816,0,0,0,4.854,1.237c3.831.063,18.4-6.453,17.992-7.4-.933-2.152-4.381-7.591-7.011-7.873C201.515,468.1,191.668,473.523,189.243,475.675Z" transform="translate(-104.282 -297.078)" fill="#606161"/><path d="M189.243,475.675a5.811,5.811,0,0,0-1.871,2.469,4.133,4.133,0,0,0,1.831,4.376,8.816,8.816,0,0,0,4.854,1.237c3.831.063,18.4-6.453,17.992-7.4-.933-2.152-4.381-7.591-7.011-7.873C201.515,468.1,191.668,473.523,189.243,475.675Z" transform="translate(-104.282 -297.078)" fill="url(#af)"/><path d="M218.554,467.869a3.978,3.978,0,0,0-2.233,1.742,3.251,3.251,0,0,0-.165,1.742c.246,1.934,1.4,3.93,3.287,4.421,1.6.42,3.26-.33,4.747-1.063a18.343,18.343,0,0,0,6.149-4.171,2.85,2.85,0,0,0,.848-2.465,3.367,3.367,0,0,0-.893-1.34c-1.456-1.509-2.862-2.8-4.867-1.992C223.091,465.677,220.827,466.851,218.554,467.869Z" transform="translate(-120.259 -294.881)" fill="url(#ag)"/><path d="M272.624,459.936c2.818.893,5.39,2.492,8.221,3.354s6.212.862,8.422-1.107a3.685,3.685,0,0,0,.987-1.295,5.193,5.193,0,0,0,.228-2.474,44.109,44.109,0,0,0-1.34-7.815,5.565,5.565,0,0,0-1.21-2.554c-1.157-1.174-3.023-1.17-4.675-1.085l-8.784.447c-2.925.147-6.3.54-7.891,3a9.247,9.247,0,0,0-1.036,2.679c-.487,1.786-1.929,4.3.125,5.43a9.873,9.873,0,0,0,3.211.589C270.052,459.275,271.477,459.936,272.624,459.936Z" transform="translate(-147.098 -285.157)" fill="#606161"/><path d="M272.624,459.936c2.818.893,5.39,2.492,8.221,3.354s6.212.862,8.422-1.107a3.685,3.685,0,0,0,.987-1.295,5.193,5.193,0,0,0,.228-2.474,44.109,44.109,0,0,0-1.34-7.815,5.565,5.565,0,0,0-1.21-2.554c-1.157-1.174-3.023-1.17-4.675-1.085l-8.784.447c-2.925.147-6.3.54-7.891,3a9.247,9.247,0,0,0-1.036,2.679c-.487,1.786-1.929,4.3.125,5.43a9.873,9.873,0,0,0,3.211.589C270.052,459.275,271.477,459.936,272.624,459.936Z" transform="translate(-147.098 -285.157)" fill="url(#ah)"/><path d="M267.977,487.144a23.768,23.768,0,0,0,5.935.643,9.777,9.777,0,0,0,5.613-1.9,4.72,4.72,0,0,0,1.871-4.867c-.7-2.206-3.363-3.3-5.805-4-2.38-.674-5.135-1.165-7.382,0a10.109,10.109,0,0,0-2.572,2.143,9.994,9.994,0,0,0-1.831,2.318C262.248,484.536,264.954,486.527,267.977,487.144Z" transform="translate(-146.407 -301.423)" fill="#606161"/><path d="M267.977,487.144a23.768,23.768,0,0,0,5.935.643,9.777,9.777,0,0,0,5.613-1.9,4.72,4.72,0,0,0,1.871-4.867c-.7-2.206-3.363-3.3-5.805-4-2.38-.674-5.135-1.165-7.382,0a10.109,10.109,0,0,0-2.572,2.143,9.994,9.994,0,0,0-1.831,2.318C262.248,484.536,264.954,486.527,267.977,487.144Z" transform="translate(-146.407 -301.423)" fill="url(#ai)"/><path d="M257.051,480.938a7.16,7.16,0,0,0,6.805,3.505,5.368,5.368,0,0,0,3.764-1.67c1.648-1.951.656-4.814-4.854-6.6C260.548,475.458,256.632,480.138,257.051,480.938Z" transform="translate(-142.903 -301.304)" fill="url(#aj)"/><path d="M412.379,182.423c.147-.563.558-1.157,1.139-1.143a1.081,1.081,0,0,1,.866.581,2.648,2.648,0,0,1,.272,1.049,11.337,11.337,0,0,1-.045,2.751,2.751,2.751,0,0,1-.84,1.853.165.165,0,0,1-.286-.045,6.814,6.814,0,0,1-.969-2.483A5.931,5.931,0,0,1,412.379,182.423Z" transform="translate(-228.832 -138.135)" fill="url(#ak)"/><path d="M356.246,198.877a1.067,1.067,0,0,0-.741.317,1.054,1.054,0,0,0-.2.665c-.036,1.625,1.291,2.97,2.706,3.773.6.339,1.411.6,1.925.143s.348-1.282.089-1.916C359.359,200.2,358.3,198.672,356.246,198.877Z" transform="translate(-197.3 -147.864)" fill="url(#al)"/><path d="M359.358,181.465c2.018,4.2,4.1,8.485,7.431,11.74a7.86,7.86,0,0,0,7.65,2.438,9.192,9.192,0,0,0,5.359-2.309,9.007,9.007,0,0,0,1.755-2.8c2.987-6.984,1.2-15.183-2.358-21.908a13.207,13.207,0,0,0-4.439-5.359c-2.822-1.742-6.448-1.509-9.623-.581-2.773.813-8.931,2.9-9.525,6.221C354.888,172.9,357.7,178.018,359.358,181.465Z" transform="translate(-197.401 -127.448)" fill="url(#am)"/><path d="M346.722,160.467a9.221,9.221,0,0,1-1.282-3.037,3.131,3.131,0,0,1,1-2.992,2.331,2.331,0,0,0,.576-.487,1.786,1.786,0,0,0,.2-.933c.161-3.054,2.679-5.573,5.542-6.7s6-1.1,9.056-1.112,6.221-.076,9.02-1.308a4.774,4.774,0,0,1-.022,2.934c.723-.447,1.715.3,1.813,1.157a3.819,3.819,0,0,1-.835,2.367c1.786.447,2.711,2.461,2.876,4.291s-.156,3.72.308,5.5a7.172,7.172,0,0,1,.339,1.487,1.375,1.375,0,0,1-.616,1.331,23.491,23.491,0,0,0-4.22-7.185,7.762,7.762,0,0,0-1.742-1.84,2.652,2.652,0,0,0-2.416-.393,10.468,10.468,0,0,0-1.487,1,5.48,5.48,0,0,1-1.934.634c-3.823.706-7.984.67-11.186,2.876a2.5,2.5,0,0,0-.956,1.023,2.88,2.88,0,0,0-.063,1.474l.665,5.131a5.014,5.014,0,0,0,1.188,3.1A35.658,35.658,0,0,1,346.722,160.467Z" transform="translate(-191.812 -117.448)" fill="#606161"/><path d="M346.722,160.467a9.221,9.221,0,0,1-1.282-3.037,3.131,3.131,0,0,1,1-2.992,2.331,2.331,0,0,0,.576-.487,1.786,1.786,0,0,0,.2-.933c.161-3.054,2.679-5.573,5.542-6.7s6-1.1,9.056-1.112,6.221-.076,9.02-1.308a4.774,4.774,0,0,1-.022,2.934c.723-.447,1.715.3,1.813,1.157a3.819,3.819,0,0,1-.835,2.367c1.786.447,2.711,2.461,2.876,4.291s-.156,3.72.308,5.5a7.172,7.172,0,0,1,.339,1.487,1.375,1.375,0,0,1-.616,1.331,23.491,23.491,0,0,0-4.22-7.185,7.762,7.762,0,0,0-1.742-1.84,2.652,2.652,0,0,0-2.416-.393,10.468,10.468,0,0,0-1.487,1,5.48,5.48,0,0,1-1.934.634c-3.823.706-7.984.67-11.186,2.876a2.5,2.5,0,0,0-.956,1.023,2.88,2.88,0,0,0-.063,1.474l.665,5.131a5.014,5.014,0,0,0,1.188,3.1A35.658,35.658,0,0,1,346.722,160.467Z" transform="translate(-191.812 -117.448)" fill="url(#an)"/><path d="M151.591,381.956a28.885,28.885,0,0,1,3.572.045c.893.067,2.032.384,2.157,1.282a1.606,1.606,0,0,1-1.219,1.563c-.674.223-1.416.246-2.09.5a6.64,6.64,0,0,1,3.809.951,1.031,1.031,0,0,1,.411.384c.241.487-.295.991-.777,1.233a8.512,8.512,0,0,1-2.01.7,5.1,5.1,0,0,1,2.376.647,1.536,1.536,0,0,1,.71.688,1.224,1.224,0,0,1-.665,1.442,3.546,3.546,0,0,1-1.706.272,3.791,3.791,0,0,1,1.389.723,1.3,1.3,0,0,1,.38,1.42c-.263.567-.978.728-1.594.817l-3.729.554a3.786,3.786,0,0,1-1.143.058,2.483,2.483,0,0,1-1.3-.661c-1.34-1.228-1.442-3.264-1.451-5.077l-.027-4.193A2.977,2.977,0,0,1,151.591,381.956Z" transform="translate(-82.942 -249.18)" fill="url(#ao)"/><path d="M259.2,400.761c2.938-2.179,5.921-4.39,9.346-5.676s7.4-1.558,10.65.121,5.435,5.622,4.358,9.114a12.094,12.094,0,0,1-2.42,3.992A79.932,79.932,0,0,1,258.987,427.8c-8.587,4.908-18.492,7.775-28.365,7.3a1.393,1.393,0,0,1-1.563-1.161L227.589,430a4.093,4.093,0,0,1,1.558-5.555C238.458,415.757,248.993,408.308,259.2,400.761Z" transform="translate(-126.337 -255.883)" fill="#606161"/><path d="M259.2,400.761c2.938-2.179,5.921-4.39,9.346-5.676s7.4-1.558,10.65.121,5.435,5.622,4.358,9.114a12.094,12.094,0,0,1-2.42,3.992A79.932,79.932,0,0,1,258.987,427.8c-8.587,4.908-18.492,7.775-28.365,7.3a1.393,1.393,0,0,1-1.563-1.161L227.589,430a4.093,4.093,0,0,1,1.558-5.555C238.458,415.757,248.993,408.308,259.2,400.761Z" transform="translate(-126.337 -255.883)" fill="url(#ap)"/><path d="M390.171,325.991c3.4.616,6.783-.951,9.891-2.478l7.507-3.689a7.435,7.435,0,0,1,2.952-.974,2.553,2.553,0,0,1,2.55,1.438,2.786,2.786,0,0,1-1.174,3,22.008,22.008,0,0,1-3.05,1.6c-2.929,1.6-4.667,4.765-7.359,6.743a15.232,15.232,0,0,1-5.6,2.4c-5.189,1.219-11.061.6-15.183-2.8-2.536-2.09-7.341-10.887-2.679-13.254,2.371-1.2,3.934,2.135,5.278,3.572C385.21,323.6,387.367,325.482,390.171,325.991Z" transform="translate(-208.789 -213.653)" fill="url(#aq)"/><path d="M311.857,369.6s-4.086,7.3-.295,13.866,19.845,8.61,22.774,6.127,8.319-7,8.319-7-1.313-3.068,1.165-7.882,3.939-6.127,4.961-5.546,7.734,7.591,8.61,11.24,6.569,4.814,8.319,4.961,7.145-2.483,7.145-2.483-.728-8.172-3.648-11.235-9.047-13.281-17.8-9.342-14.884,6.131-14.884,6.131Z" transform="translate(-172.197 -237.831)" fill="#606161"/><path d="M311.857,369.6s-4.086,7.3-.295,13.866,19.845,8.61,22.774,6.127,8.319-7,8.319-7-1.313-3.068,1.165-7.882,3.939-6.127,4.961-5.546,7.734,7.591,8.61,11.24,6.569,4.814,8.319,4.961,7.145-2.483,7.145-2.483-.728-8.172-3.648-11.235-9.047-13.281-17.8-9.342-14.884,6.131-14.884,6.131Z" transform="translate(-172.197 -237.831)" fill="url(#ar)"/><path d="M317.5,309.379c-1.157,4.113-.625,8.525-1.474,12.713-.527,2.626-1.59,5.126-2.005,7.77s-.063,5.622,1.84,7.511a8.27,8.27,0,0,0,4.113,2.027,19.418,19.418,0,0,0,10.373-.893,58.285,58.285,0,0,0,9.485-4.573,8.123,8.123,0,0,0,2.2-1.572c1.21-1.34,1.38-3.331,1.407-5.153.058-3.635-.2-7.31.509-10.878.5-2.532,1.474-5.006,1.389-7.591a9.48,9.48,0,0,0-5-7.922c-2.586-1.34-5.533-1.38-8.337-1.925-2.353-.447-3.541-.79-5.845.317A16.429,16.429,0,0,0,317.5,309.379Z" transform="translate(-174.362 -202.994)" fill="#78b2f7"/><path d="M317.5,309.379c-1.157,4.113-.625,8.525-1.474,12.713-.527,2.626-1.59,5.126-2.005,7.77s-.063,5.622,1.84,7.511a8.27,8.27,0,0,0,4.113,2.027,19.418,19.418,0,0,0,10.373-.893,58.285,58.285,0,0,0,9.485-4.573,8.123,8.123,0,0,0,2.2-1.572c1.21-1.34,1.38-3.331,1.407-5.153.058-3.635-.2-7.31.509-10.878.5-2.532,1.474-5.006,1.389-7.591a9.48,9.48,0,0,0-5-7.922c-2.586-1.34-5.533-1.38-8.337-1.925-2.353-.447-3.541-.79-5.845.317A16.429,16.429,0,0,0,317.5,309.379Z" transform="translate(-174.362 -202.994)" fill="url(#as)"/><path d="M316.47,355.781c-.161,2.581-.031,5.635,2.108,7.087a6.461,6.461,0,0,0,3.1.915,20.369,20.369,0,0,0,6.372-.447c.759-.174,5.886-2.135,5.886-2.135-.21-.322-7.323-2.461-8.484-3.452-1.871-1.563-1.786-4.443-1.264-6.823s1.264-4.961.21-7.145-5.5-4.166-6.5-1.2C316.564,346.493,316.72,351.673,316.47,355.781Z" transform="translate(-175.778 -226.577)" fill="url(#at)"/><path d="M329.784,235.153a6.818,6.818,0,0,0-1.429,3.054,18.41,18.41,0,0,0-.393,6.667c.38,3.054,1.5,6.252.3,9.1-.375.893-.951,1.648-1.34,2.51a3.452,3.452,0,0,0-.272,2.76,1.407,1.407,0,0,0,.567.7,1.371,1.371,0,0,0,1.527-.272,4.019,4.019,0,0,0,.893-1.384,1.248,1.248,0,0,0,.835,1.683,2.032,2.032,0,0,0,1.943-.683,6.036,6.036,0,0,0,1.045-1.884,2.867,2.867,0,0,0,.567,1.215c1.34-.322,2.108-1.755,2.608-3.059a24.142,24.142,0,0,0,1.786-11.334C338.055,241.293,333.924,230.607,329.784,235.153Z" transform="translate(-181.345 -167.337)" fill="#606161"/><path d="M329.784,235.153a6.818,6.818,0,0,0-1.429,3.054,18.41,18.41,0,0,0-.393,6.667c.38,3.054,1.5,6.252.3,9.1-.375.893-.951,1.648-1.34,2.51a3.452,3.452,0,0,0-.272,2.76,1.407,1.407,0,0,0,.567.7,1.371,1.371,0,0,0,1.527-.272,4.019,4.019,0,0,0,.893-1.384,1.248,1.248,0,0,0,.835,1.683,2.032,2.032,0,0,0,1.943-.683,6.036,6.036,0,0,0,1.045-1.884,2.867,2.867,0,0,0,.567,1.215c1.34-.322,2.108-1.755,2.608-3.059a24.142,24.142,0,0,0,1.786-11.334C338.055,241.293,333.924,230.607,329.784,235.153Z" transform="translate(-181.345 -167.337)" fill="url(#au)"/><path d="M360.221,294.576a13.1,13.1,0,0,1-.246,4.626c-.478,1.5-1.884,2.715-2.929,2.059a3.313,3.313,0,0,1-.991-1.34l-3.657-7.185a3.685,3.685,0,0,1-.482-1.433c-.049-.893.335-2.188.348-3.032,0-1.42-.322-3.336,0-4.171s2.4.808,2.934.138a1.8,1.8,0,0,1,2.2-.308,5.88,5.88,0,0,1,2.912,4.363c.076.447.183.853.277,1.286.161.746.214.366.045,1.174A14.094,14.094,0,0,0,360.221,294.576Z" transform="translate(-195.42 -194.817)" fill="url(#av)"/><path d="M355.006,292.752c1.054,2.01,2.233,4.166,4.332,5.068a1.21,1.21,0,0,0,.732.134,1.1,1.1,0,0,0,.5-.3,4.125,4.125,0,0,0,.857-2.648l.179-2.184a.8.8,0,0,0-.085-.549.817.817,0,0,0-.339-.228l-5.051-2.233c-.585-.263-1.9-.737-2.233.112C353.635,290.582,354.7,292.167,355.006,292.752Z" transform="translate(-196.497 -197.995)" fill="url(#aw)"/><path d="M358.092,268.948a12.883,12.883,0,0,1-7.1-5.176,8.512,8.512,0,0,1-1.116-2.188,10.026,10.026,0,0,1-.393-2.8,24.279,24.279,0,0,1,2.344-10.976,9.252,9.252,0,0,1,1.514-2.38,9.147,9.147,0,0,1,5.332-2.434,30.69,30.69,0,0,1,4.568-.366,5.886,5.886,0,0,1,2.541.362,4.729,4.729,0,0,1,1.536,1.219c1.134,1.273,1.165,3,1.4,4.711C368.97,250.75,366.782,271.31,358.092,268.948Z" transform="translate(-194.072 -172.078)" fill="url(#ax)"/><path d="M367.162,235.8a19.286,19.286,0,0,0-2.38-6.377,6.315,6.315,0,0,0-1.92-2.416,6.659,6.659,0,0,0-2.268-.768l-4.783-1a20.275,20.275,0,0,0-4.1-.567,11.439,11.439,0,0,0-10.342,7.676,14.389,14.389,0,0,0,2.233,13,1.215,1.215,0,0,0,.746.572c.514.058.866-.5,1.058-.982.616-1.541,1.04-3.162,1.786-4.649a6.542,6.542,0,0,1,3.461-3.412,17.827,17.827,0,0,1,2.389-.482,8.93,8.93,0,0,0,3.689-1.706.867.867,0,0,1,.7-.272c.232.063.357.308.482.514.862,1.42,2.773,1.786,3.925,3.005a14.321,14.321,0,0,1,1.532,2.411C366.207,244.85,367.488,238.134,367.162,235.8Z" transform="translate(-189.197 -162.15)" fill="#606161"/><path d="M367.162,235.8a19.286,19.286,0,0,0-2.38-6.377,6.315,6.315,0,0,0-1.92-2.416,6.659,6.659,0,0,0-2.268-.768l-4.783-1a20.275,20.275,0,0,0-4.1-.567,11.439,11.439,0,0,0-10.342,7.676,14.389,14.389,0,0,0,2.233,13,1.215,1.215,0,0,0,.746.572c.514.058.866-.5,1.058-.982.616-1.541,1.04-3.162,1.786-4.649a6.542,6.542,0,0,1,3.461-3.412,17.827,17.827,0,0,1,2.389-.482,8.93,8.93,0,0,0,3.689-1.706.867.867,0,0,1,.7-.272c.232.063.357.308.482.514.862,1.42,2.773,1.786,3.925,3.005a14.321,14.321,0,0,1,1.532,2.411C366.207,244.85,367.488,238.134,367.162,235.8Z" transform="translate(-189.197 -162.15)" fill="url(#ay)"/><path d="M382.693,314.111c1.125,1.429,2.3,3,2.318,4.818a7.563,7.563,0,0,1-.518,2.478c-.469,1.393-1.014,2.764-1.617,4.1a2.812,2.812,0,0,1-1.393,1.648,5.368,5.368,0,0,1-2.737-4.2,23.646,23.646,0,0,1,.13-5.207c.085-1.228.1-2.456.071-3.684,0-.71-.531-3.023-.147-3.572C379.638,309.3,382.117,313.383,382.693,314.111Z" transform="translate(-210.211 -209.529)" fill="#78b2f7"/><path d="M382.693,314.111c1.125,1.429,2.3,3,2.318,4.818a7.563,7.563,0,0,1-.518,2.478c-.469,1.393-1.014,2.764-1.617,4.1a2.812,2.812,0,0,1-1.393,1.648,5.368,5.368,0,0,1-2.737-4.2,23.646,23.646,0,0,1,.13-5.207c.085-1.228.1-2.456.071-3.684,0-.71-.531-3.023-.147-3.572C379.638,309.3,382.117,313.383,382.693,314.111Z" transform="translate(-210.211 -209.529)" fill="url(#az)"/><path d="M320.53,310.8c-1.559,2.175-3.769,4.778-4.912,7.2-1.09,2.331-1.116,11.369-.652,11.552,2.13.857,6.346.67,8.587.179a1.43,1.43,0,0,0,.826-.4,1.527,1.527,0,0,0,.268-1.027c-.022-2.7-1.063-6.832-1.09-9.534a13.311,13.311,0,0,0-.424-3.9c-.393-1.25-1.152-3.126-2.452-2.929Z" transform="translate(-174.815 -209.818)" fill="#78b2f7"/><path d="M322.607,313.722a1.884,1.884,0,0,0-3.224-.335,34.987,34.987,0,0,0-3.724,5.622c-1.09,2.331-1.116,11.369-.652,11.552,2.13.857,6.345.67,8.587.179a1.429,1.429,0,0,0,.826-.4,1.527,1.527,0,0,0,.25-1.027c-.022-2.7-1.063-6.832-1.09-9.534,0-1.313-.3-2.594-.424-3.9a6.918,6.918,0,0,0-.549-2.157Z" transform="translate(-174.837 -210.829)" fill="url(#ba)"/><path d="M437.117,320.434c2.085-5.144,7.757-9.4,12.981-7.538,17.192,6.145,9.556,47.036,10.034,64.849a4.564,4.564,0,0,1-1.849,3.715c-.826.589-6.493-.371-7.5-.268-3.269.335-10.57-38.5-14.017-43.981C433.66,332.276,434.955,325.752,437.117,320.434Z" transform="translate(-241.36 -210.731)" fill="#606161"/><path d="M437.117,320.434c2.085-5.144,7.757-9.4,12.981-7.538,17.192,6.145,9.556,47.036,10.034,64.849a4.564,4.564,0,0,1-1.849,3.715c-.826.589-6.493-.371-7.5-.268-3.269.335-10.57-38.5-14.017-43.981C433.66,332.276,434.955,325.752,437.117,320.434Z" transform="translate(-241.36 -210.731)" fill="url(#bb)"/><path d="M274.041,391.471a2.108,2.108,0,0,0,.589,1.884,2.559,2.559,0,0,0,.661.335l2.233.893a1.018,1.018,0,0,0,.893.049c.179-.116.259-.33.4-.491a1.439,1.439,0,0,1,1.724-.085,3.345,3.345,0,0,1,1.17,1.049c.25.366.473.817.893.933a1.125,1.125,0,0,0,1.125-.5c.893-1.165.411-2.889-.406-4.117a9.686,9.686,0,0,0-5.243-3.867C275.751,386.827,274.233,389.3,274.041,391.471Z" transform="translate(-152.314 -252.224)" fill="url(#bc)"/><path d="M222.82,383.7c.924.786.7,2.291.121,3.358-1.518,2.822-8.761,7.788-12.035,5.444-2.907-2.081,1.411-6.783,3.206-8.016C216.211,383.037,220.632,381.831,222.82,383.7Z" transform="translate(-116.839 -249.635)" fill="url(#bd)"/><path d="M386.012,396.487l12.383,14.589c.509.607.915,1.317,1.67,1.554,1.246.389,5.747,1.273,5.555.741-4.515-12.7-7.98-24.413-14.66-32.786a6.029,6.029,0,0,0-2.639-2.179c-1.817-.585-3.822.639-4.774,2.3C380.439,386.181,382.345,392.151,386.012,396.487Z" transform="translate(-212.065 -247.152)" fill="url(#be)"/><path d="M413.283,375.266c.174-1.951,1.4-3.952,3.309-4.39a4.627,4.627,0,0,1,2.679.281c3.1,1.219,4.783,4.528,5.921,7.654,3.26,8.953,6.761,20.952,5.479,30.388-.107.777-3.184.447-3.965.389-.5-.04-5.613-11.834-7.922-17.416C416.811,387.439,412.814,380.548,413.283,375.266Z" transform="translate(-229.365 -243.02)" fill="url(#bf)"/><path d="M345.634,267.025a1.657,1.657,0,0,0-.612,0,1.134,1.134,0,0,0-.7.563,2.509,2.509,0,0,0-.263.893,3.626,3.626,0,0,0,.353,2.3,2.094,2.094,0,0,0,1.947,1.1.8.8,0,0,0,.415-.143,1.032,1.032,0,0,0,.281-.683,8.826,8.826,0,0,0,.313-2.9C347.193,267.382,346.309,267.123,345.634,267.025Z" transform="translate(-191.046 -185.575)" fill="url(#bg)"/><path d="M346.35,269.32a.8.8,0,0,0-.732.5,1.228,1.228,0,0,0-.049.527,2.39,2.39,0,0,0,.353,1.157,1.308,1.308,0,0,0,1.206.639.447.447,0,0,0,.384-.67,5.216,5.216,0,0,1-.389-1.179C347.1,269.825,346.921,269.333,346.35,269.32Z" transform="translate(-191.904 -186.861)" fill="url(#bh)"/><path d="M256.023,220.287a4.676,4.676,0,0,0,1.317.192c1.585.076,3.3.112,4.6-.786s1.876-2.487,2.362-3.979,1.027-3.09,2.282-4.019c1.34-.991,3.3-1.134,4.224-2.51a1.715,1.715,0,0,0,.317-1.157,2.582,2.582,0,0,0-.728-1.246,4.957,4.957,0,0,0-1.884-1.536,4.537,4.537,0,0,0-1.541-.25,44.279,44.279,0,0,0-4.867.219,12.824,12.824,0,0,0-4.707,1.116,10.794,10.794,0,0,0-3.519,3.179,11.088,11.088,0,0,0-2,3.675,5.08,5.08,0,0,0,.755,4.733,10.236,10.236,0,0,0,3.385,2.367Z" transform="translate(-139.918 -151.261)" fill="#606161"/><path d="M283.49,195.71a12.965,12.965,0,0,1,4.626,1.34c3.3,1.5,6.564,3.358,8.761,6.252s3.126,6.975,1.465,10.19a34.835,34.835,0,0,0-4.064-6.551,16.97,16.97,0,0,0-3.126-2.961c-.951-.679-2.1-1.032-2.679-2.076C287.076,199.412,286.058,197.286,283.49,195.71Z" transform="translate(-157.553 -146.122)" fill="url(#bi)"/><path d="M376.88,311.859c-.027.277,0,.616.237.741a.67.67,0,0,0,.536-.049,3.184,3.184,0,0,0,1.34-1.125,4.653,4.653,0,0,0-.447,2.594c.036.295.138.634.415.732a.755.755,0,0,0,.665-.174,2.546,2.546,0,0,0,.969-1.411,7.145,7.145,0,0,0-.335,3.255.723.723,0,0,0,.29.585.656.656,0,0,0,.581-.058,4.171,4.171,0,0,0,1.728-1.943,3.318,3.318,0,0,0,.5-1.925,1.343,1.343,0,0,0-1.34-1.224c.1,0-1.893-3.572-2.849-3.747C377.29,307.769,377.014,310.471,376.88,311.859Z" transform="translate(-209.234 -208.314)" fill="url(#bj)"/><path d="M70,404a62.475,62.475,0,0,1,4.1,7.757,31.358,31.358,0,0,1,2.152,8.19c.545,4.466,0,9.329-2.679,12.95a.415.415,0,0,1-.232.188c-.174.027-.3-.161-.371-.322q-2.8-6.2-5.609-12.4c-.822-1.813-1.643-3.63-2.291-5.51a32.433,32.433,0,0,1-1.514-14.459c.179-1.469.259-4.608,2.4-3.126C67.617,398.408,68.984,402.293,70,404Z" transform="translate(-35.702 -257.459)" fill="#78b2f7" opacity="0.5"/><path d="M70,404a62.475,62.475,0,0,1,4.1,7.757,31.358,31.358,0,0,1,2.152,8.19c.545,4.466,0,9.329-2.679,12.95a.415.415,0,0,1-.232.188c-.174.027-.3-.161-.371-.322q-2.8-6.2-5.609-12.4c-.822-1.813-1.643-3.63-2.291-5.51a32.433,32.433,0,0,1-1.514-14.459c.179-1.469.259-4.608,2.4-3.126C67.617,398.408,68.984,402.293,70,404Z" transform="translate(-35.702 -257.459)" fill="url(#bk)"/><path d="M577.233,426.866c.621-3.572,3.711-6.216,4.975-9.623a17.332,17.332,0,0,0,.844-3.965,74.284,74.284,0,0,0,.183-16.487c-.813-8.078-3.291-4.488-5.484,1A40.9,40.9,0,0,0,577.233,426.866Z" transform="translate(-318.785 -254.793)" fill="#78b2f7" opacity="0.24"/><path d="M577.233,426.866c.621-3.572,3.711-6.216,4.975-9.623a17.332,17.332,0,0,0,.844-3.965,74.284,74.284,0,0,0,.183-16.487c-.813-8.078-3.291-4.488-5.484,1A40.9,40.9,0,0,0,577.233,426.866Z" transform="translate(-318.785 -254.793)" fill="url(#bl)"/></g></svg>