<svg xmlns="http://www.w3.org/2000/svg" xmlns:xlink="http://www.w3.org/1999/xlink" width="184.85" height="148.008" viewBox="0 0 184.85 148.008"><defs><style>.a,.b,.c{fill:#68e1fd;}.a{opacity:0.24;}.b{opacity:0.55;}.d{fill:url(#a);}.e{fill:#606161;}.f{fill:url(#b);}.g{fill:url(#c);}.h{fill:url(#d);}.i{fill:#0072ff;}.j{fill:url(#e);}.k{fill:url(#f);}.l{fill:url(#g);}.m{fill:url(#h);}.n{fill:url(#i);}.o{fill:url(#j);}.p{fill:url(#k);}.q{fill:#ff715b;}.r{fill:url(#l);}.s{fill:url(#m);}.t{fill:url(#n);}.u{fill:url(#o);}.v{fill:url(#p);}.w{fill:url(#q);}.x{fill:url(#r);}.y{fill:url(#s);}.z{fill:url(#t);}.aa{fill:url(#u);}.ab{fill:none;}.ac{fill:url(#v);}.ad{fill:url(#w);}.ae{fill:url(#x);}.af{fill:url(#y);}.ag{fill:url(#z);}.ah{fill:url(#aa);}.ai{fill:url(#ab);}.aj{fill:url(#ac);}.ak{opacity:0.79;fill:url(#ad);}.al{fill:url(#ae);}</style><linearGradient id="a" x1="0.604" y1="0.475" x2="-0.585" y2="0.64" gradientUnits="objectBoundingBox"><stop offset="0.12" stop-color="#010101" stop-opacity="0"/><stop offset="0.95" stop-color="#010101"/></linearGradient><linearGradient id="b" x1="0.134" y1="0.539" x2="1.485" y2="0.456" xlink:href="#a"/><linearGradient id="c" x1="0.001" y1="0.5" x2="1" y2="0.5" xlink:href="#a"/><linearGradient id="d" x1="0.001" y1="0.5" x2="1" y2="0.5" xlink:href="#a"/><linearGradient id="e" x1="1.004" y1="0.581" x2="0.184" y2="0.443" xlink:href="#a"/><linearGradient id="f" x1="0.253" y1="0.637" x2="2.245" y2="-0.317" xlink:href="#a"/><linearGradient id="g" x1="1.408" y1="0.515" x2="-3.233" y2="0.431" xlink:href="#a"/><linearGradient id="h" y1="0.5" x2="1.002" y2="0.5" gradientUnits="objectBoundingBox"><stop offset="0" stop-color="#e5c6d6"/><stop offset="0.42" stop-color="#ead4d0"/><stop offset="1" stop-color="#f0e9cb"/></linearGradient><linearGradient id="i" x1="1.726" y1="0.526" x2="-4.191" y2="0.373" xlink:href="#a"/><linearGradient id="j" x1="0.001" y1="0.5" x2="1" y2="0.5" xlink:href="#h"/><linearGradient id="k" x1="0.688" y1="0.17" x2="-0.447" y2="2.027" xlink:href="#a"/><linearGradient id="l" x1="10.089" y1="2.222" x2="11.104" y2="2.222" xlink:href="#h"/><linearGradient id="m" x1="11.137" y1="3.925" x2="12.316" y2="2.177" xlink:href="#a"/><linearGradient id="n" x1="0.398" y1="0.436" x2="1.011" y2="0.847" xlink:href="#a"/><linearGradient id="o" x1="0" y1="0.5" x2="1" y2="0.5" xlink:href="#a"/><linearGradient id="p" x1="-0.001" y1="0.5" x2="1.001" y2="0.5" xlink:href="#h"/><linearGradient id="q" x1="1.423" y1="0.508" x2="-2.663" y2="0.466" xlink:href="#a"/><linearGradient id="r" x1="5.137" y1="1.526" x2="6.16" y2="1.526" xlink:href="#h"/><linearGradient id="s" x1="0.001" y1="0.502" x2="1" y2="0.502" xlink:href="#a"/><linearGradient id="t" x1="0" y1="0.501" x2="1" y2="0.501" xlink:href="#a"/><linearGradient id="u" x1="0" y1="0.499" x2="1" y2="0.499" xlink:href="#a"/><linearGradient id="v" x1="6.794" y1="1.67" x2="7.418" y2="1.67" xlink:href="#h"/><linearGradient id="w" x1="-0.736" y1="0.183" x2="4.119" y2="1.305" xlink:href="#a"/><linearGradient id="x" x1="3.993" y1="1.772" x2="5.006" y2="1.772" xlink:href="#h"/><linearGradient id="y" x1="1.414" y1="1.206" x2="2.359" y2="1.206" xlink:href="#h"/><linearGradient id="z" x1="0" y1="0.498" x2="0.998" y2="0.498" xlink:href="#h"/><linearGradient id="aa" x1="-0.001" y1="0.5" x2="1" y2="0.5" xlink:href="#h"/><linearGradient id="ab" x1="0" y1="0.5" x2="1" y2="0.5" xlink:href="#h"/><linearGradient id="ac" x1="-0.001" y1="0.5" x2="0.998" y2="0.5" xlink:href="#h"/><linearGradient id="ad" x1="0.218" y1="0.593" x2="1.458" y2="0.204" xlink:href="#a"/><linearGradient id="ae" x1="0" y1="0.5" x2="1" y2="0.5" xlink:href="#a"/></defs><g transform="translate(0 0.023)"><path class="a" d="M184.306,140.747c-1.294,5.494-4.843,9.993-9.135,13.75a63.073,63.073,0,0,1-6.955,5.286,52.148,52.148,0,0,1-14.061,7.2c-14.112,4.2-29.891-1.5-43.755,3.4-5.372,1.891-10.058,5.267-15.066,7.957a65.1,65.1,0,0,1-37.248,7.066c-17.383-1.758-33.637-11.225-44.5-24.46C-1.234,142.929-6.044,117.921,9.9,95.892c8.494-11.714,21.5-19.276,31.477-29.759,4.321-4.521,8.06-9.591,12.84-13.615C59.823,47.8,66.64,44.737,73.544,42.274c13.834-4.913,30.14-7.292,42.475.654,16.089,10.388,18.272,33.159,30.469,47.925,7.006,8.473,16.97,13.885,25.216,21.159S186.842,130.046,184.306,140.747Z" transform="translate(0.01 -37.78)"/><path class="a" d="M211.908,467.436a63.071,63.071,0,0,1-6.955,5.286,52.148,52.148,0,0,1-14.061,7.2c-14.112,4.2-29.891-1.5-43.755,3.4-5.372,1.891-10.058,5.267-15.066,7.957a65.1,65.1,0,0,1-37.248,7.066c-17.383-1.758-33.637-11.225-44.5-24.46,7.379-3.436,19.247-4.2,23.965-4.77,25.567-3.114,51.318,4.945,77.03,3.344C171.616,471.2,191.916,463.925,211.908,467.436Z" transform="translate(-36.726 -350.713)"/><path class="b" d="M143.342,498.312a11.959,11.959,0,0,1-5.386-.61,1.383,1.383,0,0,1-.751-.589c-.443-.894.908-1.567,1.891-1.661l14.137-1.367c2.555-.248,5.426-.664,6.944-2.739.867-1.183,1.35-2.928,2.79-3.241.886-.189,1.974.251,2.623-.381.359-.346.421-.889.648-1.332.6-1.156,2.131-1.377,3.433-1.415,9.2-.27,18.307,1.569,27.468,2.38a124.1,124.1,0,0,0,23.512-.162c-1.386,2.569-4.654,3.373-7.563,3.662-6.682.667-13.5.022-20.073,1.35a4.524,4.524,0,0,0,1.269,2.128,20.374,20.374,0,0,1-6.593.991l-23.15.98c-3.349.135-6.877-.111-10.137.54a79.458,79.458,0,0,1-11.063,1.464Z" transform="translate(-100.082 -364.19)"/><path class="c" d="M269.771,230.427c-.1,11.946,6.107,15.244,8.06,21.413.24.759-.432,1.013-.651,1.777a1.417,1.417,0,0,1-1.823,1.021,2.1,2.1,0,0,1-.783-.948c-2.488-4.575-5.5-3.935-6.939-8.94a53.475,53.475,0,0,1-.875-8.073,10.3,10.3,0,0,1,.994-3.241c.192-.424-2.2-7.163-1.842-7.465s3.617,2.123,3.86,4.454" transform="translate(-194.062 -175.14)"/><path class="d" d="M269.951,230.067c-.1,11.946,6.107,15.244,8.06,21.413.24.759-.432,1.013-.651,1.777a1.417,1.417,0,0,1-1.823,1.021,2.112,2.112,0,0,1-.783-.945c-2.488-4.578-5.5-3.938-6.939-8.94a53.163,53.163,0,0,1-.875-8.076,10.3,10.3,0,0,1,.994-3.241c.192-.424-2.2-7.163-1.842-7.465s3.617,2.123,3.86,4.454" transform="translate(-194.194 -174.877)"/><path class="e" d="M303.227,321.258c.654,1.9,1.35,3.8,1.915,5.726,2.336,7.87,2.741,16.168,3.136,24.368a2.5,2.5,0,0,1-.594,2.161c-.664.524-3.241.578-3.781-.081a4.778,4.778,0,0,1-.81-2.38c-.34-2.363-1.815-7.814-2.307-10.147-1.7-8.076-3.317-12.605-7.614-19.652-1.891,3.2-2.558,8.505-4.065,11.9-.756,1.7-1.521,3.5-2.971,4.648a31.9,31.9,0,0,1-4.178,3.106c-4.889,2.209-7.536,4.078-12.114,6.877a1.958,1.958,0,0,1-.7.308c-.916.146-2.79-2.55-2.506-3.433a4.253,4.253,0,0,1,1.872-1.982,96.545,96.545,0,0,0,11.741-9.453,11.731,11.731,0,0,0,2.4-2.836,12.627,12.627,0,0,0,1.11-4.989q.419-5.172.837-10.342c.181-2.223.44-4.629,1.964-6.258a6.286,6.286,0,0,1,4.689-1.8,12.236,12.236,0,0,1,4.953,1.332,3.123,3.123,0,0,0,1.869.408c.483-.062.756-.573,1.251-.27.635.4,1.018,3.536,1.242,4.308Q301.782,317.055,303.227,321.258Z" transform="translate(-194.593 -234.3)"/><path class="f" d="M303.227,321.258c.654,1.9,1.35,3.8,1.915,5.726,2.336,7.87,2.741,16.168,3.136,24.368a2.5,2.5,0,0,1-.594,2.161c-.664.524-3.241.578-3.781-.081a4.778,4.778,0,0,1-.81-2.38c-.34-2.363-1.815-7.814-2.307-10.147-1.7-8.076-3.317-12.605-7.614-19.652-1.891,3.2-2.558,8.505-4.065,11.9-.756,1.7-1.521,3.5-2.971,4.648a31.9,31.9,0,0,1-4.178,3.106c-4.889,2.209-7.536,4.078-12.114,6.877a1.958,1.958,0,0,1-.7.308c-.916.146-2.79-2.55-2.506-3.433a4.253,4.253,0,0,1,1.872-1.982,96.545,96.545,0,0,0,11.741-9.453,11.731,11.731,0,0,0,2.4-2.836,12.627,12.627,0,0,0,1.11-4.989q.419-5.172.837-10.342c.181-2.223.44-4.629,1.964-6.258a6.286,6.286,0,0,1,4.689-1.8,12.236,12.236,0,0,1,4.953,1.332,3.123,3.123,0,0,0,1.869.408c.483-.062.756-.573,1.251-.27.635.4,1.018,3.536,1.242,4.308Q301.782,317.055,303.227,321.258Z" transform="translate(-194.593 -234.3)"/><path class="e" d="M201.5,345.678a44.141,44.141,0,0,1-1.467,4.918c-1.423,3.708-3.819,6.949-6.185,10.139l-6.482,8.735a1.737,1.737,0,0,1-1.08.837,1.621,1.621,0,0,1-.894-.221,4.413,4.413,0,0,1-2-1.621,3.657,3.657,0,0,1,.059-3.309,13.636,13.636,0,0,1,2.009-2.782,75.737,75.737,0,0,0,5.6-8.006,16.706,16.706,0,0,0,2.123-4.13,18.824,18.824,0,0,0,.483-5.156,78.54,78.54,0,0,1,1.542-14.474c.586-2.922,1.81-6.579,5.329-6.8a4.389,4.389,0,0,1,4.632,3.087c.764,2.531-.27,5.418-.9,7.857Q202.893,340.219,201.5,345.678Z" transform="translate(-133.593 -246.568)"/><path class="g" d="M201.5,345.678a44.141,44.141,0,0,1-1.467,4.918c-1.423,3.708-3.819,6.949-6.185,10.139l-6.482,8.735a1.737,1.737,0,0,1-1.08.837,1.621,1.621,0,0,1-.894-.221,4.413,4.413,0,0,1-2-1.621,3.657,3.657,0,0,1,.059-3.309,13.636,13.636,0,0,1,2.009-2.782,75.737,75.737,0,0,0,5.6-8.006,16.706,16.706,0,0,0,2.123-4.13,18.824,18.824,0,0,0,.483-5.156,78.54,78.54,0,0,1,1.542-14.474c.586-2.922,1.81-6.579,5.329-6.8a4.389,4.389,0,0,1,4.632,3.087c.764,2.531-.27,5.418-.9,7.857Q202.893,340.219,201.5,345.678Z" transform="translate(-133.593 -246.568)"/><path class="e" d="M241.3,350.614c.81,2.431,1.561,4.862,2.315,7.292l2.75,8.913a5.665,5.665,0,0,1,.365,2.9,1.952,1.952,0,0,1-2.12,1.6c-.74-.173-1.2-.891-1.577-1.553-4.321-7.671-7.217-16.206-12.527-23.228-1.958-2.59-4.227-4.953-5.942-7.719s-2.822-6.082-2.161-9.259a2.839,2.839,0,0,1,1.167-1.977,3.368,3.368,0,0,1,1.68-.289c5.942.022,7.754,1.742,10.037,6.733A169.7,169.7,0,0,1,241.3,350.614Z" transform="translate(-162.191 -249.12)"/><path class="h" d="M241.3,350.614c.81,2.431,1.561,4.862,2.315,7.292l2.75,8.913a5.665,5.665,0,0,1,.365,2.9,1.952,1.952,0,0,1-2.12,1.6c-.74-.173-1.2-.891-1.577-1.553-4.321-7.671-7.217-16.206-12.527-23.228-1.958-2.59-4.227-4.953-5.942-7.719s-2.822-6.082-2.161-9.259a2.839,2.839,0,0,1,1.167-1.977,3.368,3.368,0,0,1,1.68-.289c5.942.022,7.754,1.742,10.037,6.733A169.7,169.7,0,0,1,241.3,350.614Z" transform="translate(-162.191 -249.12)"/><path class="e" d="M301.986,483.816l.146,5.01a3.208,3.208,0,0,0,.886,2.59,3.171,3.171,0,0,0,1.486.462,27,27,0,0,0,8.054.27,4.322,4.322,0,0,0,1.931-.708.6.6,0,0,0,.194-.216.575.575,0,0,0,.024-.311,3.627,3.627,0,0,0-1.747-2.261,17.383,17.383,0,0,0-3.071-1.72,14.915,14.915,0,0,1-2.091-.983c-1.526-.97-2.431-2.642-3.673-3.962a1.256,1.256,0,0,0-.411-.324c-.478-.194-1.113.254-1.4.621A2.377,2.377,0,0,0,301.986,483.816Z" transform="translate(-220.416 -361.756)"/><path class="e" d="M168.362,488.644a1.462,1.462,0,0,0-.367,1.007,1.229,1.229,0,0,0,.348.616,8.539,8.539,0,0,0,2.382,1.542,34.217,34.217,0,0,0,4.77,2.577c1.71.591,3.827.521,5.075-.791a.794.794,0,0,0,.24-.408c.043-.292-.2-.54-.44-.724a7.242,7.242,0,0,0-1.834-1.026,4.307,4.307,0,0,1-1.35-.648,2.917,2.917,0,0,1-.635-.94,13.193,13.193,0,0,1-1.113-3.562,6.022,6.022,0,0,0-.586-2.223c-1.08-1.764-2.161-.348-3.076.54a27.239,27.239,0,0,0-3.414,4.041Z" transform="translate(-122.612 -362.927)"/><path class="i" d="M377.41,241.749a2.235,2.235,0,0,1-.675,1.4,1.9,1.9,0,0,1-2.136-.305c-1.923-1.369-2.868-3.7-3.662-5.926a14.568,14.568,0,0,1-1.172-5.777,1,1,0,0,1,.2-.635,1.013,1.013,0,0,1,.524-.251,8.119,8.119,0,0,1,7.7,2.3c1.134,1.2.718,2.08.4,3.622Z" transform="translate(-269.519 -178.132)"/><path class="j" d="M377.41,241.749a2.235,2.235,0,0,1-.675,1.4,1.9,1.9,0,0,1-2.136-.305c-1.923-1.369-2.868-3.7-3.662-5.926a14.568,14.568,0,0,1-1.172-5.777,1,1,0,0,1,.2-.635,1.013,1.013,0,0,1,.524-.251,8.119,8.119,0,0,1,7.7,2.3c1.134,1.2.718,2.08.4,3.622Z" transform="translate(-269.519 -178.132)"/><path class="i" d="M338.314,197.386c-.67,6.258-2,14.939-2.971,21.159a9.98,9.98,0,0,0-.119,3.865c.443,1.82,3.106.862,4.837,1.58a14.1,14.1,0,0,0,5.526.824,4.929,4.929,0,0,0,3.071-.735c1.35-1.034,1.367-3.009,1.278-4.7a50.21,50.21,0,0,1,.186-10.093c.646-4.267,2.344-8.559,1.41-12.773a5.672,5.672,0,0,0-.894-2.161,7.612,7.612,0,0,0-1.118-1.148l-2.136-1.91a5.3,5.3,0,0,0-2.118-1.35c-1.367-.34-3.781.675-4.913,1.537C338.765,192.719,338.508,195.558,338.314,197.386Z" transform="translate(-244.57 -148.816)"/><path class="k" d="M354.431,196.559a5.516,5.516,0,0,1,1.175.756l4.073,3.141a1.564,1.564,0,0,1,.424.419,1.518,1.518,0,0,1,.173.664c.119,1.35-.022,2.7.108,4.051A5.217,5.217,0,0,0,362,209.2a3.016,3.016,0,0,0,.635-2.471q-.17-3.622-.421-7.241a1.272,1.272,0,0,0-.881-1.35l-6.985-3.511a.87.87,0,0,0-1.1.022c-.57.354-1.953.81-1.115,1.377A7.222,7.222,0,0,0,354.431,196.559Z" transform="translate(-256.836 -152.143)"/><path class="l" d="M340.788,231.538a21.219,21.219,0,0,0,1.607-4.632,7.671,7.671,0,0,0-2.036-6.326,58.61,58.61,0,0,0-4.24,11.365,52.38,52.38,0,0,0-1.7,11.679,3.63,3.63,0,0,0,.246,1.729,2.547,2.547,0,0,0,2.08,1.261c1.826.173,2.269-.049,2.3-1.594s-.238-3.033-.167-4.567a27.548,27.548,0,0,1,1.912-8.916Z" transform="translate(-244.079 -171.224)"/><path class="m" d="M389.294,204.057a14.273,14.273,0,0,0,2.058.789c.513.243,1.132.627,1.583.27s.224-1.08-.024-1.621c-1.85-3.976-1.5-8.578-2.25-12.9a6.146,6.146,0,0,0-1.164-3c-1.834-2.147-1.891,2.058-1.907,2.993,0,1.3.084,2.577.189,3.87C387.971,196.9,386.953,202.482,389.294,204.057Z" transform="translate(-282.902 -146.712)"/><path class="n" d="M391.654,191.926a1.569,1.569,0,0,0,0,1.037,2.071,2.071,0,0,0,.213.292,1.709,1.709,0,0,1,.327.748c-.043.076-.157.049-.232,0a5.623,5.623,0,0,1-1.6-1.237,1.7,1.7,0,0,0,.27-.843,2.81,2.81,0,0,1,.073-.9c.116-.27.559-.7.87-.494S391.705,191.646,391.654,191.926Z" transform="translate(-284.924 -149.247)"/><path class="o" d="M376.268,152.738a3.645,3.645,0,0,1,.521.686c.3.583-.321,1.85-.146,2.5.105.4.205,2.015.249,2.431.073.681-2.307.891-2.8,1.24-.97.686-.54,1.531-.943,2.785a2.645,2.645,0,0,1-.54,1.132,1.334,1.334,0,0,1-1.307.194,5.708,5.708,0,0,1-3.587-3.2,11.038,11.038,0,0,1-.864-3.97,13.087,13.087,0,0,1,.1-4.276,6.236,6.236,0,0,1,3.376-3.611c.986-.481,3.3-1.013,4.162.065.313.392.34,1.377.527,1.877A7.036,7.036,0,0,0,376.268,152.738Z" transform="translate(-267.672 -118.313)"/><path class="p" d="M377.811,187.53a.986.986,0,0,1,.357.219,1,1,0,0,1,.068.921.4.4,0,0,1-.124.232.365.365,0,0,1-.319,0,5.212,5.212,0,0,1-1.6-.908c-.562-.427-1.107-.878-1.621-1.35a3.987,3.987,0,0,1-.748-.848c-.146-.246-.465-1.1.105-.935.362.1.886.81,1.2,1.056A12.949,12.949,0,0,0,377.811,187.53Z" transform="translate(-272.691 -145.137)"/><path class="q" d="M339.547,99.987a13.032,13.032,0,0,0-1.693-1.307,1.48,1.48,0,0,0-.64-.27,1.224,1.224,0,0,0-.77.257,5.725,5.725,0,0,0-1.891,3.454q-1.75,6.342-3.5,12.694a1.688,1.688,0,0,0-.022,1.226,1.582,1.582,0,0,0,.689.583,13.364,13.364,0,0,0,7.4,1.561,2.336,2.336,0,0,0,1.251-.367c.432-.327.286-1.115.44-1.637.7-2.363,1.729-4.492,2.431-6.855.54-1.847,1.08-3.9.27-5.648a7.809,7.809,0,0,0-3.171-3.02l.1,1" transform="translate(-241.542 -82.051)"/><path class="r" d="M363.393,102.58c0,.27.043.524.038.789a1.007,1.007,0,0,1-.27.721.864.864,0,0,1-.6.211,1.48,1.48,0,0,1-1.059-.508,2.741,2.741,0,0,1-.565-1.056,4.767,4.767,0,0,1-.092-2.431,1.715,1.715,0,0,1,.616-1.08,1.409,1.409,0,0,1,1.729.33,2.777,2.777,0,0,1,.77,1.658c-.027.219-.27.375-.378.567A1.715,1.715,0,0,0,363.393,102.58Z" transform="translate(-263.3 -82.518)"/><path class="s" d="M363.7,103a1.351,1.351,0,0,0,.421.346.592.592,0,0,0,.527,0c.194-.105.284-.332.405-.516.224-.343.613-.627.613-1.037a.81.81,0,0,0-.3-.586,2.08,2.08,0,0,0-.594-.324,9.667,9.667,0,0,0-1.35-.421c-.864-.2-.81.2-.583.9A4.529,4.529,0,0,0,363.7,103Z" transform="translate(-264.735 -83.511)"/><path class="e" d="M200.435,155.723a7.229,7.229,0,0,0-6.9,2.142c-1.6,1.7-2.447,4.065-4.276,5.513-2.134,1.688-5.151,1.78-7.457,3.225a9.832,9.832,0,0,0-3.741,4.932c-.667,1.764-.967,3.841,0,5.467a8.32,8.32,0,0,1,1.143,1.931c.27,1-.248,2.009-.508,3.009a6.382,6.382,0,0,0,1.621,6.007,1.7,1.7,0,0,0,.835.521,1.664,1.664,0,0,0,1.013-.216c4.038-1.955,4.821-7.924,8.875-9.848a20.837,20.837,0,0,0,3.093-1.313,5.721,5.721,0,0,0,1.793-2.4,41.17,41.17,0,0,1,2.036-4.829,14.424,14.424,0,0,1,1.675-2.1c1.032-1.132,2.1-2.239,3.066-3.43.729-.9,1.955-2.19,2.091-3.4C205.059,158.581,202.479,156.263,200.435,155.723Z" transform="translate(-129.514 -123.737)"/><path class="t" d="M204.8,160.9c-.135,1.21-1.367,2.5-2.09,3.4-.972,1.191-2.039,2.3-3.074,3.425a15.424,15.424,0,0,0-1.621,2.028.4.4,0,0,0-.051.073,41.6,41.6,0,0,0-2.036,4.832,5.715,5.715,0,0,1-1.791,2.4,19.014,19.014,0,0,1-3.1,1.313c-4.051,1.926-4.84,7.895-8.875,9.85a2.563,2.563,0,0,1-.3.135,1.415,1.415,0,0,1-.713.084,1.693,1.693,0,0,1-.837-.54,6.38,6.38,0,0,1-1.621-6,6.06,6.06,0,0,0,.508-3.009,8.59,8.59,0,0,0-1.148-1.937c-.953-1.621-.651-3.692,0-5.464a9.843,9.843,0,0,1,3.743-4.935c2.3-1.437,5.321-1.531,7.452-3.217,1.831-1.45,2.679-3.819,4.284-5.515a7.208,7.208,0,0,1,6.9-2.142C202.48,156.233,205.054,158.551,204.8,160.9Z" transform="translate(-129.515 -123.71)"/><path class="u" d="M209.338,201.53a.4.4,0,0,0-.051.073,41.6,41.6,0,0,0-2.036,4.832,5.715,5.715,0,0,1-1.791,2.4,19.015,19.015,0,0,1-3.1,1.313c-4.051,1.926-4.84,7.895-8.875,9.85a2.565,2.565,0,0,1-.3.135,4.175,4.175,0,0,1-.194-1.955,12.759,12.759,0,0,1,6.363-9.788,14.242,14.242,0,0,0,2.876-1.729c1.294-1.18,1.788-2.971,2.515-4.562.91-2.039,3.176-4.862,4.321-1.594A7.58,7.58,0,0,1,209.338,201.53Z" transform="translate(-140.835 -155.482)"/><path class="v" d="M255.25,171.87c.2.618.219,1.35.678,1.8.392.386,1.08.578,1.132,1.124a1.648,1.648,0,0,1-.173.678c-.359,1.01.213,3.036-.27,3.987-.37.71-2.914,1.661-3.352,2.331-.856,1.315.1,4.359-.508,4.37-.81.016-3.727.794-4.37.292-.864-.675-.205-3.754-.2-4.862a35.181,35.181,0,0,1,.51-5.831,8.133,8.133,0,0,1,1.461-3.862C251.212,170.6,254.537,169.66,255.25,171.87Z" transform="translate(-180.972 -134.703)"/><path class="e" d="M238.61,163.489c-.213.908.135,1.858.014,2.782a3.9,3.9,0,0,1-3.619,3.4c-3.138-.027-4.994,5.515-5.753,6.482-2.623-4.516,0-8,.54-9.856.419-1.526,3.417-4.767,4.737-5.631a6.373,6.373,0,0,1,4.454-1.08c1.043.2,1.318,2.18.783,2.469A2.253,2.253,0,0,0,238.61,163.489Z" transform="translate(-166.493 -126.646)"/><path class="c" d="M237.555,239.758c-.756,1.937-1.51,3.86-2.255,5.793-.848,2.161-1.469,7.916-2.6,9.945-.694,1.242-6.736,1.8-9.653.34a3.144,3.144,0,0,1-1.107-.826,6.55,6.55,0,0,1-1.531-4.273c.041-2.431.859-4.781,1.386-7.149a37.447,37.447,0,0,0,.84-8.662v-.589a13.527,13.527,0,0,1,.691-5.548c1.6-3.681,6.944-7.066,10.534-3.827C235.051,226.029,237.979,238.672,237.555,239.758Z" transform="translate(-160.876 -173.473)"/><path class="w" d="M225.738,259.761c-.311,1.688-.176,3.414-.373,5.113-.34,3-1.621,5.834-1.945,8.835a15.179,15.179,0,0,0,.176,4.284,2.49,2.49,0,0,1-.092,1.729,1.24,1.24,0,0,1-.456.4,3.144,3.144,0,0,1-1.107-.826,6.55,6.55,0,0,1-1.531-4.273c.041-2.431.859-4.781,1.386-7.149a37.449,37.449,0,0,0,.84-8.662v-.589a6.337,6.337,0,0,1,.54-.643,2.811,2.811,0,0,1,1.748-1.034C227.021,256.761,225.924,258.759,225.738,259.761Z" transform="translate(-160.876 -197.76)"/><path class="x" d="M365.616,82.728a3.6,3.6,0,0,0,1.621-2.039,9.173,9.173,0,0,0-.095-5.275,2.585,2.585,0,0,0-.81-1.172,2.305,2.305,0,0,0-2.293-.105,5.651,5.651,0,0,0-1.826,1.542,4.567,4.567,0,0,0-.87,1.334,4.121,4.121,0,0,0-.211,1.464,4.767,4.767,0,0,0,1.35,3.711A2.712,2.712,0,0,0,365.616,82.728Z" transform="translate(-263.589 -64.149)"/><path class="e" d="M364.043,67.568a2.066,2.066,0,0,1,.419,1.693.88.88,0,0,1-.184.416c-.227.251-.616.24-.945.327a8.859,8.859,0,0,0-1.132.54,1.106,1.106,0,0,1-1.186-.076.81.81,0,0,1-.5.632,3.29,3.29,0,0,0-.743.405,1.892,1.892,0,0,0-.432,1.334c-.173-.205-.51-.408-.664-.189a.386.386,0,0,0-.054.246,11.247,11.247,0,0,0,.159,1.191,1.572,1.572,0,0,1-.243,1.142.764.764,0,0,1-1.059.17,1.169,1.169,0,0,1-.27-.462,8.419,8.419,0,0,1-.4-5.2,4.808,4.808,0,0,1,3.63-3.471,3.337,3.337,0,0,1,1.923.386A3.864,3.864,0,0,1,364.043,67.568Z" transform="translate(-260.25 -58.57)"/><path class="y" d="M364.043,67.568a2.066,2.066,0,0,1,.419,1.693.88.88,0,0,1-.184.416c-.227.251-.616.24-.945.327a8.859,8.859,0,0,0-1.132.54,1.106,1.106,0,0,1-1.186-.076.81.81,0,0,1-.5.632,3.29,3.29,0,0,0-.743.405,1.892,1.892,0,0,0-.432,1.334c-.173-.205-.51-.408-.664-.189a.386.386,0,0,0-.054.246,11.247,11.247,0,0,0,.159,1.191,1.572,1.572,0,0,1-.243,1.142.764.764,0,0,1-1.059.17,1.169,1.169,0,0,1-.27-.462,8.419,8.419,0,0,1-.4-5.2,4.808,4.808,0,0,1,3.63-3.471,3.337,3.337,0,0,1,1.923.386A3.864,3.864,0,0,1,364.043,67.568Z" transform="translate(-260.25 -58.57)"/><path class="e" d="M339.806,73.082a3.652,3.652,0,0,0-1.731,1.891c-.381.791-.594,1.645-.962,2.431a1.639,1.639,0,0,1-.754.883,9.5,9.5,0,0,1,1.71-.438c1.442-.432,2.5-1.918,3.373-3.057.305-.4.848-1.08.424-1.564C341.351,72.663,340.414,73,339.806,73.082Z" transform="translate(-245.509 -63.438)"/><path class="e" d="M343.083,62.327a10.829,10.829,0,0,1-1.953.832,9.311,9.311,0,0,0,5.248-.27,2.239,2.239,0,0,0,1.172-.924,1.171,1.171,0,0,0-.1-1.251c-.3-.3-.851-.159-1.245-.043A16.488,16.488,0,0,0,343.083,62.327Z" transform="translate(-248.991 -54.406)"/><path class="z" d="M339.806,73.082a3.652,3.652,0,0,0-1.731,1.891c-.381.791-.594,1.645-.962,2.431a1.639,1.639,0,0,1-.754.883,9.5,9.5,0,0,1,1.71-.438c1.442-.432,2.5-1.918,3.373-3.057.305-.4.848-1.08.424-1.564C341.351,72.663,340.414,73,339.806,73.082Z" transform="translate(-245.509 -63.438)"/><path class="aa" d="M343.083,62.327a10.829,10.829,0,0,1-1.953.832,9.311,9.311,0,0,0,5.248-.27,2.239,2.239,0,0,0,1.172-.924,1.171,1.171,0,0,0-.1-1.251c-.3-.3-.851-.159-1.245-.043A16.488,16.488,0,0,0,343.083,62.327Z" transform="translate(-248.991 -54.406)"/><path class="q" d="M354.28,75.274a.573.573,0,0,0-.583.357.581.581,0,0,0,.119.508,1.71,1.71,0,0,0,.405.357.27.27,0,0,0,.154.068.254.254,0,0,0,.151-.07c.189-.149.513-.54.467-.794S354.515,75.287,354.28,75.274Z" transform="translate(-258.152 -65.162)"/><path class="q" d="M362.2,64.993a.573.573,0,0,0-.583.354.589.589,0,0,0,.119.51,1.772,1.772,0,0,0,.405.357.27.27,0,0,0,.154.068.254.254,0,0,0,.151-.07c.189-.149.513-.54.467-.81S362.436,65.007,362.2,64.993Z" transform="translate(-263.933 -57.658)"/><path class="ab" d="M374.23,103.24c1.437,1.785,3.527,3.063,4.538,5.132,1.269,2.587.513,5.734,1.377,8.481" transform="translate(-273.151 -85.577)"/><path class="ac" d="M322.3,51.943a40.332,40.332,0,0,1-2.482-6.525c-.327-1.037-.81-2.247-1.683-2.509s-1.621.664-1.661,1.7a5.17,5.17,0,0,0,1,2.944c.321.478.675.926.962,1.434a13,13,0,0,1,.756,1.742,66.863,66.863,0,0,0,5.218,10.682,2.193,2.193,0,0,0,.492.627c.575.438,1.275-.032,1.58-.675.627-1.313.573-3.995-.605-5a14.4,14.4,0,0,1-3.581-4.416Z" transform="translate(-230.992 -41.508)"/><path class="e" d="M334.9,174.184a2.565,2.565,0,0,0,1.737.624,2.952,2.952,0,0,0,1.118-.47l4.159-2.482c.392-.235.845-.61.713-1.045a1.01,1.01,0,0,0-.246-.367c-1.477-1.621-.87-2.733-2.971-3.363-1.35-.408-5.288-.689-6.663-1.007-1.685-.392-1.7.27-1.494,1.877a9.24,9.24,0,0,0,3.646,6.234Z" transform="translate(-241.715 -131.359)"/><path class="ad" d="M356.148,128.925a1.2,1.2,0,0,1-.081.438,1.126,1.126,0,0,1-.392.413,12.34,12.34,0,0,1-3.125,1.669,2.824,2.824,0,0,0-1.288.71,1.962,1.962,0,0,0-.054,2.045,1.35,1.35,0,0,1,.181.556,1.323,1.323,0,0,1-.111.438,5.418,5.418,0,0,0-.335,1.621c-.027.54-.022,1.151-.456,1.445-.14.095-.311.138-.456.221a.454.454,0,0,0-.27.4.578.578,0,0,0,.078.205l1.961,3.687c.27.524.629,1.1,1.213,1.224a2,2,0,0,0,1.1-.192l1.891-.7a7.224,7.224,0,0,0-1.161-1.715,5.709,5.709,0,0,1-.737-2.474,9.012,9.012,0,0,1,.124-3.425,4,4,0,0,1,2.058-2.631c.448-.208,1-.37,1.156-.837a1.561,1.561,0,0,0,0-.689,6.3,6.3,0,0,1,0-1.745,1.08,1.08,0,0,0-.024-.61,1,1,0,0,0-.254-.292c-.151-.135-.6-.681-.832-.64S356.159,128.7,356.148,128.925Z" transform="translate(-255.29 -103.68)"/><path class="ae" d="M366.859,119.4a3.009,3.009,0,0,1,.54,1.288,1.367,1.367,0,0,1-.483,1.256,1.82,1.82,0,0,1-.767.27c-1.215.216-2.463.124-3.695.219a5.306,5.306,0,0,0-3.39,1.286.767.767,0,0,1-.494.308.605.605,0,0,1-.335-.132,2.039,2.039,0,0,1-.829-2.161,1.664,1.664,0,0,1,1.923-1.151,2.161,2.161,0,0,0,.405.1,1.253,1.253,0,0,0,.475-.084l3.036-.959a2.161,2.161,0,0,1-1.232-1.4,6.482,6.482,0,0,1-.232-1.91c0-.37-.3-2.034.389-2.042.34,0,1.28,1.375,1.553,1.65A18.673,18.673,0,0,1,366.859,119.4Z" transform="translate(-260.829 -93.642)"/><path class="af" d="M365.034,191.812c2.109,1.369,4.637,2.112,6.482,3.816.756.694,1.375,1.531,2.139,2.217a3.907,3.907,0,0,0,2.766,1.164c1.648-.111,2.755-1.683,3.614-3.093a.618.618,0,0,0,.122-.54.54.54,0,0,0-.27-.224c-1.053-.47-2.28,0-3.425-.132a6.489,6.489,0,0,1-3.309-1.955,102.871,102.871,0,0,0-9.912-7.795c-.219-.151-.235-.27-.5-.27a1.526,1.526,0,0,0-.91.33c-.54.454-2.282,1.35-2.536,2-.351.883.629.894,1.461,1.369S364.162,191.925,365.034,191.812Z" transform="translate(-262.194 -145.254)"/><path class="e" d="M361.482,142.185c2.377-1.242,5.315-.065,7.943-.616a2,2,0,0,1,1.35-.024c.4.216.467.98,0,1.051.34,0,.27.583-.019.74s-.683.119-.959.316c-.135.1-.232.246-.37.34a1.351,1.351,0,0,1-.894.105,9.278,9.278,0,0,0-3.63.375c-.791.246-.94.624-1.48,1.253-.573.673-.519,2.431-.289,3.241-.086,0-.98-1.477-1.045-1.41-1.431,1.507.375,2.388.438,2.477,1.14,1.65-1.021.875-.292,1.942.424.621-1.288-1.118-1.65-1.5a4.755,4.755,0,0,1-1.5-2.4C358.825,145.885,359.37,143.29,361.482,142.185Z" transform="translate(-262.051 -113.453)"/><path class="ab" d="M345.092,185.986a2.814,2.814,0,0,0-3.222,1.737" transform="translate(-249.531 -145.927)"/><path class="e" d="M411.026,480.709a2.538,2.538,0,0,0,.073.573,1.415,1.415,0,0,0,.678.745,3.8,3.8,0,0,0,2.585.284c.87-.167,1.7-.5,2.56-.71,2.072-.516,4.419-.4,6.109-1.7a1,1,0,0,0,.27-.284c.243-.427-.146-.94-.554-1.213-2.552-1.707-6.431-.184-8.816-2.12-.937-.759-2.636-2.358-3.671-.756C409.348,476.93,410.915,479.247,411.026,480.709Z" transform="translate(-299.243 -356.807)"/><path class="e" d="M249.748,446.8a2.3,2.3,0,0,0-.953.6,2.215,2.215,0,0,0-.373,1.113,31.187,31.187,0,0,0-.289,4.346,6.267,6.267,0,0,0,.138,1.507,3.557,3.557,0,0,0,2.031,2.374c.648.27,1.621.2,1.791-.481.146-.54-.343-1.056-.44-1.621a2.416,2.416,0,0,1,.378-1.456l2.039-4.051a3.735,3.735,0,0,0,.419-1.118c.122-.81-.408-2.32-1.321-2.515S250.569,446.462,249.748,446.8Z" transform="translate(-181.109 -335.379)"/><path class="ag" d="M392.668,225.794a2.7,2.7,0,0,0,.205.829l.4,1.1a2.912,2.912,0,0,0,.311.678,3.067,3.067,0,0,0,2.161.991.567.567,0,0,0,.691-.27,2.323,2.323,0,0,0,.492-.829,2.069,2.069,0,0,0-.019-.891c-.216-1.183-.54-3.1-1.937-3.16C393.97,224.2,392.63,224.546,392.668,225.794Z" transform="translate(-286.608 -173.893)"/><path class="i" d="M319.736,198.239a10.823,10.823,0,0,0-1.594,2.569,52.522,52.522,0,0,0-3.906,9.334c-.7,2.536-1.026,5.221-2.317,7.511-.6,1.08-1.823,11.39-2.3,12.521a1.439,1.439,0,0,0,.073,1.569,1.453,1.453,0,0,0,.756.319,8.486,8.486,0,0,0,3.111.014c1.153-2.6,3.481-14.137,4.994-16.54a54,54,0,0,0,3.484-6.96,20.572,20.572,0,0,0,1.926-5.942,7.627,7.627,0,0,0-.843-4.592C322.2,196.456,320.857,197.018,319.736,198.239Z" transform="translate(-225.852 -154.063)"/><path class="ah" d="M306.645,332.648a5.24,5.24,0,0,0,.689,1.08,5.156,5.156,0,0,0,.926.748c.411.284.991.559,1.364.227a1.119,1.119,0,0,0,.23-.951,6,6,0,0,0-1.35-3.846,5.243,5.243,0,0,0-1.464-.972c-.724-.343-1.861-.348-1.891.7C305.122,330.506,306.245,331.895,306.645,332.648Z" transform="translate(-222.728 -250.163)"/><path class="ai" d="M308.261,326.294a6.723,6.723,0,0,0-.357,3.668c.076.413.27.9.694.953s.751-.4.953-.791l1.245-2.415a5.174,5.174,0,0,0,.845-3.492.908.908,0,0,0-.243-.467.983.983,0,0,0-.9-.105C309.02,324.028,308.779,324.981,308.261,326.294Z" transform="translate(-224.659 -246.404)"/><path class="c" d="M197.286,237.42a61.372,61.372,0,0,0-3.9,4.972c-1.8,2.477-1.461,5.853-1.034,8.886a20.23,20.23,0,0,0,1.8,6.8,3.282,3.282,0,0,0,1.837-.078,3.657,3.657,0,0,0,2.247-2.741c.151-2.506-.224-8.349.073-8.74a57.86,57.86,0,0,1,4.654-5.831c1.448-1.375,4.34-5.132,4.816-7.06.64-2.623,1.164-9.1-4.235-4.051C201.165,231.778,199.612,235.122,197.286,237.42Z" transform="translate(-140.149 -176.426)"/><path class="aj" d="M201.917,338.035a3.979,3.979,0,0,0,2.217,2.677.54.54,0,0,0,.248.046.5.5,0,0,0,.27-.14,2.841,2.841,0,0,0,.918-1.526c.254-1.14-.213-2.336-.027-3.487a3.128,3.128,0,0,0,.081-.61,1.8,1.8,0,0,0-.475-1.051,5.155,5.155,0,0,0-.929-.886.67.67,0,0,0-.394-.167c-.713.019-1.9,1.215-2.126,1.891A6.11,6.11,0,0,0,201.917,338.035Z" transform="translate(-147.113 -253.2)"/><path class="ak" d="M370.449,167.505a.81.81,0,0,0-.443-.359.138.138,0,0,0-.057-.016c-.051,0-.078.057-.095.105a.906.906,0,0,0-.065.251.929.929,0,0,0,.157.473,1.291,1.291,0,0,0,.284.392.81.81,0,0,0,.386.17c.327.057.389-.113.173-.292C370.5,167.989,370.584,167.824,370.449,167.505Z" transform="translate(-269.91 -132.21)"/><path class="e" d="M350.05,188.522a67.433,67.433,0,0,1,5.775-3.692s-3.444,2.358-3.225,2.817.119.292.119.292S350.631,188.887,350.05,188.522Z" transform="translate(-255.502 -145.13)"/><path class="al" d="M350.05,188.522a67.433,67.433,0,0,1,5.775-3.692s-3.444,2.358-3.225,2.817.119.292.119.292S350.631,188.887,350.05,188.522Z" transform="translate(-255.502 -145.13)"/></g></svg>