<svg xmlns="http://www.w3.org/2000/svg" xmlns:xlink="http://www.w3.org/1999/xlink" width="100.314" height="74.866" viewBox="0 0 100.314 74.866"><defs><linearGradient id="a" x1="0.585" y1="-0.522" x2="0.341" y2="3.195" gradientUnits="objectBoundingBox"><stop offset="0.12" stop-color="#010101" stop-opacity="0"/><stop offset="0.95" stop-color="#010101"/></linearGradient><linearGradient id="b" x1="7.175" y1="-0.199" x2="8.169" y2="-0.199" gradientUnits="objectBoundingBox"><stop offset="0" stop-color="#e5c6d6"/><stop offset="0.42" stop-color="#ead4d0"/><stop offset="1" stop-color="#f0e9cb"/></linearGradient><linearGradient id="c" x1="0.386" y1="1.565" x2="0.777" y2="-2.231" xlink:href="#a"/><linearGradient id="d" x1="0.001" y1="0.5" x2="1" y2="0.5" xlink:href="#b"/><linearGradient id="e" x1="14.744" y1="0.5" x2="15.743" y2="0.5" xlink:href="#b"/><linearGradient id="f" x1="0" y1="0.5" x2="1" y2="0.5" xlink:href="#b"/><linearGradient id="g" x1="0" y1="0.5" x2="1" y2="0.5" xlink:href="#b"/><linearGradient id="h" x1="0.001" y1="0.501" x2="1" y2="0.501" xlink:href="#b"/><linearGradient id="i" x1="5.489" y1="0.425" x2="6.451" y2="0.425" xlink:href="#b"/><linearGradient id="j" x1="0" y1="0.499" x2="0.998" y2="0.499" xlink:href="#b"/><linearGradient id="k" x1="0.004" y1="0.499" x2="1.005" y2="0.499" xlink:href="#b"/><linearGradient id="l" x1="-0.006" y1="0.498" x2="0.999" y2="0.498" xlink:href="#b"/><linearGradient id="m" x1="0.001" y1="0.5" x2="1.001" y2="0.5" xlink:href="#b"/><linearGradient id="n" x1="0.188" y1="0.5" x2="1.188" y2="0.5" xlink:href="#b"/><linearGradient id="o" x1="0.001" y1="0.5" x2="1" y2="0.5" xlink:href="#b"/><linearGradient id="p" x1="0" y1="0.501" x2="1" y2="0.501" xlink:href="#b"/><linearGradient id="q" x1="-0.001" y1="0.498" x2="1.002" y2="0.498" xlink:href="#b"/><linearGradient id="r" x1="0.476" y1="1.128" x2="0.578" y2="-1.739" xlink:href="#a"/><linearGradient id="s" x1="0.42" y1="0.089" x2="0.676" y2="1.066" xlink:href="#b"/><linearGradient id="t" x1="0.001" y1="0.5" x2="1.002" y2="0.5" xlink:href="#b"/><linearGradient id="u" x1="-0.001" y1="0.5" x2="0.999" y2="0.5" xlink:href="#b"/><linearGradient id="v" x1="-0.001" y1="0.501" x2="0.999" y2="0.501" xlink:href="#b"/><linearGradient id="w" x1="0" y1="0.5" x2="1" y2="0.5" xlink:href="#b"/><linearGradient id="x" x1="-24.942" y1="3.696" x2="-23.878" y2="3.696" xlink:href="#b"/><linearGradient id="y" x1="-25.851" y1="2.599" x2="-24.93" y2="2.599" xlink:href="#b"/><linearGradient id="z" x1="0" y1="0.499" x2="0.997" y2="0.499" xlink:href="#b"/><linearGradient id="aa" x1="0.298" y1="1.03" x2="1.02" y2="-1.23" xlink:href="#a"/><linearGradient id="ab" x1="-3.605" y1="0.918" x2="-2.605" y2="0.918" xlink:href="#b"/><linearGradient id="ac" x1="-0.001" y1="0.5" x2="1.001" y2="0.5" xlink:href="#b"/><linearGradient id="ad" x1="0" y1="0.5" x2="1" y2="0.5" xlink:href="#b"/></defs><g transform="translate(-0.003 -0.012)"><path d="M98.561,99.16c-2.89,5.492-7.572,9.89-13.535,11.509-7.445,2.014-15.382-.407-23.05.413-4.848.516-9.461,2.318-14.2,3.482-14.544,3.579-31.615.238-40.962-11.459a26.3,26.3,0,0,1-1.651-2.326C1.757,95.37.278,88.559,2.835,82.785c1.944-4.378,5.774-7.376,8.613-11.112,2.531-3.325,3.542-6.527,4.454-10.494,2-8.668,9.336-14.707,17.532-17.587,7.88-2.763,16.445-2.84,24.766-2.2,5.969.441,12.047,1.277,17.412,3.915,4.954,2.428,9.07,6.289,12.719,10.431,7.278,8.236,13.176,18.373,13.514,29.375A28.515,28.515,0,0,1,98.561,99.16Z" transform="translate(-1.54 -41.05)" fill="#fff" opacity="0.7"/><path d="M119.835,420.74c-.072.767-.147,1.543-.239,2.32-2.89,5.492-7.572,9.89-13.535,11.509-7.445,2.014-15.382-.407-23.05.413-4.848.516-9.461,2.318-14.2,3.482C54.269,442.042,37.2,438.7,27.851,427a26.3,26.3,0,0,1-1.651-2.326,5.1,5.1,0,0,1,2.057-.837c6.551-1.322,15.251.636,21.985.734q22.5.326,44.966-1.363C97.4,423.044,119.736,421.761,119.835,420.74Z" transform="translate(-22.575 -364.95)" fill="#68e1fd" opacity="0.24"/><path d="M119.835,420.74c-.072.767-.147,1.543-.239,2.32-2.89,5.492-7.572,9.89-13.535,11.509-7.445,2.014-15.382-.407-23.05.413-4.848.516-9.461,2.318-14.2,3.482C54.269,442.042,37.2,438.7,27.851,427a26.3,26.3,0,0,1-1.651-2.326,5.1,5.1,0,0,1,2.057-.837c6.551-1.322,15.251.636,21.985.734q22.5.326,44.966-1.363C97.4,423.044,119.736,421.761,119.835,420.74Z" transform="translate(-22.575 -364.95)" fill="#68e1fd" opacity="0.24"/><path d="M116.711,464.992c4.667.5,9.313-.974,14-1.156,4.594-.178,9.135.881,13.705,1.371,3.467.372,6.959.416,10.445.46l19.561.245a7.278,7.278,0,0,0,3.232-.451,2.481,2.481,0,0,0,1.519-2.63,233.661,233.661,0,0,1-28.308-.432c-4.782-.32-9.549-.723-14.33-1.139-4.181-.364-8.622-1.2-12.819-.78-3.254.329-6.921,2.1-9.8,3.516A4.627,4.627,0,0,0,116.711,464.992Z" transform="translate(-97.408 -398.752)" fill="#68e1fd" opacity="0.55"/><path d="M145.848,175.249a2.916,2.916,0,0,0-1.165-.923,3.489,3.489,0,0,0-2.938,0,3.021,3.021,0,0,0-1.684,2.371c-.031.344,0,.689-.021,1.028-.081,1.193-.812,2.239-1.108,3.4-.166.649-.194,1.334-.41,1.97a3.8,3.8,0,0,0-.4,1.469,1.884,1.884,0,0,0,.32.836,2.807,2.807,0,0,0,3.085,1.315c.313-.106.6-.285.908-.4a7.343,7.343,0,0,1,2.671-.16,2.615,2.615,0,0,0,1.131-.191,1.638,1.638,0,0,0,.895-1.629,4.446,4.446,0,0,0-.313-1.014,6.54,6.54,0,0,1-.376-2.871c.046-.494.147-.983.147-1.478,0-.655-.458-1.146-.361-1.744A2.575,2.575,0,0,0,145.848,175.249Z" transform="translate(-118.053 -154.46)" fill="#606161"/><path d="M146.045,175.159a2.938,2.938,0,0,0-1.164-.921,3.492,3.492,0,0,0-2.938,0,3.016,3.016,0,0,0-1.682,2.371c-.032.344,0,.689-.022,1.028-.079,1.193-.812,2.239-1.108,3.4-.166.651-.194,1.335-.408,1.972a3.765,3.765,0,0,0-.4,1.469,1.848,1.848,0,0,0,.32.837,2.823,2.823,0,0,0,3.085,1.322c.313-.107.6-.285.908-.4a7.347,7.347,0,0,1,2.671-.16,2.622,2.622,0,0,0,1.133-.191,1.642,1.642,0,0,0,.895-1.629,4.486,4.486,0,0,0-.314-1.015,6.552,6.552,0,0,1-.376-2.869c.047-.494.147-.983.147-1.478,0-.655-.458-1.146-.361-1.745A2.6,2.6,0,0,0,146.045,175.159Z" transform="translate(-118.223 -154.385)" fill="#606161"/><path d="M150.459,202.109c.17-.432.451-.817.588-1.26a6.5,6.5,0,0,0,.128-1.692,2.045,2.045,0,0,1,.588-1.543,2.181,2.181,0,0,1,1.255-.385,3.3,3.3,0,0,1,1.786.27,2.887,2.887,0,0,1,1.307,2.442,9.911,9.911,0,0,0,.088,1.565,1.592,1.592,0,0,1,.075.577,1.042,1.042,0,0,1-.266.489,5.392,5.392,0,0,1-3.723,1.694c-.441.038-1.388.2-1.763-.1C150.061,203.777,150.27,202.588,150.459,202.109Z" transform="translate(-128.395 -174.261)" fill="url(#a)"/><path d="M170.4,217.9c.01-.175-.169-.992-.169-1.166,0-.405.4-.156.768-.317s1.086-.212,1.131.19c.113,1.008.029,1.372.242,1.6a.484.484,0,0,1,.073.674,1.212,1.212,0,0,1-.7.441,1.822,1.822,0,0,1-.934-.16c-.217-.078-.652-.232-.708-.5S170.376,218.187,170.4,217.9Z" transform="translate(-145.331 -190.541)" fill="url(#b)"/><path d="M171.22,220.323s.147.848.843.946a1.926,1.926,0,0,0,1.106-.12l.026-1.028Z" transform="translate(-146.29 -193.803)" fill="url(#c)"/><path d="M156.6,403.581a22.467,22.467,0,0,0,.339,3.232,1.094,1.094,0,0,0,.754.862.814.814,0,0,0,.735-.316,1.988,1.988,0,0,0,.344-.758c.294-1.074.081-6.524.561-8.738a.607.607,0,0,0-.056-.408.705.705,0,0,0-.206-.222c-.66-.505-2.866-.917-3.122.259C155.794,398.21,156.546,402.707,156.6,403.581Z" transform="translate(-133.247 -344.468)" fill="url(#d)"/><path d="M188.813,406.246c-.135.378-.358.793-.754.862a.814.814,0,0,1-.735-.316,1.987,1.987,0,0,1-.344-.758,14.4,14.4,0,0,1-.372-3.311l-.191-5.427a.818.818,0,0,1,.057-.408.7.7,0,0,1,.206-.222c.66-.505,2.433-1.086,2.688.09C189.524,397.476,189.291,404.9,188.813,406.246Z" transform="translate(-159.251 -343.902)" fill="url(#e)"/><path d="M115.442,231.59a3.6,3.6,0,0,0-1.352,1.081,6.9,6.9,0,0,0-.68,1.332c-1.872,4.531-2.825,9.5-5.562,13.57a3.724,3.724,0,0,0-.657,1.933c-.015.306.012.682.294.814a.7.7,0,0,0,.563-.05,2.663,2.663,0,0,0,1.469-1.653,1.431,1.431,0,0,1,.147-.383c.054-.084.131-.147.191-.234a2.384,2.384,0,0,0,.266-1.208,5.111,5.111,0,0,1,.53-1.551q1.415-3.034,2.91-6.023a16.854,16.854,0,0,0,.964-2.165c.2-.6.331-1.211.5-1.816C115.6,233.133,116.084,231.668,115.442,231.59Z" transform="translate(-91.665 -203.588)" fill="url(#f)"/><path d="M190.28,228.92s3.216.958,4.146,3.605,3.792,11.875,3.792,11.875,1.548,1.628,1.49,2.138-.079,1.565-.821,1.313-2.082-1.162-2.189-1.86a11.135,11.135,0,0,1-.054-1.77l-3.768-9.067-1.322-1.663S189.55,229.769,190.28,228.92Z" transform="translate(-162.413 -201.31)" fill="url(#g)"/><path d="M278.167,448.408a1.609,1.609,0,0,0,.1.858.762.762,0,0,0,1.31.059,1.469,1.469,0,0,0,.184-.541,22.969,22.969,0,0,0,.4-3.247.714.714,0,0,0-.834-.952,1.982,1.982,0,0,0-1.011.184c-.339.223-.206.482-.176.855A19.787,19.787,0,0,1,278.167,448.408Z" transform="translate(-237.456 -385.285)" fill="url(#h)"/><path d="M298.184,446.663a1.6,1.6,0,0,0,.2.84.765.765,0,0,0,1.309-.1,1.494,1.494,0,0,0,.117-.558,22.7,22.7,0,0,0,0-3.27.709.709,0,0,0-.931-.846,1.987,1.987,0,0,0-.983.3c-.312.262-.147.5-.073.868A19.862,19.862,0,0,1,298.184,446.663Z" transform="translate(-254.201 -383.686)" fill="url(#i)"/><path d="M305.114,372.159c.411.814.645,1.706,1.012,2.54a4.319,4.319,0,0,1,.469,1.359,1.12,1.12,0,0,1-.649,1.175.814.814,0,0,1-.99-.541,2.908,2.908,0,0,1-.034-.651,3.922,3.922,0,0,0-.5-1.469,12.592,12.592,0,0,1-1.175-3.62c-.085-.8.588-.367.931-.053A4.3,4.3,0,0,1,305.114,372.159Z" transform="translate(-258.914 -322.089)" fill="url(#j)"/><path d="M278.91,324.256a2.69,2.69,0,0,0-1.307,1.456,8.331,8.331,0,0,0-.26,1.647,5.771,5.771,0,0,1-.36,1.353,2.618,2.618,0,0,0-.319,1.24,1.484,1.484,0,0,0,.408.8,2.935,2.935,0,0,0,2.809.76,1.6,1.6,0,0,0,.636-.279,1.691,1.691,0,0,0,.523-1.15,6.312,6.312,0,0,1,.184-1.28,4.3,4.3,0,0,1,.419-.814,14.108,14.108,0,0,0,.663-1.26,2.094,2.094,0,0,0,.179-.5,1.366,1.366,0,0,0-.576-1.322c-.242-.173-.529-.273-.783-.427-.169-.1-.323-.229-.5-.322A2.038,2.038,0,0,0,278.91,324.256Z" transform="translate(-236.236 -282.429)" fill="#606161"/><path d="M346.483,333.658a.237.237,0,0,0-.088.2.425.425,0,0,0,.082.214.735.735,0,0,0,.351.273.162.162,0,0,0,.156,0,.147.147,0,0,0,.043-.088.538.538,0,0,0-.04-.294C346.924,333.79,346.713,333.5,346.483,333.658Z" transform="translate(-295.729 -290.621)" fill="url(#k)"/><path d="M375.229,329.909a.245.245,0,0,1,.222-.084.2.2,0,0,1,.126.134.505.505,0,0,1,.013.188.833.833,0,0,1-.116.425,1.028,1.028,0,0,1-.229.216.123.123,0,0,1-.068.031c-.056,0-.082-.066-.09-.12A.916.916,0,0,1,375.229,329.909Z" transform="translate(-320.186 -287.389)" fill="url(#l)"/><path d="M344.816,441.773l-.376,5.393a1.59,1.59,0,0,0,.993.107c.376-.16,1.287-5.553,1.287-5.553Z" transform="translate(-294.062 -382.848)" fill="url(#m)"/><path d="M374.655,439.763l.375,5.393a1.587,1.587,0,0,1-.992.107c-.375-.16-1.288-5.553-1.288-5.553Z" transform="translate(-318.213 -381.133)" fill="url(#n)"/><path d="M344.123,412.016a25.634,25.634,0,0,0-.071,3.842,9.463,9.463,0,0,0,2.442.054l.751-1.825L348,416.1a11.71,11.71,0,0,0,2.308-.16c.1-.16-.032-4.476-.46-4.666S344.123,412.016,344.123,412.016Z" transform="translate(-293.673 -356.851)" fill="#606161"/><path d="M314.492,384.254a2.514,2.514,0,0,0-.389.8.854.854,0,0,0,.223.826.982.982,0,0,0,.67.191.823.823,0,0,0,.754-.353,2.025,2.025,0,0,0,.113-.519,2.706,2.706,0,0,1,.9-1.2,4.6,4.6,0,0,0,.611-.767,1.84,1.84,0,0,0,.344-1.382.946.946,0,0,0-.683-.677c-.448-.09-.624.294-.864.611C315.569,382.576,315.029,383.415,314.492,384.254Z" transform="translate(-268.157 -331.184)" fill="url(#o)"/><path d="M334.022,350.966a4.142,4.142,0,0,0-2.161.6,3.387,3.387,0,0,0-.87,1.056c-.519.89-.837,1.562-1.322,2.471-.259.486,1.378,1.457,1.378,1.457a.835.835,0,0,0,.407-.428c.1,1.337.237,2.58.339,3.917a.57.57,0,0,0,.093.323.588.588,0,0,0,.542.109l4.758-.683a.483.483,0,0,0,.52-.588l.057-3.673a3.023,3.023,0,0,1,.109-.905,2.653,2.653,0,0,1,.457-.765c.328-.423.5-.076.87-.458a.424.424,0,0,0,.147-.253.41.41,0,0,0-.122-.257c-.475-.588-.286-1.6-.762-2.19C337.322,351.28,335.3,350.856,334.022,350.966Z" transform="translate(-281.437 -305.199)" fill="#68e1fd"/><path d="M358.534,342.572a1,1,0,0,0,.22.945.9.9,0,0,0,.361.162,1.071,1.071,0,0,0,.294.037.941.941,0,0,0,.779-.67,2.774,2.774,0,0,0,.075-1.08,1.43,1.43,0,0,0-.113-.561.851.851,0,0,0-.82-.426C358.374,341.061,358.641,341.886,358.534,342.572Z" transform="translate(-306.064 -296.902)" fill="url(#p)"/><path d="M437.4,332.943a14.473,14.473,0,0,0-.522,3.427q-.451,6.518-.735,13.047c-.068,1.538.245,3.563-1.1,4.661a5.338,5.338,0,0,0-1.1.9.319.319,0,0,0-.072.172c0,.189.25.253.441.254q1.093,0,2.187-.021a1.123,1.123,0,0,0,.908-.306,1.518,1.518,0,0,0,.169-.814c.063-.711.654-1.376.815-2.073,2.32-9.981,2.6-12.34,3.589-14.147a16.333,16.333,0,0,1,.965,4.024c.2,2.245.607,3.967.718,6.223.053,1.086-.01,2.2.106,3.283a17.508,17.508,0,0,0,.783,3.261.5.5,0,0,0,.56.441,19.543,19.543,0,0,0,2.843.037.767.767,0,0,0,.369-.087.557.557,0,0,0,.087-.746,2.456,2.456,0,0,0-.614-.558,3.216,3.216,0,0,1-1.163-2.778,14.507,14.507,0,0,0,.09-1.739c-.016-.721-.013-1.444,0-2.167.057-2.891.294-5.778.266-8.668a29.415,29.415,0,0,0-.5-5.312.831.831,0,0,0-1.014-.834h-5.53A4.11,4.11,0,0,0,437.4,332.943Z" transform="translate(-370.354 -289.611)" fill="#606161"/><path d="M422.731,229.137l.937-3a6.352,6.352,0,0,1,5.7-5.231,2.8,2.8,0,0,1,1.141-.094c1.322.167,3.057-.2,4.365.544a5.217,5.217,0,0,1,1.719,1.91,27.822,27.822,0,0,1,4.027,15.146.7.7,0,0,1-.608.873,3.689,3.689,0,0,1-1.288-.232.937.937,0,0,1-.708-.845,25.423,25.423,0,0,0-.209-3.508,13.4,13.4,0,0,0-2.2-5.954l.147,6.548a4.7,4.7,0,0,1-.147,1.591,3.107,3.107,0,0,1-2.057,1.873,7.254,7.254,0,0,1-2.857.2,22.259,22.259,0,0,1-2.887-.441,3.177,3.177,0,0,1-2.057-1.08,3,3,0,0,1-.392-1.731,11.9,11.9,0,0,1,.4-2.949c.378-1.446,1.006-3.07.217-4.34a9.462,9.462,0,0,0-1.416,4.541c-.084.892-1.05,3.759-2.182,3.89a1.681,1.681,0,0,1-1.516-.6,2.331,2.331,0,0,1,.007-2.314C421.565,232.015,422.121,231.088,422.731,229.137Z" transform="translate(-358.984 -194.378)" fill="#68e1fd"/><path d="M483.021,211.364a2.676,2.676,0,0,1-.579.824.771.771,0,0,1-.71.251,2.43,2.43,0,0,1-1.763-1.219,1.083,1.083,0,0,1-.138-.294,1.3,1.3,0,0,1,.085-.61,5.925,5.925,0,0,0,.147-1.219h0c0-.06-.007-.129-.007-.206a1,1,0,0,1,.091-.617c.282-.458,1.19-.511,1.64-.411a1.23,1.23,0,0,1,.839.555,1.128,1.128,0,0,1,.113.473,5.29,5.29,0,0,1,0,.61,1.958,1.958,0,0,0,.206,1,1.618,1.618,0,0,1,.093.16.414.414,0,0,1,.06.129A.881.881,0,0,1,483.021,211.364Z" transform="translate(-409.558 -183.31)" fill="url(#q)"/><path d="M484.388,216.871a3.293,3.293,0,0,1-1.807.076c-.892-.175-1.112-1.2-1.167-1.662h0a2.033,2.033,0,0,1-.015-.206h2.69a5.264,5.264,0,0,1,0,.61,1.958,1.958,0,0,0,.206,1,1.621,1.621,0,0,1,.093.16Z" transform="translate(-410.901 -189.503)" fill="url(#r)"/><path d="M470.489,176.2a5.08,5.08,0,0,0,.937,2.539,2.569,2.569,0,0,0,2.4,1.018,3.675,3.675,0,0,0,.767-.266,1.322,1.322,0,0,0,.392-.228,1.367,1.367,0,0,0,.276-.454,7.813,7.813,0,0,0,.417-1.084,7.491,7.491,0,0,0,.207-1.377,5.653,5.653,0,0,0,0-1.365,2.994,2.994,0,0,0-.9-1.689,1.077,1.077,0,0,0-.294-.214,1.309,1.309,0,0,0-.453-.085,6.734,6.734,0,0,0-1.44.015,2.568,2.568,0,0,0-1.31.558,2.9,2.9,0,0,0-.774,1.259c-.078.222-.147.441-.226.665A1.538,1.538,0,0,0,470.489,176.2Z" transform="translate(-401.557 -153.575)" fill="url(#s)"/><path d="M467.235,160.826a2.83,2.83,0,0,1,.05-.621.338.338,0,0,1,.131-.229.7.7,0,0,1,.147-.05c.251-.075.4-.322.554-.535a3.347,3.347,0,0,1,4.788-.657,1.818,1.818,0,0,1,.441.469c.134.217.2.473.35.68.17.237.441.392.6.633a1.4,1.4,0,0,1,.082,1.227c-.137.4-.37.762-.544,1.15s-.336.852-.734.986a.623.623,0,0,1-.024-.341,6.314,6.314,0,0,0-.065-1.784.231.231,0,0,0-.059-.138.228.228,0,0,0-.147-.035c-.316,0-.629.054-.945.044a17.137,17.137,0,0,1-2.151-.491,1.352,1.352,0,0,0-.881.1,1.5,1.5,0,0,0-.492.539,2.369,2.369,0,0,0-.394.951,3.62,3.62,0,0,1-.047.441c-.088.358-.26.216-.364-.038a3.492,3.492,0,0,1-.2-.749A9.047,9.047,0,0,1,467.235,160.826Z" transform="translate(-398.815 -140.817)" fill="#606161"/><path d="M541,343.115a.576.576,0,0,0,.129.244.494.494,0,0,0,.441.079,1.694,1.694,0,0,0,.946-.611,3.34,3.34,0,0,0,.532-1.012,2.118,2.118,0,0,0,.154-.787,1.788,1.788,0,0,0-.172-.655,1.814,1.814,0,0,0-1.02-1.028,1.219,1.219,0,0,0-1.488.881A5.718,5.718,0,0,0,541,343.115Z" transform="translate(-461.287 -295.478)" fill="url(#t)"/><path d="M348.462,317.583a2.43,2.43,0,0,0,.486.795,1.551,1.551,0,0,0,1.137.452,2,2,0,0,0,1.606-1.094,4.458,4.458,0,0,0,.45-1.966,3.049,3.049,0,0,0-.119-1.165,1.963,1.963,0,0,0-1.428-1.2,2.474,2.474,0,0,0-1.858.392,1.594,1.594,0,0,0-.458.441,2.182,2.182,0,0,0-.264.911,1.7,1.7,0,0,0-.026.632c.044.172.084.331.112.508a5.617,5.617,0,0,0,.364,1.3Z" transform="translate(-297.072 -273.345)" fill="url(#u)"/><path d="M341.361,309.806a3.033,3.033,0,0,1-.4-1.3c0-.17.021-.372.169-.457a1.149,1.149,0,0,1,.172-.065,1.241,1.241,0,0,0,.383-.319,3.56,3.56,0,0,1,.9-.588,2.029,2.029,0,0,1,.508-.206,1.961,1.961,0,0,1,.441-.018,2.542,2.542,0,0,1,1.616.461c.063.056.122.119.191.169.215.156.508.181.71.354a.9.9,0,0,1,.222.316,2.017,2.017,0,0,1,.168,1.175,4.226,4.226,0,0,1-.125.5l-.162.547q-.339-.846-.724-1.672a4.289,4.289,0,0,1-1.008.248,4.688,4.688,0,0,0-1.187.082,2.057,2.057,0,0,0-.7.483,1.185,1.185,0,0,0-.24.282c-.187.341,0,.761-.164,1.1-.147-.04-.314-.378-.4-.5A6.283,6.283,0,0,1,341.361,309.806Z" transform="translate(-291.093 -267.787)" fill="#606161"/><path d="M390.253,330.078a17.9,17.9,0,0,1-1.825.858c-.457.134-.037,2.218.376,2.118s3.192-2.2,3.407-2.333.643-.429.643-.429a1.583,1.583,0,0,0,1.288-.832,1.4,1.4,0,0,0-.135-1.8c-.107-.026-.527-.4-.795-.313s-.967,1.02-.967,1.02A5.44,5.44,0,0,1,390.253,330.078Z" transform="translate(-331.418 -285.268)" fill="url(#v)"/><path d="M418.107,326.548a1.365,1.365,0,0,0,.216.8.723.723,0,0,0,1.168-.035,6.732,6.732,0,0,0,.306-.808c.132-.257.407-.466.52-.749a1.04,1.04,0,0,0-1.266-1.287A1.985,1.985,0,0,0,418.107,326.548Z" transform="translate(-356.903 -282.775)" fill="url(#w)"/><path d="M336.692,474.6a1.326,1.326,0,0,0-.341.013.8.8,0,0,0-.223.119l-.814.557c-.12.082-.254.188-.254.333a.294.294,0,0,0,.065.178.841.841,0,0,0,.735.2l1.206-.071a.453.453,0,0,0,.479-.279c.147-.25.42-.641.223-.926C337.528,474.381,337.015,474.6,336.692,474.6Z" transform="translate(-286.06 -410.838)" fill="#606161"/><path d="M379.157,474.6a1.329,1.329,0,0,1,.342.013.84.84,0,0,1,.223.119l.814.557c.12.082.253.188.254.333a.294.294,0,0,1-.066.178.838.838,0,0,1-.735.2l-1.206-.071a.451.451,0,0,1-.477-.279c-.147-.25-.422-.641-.225-.926C378.321,474.381,378.834,474.6,379.157,474.6Z" transform="translate(-322.703 -410.838)" fill="#606161"/><path d="M261.283,369.711a7.1,7.1,0,0,1-.294,1.065c-.413,1.263-.826,2.527-1.25,3.786a34.582,34.582,0,0,1-1.449,3.762,9.134,9.134,0,0,0,4.9,1.224c.6-.078,1.175-.275,1.773-.351s1.237-.028,1.854-.079a2.7,2.7,0,0,0,1.7-.654l-.893-1.745c-.326-.638-.652-1.277-.918-1.942a11.55,11.55,0,0,1-.811-3.984,11.418,11.418,0,0,0-.119-2.116,1.65,1.65,0,0,0-.441-.89,1.958,1.958,0,0,0-1.187-.4c-.611-.059-1.938-.332-2.475.06S261.381,369.13,261.283,369.711Z" transform="translate(-220.568 -319.307)" fill="#68e1fd"/><path d="M284.531,347.4a.21.21,0,0,0-.1.172.4.4,0,0,0,.05.2.668.668,0,0,0,.281.279.147.147,0,0,0,.138.013.128.128,0,0,0,.047-.072.482.482,0,0,0,0-.266C284.9,347.561,284.75,347.28,284.531,347.4Z" transform="translate(-242.868 -302.358)" fill="url(#x)"/><path d="M310.065,347.281a.213.213,0,0,1,.206-.05.175.175,0,0,1,.1.131.44.44,0,0,1-.007.169.747.747,0,0,1-.147.361.867.867,0,0,1-.225.166.1.1,0,0,1-.065.021c-.048,0-.063-.068-.065-.116A.784.784,0,0,1,310.065,347.281Z" transform="translate(-264.559 -302.233)" fill="url(#y)"/><path d="M291.28,356.538a.892.892,0,0,0,.2.84.818.818,0,0,0,.322.147.952.952,0,0,0,.264.032.846.846,0,0,0,.695-.595,2.463,2.463,0,0,0,.066-.962,1.281,1.281,0,0,0-.1-.5.758.758,0,0,0-.735-.375C291.137,355.193,291.377,355.926,291.28,356.538Z" transform="translate(-248.693 -308.972)" fill="url(#z)"/><path d="M292.506,361a.855.855,0,0,0,.333.081.424.424,0,0,0,.311-.126.62.62,0,0,0,.109-.441.4.4,0,0,0-.028-.162.325.325,0,0,0-.166-.147,1.21,1.21,0,0,0-.48-.09,3.487,3.487,0,0,0-.567.028c-.2.025-.3.038-.2.248A1.343,1.343,0,0,0,292.506,361Z" transform="translate(-249.137 -313.233)" fill="url(#aa)"/><path d="M286.734,334.55a2.158,2.158,0,0,0,.344.754,1.38,1.38,0,0,0,.956.524,1.783,1.783,0,0,0,1.538-.793,3.956,3.956,0,0,0,.61-1.688,2.7,2.7,0,0,0,.021-1.042,1.739,1.739,0,0,0-1.131-1.218,2.19,2.19,0,0,0-1.684.147,1.4,1.4,0,0,0-.448.339,1.959,1.959,0,0,0-.332.776,1.5,1.5,0,0,0-.091.555,4.551,4.551,0,0,1,.043.461A5.067,5.067,0,0,0,286.734,334.55Z" transform="translate(-244.648 -288.38)" fill="url(#ab)"/><path d="M285.4,331.429a.544.544,0,0,0,.239.385.631.631,0,0,0,.245.049,1.73,1.73,0,0,0,.717-.062.588.588,0,0,0,.408-.542c-.023.131-.028.3.093.356a.294.294,0,0,0,.113.021l.529.024a1.269,1.269,0,0,0,.441-.032.441.441,0,0,0,.307-.294.59.59,0,0,0,.488.209.562.562,0,0,0,.279-.038c.173-.088.22-.31.247-.5a1.832,1.832,0,0,0-.015-.833,1.628,1.628,0,0,0-.519-.671,2.253,2.253,0,0,0-.6-.408,2.154,2.154,0,0,0-.908-.125,5.126,5.126,0,0,0-1.012.134,1.684,1.684,0,0,0-.826.4c-.26.263-.214.514-.213.845A4.737,4.737,0,0,0,285.4,331.429Z" transform="translate(-243.668 -286.649)" fill="#606161"/><path d="M250.9,349.443a11.748,11.748,0,0,0-1.672-1.763.844.844,0,0,0-.469-.2.646.646,0,0,0-.588.617,1.741,1.741,0,0,0,.239.9,10.09,10.09,0,0,0,3.673,4.033.67.67,0,0,0,.366.135c.263-.009.422-.294.5-.544a3.274,3.274,0,0,0,.118-1.211c-.044-.489-.054-.614-.472-.771A4.216,4.216,0,0,1,250.9,349.443Z" transform="translate(-211.932 -302.452)" fill="url(#ac)"/><path d="M271.438,472.776a7.7,7.7,0,0,0-.649.547c-.1.082-.209.178-.209.306a.279.279,0,0,0,.157.232.755.755,0,0,0,.284.071,5.634,5.634,0,0,0,1.4-.034,1.469,1.469,0,0,0,.372-.094,1.044,1.044,0,0,0,.5-.519C273.827,472.125,272.011,472.392,271.438,472.776Z" transform="translate(-231.053 -409.061)" fill="#606161"/><path d="M301.711,472.776a7.959,7.959,0,0,1,.654.547c.1.082.207.178.207.306a.276.276,0,0,1-.157.232.747.747,0,0,1-.284.071,5.634,5.634,0,0,1-1.4-.034,1.469,1.469,0,0,1-.372-.094,1.051,1.051,0,0,1-.5-.519C299.324,472.125,301.14,472.392,301.711,472.776Z" transform="translate(-255.952 -409.061)" fill="#606161"/><path d="M138.823,228.716a5.47,5.47,0,0,1-.441,2.966,10.394,10.394,0,0,0-.517,1.147c-.529,1.687.688,3.526.272,5.24-1.175,4.829-3.361,9.442-3.536,14.408a.617.617,0,0,0,.063.361.645.645,0,0,0,.394.22c3.085.842,6.317,1.654,9.429.955a20.162,20.162,0,0,0,4.012-1.526,1.279,1.279,0,0,0,.735-.617,1.216,1.216,0,0,0,.018-.53,20.5,20.5,0,0,0-1.1-4.983c-.648-1.687-1.642-3.213-2.434-4.836a9.309,9.309,0,0,1-1.15-5.215c.159-1.189.67-2.44.175-3.526a6.891,6.891,0,0,0-.676-1.028,4.8,4.8,0,0,1-.807-2.368c-.025-.382-.034-.832-.347-1.053-.389-.273-.917.019-1.281.325s-.827.654-1.266.473a2.318,2.318,0,0,1-.563-.473A1.073,1.073,0,0,0,138.823,228.716Z" transform="translate(-115.045 -200.713)" fill="#68e1fd"/><path d="M161.916,464.15l-.076.11" transform="translate(-138.288 -401.982)" fill="none"/><path d="M152.564,464.338a.338.338,0,0,0-.25-.016c-.091.045-.115.16-.14.257a2.1,2.1,0,0,1-.9,1.175,4.345,4.345,0,0,0-.563.4.764.764,0,0,0-.269.611.131.131,0,0,0,.022.066.136.136,0,0,0,.1.034,15.359,15.359,0,0,0,1.745.01,3.3,3.3,0,0,0,1.7-.366.493.493,0,0,0,.147-.137.588.588,0,0,0,.065-.332v-1c0-.175.1-.726-.076-.82s-.539.162-.7.188A2,2,0,0,1,152.564,464.338Z" transform="translate(-128.568 -402.024)" fill="#606161"/><path d="M188.251,462.122a1.836,1.836,0,0,0,1.385-.013c.091-.049.2-.112.294-.06a.225.225,0,0,1,.084.1,8.164,8.164,0,0,1,.2.945,1.71,1.71,0,0,0,.77.786,1.1,1.1,0,0,1,.328.263.35.35,0,0,1,.032.394.5.5,0,0,1-.4.157,17.788,17.788,0,0,1-2.255.023.717.717,0,0,1-.278-.051c-.088-.041-.157-.116-.242-.163a1.928,1.928,0,0,1-.254-.123.6.6,0,0,1-.185-.313,3.6,3.6,0,0,1-.147-1.453C187.631,462.133,187.755,461.967,188.251,462.122Z" transform="translate(-160.228 -400.173)" fill="#606161"/><path d="M163.983,184.2a1.457,1.457,0,0,1,1.206,1.112c.156.958.37,4.26-.928,4.7s-2.536-1.083-2.782-1.7S160.4,183.736,163.983,184.2Z" transform="translate(-137.756 -163.128)" fill="url(#ad)"/><path d="M158.439,182.278c.071-.278.382-.407.652-.507a3.408,3.408,0,0,0,1.114-.613,1.493,1.493,0,0,0,.535-1.118.857.857,0,0,0,.489.563c.229.118.482.184.707.31a1.494,1.494,0,0,1,.617.679.294.294,0,0,0,.11.154c.12.063.247-.079.294-.207a1.587,1.587,0,0,0-.147-1.222,4.7,4.7,0,0,0-.768-1,2.226,2.226,0,0,0-.508-.441,1.582,1.582,0,0,0-1.037-.135,2.733,2.733,0,0,0-2.248,3.182" transform="translate(-135.186 -158.476)" fill="#606161"/><path d="M273.151,157.6s1.128-3.689,4.047-3.232a3.88,3.88,0,0,1,3.414,2.678s1.559-4.072,5.622-2.553c4.764,1.781.984,7.332.516,7.7s-6.627,6.23-6.627,6.23-6.464-6.479-6.825-7.152A4.558,4.558,0,0,1,273.151,157.6Z" transform="translate(-232.984 -137.524)" fill="#ff715b" opacity="0.84"/></g></svg>