<svg id="Layer_1" data-name="Layer 1" xmlns="http://www.w3.org/2000/svg" width="24.002" height="24.002" viewBox="0 0 24.002 24.002">
  <path id="Path_4945" data-name="Path 4945" d="M16,0V16H0V0ZM13.894,11.964V2.117H2.124v9.844H3.937C4.63,10.294,5.57,9.1,7.6,9.961a.937.937,0,0,0,.667,0c2.05-.833,3.12.237,3.834,2Z" fill="#F1A448"/>
  <path id="Path_4946" data-name="Path 4946" d="M24,40.375,13.694,35.968,10,34.374l.153-.42,14.158,3.587c1.29-4.4,2.547-8.667,3.81-12.981l2.547.813v.667a8.027,8.027,0,0,0-.47.84q-2.774,6.747-5.53,13.494Z" transform="translate(-6.666 -16.373)" fill="#F1A448"/>
  <path id="Path_4948" data-name="Path 4948" d="M18.413,24.128H28.908c.493-3.667.977-7.251,1.41-10.481L29.028,11.1l.4-.413,3.807.95c-1.317,5.177-2.63,10.288-3.964,15.548L18.41,24.431Z" transform="translate(-12.273 -7.126)" fill="#F1A448"/>
  <path id="Path_4950" data-name="Path 4950" d="M17.994,9a2.92,2.92,0,0,1,3,3.07,3,3,0,1,1-6-.133,2.94,2.94,0,0,1,3-2.937Zm-1.877,4.057c1.643,1.61,2.544,1.557,3.51,0Z" transform="translate(-9.993 -5.997)" fill="#F1A448"/>
</svg>
