<svg xmlns="http://www.w3.org/2000/svg" width="99.606" height="84.982" viewBox="0 0 99.606 84.982"><g transform="translate(-135.97 -240.044)"><g transform="translate(135.969 240.044)"><path d="M970.772,467.792c-.016,1.268-.074,2.689-.2,4.186l3.653-4.555.026.071a11.391,11.391,0,0,0-1.314-2.913l.029.067Z" transform="translate(-881.056 -420.528)" fill="#57b894"/><path d="M970.97,449.369l2.12-3.045a6,6,0,0,0-2.173-2.063c-.043-.023-.087-.044-.13-.064C970.818,444.539,971,446.555,970.97,449.369Z" transform="translate(-881.251 -402.327)" fill="#57b894"/><path d="M962.541,561.719q.135-.8.209-1.589l-5.509,4.326-.007-.038q-.124.468-.259.92l5.553-3.7Z" transform="translate(-868.919 -505.838)" fill="#57b894"/><path d="M965.328,501.146l4.93-4.569.019.079a17.909,17.909,0,0,0-.686-4.172l-3.722,4.641Q965.676,499.23,965.328,501.146Z" transform="translate(-876.378 -445.442)" fill="#57b894"/><path d="M903.664,479.793l-6.594-6.553.029-.08a14.959,14.959,0,0,0-1.335,2.7l7.5,7.117C903.447,481.867,903.574,480.792,903.664,479.793Z" transform="translate(-814.268 -428.187)" fill="#57b894"/><path d="M899.923,507.149q.076-.408.142-.81l-7.532-7.143.028-.081q-.187.5-.351,1.029l.027-.081Z" transform="translate(-811.095 -451.361)" fill="#57b894"/><path d="M959.831,539.371l5.462-4.29.016.082a21.393,21.393,0,0,0,.064-2.882l-5,4.631Q960.138,538.188,959.831,539.371Z" transform="translate(-871.47 -480.972)" fill="#57b894"/><path d="M885.869,549.044l6.176,7.16a25.738,25.738,0,0,0,1.085-2.885l-7.433-6.955a20.7,20.7,0,0,0,.137,2.766Z" transform="translate(-805.277 -493.547)" fill="#57b894"/><path d="M937.562,440.905l.05-.026a4.058,4.058,0,0,0-3.92.308l4.057,4.891C937.776,443.035,937.565,440.935,937.562,440.905Z" transform="translate(-848.132 -399.036)" fill="#57b894"/><path d="M947.331,579.965a25.546,25.546,0,0,1-.981,2.6l5.6-3.323.011.083a10.13,10.13,0,0,0,.877-2.4q.11-.492.2-.986l-5.619,3.747C947.388,579.779,947.36,579.873,947.331,579.965Z" transform="translate(-859.433 -519.953)" fill="#57b894"/><path d="M915.36,452.265l-4.15-5,.032-.077a8.625,8.625,0,0,0-2.623,2.717l6.541,6.5C915.288,454.923,915.345,453.519,915.36,452.265Z" transform="translate(-825.746 -404.996)" fill="#57b894"/><path d="M893.254,520.229a34.7,34.7,0,0,0,.887-3.63l-7.7-7.1q-.219.72-.392,1.494a12.438,12.438,0,0,0-.272,2.248l7.476,6.994Z" transform="translate(-805.348 -460.63)" fill="#57b894"/><path d="M1006.094,672.249c-.821.966-1.772,2.024-2.827,3.093l5.718-1.178-.026.071a11.4,11.4,0,0,0,.846-3.082l-.02.07Z" transform="translate(-910.251 -604.965)" fill="#57b894"/><path d="M1034.214,641.652c-.019-.045-.039-.089-.059-.133-.194.285-1.344,1.951-3.158,4.1l3.575-.993A6.011,6.011,0,0,0,1034.214,641.652Z" transform="translate(-935.01 -578.506)" fill="#57b894"/><path d="M945.667,754.365q-.394.281-.787.543l6.639.69-.044.073q.612-.528,1.175-1.091l-7-.181Z" transform="translate(-858.121 -679.26)" fill="#57b894"/><path d="M973.9,704.552l6.711-.375-.036.073a17.913,17.913,0,0,0,2.132-3.651l-5.827,1.2Q975.394,703.3,973.9,704.552Z" transform="translate(-884.035 -631.256)" fill="#57b894"/><path d="M953.638,737.291l6.943.18-.04.073a21.4,21.4,0,0,0,1.888-2.179l-6.8.38Q954.629,736.575,953.638,737.291Z" transform="translate(-865.94 -662.295)" fill="#57b894"/><path d="M811.858,594.482l.141-.162a17.8,17.8,0,0,0,4.034-1.412l-.1-4.98q.073-.2.14-.393l.107,5.3a25.707,25.707,0,0,0,2.676-1.53l-1.177-9.22.146-.088L819,591.207h.006a34.716,34.716,0,0,0,3-2.23l-1.226-9.069.142-.118,1.226,9.069q.318-.266.626-.533l-1.11-9.188.141-.131,1.111,9.2c.847-.743,1.631-1.489,2.338-2.2l-.9-9.253.073-.043c-.253.082-.51.175-.768.277a13.109,13.109,0,0,0,1.227-1.894l-5.657,3.355A19.647,19.647,0,0,1,818,580.726c-.1.106-.2.214-.3.325l.014.113q-.066.1-.132.194l-.019-.15c-.056.065-.112.131-.168.2a18.516,18.516,0,0,0,1.727-3.023l-6.131-7.108c.077.66.18,1.323.3,1.98a11.25,11.25,0,0,0-2.045-2.218l.048.055-1.11,3.666c.377,1.211.76,2.58,1.1,4.044l2.037-5.385q.023.122.047.244l-2.032,5.371q.467,2.06.729,3.99l2.548-4.565.059.186-2.576,4.615q.167,1.288.241,2.508l3.165-4.719.064.171-3.2,4.769-.019-.034q.027.484.038.955l3.614-4.576.067.164-3.676,4.655c0,.1,0,.2,0,.292a25.543,25.543,0,0,1-.129,2.778l.351-.4q-.093.226-.181.446l-.2.227q-.024.206-.052.409-.1.263-.2.514.077-.471.132-.947l-8.028-4.865a47.712,47.712,0,0,0,6.65,10.016q.263-.568.475-1.162l.144-.023c-.017.047-.033.1-.05.142l-.075.013.065.014q-.151.416-.321.813c.161-.162.4-.413.693-.737,1.844.359,6.791,1.065,10.893-.64l-6.5-1.025A17.976,17.976,0,0,1,811.858,594.482Zm4.038-8.38.145-.165,0,.234-.145.165Z" transform="translate(-732.425 -515.577)" fill="#57b894"/><path d="M1033.377,622.14l.055.012a4.058,4.058,0,0,0-3.216-2.262l.005,6.355C1032.183,623.917,1033.359,622.165,1033.377,622.14Z" transform="translate(-934.313 -559.194)" fill="#57b894"/><path d="M920.577,760.845a25.556,25.556,0,0,1-2.415,1.378l6.435,1.015-.045.071a10.133,10.133,0,0,0,2.208-1.291q.4-.309.779-.635l-6.718-.7Z" transform="translate(-834.265 -684.903)" fill="#57b894"/><path d="M995.4,628.872c1.042-1.058,1.982-2.1,2.793-3.059l-.005-6.5.073-.039a8.624,8.624,0,0,0-3.753.42Z" transform="translate(-902.43 -558.591)" fill="#57b894"/><path d="M846.624,559.714a6,6,0,0,0-2.7-1.29c-.048-.008-.1-.015-.144-.021.137.316.928,2.179,1.773,4.863Z" transform="translate(-767.85 -504.296)" fill="#57b894"/><path d="M797.9,609.566l-8.3-4.194,0-.085a14.953,14.953,0,0,0-.434,2.983l9.337,4.449C798.338,611.605,798.127,610.544,797.9,609.566Z" transform="translate(-719.101 -546.156)" fill="#57b894"/><path d="M798.36,638.458l-9.371-4.465v-.085q-.024.532-.015,1.087v-.085l9.5,4.363Q798.421,638.862,798.36,638.458Z" transform="translate(-718.92 -571.71)" fill="#57b894"/><path d="M803.677,686.177l-9.219-4.316a20.694,20.694,0,0,0,.985,2.589l.006-.093,8.087,4.9A25.718,25.718,0,0,0,803.677,686.177Z" transform="translate(-723.818 -614.525)" fill="#57b894"/><path d="M812.906,558.123l.04-.04a4.058,4.058,0,0,0-3.632,1.5l5.37,3.4C813.768,560.082,812.918,558.151,812.906,558.123Z" transform="translate(-737.081 -503.984)" fill="#57b894"/><path d="M800.557,576.453l-5.493-3.476.007-.083a8.624,8.624,0,0,0-1.655,3.395l8.229,4.16C801.309,579,800.929,577.65,800.557,576.453Z" transform="translate(-722.887 -517.235)" fill="#57b894"/><path d="M798.8,652.966a34.705,34.705,0,0,0-.278-3.727L789,644.866q.014.752.089,1.542a12.434,12.434,0,0,0,.436,2.222l9.272,4.341Z" transform="translate(-718.946 -581.494)" fill="#57b894"/><path d="M574.349,229.322l-27.658-3.486c-1.254-10.427.64-20.607,3.874-30.731l27.658,3.486A56.879,56.879,0,0,0,574.349,229.322Z" transform="translate(-502.252 -179.928)" fill="#f2f2f2"/><rect width="17.036" height="1.83" transform="matrix(0.992, 0.125, -0.125, 0.992, 52.177, 18.857)" fill="#6c63ff"/><rect width="23.09" height="0.915" transform="matrix(0.992, 0.125, -0.125, 0.992, 48.27, 22.835)" fill="#6c63ff" opacity="0.3"/><rect width="23.09" height="0.915" transform="matrix(0.992, 0.125, -0.125, 0.992, 47.901, 25.768)" fill="#6c63ff" opacity="0.3"/><rect width="23.09" height="0.915" transform="matrix(0.992, 0.125, -0.125, 0.992, 47.531, 28.701)" fill="#6c63ff" opacity="0.3"/><rect width="23.09" height="0.915" transform="matrix(0.992, 0.125, -0.125, 0.992, 47.161, 31.635)" fill="#6c63ff" opacity="0.3"/><rect width="23.09" height="0.915" transform="matrix(0.992, 0.125, -0.125, 0.992, 46.791, 34.568)" fill="#6c63ff" opacity="0.3"/><rect width="23.09" height="0.915" transform="matrix(0.992, 0.125, -0.125, 0.992, 46.422, 37.502)" fill="#6c63ff" opacity="0.3"/><rect width="23.09" height="0.915" transform="matrix(0.992, 0.125, -0.125, 0.992, 46.052, 40.435)" fill="#6c63ff" opacity="0.3"/><path d="M470.222,92.587,444.347,82.215c1.426-10.405,5.834-19.775,11.524-28.751l25.875,10.371A56.878,56.878,0,0,0,470.222,92.587Z" transform="translate(-411.223 -53.465)" fill="#e6e6e6"/><rect width="17.036" height="1.83" transform="translate(47.456 4.538) rotate(21.841)" fill="#6c63ff"/><rect width="23.09" height="0.915" transform="translate(42.669 7.397) rotate(21.841)" fill="#6c63ff" opacity="0.3"/><rect width="23.09" height="0.915" transform="translate(41.569 10.142) rotate(21.841)" fill="#6c63ff" opacity="0.3"/><rect width="23.09" height="0.915" transform="translate(40.469 12.886) rotate(21.841)" fill="#6c63ff" opacity="0.3"/><rect width="23.09" height="0.915" transform="translate(39.369 15.63) rotate(21.841)" fill="#6c63ff" opacity="0.3"/><rect width="23.09" height="0.915" transform="translate(38.269 18.375) rotate(21.841)" fill="#6c63ff" opacity="0.3"/><rect width="23.09" height="0.915" transform="translate(37.169 21.119) rotate(21.841)" fill="#6c63ff" opacity="0.3"/><rect width="23.09" height="0.915" transform="translate(36.069 23.863) rotate(21.841)" fill="#6c63ff" opacity="0.3"/><path d="M379.739,183.786H351.862c-2.548-10.189-1.942-20.525,0-30.974h27.877A56.879,56.879,0,0,0,379.739,183.786Z" transform="translate(-327.138 -142.167)" fill="#f2f2f2"/><rect width="17.036" height="1.83" transform="translate(29.018 13.813)" fill="#6c63ff"/><rect width="23.09" height="0.915" transform="translate(25.639 18.248)" fill="#6c63ff" opacity="0.3"/><rect width="23.09" height="0.915" transform="translate(25.639 21.205)" fill="#6c63ff" opacity="0.3"/><rect width="23.09" height="0.915" transform="translate(25.639 24.161)" fill="#6c63ff" opacity="0.3"/><rect width="23.09" height="0.915" transform="translate(25.639 27.118)" fill="#6c63ff" opacity="0.3"/><rect width="23.09" height="0.915" transform="translate(25.639 30.075)" fill="#6c63ff" opacity="0.3"/><rect width="23.09" height="0.915" transform="translate(25.639 33.031)" fill="#6c63ff" opacity="0.3"/><rect width="23.09" height="0.915" transform="translate(25.639 35.988)" fill="#6c63ff" opacity="0.3"/><path d="M310.486,317.371l-9.6-7.466a1.1,1.1,0,0,0-.95-.55h-5.183a1.1,1.1,0,0,0-1.1,1.1V356.2a3.556,3.556,0,0,0,3.556,3.556h53.209a3.556,3.556,0,0,0,3.556-3.556V320.6a3.232,3.232,0,0,0-3.232-3.232Z" transform="translate(-276.676 -281.935)" fill="#3f3d56"/><rect width="9.651" height="3.378" transform="translate(65.837 46.046)" fill="#6c63ff"/><path d="M135.228,751.09s44.142-25.245,97.445,0" transform="translate(-135.228 -666.319)" fill="#f2f2f2"/><path d="M218.322,300.609s.474,2.511.142,2.7a5.76,5.76,0,0,0-.758.569l.853,1.184,2.037.426,1.942-1.8v-1.8a2.869,2.869,0,0,1-.474-1.469C222.16,299.851,218.322,300.609,218.322,300.609Z" transform="translate(-208.868 -273.768)" fill="#fbbebe"/><path d="M218.322,300.609s.474,2.511.142,2.7a5.76,5.76,0,0,0-.758.569l.853,1.184,2.037.426,1.942-1.8v-1.8a2.869,2.869,0,0,1-.474-1.469C222.16,299.851,218.322,300.609,218.322,300.609Z" transform="translate(-208.868 -273.768)" opacity="0.1"/><path d="M176.484,344.183l-.284.142s-.616.237-.9,2.274-.947,6.917-.758,7.059.095,1.09.095,1.09l1.421-7.438Z" transform="translate(-170.299 -313.031)" fill="#2f2e41"/><path d="M207.275,232.556c-.043.09-.059.2-.1.288-.185.418-.71.325-1.089.483a1.053,1.053,0,0,0-.586.9c-.011.169.014.339,0,.507-.028.311-.188.585-.245.89-.139.742.185,1.914.55,1.514.115-.126.259-.21.384-.324a6.781,6.781,0,0,0,.75-1.133.4.4,0,0,1,.133-.132c.192-.1.363.16.514.327a.8.8,0,0,0,1.208-.023.709.709,0,0,1,.17-.174.363.363,0,0,1,.236-.023,1.552,1.552,0,0,1,.947.564,2.862,2.862,0,0,0,.384.457.38.38,0,0,0,.51.017,1.209,1.209,0,0,1,.378.983c0,.376-.076.749-.058,1.125a1.051,1.051,0,0,0,.465.918,1.337,1.337,0,0,1,.495-.866,3.4,3.4,0,0,0,.623-.425c.345-.4.236-1.055.249-1.62.016-.7.258-1.363.3-2.059a1.31,1.31,0,0,0-.713-1.441l-1.626-1.043a.694.694,0,0,0-.241-.114c-.239-.043-.446.182-.673.28a1.363,1.363,0,0,1-.591.072c-.631-.017-.809.105-1.233-.306a.3.3,0,0,0-.256-.085C207.907,232.152,207.413,232.266,207.275,232.556Z" transform="translate(-197.72 -212.966)" fill="#2f2e41"/><path d="M81.326,716.92l.995,2.179-1.942.663-.995-.521.237-2.321Z" transform="translate(-70.877 -640.098)" fill="#fbbebe"/><path d="M172.4,781.909s-1.563-.948-1.848-.616S168,784.041,168,784.041s-3.506,1.9-.805,2.179,7.106-1.658,7.106-1.658a11.929,11.929,0,0,0,.047-2.606c-.189-.047-.995.426-1.374.284A1.7,1.7,0,0,1,172.4,781.909Z" transform="translate(-162.853 -703.239)" fill="#2f2e41"/><path d="M100.069,733.452v1.942l-2.558-.568.568-1.99Z" transform="translate(-87.062 -654.309)" fill="#fbbebe"/><path d="M225.946,797.67s2.606-.426,2.843.853.853,3.174.237,3.648-3.79,1.09-3.837.284a11.32,11.32,0,0,1,.332-2.369,4.961,4.961,0,0,0,.095-1.563C225.472,798.191,225.946,797.67,225.946,797.67Z" transform="translate(-215.544 -717.863)" fill="#2f2e41"/><path d="M174.761,499.618s-2.139,13.562-.386,20.194,2.985,10.565,2.985,10.565,3.032-.853,3.032-1.421-1.184-9-1.469-9.807-.758-1.09-.332-1.753a31.666,31.666,0,0,0,1.137-4.927s1.563,7.059,1.658,7.248-.995,11.038-.995,11.038,3.127,2.269,3.316.568c.047-.426,2.132-15.539,2.132-15.729s.853-14.686-.521-15.4S174.761,499.618,174.761,499.618Z" transform="translate(-169.564 -451.802)" fill="#2f2e41"/><circle cx="3.222" cy="3.222" r="3.222" transform="translate(8.08 21.345)" fill="#fbbebe"/><path d="M188.275,315.845v-.332l-.948-1.563s-.948.095-1.09.521-1.753,3.837-1.753,3.837l-1.706,15.3s4.69,1.137,5.4.332,3.411-18.334,3.411-18.334l.379-2.132s-.651-.948-.8-.805-2.612,2.89-2.612,2.89l-.047.426Z" transform="translate(-177.683 -284.883)" fill="#6c63ff"/><path d="M170.448,321.5s-.876-.213-1.161.308-.284.711-.568.9-1.942,1.042-2.037,1.374-2.132,10.8-2.132,10.8a12.623,12.623,0,0,0-.521,5.259c.474,2.132.142,2.558,1.137,2.748s1.137.19,1.137-.095,1.279-9.9,2.179-10.565.663-7.912.663-7.912a11.824,11.824,0,0,0,1.279-1.8C170.424,322.278,170.637,321.478,170.448,321.5Z" transform="translate(-160.828 -292.737)" fill="#2f2e41"/><path d="M217.923,319.417c.132.022,1.942-2.321,2.085-2.227s.853,1.326.948,1.326,4.122.995,4.453,2.843-2.321,7.722-2.321,7.722-1.137,3.364-.9,4.832a9.893,9.893,0,0,1-.095,3.364c-.095.379-.426.805-.332.995s-2.085-.237-2.985.284-4.927.9-4.69.332.379-2.8,1.042-5.164,2.369-7.959,2.085-8.338S217.639,319.369,217.923,319.417Z" transform="translate(-205.626 -288.928)" fill="#2f2e41"/><path d="M285.782,350.814l.616.569a4.289,4.289,0,0,1,.616,1.8c-.095.569,1.99,9.143,1.137,9.428a11.18,11.18,0,0,0-3.127,2.085,4.207,4.207,0,0,1-1.184,1.232c-.379.19-.758.521-.995.332s-.758-4.074-.379-4.216.758-.569,1.137-.569a.68.68,0,0,0,.616-.711c0-.332-.284-2.321-.284-2.321l-.616-4.69Z" transform="translate(-266.568 -318.951)" fill="#2f2e41"/><path d="M214.56,237.862c-.038.068-.052.148-.088.218-.163.316-.628.246-.963.365a.8.8,0,0,0-.518.68c-.009.128.012.256,0,.384a6.485,6.485,0,0,1-.217.673c-.123.561.163,1.447.486,1.144.1-.1.229-.159.339-.245a5.143,5.143,0,0,0,.663-.857.33.33,0,0,1,.118-.1c.17-.072.321.121.455.247a.794.794,0,0,0,1.068-.017.588.588,0,0,1,.15-.131.371.371,0,0,1,.209-.018,1.432,1.432,0,0,1,.837.426,2.29,2.29,0,0,0,.34.346.379.379,0,0,0,.451.013.85.85,0,0,1,.335.743c0,.284-.067.566-.051.85a.769.769,0,0,0,.411.694.99.99,0,0,1,.438-.655,3.075,3.075,0,0,0,.551-.321c.3-.3.208-.8.22-1.225.014-.527.228-1.031.266-1.556a1.091,1.091,0,0,0-.175-.752,1.406,1.406,0,0,0-.455-.337l-1.438-.789a.664.664,0,0,0-.213-.086c-.212-.032-.395.137-.6.212a1.4,1.4,0,0,1-.522.054c-.558-.013-.715.08-1.09-.231a.293.293,0,0,0-.227-.065C215.119,237.557,214.683,237.643,214.56,237.862Z" transform="translate(-204.438 -217.801)" fill="#2f2e41"/></g><g transform="translate(172.5 288.5)"><path d="M0,0H21V21H0Z" fill="none"/><path d="M16.209,7.119h-.872V5.371a4.36,4.36,0,1,0-8.721,0V7.119H5.744A1.751,1.751,0,0,0,4,8.867v8.742a1.751,1.751,0,0,0,1.744,1.748H16.209a1.751,1.751,0,0,0,1.744-1.748V8.867A1.751,1.751,0,0,0,16.209,7.119ZM8.273,5.371a2.7,2.7,0,1,1,5.407,0V7.119H8.273Zm6.192,8.742H11.849v2.622H10.1V14.112H7.488V12.364H10.1V9.742h1.744v2.622h2.616Z" transform="translate(-0.477 -0.119)" fill="#c4dfff"/><path d="M0,0H21V21H0Z" fill="none"/></g></g></svg>