<svg xmlns="http://www.w3.org/2000/svg" xmlns:xlink="http://www.w3.org/1999/xlink" width="291.11" height="225.013" viewBox="0 0 291.11 225.013"><defs><linearGradient id="a" x1="0.932" y1="0.523" x2="-0.067" y2="0.473" gradientUnits="objectBoundingBox"><stop offset="0" stop-color="#fff"/><stop offset="0.473" stop-color="#fff"/><stop offset="1" stop-color="#4895F1"/></linearGradient><filter id="b" x="0" y="0" width="291.11" height="225.013" filterUnits="userSpaceOnUse"><feOffset dy="3" input="SourceAlpha"/><feGaussianBlur stdDeviation="3" result="c"/><feFlood flood-color="#0039aa" flood-opacity="0.502"/><feComposite operator="in" in2="c"/><feComposite in="SourceGraphic"/></filter><linearGradient id="d" y1="0.5" x2="1" y2="0.5" gradientUnits="objectBoundingBox"><stop offset="0" stop-color="#fff"/><stop offset="1" stop-color="#d5e8ff"/></linearGradient><filter id="e" x="13.654" y="34.528" width="241.927" height="155.041" filterUnits="userSpaceOnUse"><feOffset dy="3" input="SourceAlpha"/><feGaussianBlur stdDeviation="3" result="f"/><feFlood flood-color="#0039aa" flood-opacity="0.502"/><feComposite operator="in" in2="f"/><feComposite in="SourceGraphic"/></filter><linearGradient id="g" y1="0.5" x2="1" y2="0.5" gradientUnits="objectBoundingBox"><stop offset="0" stop-color="#fff"/><stop offset="1" stop-color="#d5e8ff"/><stop offset="1" stop-color="#78b2f7"/></linearGradient></defs><g transform="translate(-591.015 168.272)" opacity="0.3"><g transform="matrix(1, 0, 0, 1, 591.02, -168.27)" filter="url(#b)"><path d="M273.087,103.5a103.5,103.5,0,0,1-94.506,103.124c-2.959.259-5.97.39-9.016.39h-81.1L67.18,185.7V56.048a21.3,21.3,0,0,1,21.3,21.3V185.7h80.541a82.2,82.2,0,0,0,0-164.394H0A21.3,21.3,0,0,1,21.3,0H169.588q4.516,0,9.033.391A103.5,103.5,0,0,1,273.11,103.514Z" transform="translate(9 6)" fill="url(#a)"/></g><path d="M267.081,93.119A92.585,92.585,0,0,1,174.5,185.7c-.926,0-1.852,0-2.763-.045q3.463-.113,6.857-.5A82.2,82.2,0,0,0,169.039,21.3H0A21.3,21.3,0,0,1,21.3,0H169.588q4.516,0,9.033.391c2.1.173,4.185.422,6.24.753a102.958,102.958,0,0,1,47.647,20.18q3.47,2.65,6.684,5.578h0A92.276,92.276,0,0,1,267.081,93.119Z" transform="translate(600.015 -162.272)" fill="url(#d)"/><path d="M150.39,74.646h-13a1.867,1.867,0,0,1,.994-.286H149.4A1.867,1.867,0,0,1,150.39,74.646Z" transform="translate(566.042 -180.66)" fill="#fff"/><g transform="matrix(1, 0, 0, 1, 591.02, -168.27)" filter="url(#e)"><path d="M242.067,115a69.2,69.2,0,0,1-18.635,47.247,68.2,68.2,0,0,1-41.3,21.3H128.3c-11.539,0-20.926-9.966-21.136-21.475h-.158V107.847h-1.28a1.889,1.889,0,0,1-1.889-1.889V103.7a1.889,1.889,0,0,1,1.889-1.874h1.28V69.36a1.889,1.889,0,0,1,.9-1.6h13a1.889,1.889,0,0,1,.9,1.6v9.033h13.549a1.889,1.889,0,0,1,1.889,1.889V82.3a1.889,1.889,0,0,1-1.889,1.889h-4.208V90.03h4.208a1.889,1.889,0,0,1,1.889,1.9v2.01a1.889,1.889,0,0,1-1.889,1.9H121.8v6.022h1.28a1.889,1.889,0,0,1,1.889,1.889V106a1.889,1.889,0,0,1-1.889,1.889H121.8v54.2l6.669.181h45.878a47.237,47.237,0,1,0,0-94.474L120.9,67.8a1.867,1.867,0,0,0-.994-.286H108.9a1.867,1.867,0,0,0-.994.286H18.14a21.294,21.294,0,0,1,21.3-21.3H182.128a68.2,68.2,0,0,1,41.3,21.3A69.175,69.175,0,0,1,242.067,115Z" transform="translate(4.51 -5.97)" fill="#fff"/></g><path d="M150.39,74.646h-13a1.867,1.867,0,0,1,.994-.286H149.4A1.867,1.867,0,0,1,150.39,74.646Z" transform="translate(566.042 -180.66)" fill="#fff"/><path d="M238.243,105.978a57.914,57.914,0,0,1-71.606,56.251h7.708a47.237,47.237,0,1,0,0-94.474l-156.2.008a21.3,21.3,0,0,1,21.3-21.3H182.128a67.038,67.038,0,0,1,21.581,6.556A68.852,68.852,0,0,1,223.43,67.762a70.085,70.085,0,0,1,5.216,6.308,57.561,57.561,0,0,1,9.6,31.908Z" transform="translate(595.53 -174.204)" fill="url(#g)"/><path d="M110.552,95.762V225.411h0l-21.3-21.3V74.46A21.3,21.3,0,0,1,110.552,95.762Z" transform="translate(577.946 -180.684)" fill="#fff"/></g></svg>