<svg xmlns="http://www.w3.org/2000/svg" xmlns:xlink="http://www.w3.org/1999/xlink" width="103.939" height="88.984" viewBox="0 0 103.939 88.984"><defs><linearGradient id="a" x1="0.466" y1="-3.049" x2="0.59" y2="9.73" gradientUnits="objectBoundingBox"><stop offset="0.01"/><stop offset="0.08" stop-opacity="0.69"/><stop offset="0.21" stop-opacity="0.322"/><stop offset="1" stop-opacity="0"/></linearGradient><linearGradient id="b" x1="0.713" y1="-0.309" x2="0.047" y2="2.217" xlink:href="#a"/><linearGradient id="c" x1="199.41" y1="358.634" x2="199.404" y2="366.375" gradientUnits="objectBoundingBox"><stop offset="0" stop-color="#fff"/><stop offset="1" stop-color="#cbcbcb"/></linearGradient><linearGradient id="d" x1="918.687" y1="139.912" x2="918.853" y2="142.268" xlink:href="#c"/><linearGradient id="e" x1="-22.063" y1="-0.044" x2="-23.521" y2="1.543" gradientUnits="objectBoundingBox"><stop offset="0.01"/><stop offset="0.13" stop-opacity="0.69"/><stop offset="0.25" stop-opacity="0.322"/><stop offset="1" stop-opacity="0"/></linearGradient><linearGradient id="f" x1="-1.696" y1="1.202" x2="2.939" y2="-0.277" xlink:href="#e"/><linearGradient id="g" x1="119.279" y1="0.748" x2="122.825" y2="1.687" xlink:href="#a"/><linearGradient id="h" x1="439.878" y1="0.683" x2="432.929" y2="1.424" xlink:href="#a"/><linearGradient id="i" x1="133.42" y1="1.548" x2="132.901" y2="-1.161" xlink:href="#a"/><linearGradient id="j" x1="197.177" y1="-0.18" x2="196.019" y2="1.924" xlink:href="#a"/><linearGradient id="k" x1="531.578" y1="1.063" x2="537.376" y2="1.227" xlink:href="#a"/><linearGradient id="l" x1="131.782" y1="0.14" x2="128.952" y2="1.074" gradientUnits="objectBoundingBox"><stop offset="0"/><stop offset="0.167"/><stop offset="0.241" stop-opacity="0.69"/><stop offset="0.345" stop-opacity="0.365"/><stop offset="0.602" stop-opacity="0.322"/><stop offset="1" stop-opacity="0"/></linearGradient></defs><g transform="translate(-26.002 -419)"><path d="M65.581,37.925C59.46,43.291,54.55,50.109,48.044,54.934,42.032,59.4,34.777,62.074,29.6,67.573a25.967,25.967,0,0,0,.029,35.252c6.185,6.554,15.333,9.021,24.1,9.509s17.566-.727,26.336-.231c8.3.469,16.561,2.467,24.842,1.8s17.062-4.764,20.338-12.79c3.622-8.881-.529-18.874-3.391-28.058a103.689,103.689,0,0,1-4.263-21.383C116.6,40.8,114.775,25.7,101.753,25.094A52.06,52.06,0,0,0,65.581,37.925Z" transform="translate(3.281 393.947)" fill="#4895F1" opacity="0.18"/><path d="M120.435,227.785c-15.313,2.894-30.828.67-46.268.736-1.122,0-2.65.686-2.473,2.311,8.973,3.126,18.291,3.37,27.517,3.6l16.788.413a106.6,106.6,0,0,0,11.5-.128,7.94,7.94,0,0,0,4.178-1.24c3.615-2.6,1.823-6.032-1.3-6.615C127.083,226.251,123.713,227.165,120.435,227.785Z" transform="translate(-15.754 265.674)" fill="url(#a)"/><path d="M165.86,69.812v58.781a4.686,4.686,0,0,0,4.784,4.593l25.563-.04a4.7,4.7,0,0,0,4.784-4.609V69.753a4.683,4.683,0,0,0-4.784-4.593l-25.563.04A4.707,4.707,0,0,0,165.86,69.812Zm2.437.04a2.9,2.9,0,0,1,2.95-2.84h3.6v.349a1.849,1.849,0,0,0,1.886,1.813l13.744-.024a1.857,1.857,0,0,0,1.886-1.817v-.349h3.72a2.891,2.891,0,0,1,2.95,2.832v58.6a2.9,2.9,0,0,1-2.95,2.84l-24.839.044a2.891,2.891,0,0,1-2.95-2.832Z" transform="translate(-96.746 364.648)" fill="#4895F1"/><path d="M162.67,72.852v58.784a4.686,4.686,0,0,0,4.784,4.593l25.567-.044a4.7,4.7,0,0,0,4.784-4.609V72.8a4.689,4.689,0,0,0-4.784-4.6l-25.567.044A4.706,4.706,0,0,0,162.67,72.852Zm2.441.044a2.887,2.887,0,0,1,2.946-2.844h3.6V70.4a1.845,1.845,0,0,0,1.886,1.809h13.74a1.857,1.857,0,0,0,1.886-1.821v-.345H192.9a2.89,2.89,0,0,1,2.946,2.832v58.586a2.9,2.9,0,0,1-2.946,2.84l-24.82.056a2.888,2.888,0,0,1-2.946-2.832Z" transform="translate(-94.746 362.756)" fill="#fff"/><path d="M169.14,75.646V134.44a2.876,2.876,0,0,0,2.946,2.84l24.843-.04a2.9,2.9,0,0,0,2.946-2.848V75.61a2.878,2.878,0,0,0-2.946-2.84h-3.724v.346a1.86,1.86,0,0,1-1.886,1.826h-13.74a1.847,1.847,0,0,1-1.886-1.814v-.35h-3.588A2.953,2.953,0,0,0,169.14,75.646Z" transform="translate(-98.781 359.91)" fill="none" stroke="#707070" stroke-miterlimit="10" stroke-width="0.45"/><path d="M169.14,75.646V134.44a2.876,2.876,0,0,0,2.946,2.84l24.843-.04a2.9,2.9,0,0,0,2.946-2.848V75.61a2.878,2.878,0,0,0-2.946-2.84h-3.724v.346a1.86,1.86,0,0,1-1.886,1.826h-13.74a1.847,1.847,0,0,1-1.886-1.814v-.35h-3.588A2.953,2.953,0,0,0,169.14,75.646Z" transform="translate(-98.781 359.91)" fill="#4895F1"/><g transform="translate(74.729 442.809)"><path d="M20.856,7.9a7.9,7.9,0,0,1-7.217,7.876c-.226.02-.456.03-.689.03H6.756L5.131,14.182V4.28A1.627,1.627,0,0,1,6.757,5.907v8.274h6.151a6.277,6.277,0,0,0,0-12.555H0A1.627,1.627,0,0,1,1.627,0H12.952q.345,0,.69.03a7.9,7.9,0,0,1,7.216,7.876Z" transform="translate(0 0)" fill="#fff"/><path d="M138.383,74.382h-.993a.143.143,0,0,1,.076-.022h.841A.143.143,0,0,1,138.383,74.382Z" transform="translate(-129.492 -70.085)" fill="#fff"/><path d="M35.241,51.731a5.284,5.284,0,0,1-1.423,3.608,5.209,5.209,0,0,1-3.154,1.626H26.553a1.663,1.663,0,0,1-1.614-1.64h-.012V51.185h-.1a.144.144,0,0,1-.144-.144v-.172a.144.144,0,0,1,.144-.143h.1V48.246A.144.144,0,0,1,25,48.123h.993a.144.144,0,0,1,.068.122v.69h1.035a.144.144,0,0,1,.144.144v.154a.144.144,0,0,1-.144.144H26.77v.446h.321a.144.144,0,0,1,.144.145v.153a.144.144,0,0,1-.144.145H26.056v.46h.1a.144.144,0,0,1,.144.144v.172a.144.144,0,0,1-.144.144h-.1v4.139l.509.014h3.5a3.608,3.608,0,1,0,0-7.215c-4.1-.014-11.1,0-11.929,0A1.626,1.626,0,0,1,19.767,46.5h10.9a5.209,5.209,0,0,1,3.154,1.627A5.283,5.283,0,0,1,35.241,51.731Z" transform="translate(-17.097 -43.863)" fill="#fff"/></g><rect width="22.051" height="5.387" transform="translate(74.434 481.662)" fill="#fff" opacity="0.28"/><rect width="22.051" height="5.387" transform="translate(74.434 473.285)" fill="#fff" opacity="0.28"/><path d="M212.12,126.09v.343l11.65,8.473s.215,2,.528,2.233a8.112,8.112,0,0,0,1.535.6v1.324l2.78,1.928.879.3v-2.792l-3.8-3.018-1.188-1.358-.46.377Z" transform="translate(-125.188 324.906)" fill="url(#b)"/><path d="M196.06,49.4l4.72-.008V49.01l-4.72.008Z" transform="translate(-131.129 386.467)" fill="url(#c)"/><ellipse cx="0.513" cy="0.472" rx="0.513" ry="0.472" transform="translate(104.168 436.152) rotate(-0.56)" fill="url(#d)"/><path d="M8.7,159.52a5.837,5.837,0,0,0,.958,2.641c2.12,3.746,4.5,7.44,7.79,10.22,4.829,4.09,11.159,5.851,17.271,7.5-.547-.268-1.207-3.082-1.449-3.7-.472-1.215-.913-2.437-1.369-3.656a14.105,14.105,0,0,0-3.693-4.9,29.283,29.283,0,0,0-11.778-6.911A27.827,27.827,0,0,0,8.7,159.52Z" transform="translate(33.957 302.928)" fill="#4895F1"/><path d="M8.7,159.52a5.837,5.837,0,0,0,.958,2.641c2.12,3.746,4.5,7.44,7.79,10.22,4.829,4.09,11.159,5.851,17.271,7.5-.547-.268-1.207-3.082-1.449-3.7-.472-1.215-.913-2.437-1.369-3.656a14.105,14.105,0,0,0-3.693-4.9,29.283,29.283,0,0,0-11.778-6.911A27.827,27.827,0,0,0,8.7,159.52Z" transform="translate(33.957 302.928)" fill="url(#e)"/><path d="M55.8,135.936a39.523,39.523,0,0,0-2.414-10.254c-1.4-3.229-3.837-6.172-7.138-7.4q-.14,7.492-.287,14.985a28.124,28.124,0,0,0,.724,8.59c1.449,4.84,6.489,10.526,11.348,12.125.721-2.328-.487-5.851-.83-8.27Z" transform="translate(10.77 328.609)" fill="#4895F1"/><path d="M55.8,135.936a39.523,39.523,0,0,0-2.414-10.254c-1.4-3.229-3.837-6.172-7.138-7.4q-.14,7.492-.287,14.985a28.124,28.124,0,0,0,.724,8.59c1.449,4.84,6.489,10.526,11.348,12.125.721-2.328-.487-5.851-.83-8.27Z" transform="translate(10.77 328.609)" fill="url(#f)"/><path d="M247.189,146.12h-.026a1.509,1.509,0,0,1-.313-.309,3.513,3.513,0,0,0-.977-.849c-.155-.091-.377-.162-.5-.026-.042.045-.06.109-.106.151-.106.1-.275.034-.4-.042s-.275-.158-.4-.083a.294.294,0,0,0-.113.245,1.309,1.309,0,0,0,.2.615,8.227,8.227,0,0,0,.619,1.041.626.626,0,0,0,.57.317,2.12,2.12,0,0,1,1.026.264.419.419,0,0,0,.215.109c.23.023.309-.687.347-.849.019-.079.121-.343.083-.423S247.264,146.162,247.189,146.12Z" transform="translate(-145.18 313.732)" fill="#ffbbab"/><path d="M259.12,159.219l.377,19.854h2.529l.73-15.778,1.593,15.778,2.9.517.664-21.02Z" transform="translate(-150.891 315.957)" fill="#4895F1"/><path d="M259.12,159.219l.377,19.854h2.529l.73-15.778,1.593,15.778,2.9.517.664-21.02Z" transform="translate(-150.891 315.957)" fill="url(#g)"/><path d="M275.58,178.763v-18.4l2.4-1.79-.808,20.5Z" transform="translate(-160.957 315.957)" fill="url(#h)"/><path d="M250.1,149.673l.054.05h0c.54.5,4.786,4.387,5.438,4.159a19.635,19.635,0,0,0,2.533-1.46l.214-.136V146.82l-2.665,3.382-4.712-2.956Z" transform="translate(-148.754 312.504)" fill="#585b8a"/><path d="M250.24,152.591h0c.54.5,4.786,4.387,5.438,4.159a19.633,19.633,0,0,0,2.533-1.46,4.27,4.27,0,0,0,.027-.67c0-.484.159-1.654-.54-1.373-.567.232-.979,1.013-1.554,1.307a1.213,1.213,0,0,1-.641.323c-.388.025-.7-.31-.971-.6a11.6,11.6,0,0,0-3.282-2.514.229.229,0,0,0-.35.074C250.683,152.09,250.461,152.343,250.24,152.591Z" transform="translate(-148.84 309.635)" fill="url(#i)"/><path d="M274.094,142.68a21.976,21.976,0,0,1,1.969,1.187c1.352.922,1.111,1.348.862,2.94a66.65,66.65,0,0,0-.777,10.3,9.569,9.569,0,0,1-.167,2.481,7.817,7.817,0,0,0-.5,1.484c-2.086.306-6.86,1.447-8.289-.827-1.367-2.183,1.1-9.923.637-13.388s3.737-3.833,3.737-3.833Z" transform="translate(-158.951 314.932)" fill="#585b8a"/><path d="M277.566,175.584l3.78,2.716.618-.827a15.707,15.707,0,0,0,.505-4.3c-.089-2.167,0-1.393,0-1.393l-5.318,3.581Z" transform="translate(-165.297 297.943)" fill="url(#j)"/><path d="M273.261,130.5a5.071,5.071,0,0,0,.039.686,4.483,4.483,0,0,0,.517,1.335,1.023,1.023,0,0,0,.272.372,1,1,0,0,0,.777.066.405.405,0,0,1,.186,0c.148.062.167.277.159.447l-.043.79a.533.533,0,0,0,.051.314.387.387,0,0,0,.2.136,1.524,1.524,0,0,0,1.6-.385,1.189,1.189,0,0,0,.249-.36,1.521,1.521,0,0,0,.093-.413c.089-.757,0-1.522.066-2.278a7.915,7.915,0,0,0,.051-1.89,2.049,2.049,0,0,0-1.142-1.538,2.74,2.74,0,0,0-1.876.045,8.527,8.527,0,0,0-.874.314.582.582,0,0,0-.338.26c-.113.244,0,.6,0,.856C273.268,129.68,273.261,130.093,273.261,130.5Z" transform="translate(-162.875 323.752)" fill="#ffbbab"/><path d="M277.736,125.35c-.559-.893-1.865-.91-2.774-1.038a.712.712,0,0,1-.365-.128.264.264,0,0,1-.1-.176.273.273,0,0,1,.051-.2l-.691.413v-.546a6.213,6.213,0,0,1-.75.542v-.488a2.145,2.145,0,0,0-.676,2.2c.221.827,1.395.914,2.051.877a2.986,2.986,0,0,1,.544,0,.76.76,0,0,1,.474.248,1.906,1.906,0,0,1,.237.864.111.111,0,0,0,.019.05.118.118,0,0,0,.035,0c.2.025.388-.227.575-.141a.318.318,0,0,1,.151.269.828.828,0,0,1-.05.389.433.433,0,0,0-.047.153.33.33,0,0,0,.023.1l.128.376a.606.606,0,0,0,.221.343.5.5,0,0,0,.486-.1.789.789,0,0,0,.26-.227.836.836,0,0,0,.093-.273,13.383,13.383,0,0,0,.21-2.845A1.687,1.687,0,0,0,277.736,125.35Z" transform="translate(-162.367 326.076)" fill="#963637"/><path d="M279.792,141.81s.579.413.563.9-3.154,9.882-3.154,9.882-.07-9.009,0-9.427a7.158,7.158,0,0,1,.423-1.182A1.552,1.552,0,0,0,279.792,141.81Z" transform="translate(-165.309 315.443)" fill="#fff"/><path d="M270.073,118.84l.21.728-.353.318-.171,5.106-1.247,3.775-.031-3.837,1.072-5.069-.392-.715.517-.306Z" transform="translate(-156.615 339.26)" fill="#212741"/><path d="M275.3,158.878a8.532,8.532,0,0,0,1.251,1.352l.287.244a.716.716,0,0,0,.369.182.621.621,0,0,0,.272-.07,56.982,56.982,0,0,0,5.365-2.559c.734-.413,1.534-.922,1.69-1.782a2.9,2.9,0,0,0-.019-.9,27.339,27.339,0,0,0-1.589-6.33c-.221-.575-.493-1.683-1.072-2.067l-.07-.037-.082-.041c-.777-.3-1.453.529-1.666,1.24a5.944,5.944,0,0,0,.089,3.084,19.748,19.748,0,0,1,.664,3.039.877.877,0,0,1-.039.413.925.925,0,0,1-.3.322Z" transform="translate(-164.168 312.51)" fill="#585b8a"/><path d="M267.729,232.881l-.136,1.464-.866.17-.388-.364-.668.558h-2.6a1.078,1.078,0,0,1,.777-1.625l1.433-.413Z" transform="translate(-156.594 262.148)" fill="#212741"/><path d="M280.8,232.881l-.136,1.464-.866.17-.388-.364-.66.558h-2.6a1.078,1.078,0,0,1,.777-1.625l1.433-.413Z" transform="translate(-164.594 262.148)" fill="#212741"/><path d="M265.361,168.575l-1.161-1-.82,16.571,1.251.211Z" transform="translate(-153.496 310.678)" fill="url(#k)"/><path d="M271.117,176.512a1.075,1.075,0,0,0-.416.219.46.46,0,0,0-.132.447,1.816,1.816,0,0,0,.159.265c.074.141.085.318.151.463a.992.992,0,0,0,.579.447,2.032,2.032,0,0,0,2.094-.207c.388-.368,1.22-1.894.322-2.125a3.314,3.314,0,0,0-1.134.124A9.538,9.538,0,0,0,271.117,176.512Z" transform="translate(-161.266 295.379)" fill="#ffbbab"/><path d="M203.533,100.74l-.113.124L219.778,110.9l.121-.272Z" transform="translate(-117.906 352.197)" fill="#fff"/><path d="M244.362,145.175a.505.505,0,0,1,.057-.358.43.43,0,0,1,.347-.14.506.506,0,0,1,.185.019c.136.049.215.185.3.3a.58.58,0,0,0,.094.1.656.656,0,0,0,.155.075.89.89,0,0,1,.219.1.966.966,0,0,1,.257.294,1.682,1.682,0,0,1,.162.29,1.041,1.041,0,0,1,.064.415.212.212,0,0,1-.034.136.2.2,0,0,1-.136.064.936.936,0,0,1-.589-.151,4.711,4.711,0,0,1-.5-.377A1.132,1.132,0,0,1,244.362,145.175Z" transform="translate(-145.201 313.813)" fill="#ffbbab"/><path d="M278.52,160.319l.287.244a.715.715,0,0,0,.369.182.62.62,0,0,0,.272-.07,56.986,56.986,0,0,0,5.365-2.559c.734-.413,1.534-.922,1.69-1.782a2.9,2.9,0,0,0-.019-.9,27.337,27.337,0,0,0-1.589-6.33c-.221-.575-.493-1.683-1.072-2.067l-.07-.037-.082-.041A1.749,1.749,0,0,0,282,148.2s2.766,6.02,2.645,6.93-5.924,3.837-5.924,3.837Z" transform="translate(-166.135 312.422)" fill="url(#l)"/></g></svg>