<svg xmlns="http://www.w3.org/2000/svg" xmlns:xlink="http://www.w3.org/1999/xlink" width="144.021" height="88.531" viewBox="0 0 144.021 88.531">
  <defs>
    <linearGradient id="linear-gradient" x1="0.5" y1="1" x2="0.5" gradientUnits="objectBoundingBox">
      <stop offset="0" stop-color="gray" stop-opacity="0.251"/>
      <stop offset="0.54" stop-color="gray" stop-opacity="0.122"/>
      <stop offset="1" stop-color="gray" stop-opacity="0.102"/>
    </linearGradient>
  </defs>
  <g id="Group_396" data-name="Group 396" transform="translate(0.02)">
    <path id="Path_2526" data-name="Path 2526" d="M115.529,206.557c2.782-.159,6.234-2.047,8.918-2.88q4.765-1.48,9.568-2.845,16.714-4.755,33.794-8.107,1.594-.312,3.193-.612a22.616,22.616,0,0,0-7.46-8.96,22.9,22.9,0,0,0,.126-2.363,22.441,22.441,0,0,0-22.283-22.6,21.939,21.939,0,0,0-10.814,2.838c-8.712-5.731-20.082-9.2-32.523-9.2-17.678,0-33.2,7-41.989,17.549l41.335,6.982,25.347,4.28c-28.9.862-57.881,1.72-86.693-.3a22.839,22.839,0,0,0-3.288,28.829h0c0,.452.019.9.053,1.343.734.211,1.443.414,2.078.549q15.31,3.233,30.815,5.413c-7.618,4.7-16.894,5.36-25.682,7.349a25.756,25.756,0,0,0,16.4,5.673h94.807c10.266,0,18.588-7.148,18.588-15.965h0a22.678,22.678,0,0,0,3.021-8.294C153.844,207.063,134.61,205.471,115.529,206.557Z" transform="translate(-28.97 -145.101)" fill="#6c63ff" opacity="0.1"/>
    <path id="Path_2527" data-name="Path 2527" d="M172,199.813a22.66,22.66,0,0,0-9.568-18.559,23.281,23.281,0,0,0,.126-2.363,22.441,22.441,0,0,0-22.283-22.6,21.928,21.928,0,0,0-10.817,2.836c-8.71-5.731-20.082-9.2-32.523-9.2-20.242,0-37.654,9.182-45.378,22.352-.429-.025-.861-.039-1.3-.039a22.442,22.442,0,0,0-22.283,22.6,22.723,22.723,0,0,0,3.666,12.422h0c0,11.229,10.6,20.333,23.667,20.333h94.813c10.265,0,18.586-7.147,18.586-15.964h0A22.732,22.732,0,0,0,172,199.813Z" transform="translate(-28 -143.44)" fill="#6c63ff" opacity="0.1"/>
    <path id="Path_2528" data-name="Path 2528" d="M819.761,98.38s-9.442,4.854-4.582,10.608a1.808,1.808,0,0,0,1.783,1.162s-.264-.483.755-.867a4.9,4.9,0,0,0,1.018-.54,2.392,2.392,0,0,0,.915-1.217h0s1.936-2.578.449-7.358c0,0,.2-1.351.028-1.569l-1.151,1.569a3.212,3.212,0,0,1,1.317,1.966s-1.23-1.963-1.5-1.74c-.054.045-.572.859-.572.859s2.051,1.4,2.2,3.208c0,0-1.153-2.537-2.4-2.9l-.709,1.274s2.241,1.371,2.49,3.425c0,0-1.3-2.608-2.626-3.136l-.527,1.347s2.159,1.385,2.355,3.091c0,0-1.8-2.864-2.456-2.77a6.994,6.994,0,0,0-.356,1.655s1.527,1.026,1.552,2.029c0,0-1.408-1.785-1.625-1.668a7.48,7.48,0,0,0,.339,2.724,5.439,5.439,0,0,1-.619-2.724,2.98,2.98,0,0,0-.908,1.454s-.405-.987.937-1.888a6.743,6.743,0,0,1,.283-1.565,6.532,6.532,0,0,0-2.066,1.57s.229-1.293,2.193-1.931l.5-1.366a9.3,9.3,0,0,0-2.573,1.56s.438-1.283,2.728-1.888l.681-1.259a11.129,11.129,0,0,0-2.6,1.251,4.4,4.4,0,0,1,2.809-1.6l.553-.787s-1.268.449-1.62.612-.425.081-.425.081a4.58,4.58,0,0,1,2.263-1.039A11.21,11.21,0,0,0,819.761,98.38Z" transform="translate(-714.883 -98.38)" fill="#6c63ff" opacity="0.1"/>
    <path id="Path_2529" data-name="Path 2529" d="M761.74,144.414s.735,4.741,3.9,3.477a.824.824,0,0,0,.755-.6s-.245.044-.266-.446a2.211,2.211,0,0,0-.086-.514,1.079,1.079,0,0,0-.393-.565h0a3.8,3.8,0,0,0-3.091-1.241s-.551-.277-.669-.235l.5.716a1.449,1.449,0,0,1,1.031-.285s-1.017.252-.959.394c.011.03.286.368.286.368a2.4,2.4,0,0,1,1.689-.487s-1.251.133-1.586.617l.446.485a2.513,2.513,0,0,1,1.824-.579,3.575,3.575,0,0,0-1.72.68l.5.418a2.459,2.459,0,0,1,1.662-.57s-1.485.366-1.54.658a3.116,3.116,0,0,0,.659.388s.657-.5,1.091-.378c0,0-.966.349-.947.458a3.4,3.4,0,0,0,1.216.244,2.452,2.452,0,0,1-1.259-.126,1.354,1.354,0,0,0,.495.6s-.481.033-.676-.671a2.972,2.972,0,0,1-.629-.345,2.963,2.963,0,0,0,.378,1.11,1.309,1.309,0,0,1-.516-1.216l-.514-.409a4.18,4.18,0,0,0,.3,1.326,1.655,1.655,0,0,1-.424-1.44l-.442-.471a4.918,4.918,0,0,0,.167,1.293,2,2,0,0,1-.288-1.433l-.252-.349s.013.607.032.782-.026.194-.026.194a2.064,2.064,0,0,1-.116-1.12A5,5,0,0,0,761.74,144.414Z" transform="translate(-669.387 -138.507)" fill="#6c63ff" opacity="0.1"/>
    <path id="Path_2530" data-name="Path 2530" d="M881.357,160.974s-4.692-1-4.638,2.4a.818.818,0,0,0,.291.917s.047-.245.511-.089a2.188,2.188,0,0,0,.51.1,1.085,1.085,0,0,0,.668-.164h0a3.812,3.812,0,0,0,2.266-2.447s.456-.417.458-.54l-.851.22a1.448,1.448,0,0,1-.1,1.064s.126-1.039-.026-1.037c-.033,0-.446.137-.446.137a2.394,2.394,0,0,1-.147,1.752s.322-1.217-.011-1.7l-.612.243a2.51,2.51,0,0,1-.108,1.911,3.577,3.577,0,0,0-.021-1.848l-.57.321a2.455,2.455,0,0,1-.059,1.754s.188-1.517-.067-1.672a3.218,3.218,0,0,0-.6.477s.242.8-.036,1.154c0,0,.018-1.027-.092-1.049a3.382,3.382,0,0,0-.661,1.05,2.454,2.454,0,0,1,.563-1.133,1.356,1.356,0,0,0-.734.252s.141-.461.869-.393a3.135,3.135,0,0,1,.546-.467,2.952,2.952,0,0,0-1.172-.042,1.308,1.308,0,0,1,1.319-.048l.565-.335a4.206,4.206,0,0,0-1.346-.19,1.654,1.654,0,0,1,1.5.117l.6-.252a5.028,5.028,0,0,0-1.268-.3,1.99,1.99,0,0,1,1.441.242l.418-.117s-.572-.205-.742-.252-.172-.093-.172-.093a2.061,2.061,0,0,1,1.089.291A5.019,5.019,0,0,0,881.357,160.974Z" transform="translate(-769.856 -152.974)" fill="#6c63ff" opacity="0.1"/>
    <ellipse id="Ellipse_314" data-name="Ellipse 314" cx="5.062" cy="0.856" rx="5.062" ry="0.856" transform="translate(79.542 82.579)" fill="#6c63ff"/>
    <path id="Path_2531" data-name="Path 2531" d="M684.316,733.8a1.466,1.466,0,0,0,.482-.729.647.647,0,0,0-.337-.741c-.31-.118-.641.1-.891.313a1.2,1.2,0,0,1-.866.418,1.322,1.322,0,0,0,.408-1.235.518.518,0,0,0-.113-.252c-.172-.184-.483-.106-.69.039a2.57,2.57,0,0,0-.841,2.15,4.045,4.045,0,0,1-.011-.881.908.908,0,0,0-.334-.784,1,1,0,0,0-.5-.118,1.045,1.045,0,0,0-.822.233.811.811,0,0,0,.031,1.007,3.231,3.231,0,0,0,.852.682,1.888,1.888,0,0,1,.608.58.524.524,0,0,1,.045.1h1.846A5.131,5.131,0,0,0,684.316,733.8Z" transform="translate(-597.618 -651.767)" fill="#6c63ff"/>
    <ellipse id="Ellipse_315" data-name="Ellipse 315" cx="5.062" cy="0.856" rx="5.062" ry="0.856" transform="translate(91.25 85.234)" fill="#6c63ff"/>
    <path id="Path_2532" data-name="Path 2532" d="M777.316,754.909a1.465,1.465,0,0,0,.482-.729.646.646,0,0,0-.337-.741.945.945,0,0,0-.891.313,1.19,1.19,0,0,1-.866.418,1.322,1.322,0,0,0,.408-1.235.513.513,0,0,0-.113-.252c-.172-.184-.483-.106-.69.039a2.569,2.569,0,0,0-.841,2.15,4.041,4.041,0,0,1-.011-.881.908.908,0,0,0-.334-.784,1,1,0,0,0-.5-.118,1.045,1.045,0,0,0-.822.233.811.811,0,0,0,.031,1.007,3.253,3.253,0,0,0,.852.682,1.889,1.889,0,0,1,.608.58.523.523,0,0,1,.045.1h1.846A5.173,5.173,0,0,0,777.316,754.909Z" transform="translate(-678.91 -670.219)" fill="#6c63ff"/>
    <ellipse id="Ellipse_316" data-name="Ellipse 316" cx="5.062" cy="0.856" rx="5.062" ry="0.856" transform="translate(17.604 84.29)" fill="#6c63ff"/>
    <path id="Path_2533" data-name="Path 2533" d="M192.316,747.409a1.465,1.465,0,0,0,.482-.729.647.647,0,0,0-.337-.741c-.31-.118-.641.1-.891.313a1.19,1.19,0,0,1-.866.418,1.322,1.322,0,0,0,.408-1.235.519.519,0,0,0-.113-.252c-.172-.184-.483-.106-.69.039a2.571,2.571,0,0,0-.841,2.15,4.042,4.042,0,0,1-.011-.881.908.908,0,0,0-.334-.784,1,1,0,0,0-.5-.118,1.046,1.046,0,0,0-.822.234.811.811,0,0,0,.031,1.007,3.2,3.2,0,0,0,.852.682,1.888,1.888,0,0,1,.608.58.521.521,0,0,1,.045.1h1.846A5.132,5.132,0,0,0,192.316,747.409Z" transform="translate(-167.556 -663.663)" fill="#6c63ff"/>
    <path id="Path_2534" data-name="Path 2534" d="M313.338,329.126a.316.316,0,0,0,0-.034,1.007,1.007,0,0,0-.089-.467c-.2-.413-.695-.481-1.112-.553a5.483,5.483,0,0,1-1.937-.729,1.561,1.561,0,0,1-.847-1.091c0-.1.008-.2,0-.3v-.2c0-.266-.015-.51-.213-.558a3.829,3.829,0,0,1-2.608-2.573c-.087-.272-.147-.555-.259-.816-.356-.826-1.149-1.274-1.749-1.9a7.418,7.418,0,0,1-1.576-3.112c-.331-1.147-.56-2.334-.995-3.438a18.859,18.859,0,0,0-2.6-5.275c-.185-.223-.389-.451-.6-.681-1.091-1.594-1.833-3.478-2.778-5.2a5.206,5.206,0,0,0-.656-.986,8.3,8.3,0,0,0-1.11-.918c-1.819-1.42-2.982-3.651-4.55-5.4a7.121,7.121,0,0,1-.9-1.105,3.524,3.524,0,0,1,.055-.642,5.75,5.75,0,0,0,.325-1.551,2.178,2.178,0,0,1-.026-.313,1.134,1.134,0,0,1,.1-.35,3.463,3.463,0,0,1,.32-.687,2.924,2.924,0,0,0,.441-1.159c.314-.3.449-.841.841-.978.218-.076.5-.024.629-.239a.576.576,0,0,0,.059-.237,3.605,3.605,0,0,0-.107-1.266,3.12,3.12,0,0,0,.025-.658,3.961,3.961,0,0,0-.46-1.565,1.193,1.193,0,0,0-.689-.68c-.068-.015-.137-.019-.2-.039-.4-.117-.539-.735-.9-.927.465.252.939.536,1.376.325.549-.268.594-1.1.553-1.771l-.146-2.471a7.752,7.752,0,0,0-.825-3.632A4.753,4.753,0,0,0,287.6,273.1a2.994,2.994,0,0,0-2.038-.147c.039-.028.077-.055.115-.081a1.839,1.839,0,0,0-.235.088,4.388,4.388,0,0,0-.947.65,3.417,3.417,0,0,0,.239-1.259,3.347,3.347,0,0,0-.526-1.82l.738-.621-.172-.281.325-.31a.228.228,0,0,0-.194-.108.274.274,0,0,0-.045,0,.672.672,0,0,0-.023-.276l-.023.021a.832.832,0,0,0-.091-.219h.026a.815.815,0,0,0-.052-.082v.039a1.82,1.82,0,0,0-.385-.412,3.531,3.531,0,0,0-1.909-.9c-.34-.025-.681.029-1.021,0-.458-.031-.9-.205-1.362-.224a1.169,1.169,0,0,0-1.167.629c-.082.2-.093.428-.155.636a3.085,3.085,0,0,1-.815,1.127,1.594,1.594,0,0,0-.514,1.28,1.84,1.84,0,0,0,.159.438l1.6,3.444a6.753,6.753,0,0,1-.023.755q-.015.162-.042.329c-.008.047-.016.094-.028.142a.8.8,0,0,0-.481.277.4.4,0,0,0-.083.2,1.8,1.8,0,0,0,.06.341.881.881,0,0,1-.1.427,3.312,3.312,0,0,1-.6,1.027c-.111.115-.237.21-.349.324a3.469,3.469,0,0,0-.349.437,2.958,2.958,0,0,0-.559,1.078c-.141.667-.426,1.3-.629,1.953a.666.666,0,0,1-.107.144c-.126.118-.287.169-.41.285a1.29,1.29,0,0,0-.184,1.139c.244,1.483.672,2.927.842,4.423a16.289,16.289,0,0,0,.227,1.756,2.141,2.141,0,0,0,.271.7,5,5,0,0,1-.161,1.652c-.093.234-.223.448-.336.672a9.855,9.855,0,0,0-.417.992l-.684,1.8c-.126.341-.259.685-.358,1.04a10.705,10.705,0,0,0-.244,3.217.139.139,0,0,1-.02.1c-.02.025-.068.018-.069-.016-.009.063-.044.17-.052.232a1.779,1.779,0,0,0,.987.064v.1a.164.164,0,0,0,0,.024,2.112,2.112,0,0,0,.031.306v.008c.009.052.02.1.031.152a.06.06,0,0,0,.01.04c.011.045.024.092.038.136.008.024.014.045.021.068s.019.055.029.082.011.034.018.05c.083.217.183.426.277.637a3.4,3.4,0,0,1,.321,1.04c.008.083.01.166.014.252v.087a2.376,2.376,0,0,0,.023.268c.023.144.065.281.1.422.02.083.035.169.05.252s.029.193.042.288q.142,1.068.21,2.14c.011.172.021.346.03.519.059,1.259.044,2.518.029,3.784a7.588,7.588,0,0,1-.126,1.231c-.21,1.192-.645,2.35-.932,3.534-.03.126-.058.252-.084.378a5.067,5.067,0,0,0-.126.812,5.734,5.734,0,0,0,.1,1.088q.093.653.143,1.313a3.678,3.678,0,0,0-.446,1.327c-.152,1.4-1.339,2.452-1.5,3.854a1.726,1.726,0,0,0-.011.268,1.32,1.32,0,0,0,0,.174,1.133,1.133,0,0,0,.038.443.881.881,0,0,0,.734.553,3.2,3.2,0,0,0,.924-.091c.138-.024.277-.039.415-.053a.916.916,0,0,1,0,.144,2.472,2.472,0,0,0-.166.365,1.289,1.289,0,0,0-.142.475,1.055,1.055,0,0,0,.142.559,1.862,1.862,0,0,0,1.519.881,12.867,12.867,0,0,0,1.771-.111h.1a1.1,1.1,0,0,0,.074.161,1.86,1.86,0,0,0,1.518.881,12.9,12.9,0,0,0,1.773-.109c.176-.009.354-.009.53-.021a5.161,5.161,0,0,0,1.068-.2,6.187,6.187,0,0,0,.857.981,4.707,4.707,0,0,0,3.768.658c1.3-.172,2.758-.492,3.94.126.906-.1,1.446,1.339,2.357,1.376a1.538,1.538,0,0,0,1.1-.6,1.109,1.109,0,0,1,.39-.32.768.768,0,0,1,.389-.013,2.918,2.918,0,0,1,1.78,1.075c.229.287.463.648.807.656.308,0,.582-.291.888-.252a1.625,1.625,0,0,1,.558.315,1.742,1.742,0,0,0,1.8-.342,2.857,2.857,0,0,1,1.755-.745,4.174,4.174,0,0,1,1.162.467,3,3,0,0,0,3.483-.927c.135-.169.273-.364.472-.408a.74.74,0,0,1,.39.058,4.166,4.166,0,0,0,2.187.293,1.815,1.815,0,0,0,1.435-1.648,1.213,1.213,0,0,0-.006-.151c0-.031.006-.064.006-.1A.7.7,0,0,0,313.338,329.126Zm-28.577-47.3a.744.744,0,0,1-.252.332c-.01-.054-.02-.108-.031-.164-.045-.234-.1-.467-.152-.7a2.673,2.673,0,0,0,.535.264c-.036.088-.067.183-.1.266Zm-1.846-5.683v.026a.912.912,0,0,0,.378.841,3.4,3.4,0,0,0-.378,1.569,2.661,2.661,0,0,1-.252-.2,1.7,1.7,0,0,1-.331-.487.169.169,0,0,0,.106-.016c.064-.044.062-.147.053-.23a4.946,4.946,0,0,1,.311-2.33,2.531,2.531,0,0,0,.424-.2,2.089,2.089,0,0,0-.308,1.007.043.043,0,0,0-.006.016Zm6.161,6.318a3.182,3.182,0,0,0-.107.748,1.909,1.909,0,0,0-.958-.755,1.346,1.346,0,0,0-.141-.034.819.819,0,0,1,.094-.081c.361-.252.768-.076,1.183.145a.6.6,0,0,0-.076-.023Z" transform="translate(-242.614 -245.912)" fill="url(#linear-gradient)"/>
    <path id="Path_2535" data-name="Path 2535" d="M278.4,743.4a.99.99,0,0,0,.162.569,2.172,2.172,0,0,0,1.727.9,16.629,16.629,0,0,0,2.014-.112c.2-.009.4-.01.6-.021a10.648,10.648,0,0,0,3.021-.8c.161-.059.349-.155.358-.325a.4.4,0,0,0-.166-.3,1.707,1.707,0,0,0-.429-.274,17.456,17.456,0,0,1-1.72-.473c-.115-.065-.219-.146-.339-.2a1.443,1.443,0,0,0-.438-.1,6.7,6.7,0,0,0-1.949.064,13.643,13.643,0,0,1-1.469.269,1.878,1.878,0,0,1-.563-.036c-.126-.029-.286-.142-.405-.067s-.186.316-.243.423A1.229,1.229,0,0,0,278.4,743.4Z" transform="translate(-246.893 -661.167)" fill="#3f3d56"/>
    <path id="Path_2536" data-name="Path 2536" d="M278.4,743.4a.99.99,0,0,0,.162.569,2.172,2.172,0,0,0,1.727.9,16.629,16.629,0,0,0,2.014-.112c.2-.009.4-.01.6-.021a10.648,10.648,0,0,0,3.021-.8c.161-.059.349-.155.358-.325a.4.4,0,0,0-.166-.3,1.707,1.707,0,0,0-.429-.274,17.456,17.456,0,0,1-1.72-.473c-.115-.065-.219-.146-.339-.2a1.443,1.443,0,0,0-.438-.1,6.7,6.7,0,0,0-1.949.064,13.643,13.643,0,0,1-1.469.269,1.878,1.878,0,0,1-.563-.036c-.126-.029-.286-.142-.405-.067s-.186.316-.243.423A1.229,1.229,0,0,0,278.4,743.4Z" transform="translate(-246.893 -661.167)" opacity="0.05"/>
    <path id="Path_2537" data-name="Path 2537" d="M309.717,750.894a.982.982,0,0,0,.162.569,2.17,2.17,0,0,0,1.727.9,16.589,16.589,0,0,0,2.014-.112c.2-.009.4-.01.6-.021a10.648,10.648,0,0,0,3.021-.8c.161-.06.349-.155.358-.326a.4.4,0,0,0-.166-.3,1.675,1.675,0,0,0-.429-.274,17.448,17.448,0,0,1-1.72-.475c-.115-.064-.219-.146-.339-.2a1.481,1.481,0,0,0-.438-.1,6.7,6.7,0,0,0-1.949.065,13.287,13.287,0,0,1-1.469.268,1.833,1.833,0,0,1-.563-.035c-.126-.029-.286-.142-.405-.067s-.188.316-.243.423A1.209,1.209,0,0,0,309.717,750.894Z" transform="translate(-274.269 -667.717)" fill="#3f3d56"/>
    <path id="Path_2538" data-name="Path 2538" d="M279.258,382.281a.661.661,0,0,0-.239-.315c-.263-.146-.574.126-.689.4s-.152.608-.378.806c-.137.126-.326.171-.467.29a1.208,1.208,0,0,0-.209,1.158c.278,1.511.765,2.979.959,4.5a15.935,15.935,0,0,0,.252,1.788,1.686,1.686,0,0,0,.5.919.767.767,0,0,0,.976.034,11.189,11.189,0,0,1-.691-3.972c.008-.881.126-1.762.15-2.654.026-.778-.013-1.557-.052-2.335a1.452,1.452,0,0,0-.111-.583.5.5,0,0,0-.475-.3" transform="translate(-245.869 -346.23)" fill="#fbbebe"/>
    <circle id="Ellipse_317" data-name="Ellipse 317" cx="3.169" cy="3.169" r="3.169" transform="translate(35.872 23.788)" fill="#cb8c8e"/>
    <circle id="Ellipse_318" data-name="Ellipse 318" cx="3.179" cy="3.179" r="3.179" transform="translate(40.132 30.126)" fill="#fbbebe"/>
    <path id="Path_2539" data-name="Path 2539" d="M354.4,380.568c.028.252.126.545.366.609a2.7,2.7,0,0,0,.336.019.573.573,0,0,1,.414.32,1.026,1.026,0,0,1,.087.533,1.677,1.677,0,0,1-.259.778,2.234,2.234,0,0,1-1.166.854,6.284,6.284,0,0,1-1.443.266,1.725,1.725,0,0,1-.653-.02,1.384,1.384,0,0,1-.378-.191,3.729,3.729,0,0,1-.928-.889,2.228,2.228,0,0,1-.4-.817,1.229,1.229,0,0,1,.117-.881.434.434,0,0,1,.211-.2c.269-.1.514.237.8.244a.617.617,0,0,0,.5-.4,2.686,2.686,0,0,1,.3-.607,1.306,1.306,0,0,1,.692-.36,4.333,4.333,0,0,1,1.41-.232c.24.024.083.167.028.341A1.531,1.531,0,0,0,354.4,380.568Z" transform="translate(-309.782 -344.185)" fill="#fbbebe"/>
    <path id="Path_2540" data-name="Path 2540" d="M356.822,396.345c.386-.174.6-.593.945-.841a4.43,4.43,0,0,1,.982-.414,2.865,2.865,0,0,0,.906-.579,2.466,2.466,0,0,1,.755-.614,1.176,1.176,0,0,1,.713,0,2.412,2.412,0,0,1,1.448,1.336,7.183,7.183,0,0,1,.514,1.959l.164,1.007a9.252,9.252,0,0,1,.175,1.868,3.109,3.109,0,0,1-.572,1.762,3.439,3.439,0,0,0-.364.7,1.066,1.066,0,0,0-.107.358,1.967,1.967,0,0,0,.029.319,5.211,5.211,0,0,1-.37,1.577,4.54,4.54,0,0,0-.055,1.079.264.264,0,0,0,.028.136.252.252,0,0,0,.107.086c.083.044.169.086.252.126a9.432,9.432,0,0,1-2.116.224c-1.248-.029-2.465-.378-3.7-.522a11.741,11.741,0,0,1,.145-1.687,6.836,6.836,0,0,0-.069-1.11,13.469,13.469,0,0,1,.029-3.021c.043-.353.1-.7.117-1.059.019-.421-.019-.842.011-1.259.029-.4.126-.794.136-1.195A.206.206,0,0,0,356.822,396.345Z" transform="translate(-315.199 -356.645)" fill="#f4f6fb"/>
    <path id="Path_2541" data-name="Path 2541" d="M275.638,481.162c1.3.008,2.454.045,3.754.135.229.378-.32,1.4-.009,1.708,1.783,1.786,2.179,4.187,4.249,5.634.429.3,1.637.543,2.014.913.3.293-.156.084.063.441,1.259,2.055,4.1,4.083,5.743,5.849a18.48,18.48,0,0,1,2.963,5.368,36.337,36.337,0,0,1,1.133,3.5,7.294,7.294,0,0,0,1.794,3.165c.682.637,1.585,1.093,1.989,1.932a8.032,8.032,0,0,1,.3.831,4.154,4.154,0,0,0,2.968,2.617c.366.081.2.691.237,1.065a1.617,1.617,0,0,0,.964,1.119,6.756,6.756,0,0,0,2.2.741c.473.072,1.032.142,1.259.562a.941.941,0,0,1,.1.476,1.93,1.93,0,0,1-1.637,1.677,5.225,5.225,0,0,1-2.488-.3.935.935,0,0,0-.444-.059,1.106,1.106,0,0,0-.538.415,3.67,3.67,0,0,1-3.962.943,5.089,5.089,0,0,0-1.322-.476,3.5,3.5,0,0,0-2,.755,2.175,2.175,0,0,1-2.048.347,2.04,2.04,0,0,0-.629-.32c-.349-.04-.66.262-1.007.252-.39-.008-.658-.378-.919-.667a3.407,3.407,0,0,0-2.027-1.081.952.952,0,0,0-.442.013,1.244,1.244,0,0,0-.444.325,1.8,1.8,0,0,1-1.245.609c-1.036-.037-1.652-1.5-2.683-1.4-1.345-.63-3.009-.3-4.483-.126s-3.107.23-4.288-.67c-.622-.476-1.044-1.167-1.624-1.695a8.12,8.12,0,0,0-3.345-1.537,13.846,13.846,0,0,0-5.791-.789,4.308,4.308,0,0,1-1.052.092.975.975,0,0,1-.835-.561,1.1,1.1,0,0,1-.035-.524c.183-1.425,1.533-2.5,1.706-3.922a4.389,4.389,0,0,1,.872-1.912,16.49,16.49,0,0,0,.943-1.625,33.938,33.938,0,0,0,1.851-3.847,33.352,33.352,0,0,0,1.214-4.319c.327-1.406.483-2.846.719-4.271.171-1.036.439-2.053.707-3.069a53.1,53.1,0,0,1,2.9-8.835A10.468,10.468,0,0,0,275.638,481.162Z" transform="translate(-232.61 -432.517)" fill="#e3e8f4"/>
    <path id="Path_2542" data-name="Path 2542" d="M275.638,484.163c1.3.008,2.454-.081,3.754.009a7.337,7.337,0,0,0,1.025,1.124c1.783,1.789,3.107,4.055,5.175,5.5a9.061,9.061,0,0,1,1.259.934,5.241,5.241,0,0,1,.746,1.007c1.259,2.056,2.2,4.343,3.85,6.109a18.48,18.48,0,0,1,2.963,5.368,36.34,36.34,0,0,1,1.133,3.5,7.293,7.293,0,0,0,1.794,3.165c.682.637,1.585,1.093,1.989,1.932a8.044,8.044,0,0,1,.3.831,4.155,4.155,0,0,0,2.969,2.617c.366.081.2.691.237,1.065a1.617,1.617,0,0,0,.964,1.119,6.758,6.758,0,0,0,2.2.742c.473.072,1.032.142,1.259.561a.941.941,0,0,1,.1.476,1.93,1.93,0,0,1-1.637,1.677,5.224,5.224,0,0,1-2.488-.3.936.936,0,0,0-.444-.059,1.106,1.106,0,0,0-.538.415,3.67,3.67,0,0,1-3.962.943,5.09,5.09,0,0,0-1.322-.476,3.5,3.5,0,0,0-2,.755,2.175,2.175,0,0,1-2.048.347,2.04,2.04,0,0,0-.629-.32c-.349-.04-.66.262-1.007.252-.39-.008-.658-.378-.919-.667a3.407,3.407,0,0,0-2.022-1.086.952.952,0,0,0-.442.013,1.243,1.243,0,0,0-.444.325,1.8,1.8,0,0,1-1.245.609c-1.036-.036-1.652-1.5-2.683-1.4-1.345-.63-3.009-.3-4.483-.126s-3.107.23-4.288-.67c-.622-.476-1.044-1.167-1.624-1.695a8.12,8.12,0,0,0-3.345-1.537,13.845,13.845,0,0,0-5.791-.789,4.314,4.314,0,0,1-1.052.092.974.974,0,0,1-.835-.562,1.1,1.1,0,0,1-.035-.524c.183-1.425,1.533-2.5,1.706-3.921a4.389,4.389,0,0,1,.872-1.912,16.491,16.491,0,0,0,.943-1.625,33.935,33.935,0,0,0,1.851-3.847,33.354,33.354,0,0,0,1.214-4.319c.327-1.406.483-2.846.719-4.271.171-1.036.439-2.053.707-3.069a53.1,53.1,0,0,1,2.9-8.835A10.467,10.467,0,0,0,275.638,484.163Z" transform="translate(-232.61 -435.139)" fill="#e3e8f4"/>
    <path id="Path_2543" data-name="Path 2543" d="M275.638,482.163c1.3.008,2.454-.081,3.754.009a7.333,7.333,0,0,0,1.025,1.124c1.783,1.789,3.107,4.055,5.175,5.5a9.059,9.059,0,0,1,1.259.934,5.243,5.243,0,0,1,.746,1.007c1.259,2.056,2.2,4.343,3.85,6.109a18.48,18.48,0,0,1,2.963,5.368,36.342,36.342,0,0,1,1.133,3.5,7.294,7.294,0,0,0,1.794,3.165c.682.637,1.585,1.093,1.989,1.932a8.042,8.042,0,0,1,.3.831,4.154,4.154,0,0,0,2.969,2.617c.366.081.2.691.237,1.065a1.617,1.617,0,0,0,.964,1.119,6.756,6.756,0,0,0,2.2.741c.473.072,1.032.142,1.259.561a.941.941,0,0,1,.1.476,1.93,1.93,0,0,1-1.637,1.677,5.223,5.223,0,0,1-2.488-.3.935.935,0,0,0-.444-.059,1.106,1.106,0,0,0-.538.415,3.67,3.67,0,0,1-3.962.943,5.09,5.09,0,0,0-1.322-.476,3.5,3.5,0,0,0-2,.755,2.176,2.176,0,0,1-2.048.347,2.038,2.038,0,0,0-.629-.32c-.349-.04-.66.262-1.007.252-.39-.008-.658-.378-.919-.667a3.407,3.407,0,0,0-2.022-1.086.952.952,0,0,0-.442.013,1.243,1.243,0,0,0-.444.325,1.8,1.8,0,0,1-1.245.609c-1.036-.036-1.652-1.5-2.683-1.4-1.345-.629-3.009-.3-4.483-.126s-3.107.23-4.288-.67c-.622-.476-1.044-1.167-1.624-1.694a8.12,8.12,0,0,0-3.345-1.537,13.847,13.847,0,0,0-5.791-.789,4.308,4.308,0,0,1-1.052.092.975.975,0,0,1-.835-.561,1.1,1.1,0,0,1-.035-.524c.183-1.425,1.533-2.5,1.706-3.922a4.389,4.389,0,0,1,.872-1.912,16.494,16.494,0,0,0,.943-1.625,33.935,33.935,0,0,0,1.851-3.847,33.356,33.356,0,0,0,1.214-4.319c.327-1.406.483-2.846.719-4.271.171-1.036.439-2.053.707-3.069a53.1,53.1,0,0,1,2.9-8.835A10.468,10.468,0,0,0,275.638,482.163Z" transform="translate(-232.61 -433.391)" fill="#f4f6fb"/>
    <path id="Path_2544" data-name="Path 2544" d="M277.1,531.68a1.653,1.653,0,0,0-.078,1.742,6.293,6.293,0,0,1,.68,1.707c.023.2.01.41.045.613.026.146.076.286.113.429a4.84,4.84,0,0,1,.106.551c.133.9.224,1.8.272,2.707.069,1.281.052,2.567.034,3.851-.025,1.8-.881,3.478-1.3,5.226a4.521,4.521,0,0,0-.143.826,5.372,5.372,0,0,0,.11,1.107,18.163,18.163,0,0,1-.22,6.9,1.368,1.368,0,0,1,.55,1.266,5.05,5.05,0,0,0,2.444.024,11.413,11.413,0,0,1,1.385-.541c.378-.069.815-.034,1.081-.308a1.149,1.149,0,0,0,.232-.441c.921-2.681.663-5.6.612-8.435-.028-1.523,0-3.048-.058-4.57a35.384,35.384,0,0,0-1.269-8.022,13.762,13.762,0,0,0-1.385-3.634,1.9,1.9,0,0,0-.577-.65,2.145,2.145,0,0,0-.889-.235C278.2,531.72,277.742,531.753,277.1,531.68Z" transform="translate(-245.426 -477.132)" fill="#3f3d56"/>
    <path id="Path_2545" data-name="Path 2545" d="M282.411,557.328a1.153,1.153,0,0,1-.232.439c-.267.276-.7.239-1.081.31-.048.009-.1.02-.142.033-.429.115-.817.368-1.241.5a5.134,5.134,0,0,1-2.445-.024,1.369,1.369,0,0,0-.55-1.268,18.157,18.157,0,0,0,.222-6.9,5.285,5.285,0,0,1-.111-1.107,4.608,4.608,0,0,1,.144-.826c.414-1.749,1.273-3.43,1.3-5.227.018-1.284.035-2.569-.033-3.851q-.074-1.36-.273-2.707a5.127,5.127,0,0,0-.1-.551c-.039-.142-.088-.283-.113-.429-.036-.2-.024-.409-.047-.613a6.244,6.244,0,0,0-.68-1.706,2.523,2.523,0,0,1-.2-.733,1.259,1.259,0,0,1,.274-1.007c.432.048.78.047,1.158.063.185.008.378.02.588.044a2.1,2.1,0,0,1,.89.235,1.889,1.889,0,0,1,.575.65c.068.11.132.22.194.332a15.2,15.2,0,0,1,1.191,3.3,35.4,35.4,0,0,1,1.269,8.022c.064,1.522.03,3.047.058,4.571C283.076,551.728,283.333,554.645,282.411,557.328Z" transform="translate(-245.426 -477.123)" opacity="0.05"/>
    <path id="Path_2546" data-name="Path 2546" d="M297.019,531.5v.662q-.009,3.19-.016,6.379a25.322,25.322,0,0,1-.091,2.622c-.223,2.266-1.051,4.46-.963,6.729a20.632,20.632,0,0,1-.205,4.931c-.126.619-.31,1.229-.4,1.854a3.5,3.5,0,0,0,.167,1.868,3.127,3.127,0,0,1,.463,1.259,1.235,1.235,0,0,1-.6.942,2.83,2.83,0,0,1-1.09.364,8.366,8.366,0,0,1-1.451.112,2.105,2.105,0,0,1-1.849-.755,1.8,1.8,0,0,1-.107-1.363c.014-.053.028-.1.043-.156.118-.4.287-.778.378-1.181a3.287,3.287,0,0,0-.135-1.91c-.043-.113-.177-.327-.3-.313a5.133,5.133,0,0,1-.252-1.575l-.178-3.613a9.316,9.316,0,0,1,.086-2.354c.126-.629.394-1.229.47-1.867a6.171,6.171,0,0,0-.006-1.152,51.142,51.142,0,0,0-.765-5.883.7.7,0,0,0-.1-.279c-.083-.116-.228-.17-.33-.271-.214-.209-.194-.55-.244-.846a4.5,4.5,0,0,0-.718-1.443,5.287,5.287,0,0,1-.709-2.464,5.171,5.171,0,0,1,.1-1.222c.01-.054.023-.108.035-.162a32.923,32.923,0,0,1,8.2.5.67.67,0,0,1,.511.272.682.682,0,0,1,.048.312Z" transform="translate(-255.392 -475.968)" fill="#3f3d56"/>
    <path id="Path_2547" data-name="Path 2547" d="M468.643,595.3a72.978,72.978,0,0,1,3.792,7.3c.875,2.046,1.592,4.225,3.06,5.9a16.367,16.367,0,0,0,5.138,3.482l-1.669-1.47a19.146,19.146,0,0,1-4.45-4.965,28.39,28.39,0,0,1-1.385-3.379,30.986,30.986,0,0,0-4.611-8.138A22.961,22.961,0,0,0,466.78,592,25.318,25.318,0,0,0,468.643,595.3Z" transform="translate(-411.56 -529.858)" fill="#e3e8f4"/>
    <path id="Path_2548" data-name="Path 2548" d="M420.467,727.677a10.117,10.117,0,0,0,1.445,2.384,1.838,1.838,0,0,0-.457-1.141,9.757,9.757,0,0,1-.9-2.076,6.048,6.048,0,0,0-.929-2.095C419.373,725.646,420.089,726.906,420.467,727.677Z" transform="translate(-370.294 -645.896)" fill="#e3e8f4"/>
    <path id="Path_2549" data-name="Path 2549" d="M367.849,576.86c.118.63.188,1.259.346,1.875a13.363,13.363,0,0,0,.573,1.624l2.654,6.614a8.408,8.408,0,0,0-.809-2.556c-.378-1.036-.514-2.14-.822-3.205-.252-.864-.617-1.688-.881-2.548-.368-1.212-.522-2.479-.811-3.712a27.148,27.148,0,0,0-.973-3.147,3.069,3.069,0,0,0-.767-1.327,1.08,1.08,0,0,0-1.409-.068c-.517.512.267.833.525,1.167a12.516,12.516,0,0,1,2.372,5.287Z" transform="translate(-322.398 -510.782)" fill="#e3e8f4"/>
    <path id="Path_2550" data-name="Path 2550" d="M404.055,503.549a2.413,2.413,0,0,1,.365.473,6.5,6.5,0,0,0,.378.811,7.919,7.919,0,0,0-1.073-1.219c-.242-.208-.5-.386-.747-.594-.185-.159-1-.846-.835-1.08A7.509,7.509,0,0,1,404.055,503.549Z" transform="translate(-355.042 -451.136)" fill="#e3e8f4"/>
    <path id="Path_2551" data-name="Path 2551" d="M314.021,315.12a1.813,1.813,0,0,1-.326.71,4.543,4.543,0,0,0-.648,2.2,4.4,4.4,0,0,0,.03.681c.01.084.013.19-.06.234a.212.212,0,0,1-.126.016c-.086-.008-.169-.018-.252-.031-1.346-.215-2.524-1.133-3.879-1.365a.647.647,0,0,0,.346-.409,1.841,1.841,0,0,0,.082-.312c.02-.112.035-.224.047-.334a14.513,14.513,0,0,0-.083-2.379c-.052-.959,1.133-.643,1.828-.656a5.761,5.761,0,0,1,1.664.132,1.952,1.952,0,0,1,1.283.993A1.007,1.007,0,0,1,314.021,315.12Z" transform="translate(-273.433 -286.359)" fill="#cb8c8e"/>
    <path id="Path_2552" data-name="Path 2552" d="M315.42,339.9a.212.212,0,0,1-.126.016c-.086-.008-.169-.018-.252-.031q-.174-.163-.335-.34a7.353,7.353,0,0,0-.77-.825,2.674,2.674,0,0,0-1.574-.561,5.177,5.177,0,0,1-.854-.048,1.849,1.849,0,0,0,.082-.312c.02-.112.035-.224.047-.334a4.234,4.234,0,0,1,.476-.034,2.289,2.289,0,0,1,.564-.011,2.879,2.879,0,0,1,.865.365,10.3,10.3,0,0,1,1.159.6c.111.078.217.164.322.252.144.117.286.235.429.351a4.409,4.409,0,0,0,.03.681C315.491,339.744,315.493,339.851,315.42,339.9Z" transform="translate(-275.837 -307.312)" fill="#e3e8f4"/>
    <path id="Path_2553" data-name="Path 2553" d="M287.682,531.494v.662c-.524.015-1.059.092-1.58.126-.49.035-.981.037-1.472.03a4.274,4.274,0,0,1-1.141-.126c-.268-.078-.52-.206-.787-.287a3.791,3.791,0,0,0-1.567-.073c-.433.05-.87.126-1.3.165a1.747,1.747,0,0,1-.831-.086,1.542,1.542,0,0,1-.214-.118,2.923,2.923,0,0,0-.332-.193,1.967,1.967,0,0,0-1-.083,1.259,1.259,0,0,1,.274-1.007c.432.048.781.047,1.158.063.01-.054.023-.108.035-.162a32.929,32.929,0,0,1,8.2.5.67.67,0,0,1,.511.272A.681.681,0,0,1,287.682,531.494Z" transform="translate(-246.056 -475.959)" opacity="0.1"/>
    <path id="Path_2554" data-name="Path 2554" d="M274.277,341.174a1.11,1.11,0,0,0-.741.312.378.378,0,0,0-.094.2,1.7,1.7,0,0,0,.068.347.812.812,0,0,1-.116.433,3.369,3.369,0,0,1-.685,1.046c-.126.117-.269.214-.4.329a3.509,3.509,0,0,0-.4.446,2.893,2.893,0,0,0-.636,1.1c-.17.719-.524,1.4-.755,2.1a4.542,4.542,0,0,0-.252,2.178c.059.345.179.676.262,1.016.133.545.171,1.109.312,1.652.089.339.218.666.315,1.007a5.486,5.486,0,0,1,.167,2.252,7.606,7.606,0,0,1-.214,2.057,7.756,7.756,0,0,1-.378.685,9.562,9.562,0,0,0-.475,1.007l-.777,1.833a10.649,10.649,0,0,0-.407,1.057,9.753,9.753,0,0,0-.279,3.273.138.138,0,0,1-.021.1c-.024.025-.078.018-.079-.016-.01.063-.05.172-.059.235.661.287,1.474-.147,2.133.146.191.086.354.228.546.311a1.732,1.732,0,0,0,.831.087,7.64,7.64,0,0,1,2.868-.093c.268.082.519.21.787.288a4.287,4.287,0,0,0,1.142.126c.491.008.982.006,1.472-.03a6.669,6.669,0,0,1,3.131.111,1.127,1.127,0,0,0,.35-.976q.035-1.1.07-2.189l.261-8.051a8.055,8.055,0,0,0-.062-1.662,7.951,7.951,0,0,0-1.259-2.743l-2.5-4.029c-.166-.267,0-.565.115-.859a5.56,5.56,0,0,0,.322-1.307,1.172,1.172,0,0,0-.185-.943,4.034,4.034,0,0,0-.447-.332,2.079,2.079,0,0,1-.461-.643,4.155,4.155,0,0,0-1.472-1.533A3.113,3.113,0,0,0,274.277,341.174Z" transform="translate(-238.363 -310.577)" fill="#3f3d56"/>
    <path id="Path_2555" data-name="Path 2555" d="M320.69,368.518A2.738,2.738,0,0,0,319,370.557a7.707,7.707,0,0,0,.043,3.83,21.475,21.475,0,0,0,1.341,3.626,8.706,8.706,0,0,0,.413.843,4.04,4.04,0,0,0,1.848,1.678,3.414,3.414,0,0,0,2.476.109,1.455,1.455,0,0,0,.415-.211,2.007,2.007,0,0,0,.548-1.538l.112-1.968a.99.99,0,0,0-.015-.311,1.133,1.133,0,0,0-.228-.378,4.706,4.706,0,0,1-.806-1.6,8.142,8.142,0,0,0-.351-1.215c-.106-.232-.252-.443-.366-.671a6.42,6.42,0,0,1-.46-1.577q-.155-.7-.37-1.391a2.343,2.343,0,0,0-.321-.714,2.428,2.428,0,0,0-1.53-.755,1.762,1.762,0,0,0-.828-.04,1.831,1.831,0,0,0-.774.553" transform="translate(-282.193 -334.268)" opacity="0.1"/>
    <path id="Path_2556" data-name="Path 2556" d="M321.69,367.518A2.738,2.738,0,0,0,320,369.557a7.707,7.707,0,0,0,.043,3.83,21.473,21.473,0,0,0,1.341,3.626,8.716,8.716,0,0,0,.413.843,4.04,4.04,0,0,0,1.848,1.678,3.414,3.414,0,0,0,2.476.11,1.453,1.453,0,0,0,.415-.212,2.007,2.007,0,0,0,.548-1.538l.112-1.968a.991.991,0,0,0-.015-.311,1.133,1.133,0,0,0-.228-.378,4.7,4.7,0,0,1-.806-1.6,8.149,8.149,0,0,0-.351-1.215c-.106-.232-.252-.443-.366-.671a6.416,6.416,0,0,1-.46-1.577q-.155-.7-.37-1.391a2.345,2.345,0,0,0-.321-.714,2.428,2.428,0,0,0-1.53-.755,1.763,1.763,0,0,0-.828-.04,1.831,1.831,0,0,0-.774.553" transform="translate(-283.067 -333.394)" fill="#3f3d56"/>
    <path id="Path_2557" data-name="Path 2557" d="M401.9,396.4a2.965,2.965,0,0,1-.166-2.129c.493.126.629.854,1.133.983.074.019.154.023.229.039a1.293,1.293,0,0,1,.784.692,3.725,3.725,0,0,1,.524,1.591,2.665,2.665,0,0,1-.378,1.618c.013-.019-.881-.935-.957-1.03q-.235-.276-.461-.563a4.033,4.033,0,0,1-.424-.57c-.043-.081-.052-.174-.089-.259C402.04,396.644,401.965,396.523,401.9,396.4Z" transform="translate(-354.597 -357.02)" fill="#cb8c8e"/>
    <path id="Path_2558" data-name="Path 2558" d="M312.864,414.508A5.5,5.5,0,0,1,311.3,417.7a.944.944,0,0,1-.7.351c-.291-.03-.491-.295-.7-.5a13.551,13.551,0,0,0-1.3-.933,6.635,6.635,0,0,1-.614-.575,14.306,14.306,0,0,1-1.73-1.993,11.363,11.363,0,0,0-.846-1.229c-.261-.3-.574-.54-.849-.822a1.972,1.972,0,0,1-.582-1.007c-.069-.41-.5-.677-.777-.992a3.5,3.5,0,0,1-.762-2.918.67.67,0,0,1,.347-.54.563.563,0,0,1,.259-.016,2.216,2.216,0,0,1,1.269.928,7.765,7.765,0,0,1,.648.856,7.6,7.6,0,0,1,.8,2.252c.11.454.563.791.889,1.125l.818.84c.2.2.39.4.6.582a7.854,7.854,0,0,0,1.989,1.133,2.525,2.525,0,0,1,.277-.645.837.837,0,0,1,.564-.378,1.265,1.265,0,0,1,.881.378l.963.755C312.8,414.394,312.872,414.442,312.864,414.508Z" transform="translate(-267.852 -367.724)" fill="#fbbebe"/>
    <path id="Path_2559" data-name="Path 2559" d="M370.63,408.211a1.393,1.393,0,0,1,.276.436,2.86,2.86,0,0,1,.281,1.421,4.242,4.242,0,0,1-.174.777l-.3,1.031a48.056,48.056,0,0,1-1.562,4.744c-.517-.671-1.423-.874-2.158-1.293a.61.61,0,0,1-.19-.147.541.541,0,0,1-.094-.322,2.408,2.408,0,0,1,.2-.9,13.192,13.192,0,0,0,1.168-3.74,7.036,7.036,0,0,1,.047-.729,2.067,2.067,0,0,1,.969-1.4A1.353,1.353,0,0,1,370.63,408.211Z" transform="translate(-324.086 -368.941)" opacity="0.1"/>
    <path id="Path_2560" data-name="Path 2560" d="M369.63,405.923a1.406,1.406,0,0,1,.276.436,2.86,2.86,0,0,1,.281,1.421,4.224,4.224,0,0,1-.174.787l-.3,1.031a48.035,48.035,0,0,1-1.562,4.744c-.517-.67-1.423-.874-2.158-1.293a.6.6,0,0,1-.19-.146.548.548,0,0,1-.094-.322,2.41,2.41,0,0,1,.2-.9,13.179,13.179,0,0,0,1.168-3.74,6.987,6.987,0,0,1,.047-.728,2.066,2.066,0,0,1,.969-1.4A1.348,1.348,0,0,1,369.63,405.923Z" transform="translate(-323.212 -366.945)" fill="#f4f6fb"/>
    <path id="Path_2561" data-name="Path 2561" d="M350.29,321.2a1.742,1.742,0,0,1,.364,1.022,6.7,6.7,0,0,1-.184,2.83,3.406,3.406,0,0,1-1.794,2.112c1.219.2,2.666.321,3.492-.6a2.655,2.655,0,0,1,.5-.524c.875-.551,1.985.9,2.935.49.629-.272.675-1.123.629-1.8l-.172-2.518a7.2,7.2,0,0,0-.937-3.7,5.457,5.457,0,0,0-2.86-1.888,3.646,3.646,0,0,0-2.456-.1c-.988.405-2.9,2.024-2.884,3.222C346.941,321.531,349.459,320.323,350.29,321.2Z" transform="translate(-306.788 -288.914)" fill="#3f3d56"/>
    <path id="Path_2562" data-name="Path 2562" d="M361.711,412.519a1.259,1.259,0,0,0,.418-.054c.214-.079.378-.278.608-.311.116-.016.264,0,.315-.11a.435.435,0,0,0,.016-.157c.018-.306.4-.412.661-.575a1.934,1.934,0,0,0,.429-.413l.894-1.056a.67.67,0,0,1,.34-.258.607.607,0,0,1,.442.126,3.453,3.453,0,0,1,1.526,3.2.543.543,0,0,1-.065.245c-.14.219-.468.166-.716.244-.475.149-.619.764-1.026,1.05-.183.126-.408.18-.585.311a3.978,3.978,0,0,0-.475.538,3,3,0,0,1-.956.629l-1.054.514a4.136,4.136,0,0,1-.646.269,4.069,4.069,0,0,1-1.173.1l-.772-.01a.455.455,0,0,1-.252-.05.421.421,0,0,1-.112-.126,2.769,2.769,0,0,1-.336-2.066,4.111,4.111,0,0,1,.807-1.827C360.359,412.354,361.213,412.529,361.711,412.519Z" transform="translate(-317.459 -370.403)" fill="#3f3d56"/>
    <path id="Path_2563" data-name="Path 2563" d="M304.078,274.652a.573.573,0,0,1,.291-.612l.957-.719-.2-.286.369-.316a.268.268,0,0,0-.272-.106c.058-.389-.274-.718-.59-.949a4.281,4.281,0,0,0-2.173-.915c-.386-.025-.774.03-1.161,0-.521-.033-1.027-.209-1.55-.229a1.381,1.381,0,0,0-1.328.655,6.194,6.194,0,0,0-.176.647,3.2,3.2,0,0,1-.927,1.146,1.535,1.535,0,0,0-.584,1.3,1.713,1.713,0,0,0,.18.447l1.951,3.768a.867.867,0,0,1,.656-.452,4.071,4.071,0,0,1,.954.146,1.511,1.511,0,0,0,1.3-.5c.431-.5.535-1.762,1.283-1.888.264-.045.687.288.918.156C304.248,275.794,304.083,274.932,304.078,274.652Z" transform="translate(-262.909 -248.849)" fill="#3f3d56"/>
    <g id="Group_394" data-name="Group 394" transform="translate(40.125 27.492)" opacity="0.1">
      <path id="Path_2564" data-name="Path 2564" d="M349.387,327.135a3.419,3.419,0,0,0,1.794-2.114,6.686,6.686,0,0,0,.184-2.83,1.733,1.733,0,0,0-.364-1.022c-.831-.881-3.349.33-3.371-1.44-.014-1.021,1.375-2.348,2.392-2.969a2.309,2.309,0,0,0-.268.089c-.988.405-2.9,2.026-2.884,3.222.023,1.77,2.54.563,3.371,1.441a1.739,1.739,0,0,1,.364,1.022,6.7,6.7,0,0,1-.184,2.829,3.412,3.412,0,0,1-1.794,2.114,4.4,4.4,0,0,0,3.175-.316A6.1,6.1,0,0,1,349.387,327.135Z" transform="translate(-346.87 -316.76)"/>
      <path id="Path_2565" data-name="Path 2565" d="M396.873,389.37a1.116,1.116,0,0,0-.243.219c.772.05,1.649.949,2.422.613a.868.868,0,0,0,.342-.269C398.549,389.9,397.625,388.9,396.873,389.37Z" transform="translate(-390.366 -380.119)"/>
    </g>
    <g id="Group_395" data-name="Group 395" transform="translate(33.857 23.197)" opacity="0.1">
      <path id="Path_2566" data-name="Path 2566" d="M363.115,282.722c-.019-.028-.039-.055-.059-.082a.707.707,0,0,1-.006.087A.286.286,0,0,1,363.115,282.722Z" transform="translate(-354.745 -282.64)"/>
      <path id="Path_2567" data-name="Path 2567" d="M305.846,285.3a.268.268,0,0,0-.272-.106.61.61,0,0,0-.025-.283l-.261.223.2.285-.957.72a.573.573,0,0,0-.291.612c0,.279.17,1.142-.1,1.3-.229.132-.653-.2-.916-.156-.748.126-.852,1.385-1.283,1.888a1.511,1.511,0,0,1-1.3.5,4.074,4.074,0,0,0-.954-.145.873.873,0,0,0-.657.452l-1.946-3.76v.028a1.764,1.764,0,0,0,.181.447l1.949,3.76a.873.873,0,0,1,.657-.452,4.073,4.073,0,0,1,.954.146,1.511,1.511,0,0,0,1.3-.5c.431-.5.535-1.762,1.283-1.888.263-.045.687.288.916.156.272-.155.107-1.017.1-1.3a.767.767,0,0,1,.055-.378.755.755,0,0,1,.235-.238l.957-.719-.2-.286Z" transform="translate(-297.08 -284.624)"/>
    </g>
    <path id="Path_2568" data-name="Path 2568" d="M272.155,483.482c-.126.538-.205,1.086-.378,1.611-.076.237-.169.467-.243.7-.067.215-.117.433-.169.652l-.205.881a.4.4,0,0,0,.312-.176,1.192,1.192,0,0,0,.155-.337l.344-1.022.252-.755c.358-1.064.716-2.13.988-3.22.068-.269.126-.539.185-.811.023-.1.188-.687.019-.638-.12.034-.322.565-.378.681-.126.232-.229.468-.331.709A10.485,10.485,0,0,0,272.155,483.482Z" transform="translate(-240.566 -432.278)" opacity="0.1"/>
    <path id="Path_2569" data-name="Path 2569" d="M326.3,391.924s-.569-.205-.709.039c0,0,1.035.378,1.244.922,0,0,.267-.274-.1-.623l-.068-.511Z" transform="translate(-288.144 -354.818)" fill="#00a66c"/>
    <path id="Path_2570" data-name="Path 2570" d="M331.847,384.971s.031-.259-.1-.287a.8.8,0,0,0-.875,1.007c.142.983,1.167.614,1.167.614l.449-.524a.776.776,0,0,0-.534-.861Z" transform="translate(-292.749 -348.637)" fill="#6c63ff"/>
    <path id="Path_2571" data-name="Path 2571" d="M329.574,382.76a1.032,1.032,0,0,0-.4,1.371l.291-.169S329.831,383.111,329.574,382.76Z" transform="translate(-291.189 -346.959)" opacity="0.1"/>
    <path id="Path_2572" data-name="Path 2572" d="M329.362,382.6a1.032,1.032,0,0,0-.4,1.371l.225.132S329.62,382.951,329.362,382.6Z" transform="translate(-291.005 -346.819)" fill="#6c63ff"/>
    <path id="Path_2573" data-name="Path 2573" d="M335.651,390.5a.67.67,0,0,0,.237.342c.181.126-.18.417-.18.417s-.488.555-.95.285c-.276-.465-.068-.529-.068-.529S335.265,390.379,335.651,390.5Z" transform="translate(-296.032 -353.71)" opacity="0.1"/>
    <path id="Path_2574" data-name="Path 2574" d="M335.222,390.708a.67.67,0,0,0,.237.342c.18.126-.181.417-.181.417s-.487.555-.95.285-.068-.527-.068-.527S334.83,390.59,335.222,390.708Z" transform="translate(-295.584 -353.894)" fill="#6c63ff"/>
    <path id="Path_2575" data-name="Path 2575" d="M325.408,380.148s-.572.2-.526.477c0,0,1.042-.358,1.547-.067,0,0,.034-.378-.468-.423l-.378-.355Z" transform="translate(-287.523 -344.354)" fill="#5f3839"/>
    <path id="Path_2576" data-name="Path 2576" d="M326.587,371.989s-.138-.222-.252-.161a.8.8,0,0,0-.048,1.331c.726.672,1.294-.252,1.294-.252l.013-.69a.775.775,0,0,0-.957-.332Z" transform="translate(-288.46 -337.393)" fill="#6c63ff"/>
    <path id="Path_2577" data-name="Path 2577" d="M323.527,373.49a1.032,1.032,0,0,0,.555,1.316l.12-.314S323.945,373.6,323.527,373.49Z" transform="translate(-286.281 -338.856)" opacity="0.1"/>
    <path id="Path_2578" data-name="Path 2578" d="M323.229,373.5a1.033,1.033,0,0,0,.555,1.316l.258-.039S323.651,373.611,323.229,373.5Z" transform="translate(-286.021 -338.865)" fill="#6c63ff"/>
    <path id="Path_2579" data-name="Path 2579" d="M333.525,373.41a.675.675,0,0,0,.4.118c.222-.014.126.437.126.437s-.03.739-.56.82c-.5-.188-.385-.368-.385-.368S333.151,373.561,333.525,373.41Z" transform="translate(-294.703 -338.786)" opacity="0.1"/>
    <path id="Path_2580" data-name="Path 2580" d="M333.712,373.51a.671.671,0,0,0,.4.118c.222-.014.126.437.126.437s-.029.739-.559.82-.385-.368-.385-.368S333.339,373.661,333.712,373.51Z" transform="translate(-294.863 -338.874)" fill="#6c63ff"/>
    <path id="Path_2581" data-name="Path 2581" d="M309.1,384.17s.181-.159.281.05l-.084.468-.52,4.638-.332.608Z" transform="translate(-273.153 -348.141)" fill="#00a66c"/>
    <path id="Path_2582" data-name="Path 2582" d="M282.768,277.62,280.59,284.7l.2.11,2.16-7.138Z" transform="translate(-245.284 -242.67)" fill="#00a66c"/>
    <path id="Path_2583" data-name="Path 2583" d="M310.941,401.48a10.681,10.681,0,0,1-1.027,2.583,1.93,1.93,0,0,0-.437,1.347l.176.054,1.448-3.856Z" transform="translate(-274.052 -363.323)" fill="#00a66c"/>
    <path id="Path_2584" data-name="Path 2584" d="M285.727,290.19,282.62,295.6l.149.081,3.2-5.452Z" transform="translate(-247.059 -253.658)" fill="#00a66c"/>
    <path id="Path_2585" data-name="Path 2585" d="M285.88,301.54l-3.87,4.034.116.15,3.919-4.093Z" transform="translate(-246.525 -263.579)" fill="#00a66c"/>
    <path id="Path_2586" data-name="Path 2586" d="M316.2,400.986s-.052-.227-.225-.184-3.594,3.841-3.594,3.841l.145.113Z" transform="translate(-276.597 -362.726)" fill="#00a66c"/>
    <path id="Path_2587" data-name="Path 2587" d="M308.45,380.183s-.584.159-.556.439c0,0,1.064-.285,1.547.04,0,0,.06-.378-.438-.454l-.35-.378Z" transform="translate(-272.674 -344.398)" fill="#00a66c"/>
    <path id="Path_2588" data-name="Path 2588" d="M310.212,371.983s-.126-.23-.245-.177a.8.8,0,0,0-.141,1.323c.677.72,1.309-.166,1.309-.166l.067-.687a.776.776,0,0,0-.932-.4Z" transform="translate(-274.109 -337.377)" fill="#6c63ff"/>
    <path id="Path_2589" data-name="Path 2589" d="M307.2,373.09a1.032,1.032,0,0,0,.462,1.351l.141-.3S307.615,373.23,307.2,373.09Z" transform="translate(-271.988 -338.507)" opacity="0.1"/>
    <path id="Path_2590" data-name="Path 2590" d="M306.934,373.08a1.032,1.032,0,0,0,.462,1.351l.261-.02S307.346,373.22,306.934,373.08Z" transform="translate(-271.752 -338.498)" fill="#6c63ff"/>
    <path id="Path_2591" data-name="Path 2591" d="M316.866,373.88a.674.674,0,0,0,.392.141c.222,0,.091.444.091.444s-.081.735-.614.779c-.492-.222-.359-.394-.359-.394S316.484,374,316.866,373.88Z" transform="translate(-280.075 -339.197)" opacity="0.1"/>
    <path id="Path_2592" data-name="Path 2592" d="M317,374a.68.68,0,0,0,.392.146c.222,0,.091.444.091.444s-.081.734-.614.778-.359-.393-.359-.393S316.618,374.126,317,374Z" transform="translate(-280.183 -339.302)" fill="#6c63ff"/>
    <path id="Path_2593" data-name="Path 2593" d="M320.272,371.552s-.584.159-.558.439c0,0,1.064-.284,1.547.039,0,0,.062-.378-.438-.453l-.35-.378Z" transform="translate(-283.007 -336.855)" fill="#00a66c"/>
    <path id="Path_2594" data-name="Path 2594" d="M322.032,363.373s-.126-.23-.245-.177a.8.8,0,0,0-.141,1.323c.677.72,1.309-.166,1.309-.166l.067-.687a.776.776,0,0,0-.932-.4Z" transform="translate(-284.441 -329.851)" fill="#6c63ff"/>
    <path id="Path_2595" data-name="Path 2595" d="M319.024,364.48a1.032,1.032,0,0,0,.462,1.351l.141-.3S319.44,364.62,319.024,364.48Z" transform="translate(-282.32 -330.981)" opacity="0.1"/>
    <path id="Path_2596" data-name="Path 2596" d="M318.757,364.47a1.033,1.033,0,0,0,.462,1.351l.261-.021S319.17,364.61,318.757,364.47Z" transform="translate(-282.088 -330.972)" fill="#6c63ff"/>
    <path id="Path_2597" data-name="Path 2597" d="M328.69,365.27a.668.668,0,0,0,.39.145c.222,0,.091.444.091.444s-.081.735-.614.779c-.491-.223-.359-.394-.359-.394S328.306,365.395,328.69,365.27Z" transform="translate(-290.409 -331.671)" opacity="0.1"/>
    <path id="Path_2598" data-name="Path 2598" d="M328.822,365.38a.669.669,0,0,0,.39.145c.222,0,.091.444.091.444s-.081.735-.614.779-.359-.394-.359-.394S328.438,365.5,328.822,365.38Z" transform="translate(-290.515 -331.767)" fill="#6c63ff"/>
    <path id="Path_2599" data-name="Path 2599" d="M329.219,384.794s-.569-.205-.709.039c0,0,1.035.378,1.245.922,0,0,.267-.274-.1-.623l-.068-.511Z" transform="translate(-290.696 -348.585)" fill="#00a66c"/>
    <path id="Path_2600" data-name="Path 2600" d="M334.734,377.811s.031-.259-.1-.287a.808.808,0,0,0-.881,1.007c.135.983,1.168.614,1.168.614l.449-.524a.777.777,0,0,0-.535-.861Z" transform="translate(-295.268 -342.378)" fill="#6c63ff"/>
    <path id="Path_2601" data-name="Path 2601" d="M332.529,375.64a1.031,1.031,0,0,0-.4,1.371l.29-.169S332.781,375.991,332.529,375.64Z" transform="translate(-293.773 -340.736)" opacity="0.1"/>
    <path id="Path_2602" data-name="Path 2602" d="M332.284,375.48a1.032,1.032,0,0,0-.4,1.371l.225.132S332.541,375.831,332.284,375.48Z" transform="translate(-293.558 -340.596)" fill="#6c63ff"/>
    <path id="Path_2603" data-name="Path 2603" d="M338.574,383.378a.68.68,0,0,0,.237.342c.181.126-.18.417-.18.417s-.488.555-.951.285c-.274-.463-.068-.529-.068-.529S338.189,383.259,338.574,383.378Z" transform="translate(-298.588 -347.486)" opacity="0.1"/>
    <path id="Path_2604" data-name="Path 2604" d="M338.115,383.588a.676.676,0,0,0,.237.344c.181.126-.18.415-.18.415s-.488.555-.951.286-.068-.529-.068-.529S337.729,383.47,338.115,383.588Z" transform="translate(-298.114 -347.67)" fill="#6c63ff"/>
    <path id="Path_2605" data-name="Path 2605" d="M336.478,397.044s-.569-.205-.708.04c0,0,1.034.378,1.244.922,0,0,.267-.276-.1-.623l-.068-.512Z" transform="translate(-297.043 -359.293)" fill="#00a66c"/>
    <path id="Path_2606" data-name="Path 2606" d="M342.026,390.062s.031-.259-.1-.286a.8.8,0,0,0-.874,1.007c.142.984,1.167.616,1.167.616l.449-.525a.776.776,0,0,0-.535-.86Z" transform="translate(-301.647 -353.088)" fill="#6c63ff"/>
    <path id="Path_2607" data-name="Path 2607" d="M339.749,387.88a1.032,1.032,0,0,0-.4,1.372l.29-.169S340.007,388.231,339.749,387.88Z" transform="translate(-300.084 -351.435)" opacity="0.1"/>
    <path id="Path_2608" data-name="Path 2608" d="M339.524,387.72a1.032,1.032,0,0,0-.4,1.371l.225.132S339.783,388.071,339.524,387.72Z" transform="translate(-299.887 -351.295)" fill="#6c63ff"/>
    <path id="Path_2609" data-name="Path 2609" d="M345.8,395.618a.679.679,0,0,0,.235.344c.181.126-.18.415-.18.415s-.488.555-.951.286c-.274-.465-.068-.529-.068-.529S345.418,395.5,345.8,395.618Z" transform="translate(-304.899 -358.186)" opacity="0.1"/>
    <path id="Path_2610" data-name="Path 2610" d="M345.365,395.838a.67.67,0,0,0,.237.342c.181.126-.18.417-.18.417s-.488.555-.95.284-.068-.529-.068-.529S344.979,395.719,345.365,395.838Z" transform="translate(-304.452 -358.378)" fill="#6c63ff"/>
    <path id="Path_2611" data-name="Path 2611" d="M337.389,401.154s-.569-.205-.709.04c0,0,1.035.378,1.244.922,0,0,.268-.276-.1-.623l-.069-.512Z" transform="translate(-297.838 -362.886)" fill="#00a66c"/>
    <path id="Path_2612" data-name="Path 2612" d="M342.939,394.17s.031-.258-.1-.286a.8.8,0,0,0-.875,1.007c.141.984,1.167.616,1.167.616l.449-.524a.776.776,0,0,0-.534-.861Z" transform="translate(-302.444 -356.678)" fill="#6c63ff"/>
    <path id="Path_2613" data-name="Path 2613" d="M340.674,392a1.029,1.029,0,0,0-.4,1.371l.291-.169S340.93,392.35,340.674,392Z" transform="translate(-300.892 -355.036)" opacity="0.1"/>
    <path id="Path_2614" data-name="Path 2614" d="M340.452,391.83a1.032,1.032,0,0,0-.4,1.371l.225.133S340.714,392.181,340.452,391.83Z" transform="translate(-300.699 -354.887)" fill="#6c63ff"/>
    <path id="Path_2615" data-name="Path 2615" d="M346.741,399.728a.676.676,0,0,0,.237.344c.181.126-.18.415-.18.415s-.488.556-.95.286c-.276-.465-.068-.529-.068-.529S346.355,399.609,346.741,399.728Z" transform="translate(-305.726 -361.778)" opacity="0.1"/>
    <path id="Path_2616" data-name="Path 2616" d="M346.282,399.948a.67.67,0,0,0,.237.342c.181.126-.181.417-.181.417s-.487.555-.949.285-.069-.529-.069-.529S345.9,399.829,346.282,399.948Z" transform="translate(-305.253 -361.97)" fill="#6c63ff"/>
    <path id="Path_2617" data-name="Path 2617" d="M315.369,398.465s-.569-.206-.709.039c0,0,1.035.378,1.244.922,0,0,.267-.274-.1-.623l-.068-.512Z" transform="translate(-278.59 -360.534)" fill="#00a66c"/>
    <path id="Path_2618" data-name="Path 2618" d="M320.917,391.48s.031-.258-.1-.286a.8.8,0,0,0-.875,1.007c.142.983,1.167.616,1.167.616l.449-.524a.776.776,0,0,0-.534-.861Z" transform="translate(-283.195 -354.327)" fill="#6c63ff"/>
    <path id="Path_2619" data-name="Path 2619" d="M318.669,389.31a1.03,1.03,0,0,0-.393,1.371l.291-.169S318.926,389.661,318.669,389.31Z" transform="translate(-281.66 -352.685)" opacity="0.1"/>
    <path id="Path_2620" data-name="Path 2620" d="M318.432,389.15a1.032,1.032,0,0,0-.4,1.371l.225.126S318.7,389.5,318.432,389.15Z" transform="translate(-281.451 -352.545)" fill="#6c63ff"/>
    <path id="Path_2621" data-name="Path 2621" d="M324.721,397.038a.671.671,0,0,0,.237.344c.181.126-.18.417-.18.417s-.488.555-.95.285c-.276-.465-.068-.529-.068-.529S324.335,396.92,324.721,397.038Z" transform="translate(-286.478 -359.427)" opacity="0.1"/>
    <path id="Path_2622" data-name="Path 2622" d="M324.222,397.258a.669.669,0,0,0,.237.342c.18.126-.181.417-.181.417s-.487.555-.951.285-.068-.529-.068-.529S323.844,397.139,324.222,397.258Z" transform="translate(-285.969 -359.619)" fill="#6c63ff"/>
    <path id="Path_2623" data-name="Path 2623" d="M317.839,384.995s-.57-.206-.709.039c0,0,1.035.378,1.244.922,0,0,.267-.274-.1-.623l-.068-.512Z" transform="translate(-280.749 -348.76)" fill="#00a66c"/>
    <path id="Path_2624" data-name="Path 2624" d="M323.353,377.968s.031-.252-.1-.286a.8.8,0,0,0-.881,1.007c.136.983,1.167.616,1.167.616l.449-.524a.777.777,0,0,0-.535-.861Z" transform="translate(-285.319 -342.515)" fill="#6c63ff"/>
    <path id="Path_2625" data-name="Path 2625" d="M321.112,375.84a1.032,1.032,0,0,0-.4,1.371l.291-.169S321.37,376.191,321.112,375.84Z" transform="translate(-283.794 -340.91)" opacity="0.1"/>
    <path id="Path_2626" data-name="Path 2626" d="M320.9,375.68a1.03,1.03,0,0,0-.4,1.371l.224.132S321.157,376.031,320.9,375.68Z" transform="translate(-283.607 -340.771)" fill="#6c63ff"/>
    <path id="Path_2627" data-name="Path 2627" d="M327.191,383.568a.676.676,0,0,0,.237.344c.181.126-.18.417-.18.417s-.488.555-.95.285c-.276-.465-.068-.529-.068-.529S326.8,383.45,327.191,383.568Z" transform="translate(-288.637 -347.653)" opacity="0.1"/>
    <path id="Path_2628" data-name="Path 2628" d="M326.724,383.8a.67.67,0,0,0,.237.342c.181.126-.18.417-.18.417s-.488.555-.95.285-.068-.529-.068-.529S326.339,383.685,326.724,383.8Z" transform="translate(-288.158 -347.854)" fill="#6c63ff"/>
    <path id="Path_2629" data-name="Path 2629" d="M306,406.58s1.56.172,2.407,2.885-1.818.684-1.818.684-.7.141-.812-1.275A5.775,5.775,0,0,1,306,406.58Z" transform="translate(-270.805 -367.781)" fill="#fbbebe"/>
    <rect id="Rectangle_1614" data-name="Rectangle 1614" width="0.582" height="0.172" rx="0.086" transform="translate(34.914 40.991) rotate(-23.92)" fill="#e3e8f4"/>
    <path id="Path_2630" data-name="Path 2630" d="M244.513,320l-.252-.229c-.9-.831-1.5-1.37-1.5-2.042a.955.955,0,0,1,.967-.972,1.027,1.027,0,0,0,1.581,0,.955.955,0,0,1,.966.972c0,.672-.6,1.211-1.5,2.042Z" transform="translate(-215.741 -289.268)" fill="#6c63ff" opacity="0.1"/>
    <path id="Path_2631" data-name="Path 2631" d="M216.594,206.542l-.252-.23c-.905-.83-1.5-1.37-1.5-2.041a.956.956,0,0,1,.967-.972,1.027,1.027,0,0,0,1.581,0,.956.956,0,0,1,.966.972c0,.671-.6,1.211-1.5,2.041Z" transform="translate(-191.335 -190.091)" fill="#6c63ff" opacity="0.1"/>
    <path id="Path_2632" data-name="Path 2632" d="M426.043,260.932l-.252-.23c-.905-.83-1.5-1.37-1.5-2.041a.956.956,0,0,1,.966-.972,1.027,1.027,0,0,0,1.581,0,.955.955,0,0,1,.967.972c0,.671-.6,1.211-1.5,2.041Z" transform="translate(-374.418 -237.634)" fill="#6c63ff" opacity="0.1"/>
    <path id="Path_2633" data-name="Path 2633" d="M843.646,267.944a.66.66,0,0,0-1.074.767c.126.185.258.365.385.536A21.277,21.277,0,0,1,846,276.394a3.376,3.376,0,0,1,.14,1.888,11.779,11.779,0,0,0-.321-4.92,30.439,30.439,0,0,0-1.741-4.645A4.172,4.172,0,0,0,843.646,267.944Z" transform="translate(-739.939 -246.36)" fill="#6c63ff" opacity="0.5"/>
    <path id="Path_2634" data-name="Path 2634" d="M766.066,304.8a.822.822,0,0,0-.137,1.637c.273.021.549.028.811.035a25.205,25.205,0,0,1,9.141,2.5,3.961,3.961,0,0,1,1.888,1.305,13.75,13.75,0,0,0-4.877-3.454,36.047,36.047,0,0,0-5.751-1.858A4.978,4.978,0,0,0,766.066,304.8Z" transform="translate(-672.422 -278.811)" fill="#6c63ff"/>
    <path id="Path_2635" data-name="Path 2635" d="M771.36,335.764c-.66.025-.511.963.154.969.174,0,.347-.006.514-.014a18.771,18.771,0,0,1,6.1,1.089,3.111,3.111,0,0,1,1.371.69,11.007,11.007,0,0,0-3.563-1.829,27.074,27.074,0,0,0-3.877-.852A3.556,3.556,0,0,0,771.36,335.764Z" transform="translate(-677.424 -305.879)" fill="#6c63ff" opacity="0.2"/>
    <path id="Path_2636" data-name="Path 2636" d="M879.708,414.967c.188.629,1.059.252.9-.389-.042-.169-.093-.335-.141-.493a18.758,18.758,0,0,1-.457-6.175,3.112,3.112,0,0,1,.327-1.5,11,11,0,0,0-.888,3.9,27.231,27.231,0,0,0,.136,3.967A3.531,3.531,0,0,0,879.708,414.967Z" transform="translate(-772.254 -367.632)" fill="#6c63ff" opacity="0.5"/>
    <path id="Path_2637" data-name="Path 2637" d="M781.7,262.8c-.4-.069-.428.51-.031.6.1.023.209.04.308.058a11.448,11.448,0,0,1,3.5,1.424,1.906,1.906,0,0,1,.731.587,6.691,6.691,0,0,0-1.9-1.545,16.459,16.459,0,0,0-2.207-1.007A2.086,2.086,0,0,0,781.7,262.8Z" transform="translate(-686.559 -242.096)" fill="#6c63ff" opacity="0.2"/>
    <path id="Path_2638" data-name="Path 2638" d="M731.989,370.974c-1.007.52-.156,1.945.881,1.472.271-.126.536-.262.788-.394,3.083-1.6,6.665-2.187,10.186-2.644a4.985,4.985,0,0,1,2.586.135,17.478,17.478,0,0,0-6.743-.405,44.233,44.233,0,0,0-6.585,1.416A5.9,5.9,0,0,0,731.989,370.974Z" transform="translate(-642.988 -334.922)" fill="#6c63ff"/>
    <path id="Path_2639" data-name="Path 2639" d="M756.383,392.3c-.725.676.407,1.475,1.167.826.2-.17.389-.35.57-.52a30.561,30.561,0,0,1,8.036-4.91,18.73,18.73,0,0,1,4.434-.656,33.2,33.2,0,0,0-8.09,1.668,44.89,44.89,0,0,0-5.277,2.961A5.646,5.646,0,0,0,756.383,392.3Z" transform="translate(-664.501 -350.704)" fill="#6c63ff" opacity="0.5"/>
    <path id="Path_2640" data-name="Path 2640" d="M798.938,413.089c-.211.967,1.173.981,1.43.014.067-.252.126-.5.172-.755a30.547,30.547,0,0,1,3.821-8.6,18.79,18.79,0,0,1,3.273-3.06,33.3,33.3,0,0,0-5.708,5.972,44.661,44.661,0,0,0-2.656,5.428A5.767,5.767,0,0,0,798.938,413.089Z" transform="translate(-701.883 -362.632)" fill="#6c63ff"/>
    <path id="Path_2641" data-name="Path 2641" d="M871.065,225.951c-.494-1.007-1.9-.179-1.457.854.117.271.252.535.378.787,1.521,3.076,2.043,6.633,2.433,10.129a4.987,4.987,0,0,1-.17,2.562,17.567,17.567,0,0,0,.5-6.672,43.892,43.892,0,0,0-1.289-6.546A5.881,5.881,0,0,0,871.065,225.951Z" transform="translate(-763.6 -209.492)" fill="#6c63ff"/>
    <path id="Path_2642" data-name="Path 2642" d="M811.033,236.332a.187.187,0,0,0,.086.025c.054,0,.093-.055.116-.106.126-.267.053-.614.242-.841a2.894,2.894,0,0,1,.461.773l.725-.224a1.075,1.075,0,0,1-.137.83,1.121,1.121,0,0,1,.341.232.377.377,0,0,1,.089.384,1.846,1.846,0,0,1-.512.05,3.349,3.349,0,0,1-.054.952.178.178,0,0,1-.062.126.174.174,0,0,1-.177-.03,1.678,1.678,0,0,1-.6-.629l-.27.633a.278.278,0,0,1-.126.161.191.191,0,0,1-.225-.077.591.591,0,0,1-.081-.244l-.1-.613a.15.15,0,0,0-.033-.087.157.157,0,0,0-.1-.021q-.378-.011-.767-.008c-.044-.136.092-.263.222-.32s.287-.1.352-.228c.133-.258-.213-.618-.066-.842C810.531,235.963,810.811,236.221,811.033,236.332Z" transform="translate(-711.434 -218.159)" fill="#6c63ff"/>
    <path id="Path_2643" data-name="Path 2643" d="M912.125,267.944a.661.661,0,0,1,1.075.767c-.126.185-.252.365-.385.536a21.273,21.273,0,0,0-3.047,7.147,3.374,3.374,0,0,0-.14,1.888,11.777,11.777,0,0,1,.321-4.92,30.439,30.439,0,0,1,1.741-4.645A4.232,4.232,0,0,1,912.125,267.944Z" transform="translate(-798.541 -246.36)" fill="#6c63ff" opacity="0.5"/>
    <path id="Path_2644" data-name="Path 2644" d="M929.033,304.8a.822.822,0,0,1,.137,1.637c-.273.021-.549.028-.811.035a25.205,25.205,0,0,0-9.141,2.5,3.96,3.96,0,0,0-1.888,1.305,13.751,13.751,0,0,1,4.877-3.454,36.011,36.011,0,0,1,5.751-1.858A4.979,4.979,0,0,1,929.033,304.8Z" transform="translate(-805.39 -278.811)" fill="#6c63ff"/>
    <path id="Path_2645" data-name="Path 2645" d="M951.524,335.764c.66.025.511.963-.154.969-.174,0-.347-.006-.514-.014a18.743,18.743,0,0,0-6.1,1.089,3.146,3.146,0,0,0-1.371.69,10.994,10.994,0,0,1,3.563-1.829,27.109,27.109,0,0,1,3.877-.852A3.548,3.548,0,0,1,951.524,335.764Z" transform="translate(-828.169 -305.879)" fill="#6c63ff" opacity="0.5"/>
    <path id="Path_2646" data-name="Path 2646" d="M967.121,262.8c.4-.069.428.51.031.6-.1.023-.209.04-.308.058a11.449,11.449,0,0,0-3.5,1.424,1.906,1.906,0,0,0-.731.587,6.692,6.692,0,0,1,1.9-1.545,16.457,16.457,0,0,1,2.207-1.007A2.079,2.079,0,0,1,967.121,262.8Z" transform="translate(-844.969 -242.096)" fill="#6c63ff" opacity="0.2"/>
    <path id="Path_2647" data-name="Path 2647" d="M911.211,447.917c-.089.393-.636.2-.564-.2.019-.1.043-.208.065-.306a11.4,11.4,0,0,0,.036-3.777,1.908,1.908,0,0,0-.259-.9,6.706,6.706,0,0,1,.694,2.342,16.588,16.588,0,0,1,.073,2.422A2.179,2.179,0,0,1,911.211,447.917Z" transform="translate(-799.411 -399.38)" fill="#6c63ff" opacity="0.2"/>
    <path id="Path_2648" data-name="Path 2648" d="M954.365,420.038c.311.526-.452.491-.787-.037-.088-.137-.169-.276-.245-.408a28.8,28.8,0,0,0-3.835-4.737,5.289,5.289,0,0,0-1.188-1.026,18.689,18.689,0,0,1,3.116,2.665c.93.973,1.752,1.987,2.557,3A4.918,4.918,0,0,1,954.365,420.038Z" transform="translate(-832.47 -374.118)" fill="#6c63ff" opacity="0.5"/>
    <path id="Path_2649" data-name="Path 2649" d="M776.493,420.038c-.311.526.452.491.788-.037.087-.137.167-.276.245-.408a28.355,28.355,0,0,1,3.835-4.737,5.291,5.291,0,0,1,1.188-1.026,18.685,18.685,0,0,0-3.12,2.665c-.93.973-1.752,1.987-2.557,3A4.942,4.942,0,0,0,776.493,420.038Z" transform="translate(-682.219 -374.118)" fill="#6c63ff" opacity="0.2"/>
    <path id="Path_2650" data-name="Path 2650" d="M856.79,447.917c.089.393.629.2.564-.2-.019-.1-.043-.208-.065-.306a11.4,11.4,0,0,1-.037-3.777,1.908,1.908,0,0,1,.259-.9,6.7,6.7,0,0,0-.695,2.345,16.571,16.571,0,0,0-.073,2.422,2.176,2.176,0,0,0,.047.419Z" transform="translate(-752.417 -399.38)" fill="#6c63ff" opacity="0.2"/>
    <path id="Path_2651" data-name="Path 2651" d="M941.841,294.19c.4-.069.427.511.03.6-.1.024-.208.04-.307.058a11.465,11.465,0,0,0-3.5,1.424,1.914,1.914,0,0,0-.73.587,6.725,6.725,0,0,1,1.888-1.545,16.789,16.789,0,0,1,2.208-1.007,2.267,2.267,0,0,1,.414-.115Z" transform="translate(-822.872 -269.535)" fill="#6c63ff" opacity="0.2"/>
    <path id="Path_2652" data-name="Path 2652" d="M921.528,232.255c.344-.213.588.313.252.543-.088.06-.179.116-.264.169a11.483,11.483,0,0,0-2.717,2.63,1.881,1.881,0,0,0-.458.817,6.7,6.7,0,0,1,1.18-2.14,16.715,16.715,0,0,1,1.673-1.755A2.233,2.233,0,0,1,921.528,232.255Z" transform="translate(-806.273 -215.358)" fill="#6c63ff" opacity="0.2"/>
    <path id="Path_2653" data-name="Path 2653" d="M946.931,370.974c1.007.52.156,1.945-.881,1.472-.272-.126-.536-.262-.789-.394-3.082-1.6-6.663-2.187-10.186-2.644a4.982,4.982,0,0,0-2.585.135,17.478,17.478,0,0,1,6.743-.405,44.235,44.235,0,0,1,6.585,1.416A5.9,5.9,0,0,1,946.931,370.974Z" transform="translate(-818.641 -334.922)" fill="#6c63ff"/>
    <path id="Path_2654" data-name="Path 2654" d="M925.658,392.3c.725.676-.406,1.475-1.167.826-.2-.17-.389-.35-.57-.52a30.561,30.561,0,0,0-8.036-4.91,18.731,18.731,0,0,0-4.435-.656,33.2,33.2,0,0,1,8.091,1.668,44.766,44.766,0,0,1,5.276,2.961A5.594,5.594,0,0,1,925.658,392.3Z" transform="translate(-800.25 -350.704)" fill="#6c63ff" opacity="0.5"/>
    <path id="Path_2655" data-name="Path 2655" d="M907.318,414.986c.089.987-1.288.827-1.421-.164-.034-.259-.055-.519-.077-.767a30.544,30.544,0,0,0-2.713-9.019,18.609,18.609,0,0,0-2.867-3.447,33.046,33.046,0,0,1,4.91,6.639,45.778,45.778,0,0,1,1.958,5.726A5.709,5.709,0,0,1,907.318,414.986Z" transform="translate(-790.451 -363.419)" fill="#6c63ff"/>
    <path id="Path_2656" data-name="Path 2656" d="M949.519,236.332a.187.187,0,0,1-.086.025c-.054,0-.093-.055-.116-.106-.126-.267-.053-.614-.242-.841a2.9,2.9,0,0,0-.461.773l-.725-.224a1.075,1.075,0,0,0,.137.83,1.121,1.121,0,0,0-.341.232.378.378,0,0,0-.089.384,1.846,1.846,0,0,0,.512.05,3.351,3.351,0,0,0,.054.952.178.178,0,0,0,.062.126.174.174,0,0,0,.177-.03,1.679,1.679,0,0,0,.6-.629l.269.633a.278.278,0,0,0,.126.161.191.191,0,0,0,.225-.077.569.569,0,0,0,.079-.244l.1-.613a.161.161,0,0,1,.034-.087.158.158,0,0,1,.107-.03q.378-.011.767-.008c.044-.136-.092-.263-.222-.32s-.287-.1-.352-.228c-.133-.258.211-.618.065-.842C950.023,235.963,949.744,236.221,949.519,236.332Z" transform="translate(-831.829 -218.159)" fill="#6c63ff"/>
    <path id="Path_2657" data-name="Path 2657" d="M966.91,473.34a.162.162,0,0,1-.086.025c-.054,0-.093-.054-.116-.1-.126-.268-.053-.616-.242-.841a2.868,2.868,0,0,0-.461.772l-.725-.224a1.079,1.079,0,0,0,.137.831,1.1,1.1,0,0,0-.341.232.378.378,0,0,0-.089.378,1.849,1.849,0,0,0,.512.052,3.356,3.356,0,0,0,.054.952.135.135,0,0,0,.239.092,1.68,1.68,0,0,0,.6-.629l.269.643a.283.283,0,0,0,.126.161.193.193,0,0,0,.225-.078.566.566,0,0,0,.079-.244l.1-.613a.156.156,0,0,1,.034-.086.153.153,0,0,1,.107-.031q.378-.009.767-.008c.044-.136-.092-.262-.222-.32s-.287-.1-.353-.227c-.133-.259.212-.619.065-.842C967.412,472.971,967.133,473.23,966.91,473.34Z" transform="translate(-847.032 -425.332)" fill="#6c63ff" opacity="0.2"/>
    <path id="Path_2658" data-name="Path 2658" d="M1015.669,314.472a.192.192,0,0,1-.086.025c-.055,0-.093-.055-.116-.106-.126-.268-.053-.616-.243-.841a2.9,2.9,0,0,0-.461.773l-.724-.225a1.078,1.078,0,0,0,.137.831,1.105,1.105,0,0,0-.341.232.378.378,0,0,0-.089.384,1.846,1.846,0,0,0,.512.05,3.352,3.352,0,0,0,.054.952.171.171,0,0,0,.062.126c.053.034.126,0,.177-.029a1.68,1.68,0,0,0,.6-.629l.269.643a.286.286,0,0,0,.12.161.194.194,0,0,0,.227-.078.56.56,0,0,0,.079-.244l.1-.612a.151.151,0,0,1,.034-.087.156.156,0,0,1,.107-.031q.378-.009.767-.008c.044-.136-.092-.262-.223-.318s-.286-.1-.351-.228c-.133-.259.212-.619.065-.842C1016.171,314.1,1015.892,314.362,1015.669,314.472Z" transform="translate(-889.651 -286.462)" fill="#6c63ff"/>
    <path id="Path_2659" data-name="Path 2659" d="M815.393,494.593a.239.239,0,0,1-.118.035c-.077,0-.126-.077-.162-.146-.171-.378-.073-.857-.337-1.172a4.042,4.042,0,0,0-.642,1.076l-1.007-.312a1.5,1.5,0,0,0,.191,1.156,1.54,1.54,0,0,0-.476.323.525.525,0,0,0-.126.535,2.562,2.562,0,0,0,.713.07,4.74,4.74,0,0,0,.076,1.327.252.252,0,0,0,.087.169c.074.047.171,0,.252-.042a2.352,2.352,0,0,0,.831-.881l.378.9a.391.391,0,0,0,.167.224.271.271,0,0,0,.315-.108.781.781,0,0,0,.111-.34l.141-.854a.2.2,0,0,1,.047-.126.21.21,0,0,1,.148-.043q.535-.015,1.069-.011c.062-.189-.126-.365-.31-.444s-.4-.141-.49-.317c-.186-.361.295-.862.091-1.173C816.093,494.079,815.7,494.439,815.393,494.593Z" transform="translate(-713.921 -443.592)" fill="#6c63ff"/>
    <path id="Path_2660" data-name="Path 2660" d="M734.241,316.694a.244.244,0,0,1-.12.035c-.076,0-.126-.077-.161-.147-.173-.378-.073-.857-.337-1.172a4.036,4.036,0,0,0-.647,1.081l-1.007-.312a1.5,1.5,0,0,0,.19,1.157,1.547,1.547,0,0,0-.475.324.526.526,0,0,0-.126.534,2.619,2.619,0,0,0,.714.072,4.685,4.685,0,0,0,.076,1.326.243.243,0,0,0,.087.169c.074.048.171,0,.245-.04a2.338,2.338,0,0,0,.831-.881l.378.9a.4.4,0,0,0,.166.225.271.271,0,0,0,.315-.11.787.787,0,0,0,.112-.34l.14-.854a.227.227,0,0,1,.047-.126.214.214,0,0,1,.15-.043q.535-.015,1.069-.01c.06-.19-.126-.366-.311-.446s-.4-.14-.49-.317c-.185-.36.3-.862.091-1.173C734.941,316.179,734.552,316.539,734.241,316.694Z" transform="translate(-642.982 -288.088)" fill="#6c63ff"/>
    <path id="Path_2661" data-name="Path 2661" d="M989.232,431.041a.126.126,0,0,1-.064.019c-.04,0-.068-.04-.086-.078-.091-.2-.039-.454-.179-.622a2.158,2.158,0,0,0-.341.572l-.536-.166a.8.8,0,0,0,.1.614.829.829,0,0,0-.252.172.277.277,0,0,0-.065.283,1.363,1.363,0,0,0,.378.038,2.551,2.551,0,0,0,.04.7.135.135,0,0,0,.047.089c.039.025.091,0,.126-.021a1.239,1.239,0,0,0,.441-.468l.2.476a.205.205,0,0,0,.088.12.144.144,0,0,0,.167-.058.406.406,0,0,0,.059-.18l.074-.454a.112.112,0,0,1,.025-.063.11.11,0,0,1,.079-.023c.189-.006.378-.008.568-.006.033-.1-.068-.194-.165-.237s-.212-.074-.261-.167c-.1-.193.157-.458.049-.629C989.6,430.768,989.4,430.959,989.232,431.041Z" transform="translate(-866.983 -388.567)" fill="#6c63ff" opacity="0.2"/>
    <path id="Path_2662" data-name="Path 2662" d="M879.032,494.662a.126.126,0,0,1-.063.019c-.042,0-.069-.042-.087-.078-.091-.2-.038-.456-.179-.623a2.157,2.157,0,0,0-.341.572l-.536-.166a.8.8,0,0,0,.1.616.817.817,0,0,0-.252.171.278.278,0,0,0-.065.283,1.371,1.371,0,0,0,.378.038,2.5,2.5,0,0,0,.04.7.126.126,0,0,0,.045.089c.039.025.091,0,.126-.021a1.245,1.245,0,0,0,.442-.468l.2.477a.208.208,0,0,0,.089.118.141.141,0,0,0,.166-.057.417.417,0,0,0,.059-.181l.076-.453a.115.115,0,0,1,.024-.064.11.11,0,0,1,.079-.023c.189,0,.378-.008.568-.006.033-.1-.068-.194-.165-.237s-.212-.074-.259-.167c-.1-.193.156-.458.048-.623C879.409,494.389,879.2,494.579,879.032,494.662Z" transform="translate(-770.658 -444.178)" fill="#6c63ff" opacity="0.2"/>
    <path id="Path_2663" data-name="Path 2663" d="M772.394,271.972a.126.126,0,0,1-.063.019c-.04,0-.069-.042-.086-.078-.092-.2-.039-.456-.18-.623a2.162,2.162,0,0,0-.341.573l-.536-.166a.8.8,0,0,0,.1.614.817.817,0,0,0-.252.171.283.283,0,0,0-.065.285,1.369,1.369,0,0,0,.378.038,2.491,2.491,0,0,0,.04.7.1.1,0,0,0,.171.068,1.249,1.249,0,0,0,.442-.467l.2.476a.212.212,0,0,0,.089.126.145.145,0,0,0,.167-.058.44.44,0,0,0,.059-.181l.082-.456a.116.116,0,0,1,.025-.064.118.118,0,0,1,.079-.023h.567c.033-.1-.068-.194-.164-.237s-.213-.074-.261-.169c-.1-.191.156-.458.048-.623C772.766,271.7,772.56,271.89,772.394,271.972Z" transform="translate(-677.445 -249.522)" fill="#6c63ff" opacity="0.5"/>
    <path id="Path_2664" data-name="Path 2664" d="M829.154,397.419a.126.126,0,0,1-.063.019c-.04,0-.069-.042-.086-.078-.092-.2-.039-.456-.18-.629a2.112,2.112,0,0,0-.34.573l-.538-.161a.8.8,0,0,0,.1.614.833.833,0,0,0-.252.171.283.283,0,0,0-.065.285,1.368,1.368,0,0,0,.378.038,2.489,2.489,0,0,0,.04.7.1.1,0,0,0,.176.068,1.25,1.25,0,0,0,.442-.467l.2.476a.222.222,0,0,0,.089.12.145.145,0,0,0,.167-.058.407.407,0,0,0,.059-.181l.074-.453a.085.085,0,0,1,.1-.087c.189,0,.378-.008.568,0,.031-.1-.068-.194-.165-.237s-.211-.074-.261-.169c-.1-.191.156-.458.048-.623C829.527,397.142,829.32,397.337,829.154,397.419Z" transform="translate(-727.06 -359.171)" fill="#6c63ff" opacity="0.5"/>
    <path id="Path_2665" data-name="Path 2665" d="M787.952,348.542a.126.126,0,0,1-.063.019c-.042,0-.069-.042-.087-.078-.091-.2-.038-.456-.179-.623a2.138,2.138,0,0,0-.341.573l-.536-.166a.8.8,0,0,0,.1.614.826.826,0,0,0-.252.171.279.279,0,0,0-.065.285,1.37,1.37,0,0,0,.378.038,2.489,2.489,0,0,0,.04.7.1.1,0,0,0,.176.068,1.237,1.237,0,0,0,.441-.467l.2.476a.217.217,0,0,0,.089.126.144.144,0,0,0,.166-.058.407.407,0,0,0,.059-.181l.076-.453a.115.115,0,0,1,.024-.064.116.116,0,0,1,.079-.023c.189,0,.378-.008.568,0,.033-.1-.068-.194-.165-.237s-.211-.074-.259-.169c-.1-.191.156-.458.048-.623C788.323,348.269,788.117,348.46,787.952,348.542Z" transform="translate(-691.043 -316.453)" fill="#6c63ff" opacity="0.5"/>
    <path id="Path_2666" data-name="Path 2666" d="M964.9,360.062a.125.125,0,0,1-.063.019c-.04,0-.068-.042-.086-.078-.092-.2-.039-.456-.179-.623a2.11,2.11,0,0,0-.341.573l-.536-.166a.8.8,0,0,0,.1.614.832.832,0,0,0-.252.171.285.285,0,0,0-.065.285,1.426,1.426,0,0,0,.378.038,2.5,2.5,0,0,0,.04.7.1.1,0,0,0,.177.068,1.245,1.245,0,0,0,.441-.467l.2.476a.214.214,0,0,0,.088.12.145.145,0,0,0,.167-.058.412.412,0,0,0,.059-.181l.074-.453a.117.117,0,0,1,.025-.064.115.115,0,0,1,.079-.023c.189,0,.378-.008.568-.006.031-.1-.068-.194-.165-.235s-.211-.074-.261-.169c-.1-.191.157-.458.048-.623C965.268,359.789,965.062,359.98,964.9,360.062Z" transform="translate(-845.713 -326.523)" fill="#6c63ff" opacity="0.5"/>
    <path id="Path_2667" data-name="Path 2667" d="M879.039,350.441a.126.126,0,0,1-.063.019c-.042,0-.069-.04-.087-.078-.091-.2-.038-.454-.179-.622a2.161,2.161,0,0,0-.341.572l-.535-.164a.793.793,0,0,0,.1.614.821.821,0,0,0-.252.172.277.277,0,0,0-.065.283,1.37,1.37,0,0,0,.378.038,2.5,2.5,0,0,0,.04.7.126.126,0,0,0,.045.089c.039.025.091,0,.126-.021a1.259,1.259,0,0,0,.453-.471l.2.476a.212.212,0,0,0,.089.12.142.142,0,0,0,.166-.058.407.407,0,0,0,.049-.185l.076-.454a.111.111,0,0,1,.024-.063.117.117,0,0,1,.079-.024c.189,0,.378-.006.568,0,.033-.1-.068-.194-.165-.237s-.211-.074-.259-.167c-.1-.193.156-.458.048-.629C879.417,350.168,879.205,350.359,879.039,350.441Z" transform="translate(-770.665 -318.114)" fill="#6c63ff" opacity="0.2"/>
    <path id="Path_2668" data-name="Path 2668" d="M852.089,362.161a.126.126,0,0,1-.064.019c-.04,0-.068-.04-.086-.078-.091-.2-.039-.454-.179-.622a2.157,2.157,0,0,0-.341.572l-.536-.166a.8.8,0,0,0,.1.614.831.831,0,0,0-.252.172.281.281,0,0,0-.067.283,1.373,1.373,0,0,0,.378.038,2.546,2.546,0,0,0,.04.7.135.135,0,0,0,.047.089c.039.025.091,0,.126-.021a1.24,1.24,0,0,0,.441-.468l.2.476a.205.205,0,0,0,.088.12.142.142,0,0,0,.167-.058.407.407,0,0,0,.059-.18l.074-.453a.112.112,0,0,1,.025-.064.109.109,0,0,1,.079-.023c.189-.006.378-.008.568-.006.033-.1-.068-.194-.165-.237s-.211-.074-.261-.167c-.1-.193.157-.458.049-.629C852.458,361.888,852.254,362.079,852.089,362.161Z" transform="translate(-747.105 -328.358)" fill="#6c63ff" opacity="0.3"/>
    <path id="Path_2669" data-name="Path 2669" d="M827.028,291.271a.126.126,0,0,1-.063.019c-.04,0-.068-.04-.086-.078-.092-.2-.039-.456-.179-.622a2.126,2.126,0,0,0-.341.572l-.536-.166a.8.8,0,0,0,.1.614.812.812,0,0,0-.252.171.283.283,0,0,0-.067.284,1.375,1.375,0,0,0,.378.038,2.489,2.489,0,0,0,.04.7.138.138,0,0,0,.047.091c.039.025.091,0,.126-.023a1.236,1.236,0,0,0,.441-.467l.2.476a.211.211,0,0,0,.088.126.144.144,0,0,0,.167-.058.407.407,0,0,0,.059-.18l.074-.454a.117.117,0,0,1,.025-.064.126.126,0,0,1,.079-.023h.568c.031-.1-.068-.194-.165-.237s-.211-.074-.261-.169c-.1-.191.157-.458.048-.623C827.394,290.993,827.188,291.184,827.028,291.271Z" transform="translate(-725.2 -266.393)" fill="#6c63ff" opacity="0.2"/>
    <path id="Path_2670" data-name="Path 2670" d="M876.454,383.791a.126.126,0,0,1-.063.019.113.113,0,0,1-.086-.078c-.092-.2-.039-.456-.18-.622a2.155,2.155,0,0,0-.341.572l-.536-.166a.8.8,0,0,0,.1.614.841.841,0,0,0-.252.171.283.283,0,0,0-.065.285,1.37,1.37,0,0,0,.378.038,2.489,2.489,0,0,0,.04.7.1.1,0,0,0,.171.069,1.259,1.259,0,0,0,.442-.468l.2.476a.212.212,0,0,0,.089.12.144.144,0,0,0,.167-.058.44.44,0,0,0,.059-.18l.074-.454a.086.086,0,0,1,.1-.087h.567c.033-.1-.068-.194-.164-.237s-.213-.074-.261-.169c-.1-.191.156-.458.048-.623C876.826,383.518,876.62,383.709,876.454,383.791Z" transform="translate(-768.405 -347.265)" fill="#6c63ff" opacity="0.3"/>
  </g>
</svg>
