<svg xmlns="http://www.w3.org/2000/svg" xmlns:xlink="http://www.w3.org/1999/xlink" width="138.799" height="168.714" viewBox="0 0 138.799 168.714"><defs><linearGradient id="a" x1="0.932" y1="0.523" x2="-0.067" y2="0.473" gradientUnits="objectBoundingBox"><stop offset="0" stop-color="#fff"/><stop offset="0.473" stop-color="#fff"/><stop offset="1" stop-color="#4895F1"/></linearGradient><filter id="b" x="0" y="0" width="138.799" height="109.564" filterUnits="userSpaceOnUse"><feOffset dy="3" input="SourceAlpha"/><feGaussianBlur stdDeviation="3" result="c"/><feFlood flood-color="#0039aa" flood-opacity="0.502"/><feComposite operator="in" in2="c"/><feComposite in="SourceGraphic"/></filter><linearGradient id="d" y1="0.5" x2="1" y2="0.5" gradientUnits="objectBoundingBox"><stop offset="0" stop-color="#fff"/><stop offset="1" stop-color="#d5e8ff"/></linearGradient><filter id="e" x="6.039" y="15.272" width="117.045" height="78.614" filterUnits="userSpaceOnUse"><feOffset dy="3" input="SourceAlpha"/><feGaussianBlur stdDeviation="3" result="f"/><feFlood flood-color="#0039aa" flood-opacity="0.502"/><feComposite operator="in" in2="f"/><feComposite in="SourceGraphic"/></filter><linearGradient id="g" y1="0.5" x2="1" y2="0.5" gradientUnits="objectBoundingBox"><stop offset="0" stop-color="#fff"/><stop offset="1" stop-color="#d5e8ff"/><stop offset="1" stop-color="#78b2f7"/></linearGradient></defs><g transform="translate(-557 526.272)"><path d="M-50.83-23.8q6.018,0,9.52,3.2a11.2,11.2,0,0,1,3.5,8.7,11.2,11.2,0,0,1-3.5,8.7Q-44.812,0-50.83,0H-63.172V-.34h.442a2.063,2.063,0,0,0,1.513-.629,2.189,2.189,0,0,0,.663-1.513v-19.04a1.738,1.738,0,0,0-.663-1.377,2.277,2.277,0,0,0-1.513-.561h-.442v-.34Zm-.442,22.338A7.159,7.159,0,0,0-47.039-2.72,7.894,7.894,0,0,0-44.3-6.341a13.658,13.658,0,0,0,.952-5.151,17.386,17.386,0,0,0-.561-4.743,10.123,10.123,0,0,0-1.581-3.315,6.822,6.822,0,0,0-5.78-2.822h-4.182v20.91Zm38.012-18.6h-.476a1.583,1.583,0,0,0-1.088.391,1.388,1.388,0,0,0-.476,1V-7.412a7.491,7.491,0,0,1-2.244,5.763Q-19.788.442-24.225.442a10.531,10.531,0,0,1-6.9-2.04,7.042,7.042,0,0,1-2.465-5.746V-18.632a1.308,1.308,0,0,0-.459-1.02,1.606,1.606,0,0,0-1.1-.408h-.476v-.34h8.942v.34h-.476a1.544,1.544,0,0,0-1.088.408,1.33,1.33,0,0,0-.442,1.02v11.05a7.526,7.526,0,0,0,1.445,4.9A4.953,4.953,0,0,0-23.188-.918a5.3,5.3,0,0,0,4.131-1.666,6.627,6.627,0,0,0,1.513-4.624V-18.632a1.423,1.423,0,0,0-.476-1.037,1.583,1.583,0,0,0-1.088-.391h-.442v-.34h6.29Zm10.268,1.054H-4.08V-2.142A1.657,1.657,0,0,0-3.519-.833,1.878,1.878,0,0,0-2.244-.34h.374V0h-9.35V-.34h.408A1.766,1.766,0,0,0-9.537-.85,1.681,1.681,0,0,0-9.01-2.108V-18.292a1.681,1.681,0,0,0-.527-1.258,1.726,1.726,0,0,0-1.241-.51h-.442v-.34H-.782a10.18,10.18,0,0,1,5.134,1.19,4.656,4.656,0,0,1,2.312,4.386,5.761,5.761,0,0,1-1.19,3.553A5.123,5.123,0,0,1,1.938-9.35,5,5,0,0,1,3.757-8.194,8.625,8.625,0,0,1,5.2-6.46,34.239,34.239,0,0,0,7.48-2.907,9,9,0,0,0,9.4-.816a3.2,3.2,0,0,0,1.785.476V0H8.33A10.919,10.919,0,0,1,3.995-.68a6.408,6.408,0,0,1-2.7-2.584A18.3,18.3,0,0,1-.986-7.888a4.091,4.091,0,0,0-.969-1.53A2.055,2.055,0,0,0-3.026-10v-.272h.85q2.89-.034,3.536-3.4a3.5,3.5,0,0,0,.136-.884q0-.374-.034-1.037a4.081,4.081,0,0,0-.425-1.5,2.7,2.7,0,0,0-1-1.207,4.372,4.372,0,0,0-2.176-.68Q-2.516-19.006-2.992-19.006ZM10.88-.34h.408a2,2,0,0,0,1.394-.527,1.663,1.663,0,0,0,.578-1.275V-18.258a1.663,1.663,0,0,0-.578-1.275,2,2,0,0,0-1.394-.527H10.88v-.34h9.656v.34h-.408a1.989,1.989,0,0,0-1.36.51,1.723,1.723,0,0,0-.612,1.258v16.15A1.757,1.757,0,0,0,18.768-.85a1.989,1.989,0,0,0,1.36.51h.408V0H10.88Zm30.5-15.232v-.306a3.2,3.2,0,0,0-.816-2.312,3.116,3.116,0,0,0-2.278-.884H34.34V-2.108A1.773,1.773,0,0,0,34.918-.85a1.825,1.825,0,0,0,1.292.51h.374V0H27.2V-.34h.34a1.867,1.867,0,0,0,1.326-.51,1.7,1.7,0,0,0,.544-1.292V-19.074H25.5a3.16,3.16,0,0,0-2.312.884,3.2,3.2,0,0,0-.816,2.312v.306h-.34v-5.372a9.547,9.547,0,0,0,1.581.34,13.207,13.207,0,0,0,1.989.17H38.148a11.377,11.377,0,0,0,2.465-.221,8.983,8.983,0,0,0,1.1-.289v5.372ZM65.79-20.06h-.442a3.238,3.238,0,0,0-1.683.476,4.269,4.269,0,0,0-1.309,1.19L56.3-9.078v6.936a1.833,1.833,0,0,0,.578,1.275,1.877,1.877,0,0,0,1.36.527h.374V0H49.1V-.34H49.5A1.834,1.834,0,0,0,50.83-.867a1.833,1.833,0,0,0,.578-1.275V-9.078L45.39-18.394A3.622,3.622,0,0,0,44.115-19.6,3.39,3.39,0,0,0,42.4-20.06H41.99v-.34H52.326v.34h-.374a1.049,1.049,0,0,0-.935.425,1.365,1.365,0,0,0-.289.714,1.043,1.043,0,0,0,.136.527l4.522,7.82,4.59-7.82a1.324,1.324,0,0,0,.1-.527,1.365,1.365,0,0,0-.289-.714,1.049,1.049,0,0,0-.935-.425h-.34v-.34H65.79Z" transform="translate(625.172 -358)" fill="#fff"/><g transform="translate(-34.015 -358)"><g transform="matrix(1, 0, 0, 1, 591.02, -168.27)" filter="url(#b)"><path d="M120.789,45.779a45.781,45.781,0,0,1-41.8,45.613c-1.309.115-2.641.172-3.988.172H39.13l-9.415-9.429V24.79a9.422,9.422,0,0,1,9.422,9.422V82.135H74.761a36.357,36.357,0,1,0,0-72.713H0A9.422,9.422,0,0,1,9.422,0H75.011q2,0,4,.173A45.779,45.779,0,0,1,120.8,45.785Z" transform="translate(9 6)" fill="url(#a)"/></g><path d="M118.133,41.188A40.951,40.951,0,0,1,77.181,82.139c-.41,0-.819,0-1.222-.02q1.532-.05,3.033-.223A36.357,36.357,0,0,0,74.768,9.422H0A9.422,9.422,0,0,1,9.422,0H75.011q2,0,4,.173c.929.077,1.851.186,2.76.333a45.539,45.539,0,0,1,21.075,8.926Q104.376,10.6,105.8,11.9h0a40.815,40.815,0,0,1,12.335,29.288Z" transform="translate(600.015 -162.272)" fill="url(#d)"/><path d="M143.14,74.487h-5.75a.826.826,0,0,1,.439-.127H142.7A.826.826,0,0,1,143.14,74.487Z" transform="translate(508.367 -211.875)" fill="#fff"/><g transform="matrix(1, 0, 0, 1, 591.02, -168.27)" filter="url(#e)"><path d="M117.185,76.8a30.606,30.606,0,0,1-8.243,20.9,30.167,30.167,0,0,1-18.269,9.42H66.865a9.629,9.629,0,0,1-9.349-9.5h-.07V73.634h-.566a.836.836,0,0,1-.836-.836v-1a.836.836,0,0,1,.836-.829h.566V56.611a.836.836,0,0,1,.4-.709h5.75a.836.836,0,0,1,.4.709v4h5.993a.836.836,0,0,1,.836.836v.892a.836.836,0,0,1-.836.836H68.12v2.584h1.861a.836.836,0,0,1,.836.839v.889a.836.836,0,0,1-.836.839H63.989v2.663h.566a.836.836,0,0,1,.836.836v1a.836.836,0,0,1-.836.836h-.566V97.626l2.95.08H87.231a20.893,20.893,0,1,0,0-41.787l-23.639,0a.826.826,0,0,0-.439-.127H58.282a.826.826,0,0,0-.439.127H18.14A9.419,9.419,0,0,1,27.562,46.5H90.674a30.167,30.167,0,0,1,18.268,9.422A30.6,30.6,0,0,1,117.185,76.8Z" transform="translate(-3.1 -25.23)" fill="#fff"/></g><path d="M143.14,74.487h-5.75a.826.826,0,0,1,.439-.127H142.7A.826.826,0,0,1,143.14,74.487Z" transform="translate(508.367 -211.875)" fill="#fff"/><path d="M115.494,72.785a25.616,25.616,0,0,1-31.672,24.88h3.409a20.893,20.893,0,1,0,0-41.787l-69.091,0a9.419,9.419,0,0,1,9.422-9.422H90.674a29.651,29.651,0,0,1,9.545,2.9,30.454,30.454,0,0,1,8.723,6.522,31,31,0,0,1,2.307,2.79,25.46,25.46,0,0,1,4.245,14.113Z" transform="translate(587.915 -193.46)" fill="url(#g)"/><path d="M98.672,83.882v57.345h0l-9.422-9.422V74.46A9.422,9.422,0,0,1,98.672,83.882Z" transform="translate(540.48 -211.942)" fill="#fff"/></g></g></svg>