<svg xmlns="http://www.w3.org/2000/svg" xmlns:xlink="http://www.w3.org/1999/xlink" width="75.195" height="62.449" viewBox="0 0 75.195 62.449"><defs><linearGradient id="a" x1="0.5" y1="1" x2="0.5" gradientUnits="objectBoundingBox"><stop offset="0" stop-color="gray" stop-opacity="0.251"/><stop offset="0.54" stop-color="gray" stop-opacity="0.122"/><stop offset="1" stop-color="gray" stop-opacity="0.102"/></linearGradient></defs><g transform="translate(-39.58 -177)"><path d="M262.359,100.522c-4.821-.167-9.412-1.723-13.794-3.423s-8.729-3.587-13.434-4.494c-3.027-.58-6.487-.662-8.926.96-2.346,1.562-3.105,4.257-3.512,6.758a9.431,9.431,0,0,0,.353,5.623,41.272,41.272,0,0,0,2.335,3.423c2.493,4.076.731,9.1-1.97,13.082a49.169,49.169,0,0,0-3.714,5.638,7.615,7.615,0,0,0-.575,6.292c.848,2.014,2.869,3.518,5.057,4.58,4.446,2.156,9.685,2.773,14.794,3.121,11.309.773,22.677.439,34.016.1a100.038,100.038,0,0,0,12.538-.9c2.293-.36,4.66-.932,6.324-2.316a5.294,5.294,0,0,0,1.22-6.918c-2.375-3.686-8.94-4.6-10.6-8.558-.913-2.178.025-4.6,1.352-6.622,2.848-4.329,7.622-8.133,7.874-13.089.173-3.4-2.122-6.806-5.671-8.416-3.719-1.686-8.877-1.474-11.621,1.318C271.58,99.565,266.614,100.671,262.359,100.522Z" transform="translate(-179.09 84.773)" fill="#78b2f7" opacity="0.18"/><ellipse cx="27.56" cy="4.14" rx="27.56" ry="4.14" transform="translate(49.09 231.168)" fill="#78b2f7" opacity="0.18"/><path d="M365.5,63.278a4.816,4.816,0,0,1-.537-1.606c.084-.368-.436-1.154-.436-1.154l.034-1.3s-.072.133-.446.25c-.032-.042-.066-.083-.1-.123a2.665,2.665,0,0,0-.45-.379l-.659-1.439-.638-.988s-1.005-2.067-2.044-2.523l-.164-.323a.025.025,0,0,0,.01-.033l-.166-.329a.026.026,0,0,0-.032-.012L359.708,53a2.545,2.545,0,0,0-.461-1.126c-.017-.023-.034-.045-.051-.067l.258-.009a.858.858,0,0,0,.632-.2.587.587,0,0,0,.118-.22.946.946,0,0,0,.038-.2v-.192a.544.544,0,0,0-.011-.067.046.046,0,0,0-.005-.026.768.768,0,0,0-.02-.077.116.116,0,0,1,0-.015c-.009-.027-.019-.053-.03-.079l0-.011c-.012-.026-.025-.051-.039-.076l0-.008h0a.267.267,0,0,0-.017-.03,1.866,1.866,0,0,0-.791-.6,9.112,9.112,0,0,0-.857-.4,4.566,4.566,0,0,0-3.362.048,1.327,1.327,0,0,0-.3.161,1.559,1.559,0,0,0-.326.388l-.511.764a1.08,1.08,0,0,0-.165.308c-.1.363.2.726.171,1.1-.017.186-.116.357-.135.543a1.3,1.3,0,0,0,.193.688l.731,1.467c-.039.193-.082.39-.129.581h0a1.967,1.967,0,0,0-.481.648l-.01.005h0a.6.6,0,0,0-.169.167l-.695.683s-1.208.317-1.459.719c0,0-1.9-.084-1.879,2.593,0,0-.084,1-.132,1.138s0,1.489,0,1.489l-.022,2.745a17.233,17.233,0,0,0,0,1.974c.073.519.156,2.493.156,2.493a9.241,9.241,0,0,1,.285,2.611c-.161.657,0,2.093.264,2.1.05.1.107.156.17.127a.715.715,0,0,1,.084-.031v1.64s-.326,2.3.04,2.734a8.968,8.968,0,0,0-.6,1.1l-2.565-.139-.326.093h0l-.3.085-.181,4.219.073.005-.005.129.171.013-.239,4.249,3.55.3a3.228,3.228,0,0,1-.408.77c-.132.067-.419-.133-.487-.051a.542.542,0,0,1-.5.133c-.235-.051-.386.217-.386.217s.034.031.086.087a2.238,2.238,0,0,0-1.125.293c-.117.06-.191.1-.191.1h-.692l.38,2.455.268.185.066,1.934s1.073,3.347,1.565,3.325a.221.221,0,0,0,.165-.084c.264-.308.081-1.366.081-1.366V95.775s.4-.179.357-.313a11.827,11.827,0,0,1,.711-1.734.011.011,0,0,0,.005-.011c0-.151.3-.318.285-.385s.738-.485.791-.854.553-.167.553-.167l.637-.74a9.063,9.063,0,0,0,.118,1.694,9.143,9.143,0,0,1,.419,1.975s-.185.92,0,1.222a3.217,3.217,0,0,0,.56.545,7.678,7.678,0,0,0-.164,1.826v.714l1.409.4s.044-.357.111-.357.962.692.962.692,3.444.045,4.316,0c.33-.017.419-.16.368-.333a1.239,1.239,0,0,0-.972-.691,3.489,3.489,0,0,1-1.521-.758s.066-.157-.291-.379c-.247-.153-.929-.774-1.351-1.138.02-.027.04-.055.059-.084,0,0-.57-.8-.452-1.155a1.682,1.682,0,0,0-.051-.867,6.961,6.961,0,0,1-.318-1.49c0-.318-.047-2.127-.082-3.41l.294.025.006-.128.132.012,1.247.116-.038-1.348a8.31,8.31,0,0,0,1.307-.672,2.65,2.65,0,0,1,1.308-.569,8.8,8.8,0,0,0,1.644-1.088,11.873,11.873,0,0,0,.2-2.627l-.117-4.949v0a19.072,19.072,0,0,0-.3-2.911c-.074-.192-.256-.832-.456-1.563a1.181,1.181,0,0,1,.344.015c.007.179.012.3.012.343,0,.284.4.525.4.525l-.285-6.4V64.4a16.774,16.774,0,0,0,3,.371A1.145,1.145,0,0,0,365.5,63.278Zm-8.283-5.5h0a4.5,4.5,0,0,1,.122-.5ZM351.45,79.734c.52.087,1.121.061,1.166-.041,0-.01.011-.028.018-.051.017.029.032.059.049.09l-.051.966v.022l-1.714-.093A1.385,1.385,0,0,1,351.45,79.734Zm5.714,4.872-.044-1.564c.076-.288.145-.549.2-.774.026.186.049.357.066.515C357.551,84.268,357.312,84.557,357.163,84.606Zm4.879-23.444c-.1.038-.472-.2-.827-.447,0-.045,0-.09.005-.133.05-1.021-1.594-1.656-2.1-1.774a1.791,1.791,0,0,1-.353-.133,8.224,8.224,0,0,1-.781-.446l.007-.019s-.649-.415-.663-.934a8.932,8.932,0,0,1,.558-1.369l.04-.079a2.577,2.577,0,0,0,.844-.452c.1,1.334,2.009,2.481,2.009,2.481l.2.333.048.079c-.1.061-.152.111-.117.139a6.057,6.057,0,0,1,.641,1.062c.039.076.066.123.066.123s.312.858.49,1.576a.13.13,0,0,0-.075-.008Z" transform="translate(-279.574 136.707)" fill="url(#a)"/><path d="M533.842,125.056l-.022.03-.076.1-1.467,1.048-.311-.517-.2-.333s-2.924-1.773-1.667-3.481,3.115,2.166,3.115,2.166Z" transform="translate(-450.637 69.383)" fill="#ffc5d3"/><path d="M.026,0A.025.025,0,0,1,.051.025l0,.366A.025.025,0,0,1,.025.416.025.025,0,0,1,0,.391L0,.025A.025.025,0,0,1,.026,0Z" transform="matrix(0.893, -0.45, 0.45, 0.893, 80.199, 190.268)" fill="#3a3768"/><path d="M.015,0A.014.014,0,0,1,.029.014V.123A.014.014,0,0,1,.014.137.014.014,0,0,1,0,.123V.014A.014.014,0,0,1,.015,0Z" transform="matrix(0.893, -0.45, 0.45, 0.893, 78.568, 190.73)" fill="#3a3768"/><path d="M.017,0A.016.016,0,0,1,.032.016V.223A.016.016,0,0,1,.016.239.016.016,0,0,1,0,.223V.016A.016.016,0,0,1,.017,0Z" transform="matrix(0.893, -0.45, 0.45, 0.893, 78.68, 190.955)" fill="#3a3768"/><path d="M.016,0A.015.015,0,0,1,.031.015v.21A.015.015,0,0,1,.015.241.015.015,0,0,1,0,.225V.015A.015.015,0,0,1,.016,0Z" transform="matrix(0.893, -0.45, 0.45, 0.893, 78.824, 191.242)" fill="#3a3768"/><path d="M.847,0A.833.833,0,0,1,1.682.84L1.675,2.583a.851.851,0,0,1-.843.848A.833.833,0,0,1,0,2.591L0,.847A.851.851,0,0,1,.847,0Z" transform="matrix(0.893, -0.45, 0.45, 0.893, 78.371, 190.318)" fill="#3a3768"/><path d="M521.735,104.515a.06.06,0,0,0-.03.035.06.06,0,0,0,0,.046l.005.011a.061.061,0,0,1-.026.082l-.634.323a.059.059,0,0,1-.08-.027l-.006-.011a.06.06,0,0,0-.081-.027l-.123.063a.115.115,0,0,0-.058.067.116.116,0,0,0,.007.088l1.348,2.7a.115.115,0,0,0,.154.051l1.106-.563a.117.117,0,0,0,.051-.156l-1.348-2.7a.114.114,0,0,0-.154-.051Z" transform="translate(-442.148 85.285)" fill="#4895F1"/><path d="M.024,0H.211A.024.024,0,0,1,.235.024.024.024,0,0,1,.211.048H.024A.024.024,0,0,1,0,.025.024.024,0,0,1,.024,0Z" transform="matrix(0.893, -0.45, 0.45, 0.893, 79.031, 190.102)" fill="#e6e8ec"/><ellipse cx="0.027" cy="0.027" rx="0.027" ry="0.027" transform="translate(79.277 189.959)" fill="#e6e8ec"/><path d="M544.962,261.28l-.412,11.177s1.384-.466,1.6-.117-.231-5.6-.231-5.6Z" transform="translate(-464.426 -61.109)" fill="#5f5570"/><path d="M544.962,261.28l-.412,11.177s1.384-.466,1.6-.117-.231-5.6-.231-5.6Z" transform="translate(-464.426 -61.109)" opacity="0.15"/><path d="M457.131,763.789c-.857.045-4.241,0-4.241,0s-.879-.689-.945-.689-.109.355-.109.355l-1.384-.4v-.711s-.044-2.024.373-2.112a19.072,19.072,0,0,1,2.264,0c.066-.022,1.319,1.178,1.67,1.4s.285.378.285.378a3.416,3.416,0,0,0,1.495.755,1.216,1.216,0,0,1,.955.689C457.543,763.629,457.454,763.772,457.131,763.789Z" transform="translate(-376.531 -526.779)" fill="#bc8487"/><path d="M457.15,794.09c-.857.045-4.241,0-4.241,0s-.879-.689-.945-.689-.109.356-.109.356l-1.384-.4v-.7l1.3.475,1.033.622h4.713C457.563,793.931,457.473,794.074,457.15,794.09Z" transform="translate(-376.549 -557.082)" opacity="0.1"/><path d="M493.43,787.464s1.055-1.022,1.76-.733" transform="translate(-416.676 -551.496)" stroke="#000" stroke-miterlimit="10" stroke-width="1" opacity="0.1"/><path d="M351.965,675.456c.044.133-.351.311-.351.311v1.756s.179,1.054-.08,1.362a.216.216,0,0,1-.162.083c-.483.022-1.538-3.312-1.538-3.312l-.066-1.926-.264-.185-.374-2.445h.682s.072-.045.187-.1c.33-.17,1.02-.467,1.4-.184l1.274,2.9A13.01,13.01,0,0,0,351.965,675.456Z" transform="translate(-281.891 -443.25)" fill="#bc8487"/><path d="M351.534,683.1a.215.215,0,0,1-.162.083c-.483.022-1.538-3.312-1.538-3.312l-.066-1.926-.264-.185-.374-2.445h.682s.072-.045.187-.1l.164,2.505.088,2.156S351.079,682.218,351.534,683.1Z" transform="translate(-281.891 -447.463)" opacity="0.1"/><path d="M390.54,478.571a8.639,8.639,0,0,1-1.615,1.084,2.564,2.564,0,0,0-1.286.567,18.838,18.838,0,0,1-2.72,1.288c-1.044.434-1.978.8-1.978.8l-1.076,1.267-.819.965s-.494-.2-.544.167-.791.783-.775.85-.28.233-.28.383a3.071,3.071,0,0,1-1.088-1.834,1.814,1.814,0,0,0-.56-1.267s.148-.267.379-.217a.527.527,0,0,0,.495-.133c.066-.083.346.117.478.05a8.65,8.65,0,0,0,.659-1.384l2.055-1.394,4.087-2.771.189-.128s.544.252.323-1.813c-.043-.4-.115-.886-.224-1.478-.676-3.651,1.747-4.068,1.747-4.068l2.126.717.511.8v0l.115,4.93A12.065,12.065,0,0,1,390.54,478.571Z" transform="translate(-308.67 -255.469)" fill="#433a59"/><path d="M442.349,585.707s.007.237.016.6c-1.044.434-1.978.8-1.978.8l-1.076,1.267c-.018-1.05-.014-2.415,0-3.813l4.087-2.771C442.893,583.686,442.349,585.707,442.349,585.707Z" transform="translate(-366.113 -360.273)" opacity="0.1"/><path d="M508.5,471.046v0l-3.2.063s-.56,2.216-.643,2.682c-.02.115-.144.6-.32,1.277-.043-.4-.115-.886-.224-1.477-.676-3.649,1.747-4.065,1.747-4.065l2.126.716Z" transform="translate(-426.545 -255.48)" opacity="0.1"/><path d="M436.844,385.4l-.412,8s-.3,11.753,0,12.52a9.216,9.216,0,0,1,.412,1.967s-.181.917,0,1.217.758.633.742.8a1.836,1.836,0,0,0,2.686-.367s-.56-.8-.445-1.15a1.726,1.726,0,0,0-.049-.867,7.006,7.006,0,0,1-.313-1.486c0-.5-.115-4.7-.115-4.7s1.8-6.668,1.879-7.135.643-2.684.643-2.684l3.4-.067a19.316,19.316,0,0,0-.3-2.9c-.2-.517-1.17-4.3-1.17-4.3Z" transform="translate(-363.313 -175.902)" fill="#433a59"/><path d="M191.017,469.89l-.295.085-.012.295,8.836.115v-.116Z" transform="translate(-123.152 -252.547)" fill="#7b728f"/><path d="M463.579,119.7c-1.286,2.637-.487,3.189-.36,3.257-.272-.128-3.811-1.81-3.346-2.237a6.312,6.312,0,0,0,.714-2.355c.09-.517.143-.913.143-.913l3.714.689A17.789,17.789,0,0,0,463.579,119.7Z" transform="translate(-385.293 73.105)" fill="#ffc5d3"/><path d="M564.687,174.339l-.076.1-1.47,1.048-.311-.517a15.85,15.85,0,0,1,1.811-.733Z" transform="translate(-481.5 20.131)" opacity="0.1"/><path d="M564.934,177.75c-.132.466-2.357,0-2.357,0l-.231-.367s-.023-.047-.062-.123a6.075,6.075,0,0,0-.63-1.058c-.181-.15,1.945-.883,1.945-.883l.651,1.433a2.63,2.63,0,0,1,.442.378A.706.706,0,0,1,564.934,177.75Z" transform="translate(-480.393 19.123)" fill="#e5e8ef"/><path d="M555.55,215s1.318,1.052,1.516.976a31.534,31.534,0,0,1,3.4,2.106,1.138,1.138,0,0,1-1.137,1.483s-3.181-.133-3.313-.6S555.55,215,555.55,215Z" transform="translate(-474.701 -17.914)" fill="#5f5570"/><path d="M480.734,183.252l-1.434,1.5,2.011,12.936.791-.467s2.044.917,2.208.067a40.918,40.918,0,0,0,.119-4.2l-.268-6.053s-.94-2.117-.94-2.184-1.355-1.1-1.355-1.1l-.64-.5Z" transform="translate(-403.477 11.691)" opacity="0.1"/><path d="M480.734,180.252l-1.434,1.5,2.011,12.936.791-.467s2.044.917,2.208.067a40.917,40.917,0,0,0,.119-4.2l-.268-6.053s-.94-2.117-.94-2.184-1.355-1.1-1.355-1.1l-.64-.5Z" transform="translate(-403.477 14.492)" fill="#e5e8ef"/><path d="M496.7,179.535l-.4.816.4.422s1.417,2.893,1.137,4.609l.3,5.648.956.95.758-.885-.363-5.131s-.972-4.232-1.994-5.548l-.3-1.166Z" transform="translate(-419.355 15.455)" opacity="0.1"/><path d="M496.7,177.535l-.4.816.4.422s1.417,2.893,1.137,4.609l.3,5.648.956.95.758-.885-.363-5.131s-.972-4.232-1.994-5.548l-.3-1.166Z" transform="translate(-419.355 17.322)" fill="#bc8487"/><path d="M475.157,118.092c-.36.587-.643,1.1-.865,1.558a2.509,2.509,0,0,1-.719.1c-.815,0-1.284-.57-1.746-1.176-.105-.137-.452-.105-.527-.267.09-.517.143-.913.143-.913Z" transform="translate(-396.006 73.15)" opacity="0.1"/><path d="M472.5,77.6a2.531,2.531,0,1,1-3.672-2.279,2.509,2.509,0,0,1,3.191.779A2.575,2.575,0,0,1,472.5,77.6Z" transform="translate(-392.402 112.684)" fill="#ffc5d3"/><path d="M463.751,152.618l-2.077-2.534s-.192-.078.456-.764a25.871,25.871,0,0,1,2.528,2.2C464.806,151.834,463.751,152.618,463.751,152.618Z" transform="translate(-386.988 43.359)" opacity="0.1"/><path d="M462.751,150.618l-2.077-2.534s-.192-.078.456-.764a25.867,25.867,0,0,1,2.528,2.2C463.806,149.834,462.751,150.618,462.751,150.618Z" transform="translate(-386.055 45.227)" fill="#e5e8ef"/><path d="M513.911,197.534s-.4-.24-.4-.523-.2-4.282-.2-4.282-.29-2.386-.593-4.283h0a10.814,10.814,0,0,0-.49-2.254l-.005-.008c-.346-.45-.28-2.649-2.439-5.864a11.9,11.9,0,0,0,1.318.813,1.8,1.8,0,0,0,.347.133c.494.117,2.11.75,2.06,1.766s.115,3.349.115,3.349v4.78Z" transform="translate(-431.957 14.457)" fill="#5f5570"/><path d="M573.963,203.109c-.132.467-2.357,0-2.357,0l-.231-.367-.062-.123,0-.008a7.126,7.126,0,0,0,2.412-.122A.706.706,0,0,1,573.963,203.109Z" transform="translate(-489.422 -6.238)" opacity="0.1"/><path d="M572.3,200.932a9.627,9.627,0,0,1,.593,2.416c-.1.483,1.6,2.382,1.6,2.382l1.615-1.133a4.83,4.83,0,0,1-.527-1.6c.082-.367-.429-1.15-.429-1.15l.033-1.3S574.888,201.113,572.3,200.932Z" transform="translate(-490.348 -4.426)" fill="#5f5570"/><path d="M472.372,76.533l-1.253.048a1.381,1.381,0,0,0-.363.046,1.1,1.1,0,0,0-.67,1.054.917.917,0,0,1-.743.956.184.184,0,0,1-.137-.031.229.229,0,0,1-.058-.118,2.6,2.6,0,0,0-.315-.712.556.556,0,0,0-.4.425,2.417,2.417,0,0,0-.037.614,4.015,4.015,0,0,1-.075.779,2.575,2.575,0,0,1,.51-3.577,2.508,2.508,0,0,1,3.537.516Z" transform="translate(-392.758 112.25)" opacity="0.1"/><path d="M459.017,55.05a1.379,1.379,0,0,1,.363-.046l1.521-.057a.847.847,0,0,0,.621-.2.589.589,0,0,0,.116-.219.956.956,0,0,0-.1-.776,1.863,1.863,0,0,0-.779-.6,9.022,9.022,0,0,0-.842-.4,4.436,4.436,0,0,0-3.3.048,1.328,1.328,0,0,0-.294.159,1.531,1.531,0,0,0-.32.387l-.5.763a1.056,1.056,0,0,0-.158.308c-.094.362.2.724.167,1.1-.017.185-.114.355-.132.541a1.311,1.311,0,0,0,.19.685l.879,1.794a4.017,4.017,0,0,0,.213-1.3,2.33,2.33,0,0,1,.037-.614.56.56,0,0,1,.4-.425,2.586,2.586,0,0,1,.316.712.227.227,0,0,0,.058.118.183.183,0,0,0,.137.031.913.913,0,0,0,.743-.956A1.091,1.091,0,0,1,459.017,55.05Z" transform="translate(-381.082 133.762)" fill="#8f7080"/><path d="M190.89,468.678l.616-.178,9.285.511-1.022.133Z" transform="translate(-123.32 -251.25)" fill="#7b728f"/><path d="M190.89,468.678l.616-.178,9.285.511-1.022.133Z" transform="translate(-123.32 -251.25)" opacity="0.1"/><path d="M321.445,485.172l-1.225-.115-.43-.04v-6.891l.113-1.6.025-.356h1.264Z" transform="translate(-243.723 -258.41)" fill="#7b728f"/><path d="M321.11,488.035l-.977-.109-.343-.038v-6.534l.09-1.516.02-.338h1.008Z" transform="translate(-243.723 -261.516)" opacity="0.1"/><path d="M401.42,500.664s.61-1.353.866-1.395a3.883,3.883,0,0,1,.725,0l-.041.392s-.626.05-.824,1.108Z" transform="translate(-330.732 -283.234)" fill="#7b728f"/><path d="M401.42,500.664s.61-1.353.866-1.395a3.883,3.883,0,0,1,.725,0l-.041.392s-.626.05-.824,1.108Z" transform="translate(-330.732 -283.234)" opacity="0.1"/><path d="M432.514,497.41s1.64.825,1.425,1.792l-.89-.05s-.428-1.442-.766-1.517S432.514,497.41,432.514,497.41Z" transform="translate(-359.461 -281.518)" fill="#7b728f"/><path d="M406.734,166.331v.049l-.033,5.553a44.268,44.268,0,0,1-1.071,4.851,47.558,47.558,0,0,1-5.291-.317l-2.291-15.62c-.016-2.667,1.846-2.584,1.846-2.584.247-.4,1.434-.717,1.434-.717l.659-.65.021-.03a.588.588,0,0,1,.166-.166h0c.136-.079.222.025.272.129a.781.781,0,0,1,.051.151C405.169,158.961,406.734,166.331,406.734,166.331Z" transform="translate(-327.582 36.498)" fill="#5f5570"/><path d="M452.206,167.721v.049c-.829-1.534-4.022-7.344-4.9-7.634l.336-.233s.224-.133-.188-.267c0,0-.643.083-.659-.7l.68-.68.166-.166h0l.272.129a.784.784,0,0,1,.051.151C450.64,160.351,452.206,167.721,452.206,167.721Z" transform="translate(-373.121 35.174)" opacity="0.1"/><path d="M453.206,166.721v.049c-.829-1.534-4.022-7.344-4.9-7.634l.336-.233s.224-.133-.188-.267c0,0-.643.083-.659-.7l.68-.68.166-.166h0l.272.129a.791.791,0,0,1,.051.151C451.64,159.351,453.206,166.721,453.206,166.721Z" transform="translate(-374.055 36.107)" fill="#433a59"/><path d="M513.245,187.152l-.005-.008c-.346-.45-.28-2.649-2.439-5.864a11.886,11.886,0,0,0,1.319.813l-.152.508.33.178Z" transform="translate(-432.9 13.561)" opacity="0.1"/><path d="M512.245,186.152l-.005-.008c-.346-.45-.28-2.649-2.439-5.864a11.907,11.907,0,0,0,1.319.813l-.152.508.33.178Z" transform="translate(-431.967 14.492)" fill="#433a59"/><path d="M506.445,172.58l-.135.577a.777.777,0,0,0,.692.628l.1-.275S506.458,173.1,506.445,172.58Z" transform="translate(-428.707 21.68)" opacity="0.1"/><path d="M506.445,171.58l-.135.577a.777.777,0,0,0,.692.628l.1-.275S506.458,172.1,506.445,171.58Z" transform="translate(-428.707 22.613)" fill="#e5e8ef"/><path d="M320.608,477.57l-.388,8.793-.43-.04v-6.891l.113-1.6Z" transform="translate(-243.723 -259.715)" opacity="0.1"/><path d="M188.494,480.966l-.264,4.756,8.966.756.393-8.909Z" transform="translate(-120.836 -259.715)" fill="#7b728f"/><path d="M189.23,477.371l.175-4.2,9.184.427-.437,4.441Z" transform="translate(-121.77 -255.609)" opacity="0.1"/><path d="M188.23,475.371l.175-4.2,9.184.427-.437,4.441Z" transform="translate(-120.836 -253.742)" fill="#7b728f"/><rect width="1.104" height="1.3" transform="translate(71.256 221.635)" fill="#c3bbc8"/><path d="M408.344,455.78l-.165.45s-.346,2.467.082,2.767a2.535,2.535,0,0,0,1.764.167c.066-.15.527-1.85.527-1.85s.412,1.25.626,1.15-.494-2.477-.494-2.477Z" transform="translate(-336.922 -242.664)" fill="#ffc5d3"/><path d="M410.05,415.213V417.6s1.747.333,2.505-.243c0,0-.709-2.308-.445-2.891S410.05,415.213,410.05,415.213Z" transform="translate(-338.793 -203.965)" opacity="0.1"/><path d="M410.05,414.213V416.6s1.747.333,2.505-.243c0,0-.709-2.308-.445-2.891S410.05,414.213,410.05,414.213Z" transform="translate(-338.793 -203.031)" fill="#e5e8ef"/><path d="M397.877,203.546l-.462.25s-.082,1-.132,1.134a14.793,14.793,0,0,0,0,1.484l-.022,2.734a17.419,17.419,0,0,0,0,1.967c.071.517.151,2.484.151,2.484a9.313,9.313,0,0,1,.281,2.6c-.165.683.017,2.217.3,2.084s2.868-.65,3-.75.066-1.034,0-1.15a10.027,10.027,0,0,1-.429-2.067c.033-.367-.115-3.584-.115-3.584s.247-3.434.346-4.234-.2-3.151-.461-3.184S399.295,201.462,397.877,203.546Z" transform="translate(-326.818 -6.316)" opacity="0.1"/><path d="M395.877,201.546l-.461.25s-.082,1-.132,1.134a14.774,14.774,0,0,0,0,1.484l-.022,2.734a17.42,17.42,0,0,0,0,1.967c.071.517.151,2.484.151,2.484a9.313,9.313,0,0,1,.281,2.6c-.165.683.016,2.217.3,2.084s2.868-.65,3-.75.066-1.034,0-1.15a10.03,10.03,0,0,1-.429-2.067c.033-.367-.115-3.584-.115-3.584s.247-3.434.346-4.234-.2-3.151-.461-3.184S397.295,199.462,395.877,201.546Z" transform="translate(-324.949 -4.449)" fill="#5f5570"/><g transform="translate(74.334 187.545)" opacity="0.1"><path d="M458.317,104.77a.556.556,0,0,0-.4.425,2.413,2.413,0,0,0-.037.614,4.016,4.016,0,0,1-.212,1.3l-.88-1.794c-.017-.035-.035-.072-.052-.109a2.437,2.437,0,0,0,.151.359l.88,1.794a4.015,4.015,0,0,0,.212-1.3,2.36,2.36,0,0,1,.037-.614.559.559,0,0,1,.4-.425,2.686,2.686,0,0,1,.171.315A2.613,2.613,0,0,0,458.317,104.77Z" transform="translate(-456.74 -102.606)"/><path d="M490.507,72.32a.955.955,0,0,1-.016.5.591.591,0,0,1-.117.219.843.843,0,0,1-.621.2l-1.52.057a1.385,1.385,0,0,0-.363.046,1.1,1.1,0,0,0-.671,1.054.917.917,0,0,1-.743.956.184.184,0,0,1-.137-.031h0c.015.043.03.087.042.133a.221.221,0,0,0,.057.118.184.184,0,0,0,.136.031.912.912,0,0,0,.743-.956,1.093,1.093,0,0,1,.671-1.054,1.385,1.385,0,0,1,.363-.046l1.52-.057a.847.847,0,0,0,.621-.2.591.591,0,0,0,.117-.219A.956.956,0,0,0,490.507,72.32Z" transform="translate(-484.37 -72.32)"/></g><path d="M512.28,478.494a2.549,2.549,0,0,1,.791-.283,24.264,24.264,0,0,1,2.2,2.558Z" transform="translate(-434.283 -263.584)" opacity="0.1"/><path d="M409.048,224.35s-1.044.451-1.016.762S409.048,224.35,409.048,224.35Z" transform="translate(-336.908 -26.666)" opacity="0.1"/><path d="M403.159,246.45s-1.1,1.416-.853,1.464S403.159,246.45,403.159,246.45Z" transform="translate(-331.527 -47.293)" opacity="0.1"/><path d="M461.343,278.28s.1,3.167-.7,3.567Z" transform="translate(-386.047 -77)" opacity="0.1"/><path d="M408,399.972s.773-.444.95-.355S408,399.972,408,399.972Z" transform="translate(-336.879 -190.234)" opacity="0.1"/><path d="M410.05,412.928a2.051,2.051,0,0,0,.719-.067C411,412.759,410.05,412.928,410.05,412.928Z" transform="translate(-338.793 -202.578)" opacity="0.1"/><path d="M586.7,239.41s.605,1.757.954,1.757" transform="translate(-503.797 -40.695)" opacity="0.1"/><path d="M456.16,742.513s1.135-.311,1.3,0S456.16,742.513,456.16,742.513Z" transform="translate(-381.863 -510.148)" opacity="0.1"/><path d="M399.967,675.21s-.283.438.091.571S399.967,675.21,399.967,675.21Z" transform="translate(-329.279 -447.463)" opacity="0.1"/><path d="M515.8,583.53s.857.772,1.262.794S515.8,583.53,515.8,583.53Z" transform="translate(-437.572 -361.885)" opacity="0.1"/><path d="M960.317,109.01s-8.477-.514-7.478,5.426a1.445,1.445,0,0,0,.753,1.527s.015-.441.87-.291a3.968,3.968,0,0,0,.92.044,1.921,1.921,0,0,0,1.125-.462h0s2.383-.984,3.309-4.879c0,0,.686-.85.658-1.068l-1.431.611a2.551,2.551,0,0,1,.1,1.89s-.046-1.853-.321-1.812c-.056.009-.744.357-.744.357a4.225,4.225,0,0,1,.206,3.1s.242-2.215-.468-2.974l-1.007.588a4.443,4.443,0,0,1,.317,3.372s.171-2.324-.528-3.229l-.912.712s.923,1.83.36,3.087c0,0-.073-2.705-.559-2.91a5.616,5.616,0,0,0-.919.993s.632,1.329.24,2.03c0,0-.241-1.8-.438-1.812a5.987,5.987,0,0,0-.878,2.014,4.341,4.341,0,0,1,.686-2.127,2.393,2.393,0,0,0-1.218.631s.124-.845,1.41-.918a5.53,5.53,0,0,1,.833-.962,5.244,5.244,0,0,0-2.062.238,2.317,2.317,0,0,1,2.3-.434l.906-.735a7.43,7.43,0,0,0-2.406.024,2.926,2.926,0,0,1,2.649-.191l.981-.587a9,9,0,0,0-2.3-.2,3.523,3.523,0,0,1,2.586.041l.7-.315s-1.055-.207-1.364-.24-.326-.119-.326-.119a3.664,3.664,0,0,1,1.983.22A9.223,9.223,0,0,0,960.317,109.01Z" transform="translate(-899.266 77.012)" fill="#4895F1"/><path d="M830.225,97.756s-3.826-.231-3.379,2.454a.655.655,0,0,0,.34.69s.007-.2.393-.132a1.719,1.719,0,0,0,.417.02.868.868,0,0,0,.5-.209h0a3.041,3.041,0,0,0,1.5-2.205s.31-.384.3-.482l-.648.276a1.162,1.162,0,0,1,.047.854s-.021-.837-.146-.818c-.025,0-.335.162-.335.162a1.911,1.911,0,0,1,.093,1.4s.11-1-.211-1.344l-.454.266a2.009,2.009,0,0,1,.143,1.523,2.856,2.856,0,0,0-.239-1.459l-.412.322a1.964,1.964,0,0,1,.162,1.394s-.033-1.222-.252-1.315a2.524,2.524,0,0,0-.416.449s.286.6.109.917c0,0-.109-.815-.2-.819a2.708,2.708,0,0,0-.4.906,1.953,1.953,0,0,1,.31-.961,1.08,1.08,0,0,0-.551.285s.056-.382.639-.415a2.48,2.48,0,0,1,.377-.434,2.358,2.358,0,0,0-.932.107,1.056,1.056,0,0,1,1.038-.2l.4-.332a3.476,3.476,0,0,0-1.088.011,1.322,1.322,0,0,1,1.2-.087l.444-.265a4.036,4.036,0,0,0-1.039-.09,1.6,1.6,0,0,1,1.169.018l.316-.142s-.476-.094-.616-.109-.147-.053-.147-.053a1.663,1.663,0,0,1,.9.1A4.078,4.078,0,0,0,830.225,97.756Z" transform="translate(-730.998 114.688)" fill="#4895F1"/><ellipse cx="2.711" cy="0.458" rx="2.711" ry="0.458" transform="translate(77.527 236.324)" fill="#6c63ff" opacity="0.1"/><ellipse cx="2.711" cy="0.458" rx="2.711" ry="0.458" transform="translate(63.641 236.449)" fill="#6c63ff" opacity="0.1"/><ellipse cx="2.711" cy="0.458" rx="2.711" ry="0.458" transform="translate(53.555 235.355)" fill="#6c63ff" opacity="0.1"/><ellipse cx="4.049" cy="0.685" rx="4.049" ry="0.685" transform="translate(87.258 235.006)" fill="#4895F1"/><path d="M934.079,793.135a1.174,1.174,0,0,0,.385-.582.519.519,0,0,0-.27-.593.758.758,0,0,0-.713.25.956.956,0,0,1-.694.335,1.057,1.057,0,0,0,.327-.989.414.414,0,0,0-.092-.2c-.137-.147-.387-.083-.551.032a2.056,2.056,0,0,0-.673,1.72,3.293,3.293,0,0,1-.01-.7.726.726,0,0,0-.266-.626.805.805,0,0,0-.4-.1.839.839,0,0,0-.657.187.649.649,0,0,0,.025.806,2.6,2.6,0,0,0,.682.546,1.5,1.5,0,0,1,.486.464.384.384,0,0,1,.036.082h1.476A4.109,4.109,0,0,0,934.079,793.135Z" transform="translate(-841.102 -558.564)" fill="#4895F1"/><path d="M304.8,624.707c0,.255-.028.461-.063.461s-.063-.2-.063-.461.035-.135.071-.135S304.8,624.452,304.8,624.707Z" transform="translate(-241.43 -404.955)" fill="#ffd037"/><path d="M305.545,627.645c-.224.122-.419.2-.435.165s.15-.155.374-.277.136-.033.152,0S305.769,627.525,305.545,627.645Z" transform="translate(-241.824 -407.6)" fill="#ffd037"/></g></svg>