<svg xmlns="http://www.w3.org/2000/svg" xmlns:xlink="http://www.w3.org/1999/xlink" width="184.485" height="70.218" viewBox="0 0 184.485 70.218"><defs><linearGradient id="a" x1="0.932" y1="0.523" x2="-0.067" y2="0.473" gradientUnits="objectBoundingBox"><stop offset="0" stop-color="#fff"/><stop offset="0.473" stop-color="#fff"/><stop offset="1" stop-color="#4895F1"/></linearGradient><filter id="b" x="0" y="0" width="86.89" height="70.218" filterUnits="userSpaceOnUse"><feOffset dy="3" input="SourceAlpha"/><feGaussianBlur stdDeviation="3" result="c"/><feFlood flood-color="#0039aa" flood-opacity="0.502"/><feComposite operator="in" in2="c"/><feComposite in="SourceGraphic"/></filter><linearGradient id="d" y1="0.5" x2="1" y2="0.5" gradientUnits="objectBoundingBox"><stop offset="0" stop-color="#fff"/><stop offset="1" stop-color="#d5e8ff"/></linearGradient><filter id="e" x="3.444" y="8.709" width="74.484" height="52.568" filterUnits="userSpaceOnUse"><feOffset dy="3" input="SourceAlpha"/><feGaussianBlur stdDeviation="3" result="f"/><feFlood flood-color="#0039aa" flood-opacity="0.502"/><feComposite operator="in" in2="f"/><feComposite in="SourceGraphic"/></filter><linearGradient id="g" y1="0.5" x2="1" y2="0.5" gradientUnits="objectBoundingBox"><stop offset="0" stop-color="#fff"/><stop offset="1" stop-color="#d5e8ff"/><stop offset="1" stop-color="#78b2f7"/></linearGradient></defs><g transform="translate(-82.955 -19)"><path d="M-35.88-16.8a9.59,9.59,0,0,1,6.72,2.256A7.9,7.9,0,0,1-26.688-8.4,7.9,7.9,0,0,1-29.16-2.256,9.59,9.59,0,0,1-35.88,0h-8.712V-.24h.312a1.456,1.456,0,0,0,1.068-.444,1.545,1.545,0,0,0,.468-1.068v-13.44a1.226,1.226,0,0,0-.468-.972,1.607,1.607,0,0,0-1.068-.4h-.312v-.24Zm-.312,15.768A5.053,5.053,0,0,0-33.2-1.92a5.572,5.572,0,0,0,1.932-2.556A9.641,9.641,0,0,0-30.6-8.112,12.273,12.273,0,0,0-31-11.46a7.145,7.145,0,0,0-1.116-2.34,4.815,4.815,0,0,0-4.08-1.992h-2.952v14.76ZM-9.36-14.16H-9.7a1.118,1.118,0,0,0-.768.276.98.98,0,0,0-.336.708v7.944a5.288,5.288,0,0,1-1.584,4.068A6.693,6.693,0,0,1-17.1.312a7.433,7.433,0,0,1-4.872-1.44,4.971,4.971,0,0,1-1.74-4.056v-7.968a.923.923,0,0,0-.324-.72,1.134,1.134,0,0,0-.78-.288h-.336v-.24h6.312v.24h-.336a1.09,1.09,0,0,0-.768.288.939.939,0,0,0-.312.72v7.8A5.312,5.312,0,0,0-19.236-1.9,3.5,3.5,0,0,0-16.368-.648a3.742,3.742,0,0,0,2.916-1.176,4.678,4.678,0,0,0,1.068-3.264v-8.064a1,1,0,0,0-.336-.732,1.118,1.118,0,0,0-.768-.276H-13.8v-.24h4.44Zm7.248.744H-2.88v11.9a1.169,1.169,0,0,0,.4.924,1.326,1.326,0,0,0,.9.348h.264V0h-6.6V-.24h.288a1.247,1.247,0,0,0,.9-.36,1.187,1.187,0,0,0,.372-.888V-12.912a1.187,1.187,0,0,0-.372-.888,1.218,1.218,0,0,0-.876-.36H-7.92v-.24H-.552a7.186,7.186,0,0,1,3.624.84,3.287,3.287,0,0,1,1.632,3.1,4.067,4.067,0,0,1-.84,2.508A3.616,3.616,0,0,1,1.368-6.6a3.528,3.528,0,0,1,1.284.816A6.088,6.088,0,0,1,3.672-4.56,24.169,24.169,0,0,0,5.28-2.052,6.35,6.35,0,0,0,6.636-.576,2.26,2.26,0,0,0,7.9-.24V0H5.88A7.707,7.707,0,0,1,2.82-.48,4.524,4.524,0,0,1,.912-2.3,12.917,12.917,0,0,1-.7-5.568a2.888,2.888,0,0,0-.684-1.08,1.45,1.45,0,0,0-.756-.408v-.192h.6Q.5-7.272.96-9.648a2.474,2.474,0,0,0,.1-.624q0-.264-.024-.732a2.881,2.881,0,0,0-.3-1.056,1.909,1.909,0,0,0-.708-.852,3.086,3.086,0,0,0-1.536-.48Q-1.776-13.416-2.112-13.416ZM7.68-.24h.288a1.409,1.409,0,0,0,.984-.372,1.174,1.174,0,0,0,.408-.9V-12.888a1.174,1.174,0,0,0-.408-.9,1.409,1.409,0,0,0-.984-.372H7.68v-.24H14.5v.24h-.288a1.4,1.4,0,0,0-.96.36,1.217,1.217,0,0,0-.432.888v11.4a1.24,1.24,0,0,0,.432.912,1.4,1.4,0,0,0,.96.36H14.5V0H7.68ZM29.208-10.992v-.216a2.258,2.258,0,0,0-.576-1.632,2.2,2.2,0,0,0-1.608-.624H24.24V-1.488a1.252,1.252,0,0,0,.408.888,1.288,1.288,0,0,0,.912.36h.264V0H19.2V-.24h.24a1.318,1.318,0,0,0,.936-.36,1.2,1.2,0,0,0,.384-.912V-13.464H18a2.231,2.231,0,0,0-1.632.624,2.258,2.258,0,0,0-.576,1.632v.216h-.24v-3.792a6.739,6.739,0,0,0,1.116.24,9.322,9.322,0,0,0,1.4.12h8.856a8.031,8.031,0,0,0,1.74-.156,6.341,6.341,0,0,0,.78-.2v3.792ZM46.44-14.16h-.312a2.286,2.286,0,0,0-1.188.336,3.013,3.013,0,0,0-.924.84L39.744-6.408v4.9a1.294,1.294,0,0,0,.408.9,1.325,1.325,0,0,0,.96.372h.264V0h-6.72V-.24h.288a1.3,1.3,0,0,0,.936-.372,1.294,1.294,0,0,0,.408-.9v-4.9L32.04-12.984a2.557,2.557,0,0,0-.9-.852,2.393,2.393,0,0,0-1.212-.324H29.64v-.24h7.3v.24h-.264a.74.74,0,0,0-.66.3.963.963,0,0,0-.2.5.736.736,0,0,0,.1.372L39.1-7.464l3.24-5.52a.935.935,0,0,0,.072-.372.963.963,0,0,0-.2-.5.74.74,0,0,0-.66-.3H41.3v-.24H46.44Z" transform="translate(221 59.8)" fill="#fff"/><g transform="translate(-508.061 187.272)"><g transform="matrix(1, 0, 0, 1, 591.02, -168.27)" filter="url(#b)"><path d="M68.885,26.107A26.108,26.108,0,0,1,45.046,52.119c-.746.065-1.506.1-2.274.1H22.315l-5.369-5.377v-32.7a5.373,5.373,0,0,1,5.373,5.373v27.33H42.635a20.734,20.734,0,0,0,0-41.467H0A5.373,5.373,0,0,1,5.373,0h37.4q1.139,0,2.278.1A26.107,26.107,0,0,1,68.89,26.111Z" transform="translate(9 6)" fill="url(#a)"/></g><path d="M67.369,23.489A23.354,23.354,0,0,1,44.015,46.843c-.234,0-.467,0-.7-.011q.873-.028,1.73-.127A20.734,20.734,0,0,0,42.639,5.373H0A5.373,5.373,0,0,1,5.373,0h37.4q1.139,0,2.278.1c.53.044,1.056.106,1.574.19a25.97,25.97,0,0,1,12.019,5.09q.875.668,1.686,1.407h0a23.276,23.276,0,0,1,7.035,16.7Z" transform="translate(600.015 -162.272)" fill="url(#d)"/><path d="M140.669,74.432H137.39a.471.471,0,0,1,.251-.072h2.778A.471.471,0,0,1,140.669,74.432Z" transform="translate(488.711 -222.513)" fill="#fff"/><g transform="matrix(1, 0, 0, 1, 591.02, -168.27)" filter="url(#e)"><path d="M74.624,63.778a17.454,17.454,0,0,1-4.7,11.918A17.2,17.2,0,0,1,59.5,81.068H45.927A5.491,5.491,0,0,1,40.6,75.651h-.04V61.974h-.323a.477.477,0,0,1-.477-.477v-.57a.477.477,0,0,1,.477-.473h.323V52.266a.477.477,0,0,1,.226-.4h3.279a.477.477,0,0,1,.226.4v2.278H47.7a.477.477,0,0,1,.477.477v.509a.477.477,0,0,1-.477.477H46.643V57.48H47.7a.477.477,0,0,1,.477.478v.507a.477.477,0,0,1-.477.478H44.287v1.519h.323a.477.477,0,0,1,.477.477v.57a.477.477,0,0,1-.477.477h-.323V75.656l1.682.046H57.542a11.915,11.915,0,1,0,0-23.83l-13.481,0a.471.471,0,0,0-.251-.072H41.033a.471.471,0,0,0-.251.072H18.14A5.371,5.371,0,0,1,23.513,46.5H59.5a17.2,17.2,0,0,1,10.418,5.373A17.449,17.449,0,0,1,74.624,63.778Z" transform="translate(-5.7 -31.79)" fill="#fff"/></g><path d="M140.669,74.432H137.39a.471.471,0,0,1,.251-.072h2.778A.471.471,0,0,1,140.669,74.432Z" transform="translate(488.711 -222.513)" fill="#fff"/><path d="M73.66,61.473A14.609,14.609,0,0,1,55.6,75.662h1.944a11.915,11.915,0,1,0,0-23.83l-39.4,0a5.371,5.371,0,0,1,5.373-5.373H59.5a16.91,16.91,0,0,1,5.444,1.654,17.367,17.367,0,0,1,4.975,3.72,17.679,17.679,0,0,1,1.316,1.591,14.519,14.519,0,0,1,2.421,8.049Z" transform="translate(585.32 -200.023)" fill="url(#g)"/><path d="M94.623,79.833v32.7h0l-5.373-5.373V74.46A5.373,5.373,0,0,1,94.623,79.833Z" transform="translate(527.711 -222.594)" fill="#fff"/></g></g></svg>