<svg xmlns="http://www.w3.org/2000/svg" xmlns:xlink="http://www.w3.org/1999/xlink" width="142.466" height="155.221" viewBox="0 0 142.466 155.221">
  <defs>
    <filter id="Path_2279" x="0" y="0" width="142.466" height="112.344" filterUnits="userSpaceOnUse">
      <feOffset dy="3" input="SourceAlpha"/>
      <feGaussianBlur stdDeviation="3" result="blur"/>
      <feFlood flood-color="#0039aa" flood-opacity="0.502"/>
      <feComposite operator="in" in2="blur"/>
      <feComposite in="SourceGraphic"/>
    </filter>
    <filter id="Path_2284" x="6.223" y="15.736" width="120.052" height="80.454" filterUnits="userSpaceOnUse">
      <feOffset dy="3" input="SourceAlpha"/>
      <feGaussianBlur stdDeviation="3" result="blur-2"/>
      <feFlood flood-color="#0039aa" flood-opacity="0.502"/>
      <feComposite operator="in" in2="blur-2"/>
      <feComposite in="SourceGraphic"/>
    </filter>
  </defs>
  <g id="Group_3032" data-name="Group 3032" transform="translate(-102 -83.488)">
    <g id="Group_357" data-name="Group 357" transform="translate(111 89.488)">
      <g transform="matrix(1, 0, 0, 1, -9, -6)" filter="url(#Path_2279)">
        <path id="Path_2279-2" data-name="Path 2279" d="M124.456,47.168a47.17,47.17,0,0,1-43.07,47c-1.349.118-2.721.178-4.109.178H40.318l-9.7-9.715V25.543a9.708,9.708,0,0,1,9.708,9.708V84.629H77.03a37.46,37.46,0,0,0,0-74.92H0A9.708,9.708,0,0,1,9.708,0H77.287Q79.346,0,81.4.178a47.168,47.168,0,0,1,43.062,47Z" transform="translate(9 6)" fill="#fff"/>
      </g>
      <path id="Path_2281" data-name="Path 2281" d="M121.718,42.438A42.194,42.194,0,0,1,79.524,84.632c-.422,0-.844,0-1.259-.021q1.578-.051,3.125-.23A37.46,37.46,0,0,0,77.037,9.708H0A9.708,9.708,0,0,1,9.708,0H77.287Q79.346,0,81.4.178c.957.079,1.907.192,2.844.343a46.921,46.921,0,0,1,21.715,9.2q1.581,1.208,3.046,2.542h0A42.054,42.054,0,0,1,121.718,42.438Z" transform="translate(0 0)" fill="#fff"/>
      <path id="Path_2282" data-name="Path 2282" d="M143.314,74.49H137.39a.851.851,0,0,1,.453-.13h5.019A.851.851,0,0,1,143.314,74.49Z" transform="translate(-90.259 -48.851)" fill="#fff"/>
      <g transform="matrix(1, 0, 0, 1, -9, -6)" filter="url(#Path_2284)">
        <path id="Path_2284-2" data-name="Path 2284" d="M120.192,77.717A31.535,31.535,0,0,1,111.7,99.249a31.083,31.083,0,0,1-18.824,9.705H68.344a9.921,9.921,0,0,1-9.633-9.787H58.64V74.458h-.583A.861.861,0,0,1,57.2,73.6V72.568a.861.861,0,0,1,.861-.854h.583v-14.8a.861.861,0,0,1,.408-.731h5.924a.861.861,0,0,1,.408.731v4.117h6.175a.861.861,0,0,1,.861.861v.919a.861.861,0,0,1-.861.861H69.638v2.662h1.918a.861.861,0,0,1,.861.864v.916a.861.861,0,0,1-.861.864H65.38v2.744h.583a.861.861,0,0,1,.861.861v1.029a.861.861,0,0,1-.861.861H65.38v24.7l3.039.082H89.328a21.528,21.528,0,1,0,0-43.055l-24.356,0a.851.851,0,0,0-.453-.13H59.5a.851.851,0,0,0-.453.13H18.14A9.7,9.7,0,0,1,27.848,46.5H92.875A31.083,31.083,0,0,1,111.7,56.208,31.526,31.526,0,0,1,120.192,77.717Z" transform="translate(-2.92 -24.76)" fill="#fff"/>
      </g>
      <path id="Path_2285" data-name="Path 2285" d="M143.314,74.49H137.39a.851.851,0,0,1,.453-.13h5.019A.851.851,0,0,1,143.314,74.49Z" transform="translate(-90.259 -48.851)" fill="#fff"/>
      <path id="Path_2283" data-name="Path 2283" d="M118.449,73.584A26.394,26.394,0,0,1,85.815,99.22h3.513a21.528,21.528,0,1,0,0-43.055l-71.188,0a9.7,9.7,0,0,1,9.708-9.708H92.875a30.551,30.551,0,0,1,9.835,2.988,31.378,31.378,0,0,1,8.988,6.72,31.944,31.944,0,0,1,2.377,2.875,26.232,26.232,0,0,1,4.374,14.542Z" transform="translate(-11.917 -30.724)" fill="#fff"/>
      <path id="Path_2280" data-name="Path 2280" d="M98.958,84.168v59.086h0l-9.708-9.708V74.46A9.708,9.708,0,0,1,98.958,84.168Z" transform="translate(-58.633 -48.917)" fill="#fff"/>
    </g>
    <text id="Durity" transform="translate(124 229.709)" fill="#fff" font-size="37" font-family="PlayfairDisplay-Bold, Playfair Display" font-weight="700"><tspan x="0" y="0">Durity</tspan></text>
  </g>
</svg>
