<svg xmlns="http://www.w3.org/2000/svg" width="15.2" height="19" viewBox="0 0 15.2 19"><defs><style>.a,.b{fill:#fff;}.a{fill-rule:evenodd;}</style></defs><g transform="translate(-2)"><path class="a" d="M9.6,1.267A6.333,6.333,0,0,0,3.267,7.6v5.7H2V7.6a7.6,7.6,0,0,1,15.2,0v5.7H15.933V7.6A6.333,6.333,0,0,0,9.6,1.267Z"/><path class="b" d="M13.4,8.267A1.267,1.267,0,0,1,14.667,7H17.2v5.067a1.267,1.267,0,0,1-1.267,1.267H14.667A1.267,1.267,0,0,1,13.4,12.067Zm-7.6,0A1.267,1.267,0,0,0,4.533,7H2v5.067a1.267,1.267,0,0,0,1.267,1.267H4.533A1.267,1.267,0,0,0,5.8,12.067Z" transform="translate(0 1.867)"/><path class="a" d="M15.1,8.5a.633.633,0,0,1,.633.633v3.8A3.167,3.167,0,0,1,12.567,16.1H8.133a.633.633,0,0,1,0-1.267h4.433a1.9,1.9,0,0,0,1.9-1.9v-3.8A.633.633,0,0,1,15.1,8.5Z" transform="translate(1.467 2.267)"/><path class="b" d="M6.5,14.267A1.267,1.267,0,0,1,7.767,13H9.033a1.267,1.267,0,1,1,0,2.533H7.767A1.267,1.267,0,0,1,6.5,14.267Z" transform="translate(1.2 3.467)"/></g></svg>