<svg xmlns="http://www.w3.org/2000/svg" xmlns:xlink="http://www.w3.org/1999/xlink" width="122.402" height="91.157" viewBox="0 0 122.402 91.157">
  <defs>
    <linearGradient id="linear-gradient" x1="0.5" y1="1" x2="0.5" gradientUnits="objectBoundingBox">
      <stop offset="0" stop-color="gray" stop-opacity="0.251"/>
      <stop offset="0.54" stop-color="gray" stop-opacity="0.122"/>
      <stop offset="1" stop-color="gray" stop-opacity="0.102"/>
    </linearGradient>
    <linearGradient id="linear-gradient-2" x1="0.5" y1="1" x2="0.5" y2="0" xlink:href="#linear-gradient"/>
    <linearGradient id="linear-gradient-3" x1="0.5" y1="1" x2="0.5" y2="0" xlink:href="#linear-gradient"/>
  </defs>
  <g id="Group_392" data-name="Group 392" transform="translate(0.015 0.006)">
    <ellipse id="Ellipse_250" data-name="Ellipse 250" cx="52.7" cy="3.216" rx="52.7" ry="3.216" transform="matrix(0.998, -0.055, 0.055, 0.998, 3.032, 84.729)" fill="#6c63ff" opacity="0.1"/>
    <path id="Path_2338" data-name="Path 2338" d="M67.34,437.14c1.937,7.958,6.037,14.836,12.517,18.168,13.466,6.93,43.835,3.356,66.5-.747a52.4,52.4,0,0,0,29.514-16.217Z" transform="translate(-66.032 -391.032)" fill="#6c63ff" opacity="0.1"/>
    <path id="Path_2339" data-name="Path 2339" d="M211.478,27.361H199.04a1.034,1.034,0,1,1,0-2.066h2.149a1.034,1.034,0,1,1,0-2.066h-1.535a1.034,1.034,0,1,1,0-2.066h6.491a17.639,17.639,0,0,0-5.069-1.341c-17.691-2.186-24.01-.741-26.24.747a25.35,25.35,0,0,1-9.1,3.833c-10.921,2.166-31.344,4.771-49.853-.834-9.2-2.786-16.038,1.922-20.137,9.79H213.638a17.85,17.85,0,0,0-1.461-6.246A1.1,1.1,0,0,1,211.478,27.361Z" transform="translate(-91.311 -18.71)" fill="#6c63ff" opacity="0.1"/>
    <path id="Path_2340" data-name="Path 2340" d="M131.189,290.681l-.162-.01-1.693-.1-16.218-.911-1.752-.1-25.826-1.45-7.238-.409-1.145-.064-1.017-.057L55.6,286.43a50.569,50.569,0,0,0,.483,13.886l17.279.607,1.37.05.242.008,8.2.285.441.014.946.033,8.265.291,1.133.041,3.948.139h.075l.581.021,1.978.069h0l1.736.061,3.306.116h.069l.294.011.313.011h.068l5.27.185,1.477.053h.062l.711.024h0l.132.006h.053l.625.022,1.908.067h0l.716.025.92.032h.034l1.263.045,3.652.129,1.005.034h.11l4.869.171,2.828.1,3.519.125.564.02.911.032,3.313.116,24.989.882a49.212,49.212,0,0,0,7.585-11.122ZM84.2,298.4a1.1,1.1,0,0,1-.716-.264h0a1.045,1.045,0,0,1-.227-.274,1,1,0,0,1-.131-.494.985.985,0,0,1,.178-.564h0a1.145,1.145,0,0,1,.119-.142,1.09,1.09,0,0,1,.778-.322h2.149a1.035,1.035,0,1,1,0-2.067H84.818q-.05,0-.1,0a1.032,1.032,0,0,1,.1-2.061H97.253a1.034,1.034,0,1,1,0,2.065h1.535a1.035,1.035,0,1,1,0,2.067H96.639a1.034,1.034,0,1,1,0,2.065Z" transform="translate(-55.35 -256.931)" fill="#6c63ff" opacity="0.1"/>
    <path id="Path_2341" data-name="Path 2341" d="M179.981,152.32l-85.78,2-9.428.22-24,.561a44.072,44.072,0,0,0-2.854,11.836H177.893a47.437,47.437,0,0,0,1.731-7.544A34.35,34.35,0,0,0,179.981,152.32Zm-97.863,9.133H79.97a1.057,1.057,0,0,1,1.075,1.033v.063a1.027,1.027,0,0,1-.477.8,1.1,1.1,0,0,1-.6.174H67.537a1.034,1.034,0,1,1,0-2.066h2.15a1.034,1.034,0,1,1,0-2.066H68.151a1.034,1.034,0,1,1,0-2.066H80.587a1.034,1.034,0,1,1,0,2.066h1.535a1.089,1.089,0,0,1,.51.126,1.028,1.028,0,0,1,.564.907,1.058,1.058,0,0,1-1.075,1.034Z" transform="translate(-57.65 -137.601)" fill="#6c63ff" opacity="0.1"/>
    <g id="Group_387" data-name="Group 387" transform="translate(64.292 40.044)" opacity="0.1">
      <path id="Path_2342" data-name="Path 2342" d="M645.86,442.4s3.146-7.453,9.021-10.218a12.471,12.471,0,0,0,5.755-5.37,20.1,20.1,0,0,0,1.439-3.484" transform="translate(-645.087 -418.788)" fill="none" stroke="#535461" stroke-miterlimit="10" stroke-width="2"/>
      <path id="Path_2343" data-name="Path 2343" d="M795.982,384.9c-.612.741-3.782,1.821-3.782,1.821s.382-3.212.992-3.952a1.832,1.832,0,0,1,2.5-.274,1.667,1.667,0,0,1,.286,2.406Z" transform="translate(-775.3 -382.12)" fill="#6c63ff"/>
      <path id="Path_2344" data-name="Path 2344" d="M782.7,433.581c-.932.3-4.2-.449-4.2-.449s2.137-2.5,3.069-2.8a1.8,1.8,0,0,1,2.256,1.078,1.7,1.7,0,0,1-1.121,2.169Z" transform="translate(-763.11 -424.941)" fill="#6c63ff"/>
      <path id="Path_2345" data-name="Path 2345" d="M735.734,496.163c-.963-.192-3.394-2.424-3.394-2.424s3.159-1.121,4.12-.925a1.714,1.714,0,0,1,1.381,2.024A1.781,1.781,0,0,1,735.734,496.163Z" transform="translate(-722.037 -480.594)" fill="#6c63ff"/>
      <path id="Path_2346" data-name="Path 2346" d="M681.052,534.559c-.983-.033-3.772-1.84-3.772-1.84s2.914-1.616,3.9-1.583a1.714,1.714,0,1,1-.125,3.423Z" transform="translate(-673.045 -514.713)" fill="#6c63ff"/>
      <path id="Path_2347" data-name="Path 2347" d="M750.75,421.854c.126.938,2.256,3.44,2.256,3.44s1.4-2.939,1.277-3.877a1.77,1.77,0,0,0-1.995-1.48A1.726,1.726,0,0,0,750.75,421.854Z" transform="translate(-738.405 -415.756)" fill="#6c63ff"/>
      <path id="Path_2348" data-name="Path 2348" d="M689.8,463.969c.412.858,3.224,2.633,3.224,2.633s.424-3.208.012-4.067a1.813,1.813,0,0,0-2.363-.833,1.686,1.686,0,0,0-.873,2.267Z" transform="translate(-684.046 -452.788)" fill="#6c63ff"/>
      <path id="Path_2349" data-name="Path 2349" d="M638.907,518.639c.255.914,2.714,3.119,2.714,3.119s.982-3.092.726-4.006a1.792,1.792,0,0,0-2.182-1.212,1.706,1.706,0,0,0-1.259,2.1Z" transform="translate(-638.85 -501.674)" fill="#6c63ff"/>
      <path id="Path_2350" data-name="Path 2350" d="M795.982,384.9c-.612.741-3.782,1.821-3.782,1.821s.382-3.212.992-3.952a1.832,1.832,0,0,1,2.5-.274,1.667,1.667,0,0,1,.286,2.406Z" transform="translate(-775.3 -382.12)" opacity="0.25"/>
      <path id="Path_2351" data-name="Path 2351" d="M782.7,433.581c-.932.3-4.2-.449-4.2-.449s2.137-2.5,3.069-2.8a1.8,1.8,0,0,1,2.256,1.078,1.7,1.7,0,0,1-1.121,2.169Z" transform="translate(-763.11 -424.941)" opacity="0.25"/>
      <path id="Path_2352" data-name="Path 2352" d="M735.734,496.163c-.963-.192-3.394-2.424-3.394-2.424s3.159-1.121,4.12-.925a1.714,1.714,0,0,1,1.381,2.024A1.781,1.781,0,0,1,735.734,496.163Z" transform="translate(-722.037 -480.594)" opacity="0.25"/>
      <path id="Path_2353" data-name="Path 2353" d="M681.052,534.559c-.983-.033-3.772-1.84-3.772-1.84s2.914-1.616,3.9-1.583a1.714,1.714,0,1,1-.125,3.423Z" transform="translate(-673.045 -514.713)" opacity="0.25"/>
      <path id="Path_2354" data-name="Path 2354" d="M750.75,421.854c.126.938,2.256,3.44,2.256,3.44s1.4-2.939,1.277-3.877a1.77,1.77,0,0,0-1.995-1.48A1.726,1.726,0,0,0,750.75,421.854Z" transform="translate(-738.405 -415.756)" opacity="0.25"/>
      <path id="Path_2355" data-name="Path 2355" d="M689.8,463.969c.412.858,3.224,2.633,3.224,2.633s.424-3.208.012-4.067a1.813,1.813,0,0,0-2.363-.833,1.686,1.686,0,0,0-.873,2.267Z" transform="translate(-684.046 -452.788)" opacity="0.25"/>
      <path id="Path_2356" data-name="Path 2356" d="M638.907,518.639c.255.914,2.714,3.119,2.714,3.119s.982-3.092.726-4.006a1.792,1.792,0,0,0-2.182-1.212,1.706,1.706,0,0,0-1.259,2.1Z" transform="translate(-638.85 -501.674)" opacity="0.25"/>
    </g>
    <g id="Group_388" data-name="Group 388" transform="translate(64.144 24.095)" opacity="0.1">
      <path id="Path_2357" data-name="Path 2357" d="M667.23,306.974s.4-8.035,4.986-12.516a12.022,12.022,0,0,0,3.576-6.9,19.778,19.778,0,0,0,.159-3.747" transform="translate(-663.955 -278.695)" fill="none" stroke="#535461" stroke-miterlimit="10" stroke-width="2"/>
      <path id="Path_2358" data-name="Path 2358" d="M744.623,239.67c-.323.893-2.941,2.923-2.941,2.923s-.745-3.143-.425-4.041a1.794,1.794,0,0,1,2.267-1.056,1.7,1.7,0,0,1,1.1,2.174Z" transform="translate(-729.752 -237.399)" fill="#6c63ff"/>
      <path id="Path_2359" data-name="Path 2359" d="M748.211,286.631c-.771.582-4.121.918-4.121.918s1.154-3.037,1.93-3.618a1.829,1.829,0,0,1,2.5.3,1.667,1.667,0,0,1-.31,2.4Z" transform="translate(-732.344 -278.48)" fill="#6c63ff"/>
      <path id="Path_2360" data-name="Path 2360" d="M720.07,360.176c-.975.126-4.04-1.212-4.04-1.212s2.592-2.062,3.566-2.186a1.77,1.77,0,0,1,2,1.469A1.733,1.733,0,0,1,720.07,360.176Z" transform="translate(-707.377 -343.608)" fill="#6c63ff"/>
      <path id="Path_2361" data-name="Path 2361" d="M683.5,413.785c-.939.282-4.193-.534-4.193-.534s2.192-2.452,3.131-2.734a1.8,1.8,0,0,1,2.232,1.123,1.7,1.7,0,0,1-1.169,2.146Z" transform="translate(-674.703 -391.368)" fill="#6c63ff"/>
      <path id="Path_2362" data-name="Path 2362" d="M709.945,290.511c.441.844,3.315,2.525,3.315,2.525s.31-3.219-.132-4.064a1.815,1.815,0,0,0-2.391-.759,1.681,1.681,0,0,0-.791,2.3Z" transform="translate(-701.795 -282.447)" fill="#6c63ff"/>
      <path id="Path_2363" data-name="Path 2363" d="M666.94,349.691c.684.679,3.949,1.456,3.949,1.456s-.706-3.161-1.391-3.84a1.833,1.833,0,0,0-2.519-.037,1.665,1.665,0,0,0-.039,2.421Z" transform="translate(-663.249 -334.732)" fill="#6c63ff"/>
      <path id="Path_2364" data-name="Path 2364" d="M637.815,417.531c.551.78,3.637,2.077,3.637,2.077s-.142-3.23-.693-4.011a1.828,1.828,0,0,0-2.476-.441,1.672,1.672,0,0,0-.467,2.375Z" transform="translate(-637.509 -395.298)" fill="#6c63ff"/>
    </g>
    <ellipse id="Ellipse_251" data-name="Ellipse 251" cx="1.989" cy="0.273" rx="1.989" ry="0.273" transform="translate(42.141 75.5)" fill="#6c63ff" opacity="0.1"/>
    <ellipse id="Ellipse_252" data-name="Ellipse 252" cx="1.989" cy="0.273" rx="1.989" ry="0.273" transform="translate(34.522 76.272)" fill="#6c63ff" opacity="0.1"/>
    <ellipse id="Ellipse_253" data-name="Ellipse 253" cx="1.989" cy="0.273" rx="1.989" ry="0.273" transform="translate(25.547 75.226)" fill="#6c63ff" opacity="0.1"/>
    <ellipse id="Ellipse_254" data-name="Ellipse 254" cx="1.414" cy="0.194" rx="1.414" ry="0.194" transform="translate(38.146 78.551)" fill="#6c63ff" opacity="0.1"/>
    <ellipse id="Ellipse_255" data-name="Ellipse 255" cx="1.414" cy="0.194" rx="1.414" ry="0.194" transform="translate(30.238 78.357)" fill="#6c63ff" opacity="0.1"/>
    <path id="Path_2365" data-name="Path 2365" d="M317.969,590.826s2.789-9.147-.441-12.808a6.069,6.069,0,0,0-6.38-2.073,2.262,2.262,0,0,0-1.464,1.212c-.429.926-.352,2.424,2.676,4.181,5.069,2.935,5.386,6.962,5.386,6.962Z" transform="translate(-281.501 -514.343)" fill="#6c63ff"/>
    <path id="Path_2366" data-name="Path 2366" d="M328.49,589.51s8.224,2.571,6.38,13.584" transform="translate(-298.402 -526.61)" fill="none" stroke="#565987" stroke-miterlimit="10" stroke-width="1"/>
    <path id="Path_2367" data-name="Path 2367" d="M365.27,597.87a1.818,1.818,0,0,0-.771,1.91" transform="translate(-330.379 -534.049)" fill="none" stroke="#565987" stroke-miterlimit="10" stroke-width="1"/>
    <path id="Path_2368" data-name="Path 2368" d="M336,600.509a1.426,1.426,0,0,1,1.534-.315" transform="translate(-305.084 -536.012)" fill="none" stroke="#565987" stroke-miterlimit="10" stroke-width="1"/>
    <path id="Path_2369" data-name="Path 2369" d="M365.47,634.285s1.212-.617,1.53.155" transform="translate(-331.306 -566.243)" fill="none" stroke="#565987" stroke-miterlimit="10" stroke-width="1"/>
    <path id="Path_2370" data-name="Path 2370" d="M385.259,647.8s-.912-.073-.929.364" transform="translate(-348.088 -578.475)" fill="none" stroke="#565987" stroke-miterlimit="10" stroke-width="1"/>
    <path id="Path_2371" data-name="Path 2371" d="M347.606,660.913s-3.266-6.646-4.165-6.5c-.425.069-.623.488-.711.91a2.677,2.677,0,0,0,.177,1.618A7.181,7.181,0,0,0,347.606,660.913Z" transform="translate(-311.026 -584.357)" fill="#6c63ff"/>
    <path id="Path_2372" data-name="Path 2372" d="M349.83,665.89s3.435,4.971,4.1,5.192" transform="translate(-317.39 -594.573)" fill="none" stroke="#565987" stroke-miterlimit="10" stroke-width="1"/>
    <line id="Line_22" data-name="Line 22" x2="0.8" transform="translate(32.125 72.093)" fill="none" stroke="#565987" stroke-miterlimit="10" stroke-width="1"/>
    <line id="Line_23" data-name="Line 23" x2="1.255" y2="0.054" transform="translate(33.084 73.913)" fill="none" stroke="#565987" stroke-miterlimit="10" stroke-width="1"/>
    <line id="Line_24" data-name="Line 24" x1="0.137" y2="0.654" transform="translate(33.711 72.457)" fill="none" stroke="#565987" stroke-miterlimit="10" stroke-width="1"/>
    <line id="Line_25" data-name="Line 25" x1="0.024" y2="0.594" transform="translate(35.158 74.446)" fill="none" stroke="#565987" stroke-miterlimit="10" stroke-width="1"/>
    <path id="Path_2373" data-name="Path 2373" d="M386.52,660.913s3.268-6.646,4.166-6.5c.425.069.623.488.711.91a2.677,2.677,0,0,1-.177,1.618A7.161,7.161,0,0,1,386.52,660.913Z" transform="translate(-350.037 -584.357)" fill="#6c63ff"/>
    <path id="Path_2374" data-name="Path 2374" d="M391.088,665.89s-3.426,4.971-4.088,5.192" transform="translate(-350.464 -594.573)" fill="none" stroke="#565987" stroke-miterlimit="10" stroke-width="1"/>
    <line id="Line_26" data-name="Line 26" x1="0.8" transform="translate(40.139 72.093)" fill="none" stroke="#565987" stroke-miterlimit="10" stroke-width="1"/>
    <line id="Line_27" data-name="Line 27" x1="1.254" y2="0.054" transform="translate(38.726 73.913)" fill="none" stroke="#565987" stroke-miterlimit="10" stroke-width="1"/>
    <line id="Line_28" data-name="Line 28" x2="0.136" y2="0.654" transform="translate(39.218 72.457)" fill="none" stroke="#565987" stroke-miterlimit="10" stroke-width="1"/>
    <line id="Line_29" data-name="Line 29" x2="0.024" y2="0.594" transform="translate(37.883 74.446)" fill="none" stroke="#565987" stroke-miterlimit="10" stroke-width="1"/>
    <path id="Path_2375" data-name="Path 2375" d="M334.05,720.26a.571.571,0,0,1-.186-.281.248.248,0,0,1,.13-.285c.119-.046.247.036.344.12a.457.457,0,0,0,.331.161.51.51,0,0,1-.158-.476.2.2,0,0,1,.044-.1c.066-.072.186-.041.266.015a.988.988,0,0,1,.324.828,1.528,1.528,0,0,0,0-.341.349.349,0,0,1,.129-.3.382.382,0,0,1,.2-.046.4.4,0,0,1,.317.09.316.316,0,0,1-.012.389,1.234,1.234,0,0,1-.331.263.724.724,0,0,0-.235.22.162.162,0,0,0-.018.04h-.711A2.016,2.016,0,0,1,334.05,720.26Z" transform="translate(-303.176 -642.151)" fill="#6c63ff"/>
    <path id="Path_2376" data-name="Path 2376" d="M447.02,695.97a.571.571,0,0,1-.186-.281.248.248,0,0,1,.13-.285c.119-.046.247.036.344.12s.207.179.331.161a.508.508,0,0,1-.158-.476.2.2,0,0,1,.044-.1c.066-.072.186-.041.266.015a.988.988,0,0,1,.324.828,1.527,1.527,0,0,0,0-.341.351.351,0,0,1,.128-.3.385.385,0,0,1,.2-.046.405.405,0,0,1,.317.09.315.315,0,0,1-.013.389,1.213,1.213,0,0,1-.331.263.709.709,0,0,0-.234.22.162.162,0,0,0-.018.04h-.711A1.983,1.983,0,0,1,447.02,695.97Z" transform="translate(-403.696 -620.538)" fill="#6c63ff"/>
    <path id="Path_2377" data-name="Path 2377" d="M409.37,720.26a.57.57,0,0,1-.186-.281.248.248,0,0,1,.13-.285c.119-.046.247.036.344.12a.457.457,0,0,0,.331.161.508.508,0,0,1-.158-.476.2.2,0,0,1,.044-.1c.066-.072.186-.041.266.015a.988.988,0,0,1,.324.828,1.528,1.528,0,0,0,0-.341.35.35,0,0,1,.128-.3.385.385,0,0,1,.2-.046.406.406,0,0,1,.317.09.315.315,0,0,1-.013.389,1.212,1.212,0,0,1-.331.263.709.709,0,0,0-.234.22.161.161,0,0,0-.018.04H409.8A1.984,1.984,0,0,1,409.37,720.26Z" transform="translate(-370.196 -642.151)" fill="#6c63ff"/>
    <path id="Path_2378" data-name="Path 2378" d="M299.326,678.42s-.267.348.123.874.711.971.581,1.3c0,0-.587-.976-1.067-.992S298.8,679.007,299.326,678.42Z" transform="translate(-271.919 -605.722)" fill="#6c63ff"/>
    <path id="Path_2379" data-name="Path 2379" d="M299.326,678.42a.411.411,0,0,0-.054.11c-.467.551-.715,1.06-.267,1.072.418.012.919.759,1.039.949a.118.118,0,0,1-.014.042c-.005.013-.587-.976-1.067-.992S298.8,679.007,299.326,678.42Z" transform="translate(-271.919 -605.722)" opacity="0.1"/>
    <path id="Path_2380" data-name="Path 2380" d="M299.67,681.813c0,.122.013.22.03.22s.031-.1.031-.22-.017-.065-.034-.065S299.67,681.69,299.67,681.813Z" transform="translate(-272.758 -608.671)" fill="#ffd037"/>
    <path id="Path_2381" data-name="Path 2381" d="M297.591,683.1c.11.058.2.094.21.078s-.073-.074-.181-.132-.065-.017-.074,0S297.484,683.042,297.591,683.1Z" transform="translate(-270.85 -609.813)" fill="#ffd037"/>
    <path id="Path_2382" data-name="Path 2382" d="M311.017,678.42s.266.348-.123.874-.711.971-.581,1.3c0,0,.587-.976,1.066-.992S311.543,679.007,311.017,678.42Z" transform="translate(-282.202 -605.722)" fill="#6c63ff"/>
    <path id="Path_2383" data-name="Path 2383" d="M311.139,678.42a.457.457,0,0,1,.054.11c.466.551.715,1.06.267,1.072-.418.012-.919.759-1.039.949a.119.119,0,0,0,.014.042c.006.013.587-.976,1.066-.992S311.664,679.007,311.139,678.42Z" transform="translate(-282.323 -605.722)" opacity="0.1"/>
    <path id="Path_2384" data-name="Path 2384" d="M320.932,681.813c0,.122-.013.22-.031.22s-.031-.1-.031-.22.018-.065.034-.065S320.932,681.69,320.932,681.813Z" transform="translate(-291.622 -608.671)" fill="#ffd037"/>
    <path id="Path_2385" data-name="Path 2385" d="M321.305,683.1c-.11.058-.2.094-.209.078s.073-.074.181-.132.065-.017.073,0S321.415,683.042,321.305,683.1Z" transform="translate(-291.822 -609.813)" fill="#ffd037"/>
    <path id="Path_2386" data-name="Path 2386" d="M298.275,694.472a2.736,2.736,0,0,1-.97-.183c-.225-.16-1.146-.35-1.2-.094s-1.121,1.275-.279,1.282a7.118,7.118,0,0,0,2.179-.268C298.228,695.072,298.275,694.472,298.275,694.472Z" transform="translate(-269.05 -619.647)" fill="#a8a8a8"/>
    <path id="Path_2387" data-name="Path 2387" d="M295.8,698.6a7.118,7.118,0,0,0,2.179-.268c.171-.1.239-.477.262-.649h.024s-.047.6-.271.737a7.125,7.125,0,0,1-2.179.268c-.244,0-.331-.088-.323-.22C295.53,698.551,295.623,698.6,295.8,698.6Z" transform="translate(-269.044 -622.859)" opacity="0.2"/>
    <rect id="Rectangle_1608" data-name="Rectangle 1608" width="1.947" height="4.352" rx="0.974" transform="matrix(0.3, 0.954, -0.954, 0.3, 22.05, 61.174)" fill="#6c63ff"/>
    <path id="Path_2388" data-name="Path 2388" d="M542.934,229.261s-.342-2.613-2.177-2.668.288,3.241.5,3.539c.127.173.025.655-.079,1.026a7.586,7.586,0,0,0-.188.812,1.9,1.9,0,0,1-.414.94,4.7,4.7,0,0,0-.738,1.237,1.74,1.74,0,0,1-.737-.11,5.672,5.672,0,0,0-1.511-.519c-.012.015-.046.022-.094.021a1.517,1.517,0,0,1-.22-.028c-.01-.062-.021-.123-.036-.187,0,0-.155-.067-.331-.162v-.011h0c.041-.1.067-.215.11-.316v-.009h0a.491.491,0,0,1,.14-.2c.169-.136.412-.089.616-.156a.706.706,0,0,0,.067-.026l.024-.014.037-.021.026-.019.03-.022.026-.023a.263.263,0,0,1,.025-.024l.023-.028.023-.026.021-.03c.007-.01.014-.019.02-.029s.013-.021.019-.032l.018-.032.017-.033.014-.034a.334.334,0,0,0,.014-.035.123.123,0,0,1,.012-.035c0-.012.007-.024.011-.036s0-.023.009-.036a.375.375,0,0,0,.009-.037l.007-.036a.1.1,0,0,1,.005-.04c.005-.013,0-.023,0-.034v-.043a.289.289,0,0,1,0-.031v-.134a1.1,1.1,0,0,0-.021-.134,1.266,1.266,0,0,1-.082-.655.18.18,0,0,1,.009-.022.344.344,0,0,1,.033-.063.453.453,0,0,1,.183-.151c.064-.033.134-.058.2-.086a1.543,1.543,0,0,0,.637-.441h0a1.018,1.018,0,0,0,.22-.5.794.794,0,0,0,0-.25v-.023h0a2.335,2.335,0,0,1-.1-.441.564.564,0,0,1,.025-.173q.013-.04.03-.079l.009-.019c.012-.025.025-.051.039-.075l.008-.013.043-.068.01-.014c.015-.024.033-.048.05-.073.041-.058.084-.116.123-.175h0c.019-.028.036-.056.053-.085h0c.017-.03.032-.058.046-.088v-.014a.993.993,0,0,0,.036-.095l.01-.032c.01-.036.019-.072.025-.11a.212.212,0,0,1,0-.026c0-.033.009-.066.011-.1a.179.179,0,0,1,0-.024v-.117a.249.249,0,0,0,0-.029.6.6,0,0,0-.008-.117,2.988,2.988,0,0,0-.073-.411c-.047-.2-.131-.423-.323-.476a.789.789,0,0,0-.3.013,1.439,1.439,0,0,1-.891-.226,7.152,7.152,0,0,1-.755-.564.663.663,0,0,0-.575-.2,1.545,1.545,0,0,0-.2.1.231.231,0,0,1-.044.013,1.055,1.055,0,0,1-.212.018h-.02c-.061-.194-.126-.386-.2-.575a2.92,2.92,0,0,0-.817-1.283,3.29,3.29,0,0,0-.754-.411,2.857,2.857,0,0,0-3.559.093l-1.354.925-.1-.031c-.2-.057-.4-.091-.522-.131l-.021-.007a1.065,1.065,0,0,1-.771-.873.939.939,0,0,1,.019-.193,3.1,3.1,0,0,1,.125-.391c.028-.075.051-.151.074-.227l.022-.082c.013-.048.025-.1.037-.145l.023-.11c.009-.04.015-.078.023-.118s.015-.084.021-.126a.138.138,0,0,1,.009-.058c.017-.12.029-.24.035-.36h0a1.9,1.9,0,0,1,.007-.193v-.223h0a4.525,4.525,0,0,0-.76-2.391,1.433,1.433,0,0,0-.149.587.22.22,0,0,1-.022.11.143.143,0,0,1-.206.009,2,2,0,0,1-.154-.179.379.379,0,0,0-.46-.055.416.416,0,0,0-.169.446,1.734,1.734,0,0,0-1.731.11.641.641,0,0,0-.3.379h0a.441.441,0,0,0,.052.307c.094.183.276.348.395.536a4.613,4.613,0,0,0-.721,1.556l-.1.121a3.4,3.4,0,0,0-.622.493.66.66,0,0,0-.207.551l-1.682,2.11a28.127,28.127,0,0,0-1.984,3.01,1.414,1.414,0,0,0,.341,2c1.112,1.037,1.331,1.148,1.493,1.5a4.455,4.455,0,0,0,1.407.859l.2.1a2.762,2.762,0,0,0,1.1,2.142,1.478,1.478,0,0,1,.025.294,9.72,9.72,0,0,0,.324,1.918.921.921,0,0,1-.134,1.195c-.593.473-.726.745-.362,1.129l.011.011-.054,1.084h-.159a7.714,7.714,0,0,0-1.73,1.584c-.3.584-.835,2.142-.835,2.142a8.145,8.145,0,0,1-.27,1.723c-.16.223,0,1.14,0,1.14s-.028,1.417.323,1.751.244,1.167.244,1.167a3.947,3.947,0,0,0,.062.539c-.376-.11-1.04-.183-1.155.684a9.258,9.258,0,0,0-.08,1.984,11.076,11.076,0,0,1-.566,1.873c-.242.415-.756,4.1,1.524,3.474a.98.98,0,0,0,.551-.566,2.579,2.579,0,0,0,.237-.3c-.009.72.19,1.328.892,1.179,0,0,.4-.089.585-.938a8.74,8.74,0,0,0,.992-1.158l.651-1.624h0l.05-.125.606-.65a16.361,16.361,0,0,0,3.086.648,7.594,7.594,0,0,0,.926.042,7.128,7.128,0,0,0,1.6-.151,8.788,8.788,0,0,0,4.139-.307c2.158-.833.674-2.668.3-3.057s-1.57-1.543-1.666-1.633v-.007s.22-6.67-.244-6.864a14.1,14.1,0,0,1-2-1.835l.162-1.056s.755.084.782-.584,0-1.667,0-1.667l.992-1.779s1.2-.713,1.747-.954c.029.019.06.039.094.057a5.2,5.2,0,0,0,2.306.628,12.9,12.9,0,0,1,2.535.22c.754.072,1.1-.684,1.025-.771s.306-.938.306-.938a23.262,23.262,0,0,0,.558-4.039A3.791,3.791,0,0,1,542.934,229.261Zm-19.379,22.352c.063.031.128.061.2.09a10.543,10.543,0,0,0,1.082.384l.674.25s-1.016.024-1.523.05a1.5,1.5,0,0,1-.655-.3A1.124,1.124,0,0,1,523.555,251.612Zm10.191-19.462c-.012-.033-.023-.068-.033-.1.093-.023.183-.05.273-.079-.061.069-.134.152-.22.241C533.759,232.189,533.751,232.17,533.746,232.15ZM522.395,229.4s.482-1.187.852-2q.022.1.05.2c-.015,0-.013-.018.051.149v.009a2.439,2.439,0,0,0,1.014,1.212,2.246,2.246,0,0,0,.481.22c0-.006,0-.011,0-.017a.155.155,0,0,0,0-.032.12.12,0,0,0,0-.02.137.137,0,0,0,0-.031l-.007-.015a.165.165,0,0,0-.017-.031l-.01-.011a.078.078,0,0,0-.015-.018c.075.047.151.093.227.139.017.009.032.02.049.03.078.045.156.088.236.131l.057.033c.094.05.19.1.285.144l.014.007.119.055.187.085a.331.331,0,0,0,.2.039.313.313,0,0,0,.119-.064l.036-.028a3.487,3.487,0,0,1,.779-.323.717.717,0,0,0,.5-.628.667.667,0,0,0-.289-.467c-.149-.11-.321-.192-.472-.3a.92.92,0,0,1-.385-.909.571.571,0,0,1,.024-.069l.007-.017q.013-.028.03-.056c0-.006.007-.012.011-.019a.725.725,0,0,1,.126-.14,2.092,2.092,0,0,1,.2-.145l1.329-.9c.1-.068.2-.136.3-.2h0a3.015,3.015,0,0,1,.274-.15c.028-.012.055-.025.084-.036l.055-.023c.05-.019.1-.036.151-.052.028-.007.065-.013.11-.02a7.2,7.2,0,0,1-.568,1.277.992.992,0,0,0-.1.228.289.289,0,0,0-.012.068.682.682,0,0,0,.062.287.854.854,0,0,0,.285.485c.046.033.089.064.127.1a.77.77,0,0,1-.014.1,4.286,4.286,0,0,0-.029.493,4.065,4.065,0,0,0,.771,2.39l-.044.05a4.038,4.038,0,0,1-.812.722c-.035.022-.071.043-.11.063a1.247,1.247,0,0,1-.129-.281.346.346,0,0,1-.441-.194c-.156-.306-.642,0-.642,0s-1.1-.639-1.159-.361a.276.276,0,0,1-.063.117l-.065-.062s-.253.084-.609.247a.683.683,0,0,1-.4-.247c-.11-.143-.082.068-.012.45l-.009.006-.129-.047c-.762-.28-2.573-1.007-2.658-1.62Zm12.444,2.773c-.05-.155-.29-.277-.469-.348a3.967,3.967,0,0,0,2-2.11c.017-.041.032-.083.047-.125.032-.008.064-.013.095-.023a.466.466,0,0,0,.315-.231.52.52,0,0,0,.032-.175c.009-.133.014-.267.018-.4v-.019a9.916,9.916,0,0,0-.244-2.432l.119.1h0c.046.039.093.077.138.117a.942.942,0,0,1,.11.11l.018.018c.035.035.069.072.1.11l.011.014a1.318,1.318,0,0,1,.08.11l.028.043a.973.973,0,0,1,.06.11l.011.022a1.1,1.1,0,0,1,.044.119l.01.028c.01.035.018.071.025.11a.257.257,0,0,0,.011.048c.007.037.011.076.015.116v.042c0,.036.005.074.008.11s0,.047,0,.071a4.95,4.95,0,0,1-.452,2.152,8.407,8.407,0,0,1-1.171,1.857,2.47,2.47,0,0,0-.387.569,1.155,1.155,0,0,0-.043.122c-.19-.025-.483-.079-.531-.238Z" transform="translate(-468.487 -196.621)" fill="url(#linear-gradient)"/>
    <path id="Path_2389" data-name="Path 2389" d="M676.588,297.352a22.43,22.43,0,0,1-.57,4s-.386.85-.312.93-.276.833-1.047.759a13.289,13.289,0,0,0-2.59-.22,5.445,5.445,0,0,1-2.355-.623c-.206-.11-.331-.226-.32-.314a11.838,11.838,0,0,1,1.2-1.929,3.237,3.237,0,0,0,.529.095c.049,0,.084-.006.1-.021a6.017,6.017,0,0,1,1.543.515,1.858,1.858,0,0,0,.753.1,4.648,4.648,0,0,1,.754-1.225,1.859,1.859,0,0,0,.424-.932,7.248,7.248,0,0,1,.192-.806c.11-.368.21-.845.082-1.017-.22-.294-2.388-3.563-.515-3.508s2.223,2.645,2.223,2.645A3.8,3.8,0,0,0,676.588,297.352Z" transform="translate(-601.736 -262.923)" fill="#fbbebe"/>
    <path id="Path_2390" data-name="Path 2390" d="M605.012,324.9l-1.543.661-1.791.551s-4.105-3.334-3.058-3.582a1.791,1.791,0,0,0,.516-.22,4.072,4.072,0,0,0,.83-.715,7.3,7.3,0,0,0,.721-.933s4.05-.193,3.416.771a2,2,0,0,0,.031,1.591c.011.036.023.073.035.11A10.2,10.2,0,0,0,605.012,324.9Z" transform="translate(-538.61 -287.378)" fill="#fbbebe"/>
    <path id="Path_2391" data-name="Path 2391" d="M547.6,525.906s-.711-.661-.97.357a10.469,10.469,0,0,0-.306,1.67,12.025,12.025,0,0,1-.6,1.53c-.207.33-1,3.394.518,3.086,0,0,.56-.119.669-1.412s1.05-5.149,1.05-5.149Z" transform="translate(-491.345 -469.828)" fill="#3f3d56"/>
    <path id="Path_2392" data-name="Path 2392" d="M561.822,497a9.386,9.386,0,0,1-4.363.287c-.421-.061-.679-.121-.679-.121l-4.821-.5-.1.1-.619.645-.716,1.734s-1.929,2.645-2.149,1.074a6.463,6.463,0,0,1-.041-1.036,28.6,28.6,0,0,1,.482-3.9l4.381-.579,2.755-1.433.03-1.494.007-.367.019-.921,3.747.358.661,1.488.007.007c.1.09,1.331,1.249,1.7,1.619S564.026,496.176,561.822,497Z" transform="translate(-494.015 -438.512)" fill="#fbbebe"/>
    <path id="Path_2393" data-name="Path 2393" d="M552.463,552.21s-1.967.083-2.094-.27l-.609,1.454s1.791.689,2.039.427Z" transform="translate(-495.287 -493.181)" fill="#6c63ff"/>
    <path id="Path_2394" data-name="Path 2394" d="M524.126,512.413s-1.281-.634-1.446.579a8.937,8.937,0,0,0-.083,1.97,10.748,10.748,0,0,1-.579,1.859c-.248.413-.771,4.069,1.556,3.444,0,0,.854-.234.716-1.736a49.729,49.729,0,0,1,.423-6.089Z" transform="translate(-470.398 -457.863)" fill="#3f3d56"/>
    <path id="Path_2395" data-name="Path 2395" d="M536.066,487.75l3.995,3.527s2.314,1.24-.441,3.361a6.938,6.938,0,0,1-3.141.331,16.862,16.862,0,0,1-3.471-.744s-1.433-.22-1.929.551-1.6,2.452-1.6,2.452-1.35,2.672-2.232-.634l1.13-3.224a10.379,10.379,0,0,0,0-1.322c-.055-.248.744-1.35,1.157-.992s.964.854,1.433.827,1.653-.055,1.653-.055l-.689-.248s-1.984-.551-1.846-.964,1.1-2.424,1.1-2.424Z" transform="translate(-475.257 -436.065)" opacity="0.1"/>
    <path id="Path_2396" data-name="Path 2396" d="M537.621,494.638a4.371,4.371,0,0,1-.7.2,7.734,7.734,0,0,1-2.442.127,17.2,17.2,0,0,1-3.155-.642c-.2-.062-.316-.1-.316-.1s-1.433-.22-1.929.551c-.331.508-.916,1.41-1.281,1.967l-.317.485s-1.35,2.672-2.232-.634l1.13-3.224a10.391,10.391,0,0,0,0-1.322,1.6,1.6,0,0,1,.68-.96c.171-.11.344-.148.477-.032a5.422,5.422,0,0,0,.882.671,1.056,1.056,0,0,0,.551.155c.468-.028,1.653-.055,1.653-.055l-.689-.248a10.8,10.8,0,0,1-1.1-.38c-.429-.181-.8-.4-.741-.584.138-.413,1.1-2.424,1.1-2.424l4.877-.441,1.386,1.224.594.523,2.015,1.779S540.376,492.516,537.621,494.638Z" transform="translate(-473.478 -436.065)" fill="#fbbebe"/>
    <path id="Path_2397" data-name="Path 2397" d="M577.527,525.228A3.625,3.625,0,0,0,574,524.209" transform="translate(-516.855 -468.446)" fill="none" stroke="#000" stroke-miterlimit="10" stroke-width="1" opacity="0.1"/>
    <path id="Path_2398" data-name="Path 2398" d="M528.049,536.63l-.8,1.832s.882,2.026,2.59,1.723l1.05-1.9S528.518,538.034,528.049,536.63Z" transform="translate(-475.257 -479.558)" opacity="0.1"/>
    <path id="Path_2399" data-name="Path 2399" d="M527.049,537.63l-.8,1.832s.882,2.026,2.59,1.723l1.05-1.9S527.518,539.034,527.049,537.63Z" transform="translate(-474.368 -480.448)" fill="#6c63ff"/>
    <path id="Path_2400" data-name="Path 2400" d="M669.995,356.943a1.975,1.975,0,0,0-.331.13c-.206-.11-.331-.226-.32-.314a11.838,11.838,0,0,1,1.2-1.929,3.234,3.234,0,0,0,.529.095A1.847,1.847,0,0,1,669.995,356.943Z" transform="translate(-601.692 -317.793)" opacity="0.1"/>
    <path id="Path_2401" data-name="Path 2401" d="M605.012,339.34l-1.543.661-1.791.551s-4.105-3.334-3.058-3.582a1.792,1.792,0,0,0,.516-.22,8.713,8.713,0,0,0,2.074,1.653,2.915,2.915,0,0,0,2.924-.943A9.965,9.965,0,0,0,605.012,339.34Z" transform="translate(-538.61 -301.706)" opacity="0.1"/>
    <path id="Path_2402" data-name="Path 2402" d="M573.4,333.176a18.131,18.131,0,0,0-1.984,1.019l-1.019,1.763s.028.992,0,1.653-.8.579-.8.579l-.037.015c-.2.083-1.123.472-1.123.48s-1.9-.193-1.9-.193l-3.719-.606a3.216,3.216,0,0,1-1.57-.441l-.011-.011c-.372-.38-.231-.655.369-1.119a.9.9,0,0,0,.138-1.185,9.378,9.378,0,0,1-.331-1.9c0-.716-.358-.689-.358-.689s-.248,0,.854-.716-.138-4.05.248-3.582,1.1.22,1.157-.055,1.185.358,1.185.358.5-.3.661,0a.359.359,0,0,0,.441.193c.276.909,2.314,2.094,2.314,2.094,1.818.661,3.389-1.46,3.389-1.46s.606.165.689.415.771.238.771.238.827.09.854.338.827.579.827.579A1.871,1.871,0,0,1,573.4,333.176Z" transform="translate(-505.318 -294.027)" fill="#fff"/>
    <path id="Path_2403" data-name="Path 2403" d="M571.259,410.6l-.037.236c-.2.083-1.123.472-1.123.48s-1.9-.193-1.9-.193l-3.719-.606a3.216,3.216,0,0,1-1.57-.441l-.011-.011.011-.209.606-.11s5.951.331,6.778.716Z" transform="translate(-506.979 -366.661)" opacity="0.1"/>
    <path id="Path_2404" data-name="Path 2404" d="M562.743,489.906c0,.137-.007.214-.007.214s-1.157-1.791-2.672-.909a1.943,1.943,0,0,1-1.16.288,1.838,1.838,0,0,1-.6-.156,2.372,2.372,0,0,1-.829-.627,11.787,11.787,0,0,0-3.554,1.295,1.141,1.141,0,0,1-1.653-.22,3.935,3.935,0,0,1-.582,1.411c-.429-.181-.8-.4-.741-.584.138-.413,1.1-2.424,1.1-2.424l4.877-.441,1.386,1.224.019-.921,3.747.358.661,1.488Z" transform="translate(-496.334 -436.065)" opacity="0.1"/>
    <path id="Path_2405" data-name="Path 2405" d="M537.872,411.75s5.951.331,6.778.716l.964.138-.165,1.047a14.6,14.6,0,0,0,2.039,1.818c.468.193.248,6.805.248,6.805s-1.157-1.791-2.672-.909a2.007,2.007,0,0,1-2.59-.5,11.788,11.788,0,0,0-3.554,1.295,1.141,1.141,0,0,1-1.653-.22s-.3,1.322-.661,1.46-.441,1.019-.441,1.019-.992-.193-.992-.5a.756.756,0,0,0-.22-.634,2.186,2.186,0,0,1-.22-.937s.11-.827-.248-1.157-.331-1.736-.331-1.736-.166-.909,0-1.13a7.664,7.664,0,0,0,.276-1.708s.551-1.543.854-2.121a7.806,7.806,0,0,1,1.763-1.57h.162l.055-1.074Z" transform="translate(-481.334 -368.44)" fill="#6c63ff"/>
    <circle id="Ellipse_256" data-name="Ellipse 256" cx="0.174" cy="0.174" r="0.174" transform="translate(62.958 45.284)" fill="#3f3d56"/>
    <circle id="Ellipse_257" data-name="Ellipse 257" cx="0.174" cy="0.174" r="0.174" transform="translate(62.03 49.234)" fill="#3f3d56"/>
    <circle id="Ellipse_258" data-name="Ellipse 258" cx="0.174" cy="0.174" r="0.174" transform="translate(63.252 47.893)" fill="#3f3d56"/>
    <path id="Path_2406" data-name="Path 2406" d="M555.82,424h.22s-1.322,3.031-1.4,2.185S555.82,424,555.82,424Z" transform="translate(-499.631 -379.34)" opacity="0.1"/>
    <path id="Path_2407" data-name="Path 2407" d="M571.81,426s-1.506,2.314-.771,2.645,1.4-2.535,1.4-2.535Z" transform="translate(-514.04 -381.12)" opacity="0.1"/>
    <path id="Path_2408" data-name="Path 2408" d="M597.83,438.12s.57,3.513,1.212,4.193a.709.709,0,0,1-.11,1.157s2.259.2,2.976.348,1.818-.165,1.378-.458-.073-3.416-.036-3.564S601.835,442.505,597.83,438.12Z" transform="translate(-538.059 -391.904)" opacity="0.1"/>
    <path id="Path_2409" data-name="Path 2409" d="M575.67,378.665c.128-.055,2.185-2.945,2.681-2.712S575.67,378.665,575.67,378.665Z" transform="translate(-518.341 -336.576)" opacity="0.1"/>
    <path id="Path_2410" data-name="Path 2410" d="M572.907,377.5s-.827,1.267-.587,1.488S572.907,377.5,572.907,377.5Z" transform="translate(-515.321 -337.965)" opacity="0.1"/>
    <path id="Path_2411" data-name="Path 2411" d="M588.07,334s.838,1.672.6,1.984S588.07,334,588.07,334Z" transform="translate(-529.375 -299.259)" opacity="0.1"/>
    <path id="Path_2412" data-name="Path 2412" d="M669.826,354.83s-.165.974-.386,1.011S669.826,354.83,669.826,354.83Z" transform="translate(-601.735 -317.793)" opacity="0.1"/>
    <path id="Path_2413" data-name="Path 2413" d="M637.33,357.67s2.333.571,2.517.7S637.826,358.5,637.33,357.67Z" transform="translate(-573.206 -320.32)" opacity="0.1"/>
    <path id="Path_2414" data-name="Path 2414" d="M709.169,363.619s-.293-1.14-.679-1.121S709.169,363.619,709.169,363.619Z" transform="translate(-636.449 -324.616)" opacity="0.1"/>
    <path id="Path_2415" data-name="Path 2415" d="M669.733,285.089c-.143.3-.455.533-.451.863a2.319,2.319,0,0,0,.11.455.919.919,0,0,1-.22.741,1.58,1.58,0,0,1-.654.441.813.813,0,0,0-.392.235c-.144.208-.019.486.041.733a.85.85,0,0,1-.451,1.018c-.208.066-.457.021-.629.154s-.19.4-.3.6a.685.685,0,0,1-.9.269.694.694,0,0,1,.039-.3.564.564,0,0,1-.629-.257.752.752,0,0,1,.005-.661,2.477,2.477,0,0,1,.395-.564,8.313,8.313,0,0,0,1.2-1.84,4.788,4.788,0,0,0,.462-2.134,1.632,1.632,0,0,0-.125-.637,1.582,1.582,0,0,0-.434-.527c-.091-.079-.188-.154-.283-.23-.066-.053-.132-.11-.2-.161-.086-.076-.428-.355-.4-.489.015-.077.247-.066.449-.068a1.1,1.1,0,0,0,.22-.018.221.221,0,0,0,.045-.013,1.734,1.734,0,0,1,.208-.1.691.691,0,0,1,.587.2,7.3,7.3,0,0,0,.771.559,1.508,1.508,0,0,0,.909.22.823.823,0,0,1,.306-.013c.2.052.281.276.331.472A1.63,1.63,0,0,1,669.733,285.089Z" transform="translate(-598.031 -253.503)" fill="#3f3d56"/>
    <path id="Path_2416" data-name="Path 2416" d="M558.619,228.141a1.138,1.138,0,0,0-.126.022,2.033,2.033,0,0,0-.339.129,4.972,4.972,0,0,0-.551.331l-1.358.888a1.118,1.118,0,0,0-.331.284.824.824,0,0,0,.32,1.06c.154.11.331.187.482.3a.661.661,0,0,1,.3.463c.017.288-.248.514-.514.623a3.645,3.645,0,0,0-.8.321.458.458,0,0,1-.159.09.348.348,0,0,1-.2-.039,8.321,8.321,0,0,1-1.2-.618.162.162,0,0,1,.05.173,2.394,2.394,0,0,1-1.368-3.488,6.962,6.962,0,0,0,.441-.72.883.883,0,0,0,0-.81c-.11-.164-.3-.274-.36-.463a.64.64,0,0,1,.206-.568c.318-.331.758-.529,1.11-.831a1.1,1.1,0,0,0,.418-1.22c-.159-.331-.585-.576-.514-.937a.638.638,0,0,1,.305-.38,1.815,1.815,0,0,1,1.763-.11.407.407,0,0,1,.173-.441.4.4,0,0,1,.469.054,2.018,2.018,0,0,0,.156.177.151.151,0,0,0,.21-.009.207.207,0,0,0,.023-.11,1.384,1.384,0,0,1,.152-.583,4.431,4.431,0,0,1,.521,4,1.579,1.579,0,0,0-.147.579,1.073,1.073,0,0,0,.791.865l.021.007c.122.04.331.074.533.13.267.074.523.186.551.4C559.71,228.051,558.968,228.093,558.619,228.141Z" transform="translate(-497.728 -199.362)" fill="#3f3d56"/>
    <path id="Path_2417" data-name="Path 2417" d="M523.736,243.141c-.2.22-1.249,2.7-1.249,2.7.087.607,1.937,1.329,2.721,1.608.212.076.346.119.346.119l.753.661s-.771,4.262-.833,3.215-1.426-1.58-1.426-1.58-.357-.145-.785-.343a4.5,4.5,0,0,1-1.433-.851c-.165-.349-.386-.46-1.525-1.488a1.373,1.373,0,0,1-.348-1.984,27.133,27.133,0,0,1,2.02-2.983l2.659-3.243s.734-3.012,2.579-1.837-2.1,3.986-2.1,3.986S523.938,242.92,523.736,243.141Z" transform="translate(-468.52 -212.826)" fill="#fbbebe"/>
    <path id="Path_2418" data-name="Path 2418" d="M555.254,333.7s-.771,4.262-.833,3.215-1.426-1.58-1.426-1.58-.357-.145-.785-.343c.138-.976,1.154-1.672,1.945-2.072.212.076.346.119.346.119Z" transform="translate(-497.467 -298.298)" opacity="0.1"/>
    <path id="Path_2419" data-name="Path 2419" d="M557.788,329.986l-.808-.736s-5.226,1.653-1.7,4.785h1.487l1.362-1.81Z" transform="translate(-499.112 -295.032)" fill="#fff"/>
    <path id="Path_2420" data-name="Path 2420" d="M616.348,323c.011.036.023.073.035.11a3.973,3.973,0,0,1-4.2-1.537,7.3,7.3,0,0,0,.721-.933s4.05-.193,3.416.771A2.018,2.018,0,0,0,616.348,323Z" transform="translate(-550.828 -287.36)" opacity="0.1"/>
    <path id="Path_2421" data-name="Path 2421" d="M613.425,275.237a3.952,3.952,0,1,1-1.158-2.81A3.967,3.967,0,0,1,613.425,275.237Z" transform="translate(-544.875 -243.442)" fill="#fbbebe"/>
    <path id="Path_2422" data-name="Path 2422" d="M613.718,275.175a3.951,3.951,0,0,1-.309,1.535,1.786,1.786,0,0,1-.676.011.4.4,0,0,1-.239-.11.441.441,0,0,1-.08-.22q-.063-.367-.123-.732a1.319,1.319,0,0,1-1.1-.151c-.331-.187-.622-.449-.943-.661a1.526,1.526,0,0,0-1.084-.3,1.834,1.834,0,0,0-.58.244,4.052,4.052,0,0,0-.992.742,1.846,1.846,0,0,1-.654.585.692.692,0,0,1-.863-.441,3.885,3.885,0,0,1-.043-.633.491.491,0,0,0-.211-.366,3.967,3.967,0,0,1,7.905.488Z" transform="translate(-545.168 -243.379)" opacity="0.1"/>
    <path id="Path_2423" data-name="Path 2423" d="M602.153,263.766a3.885,3.885,0,0,0,.043.633.692.692,0,0,0,.863.441,1.867,1.867,0,0,0,.654-.585,4.052,4.052,0,0,1,.992-.742,1.833,1.833,0,0,1,.58-.244,1.549,1.549,0,0,1,1.084.3c.323.208.608.471.943.661a1.31,1.31,0,0,0,1.1.151l.123.732a.44.44,0,0,0,.08.22.4.4,0,0,0,.239.11,1.785,1.785,0,0,0,.821-.047.472.472,0,0,0,.322-.229.515.515,0,0,0,.033-.174,9.556,9.556,0,0,0-.637-4.131,2.89,2.89,0,0,0-.834-1.272,3.369,3.369,0,0,0-.771-.408,3.982,3.982,0,0,0-2.593-.455,3.9,3.9,0,0,0-1.046.551l-1.543,1.024a.963.963,0,0,0-.22.182,1.051,1.051,0,0,0-.166.364,7.05,7.05,0,0,1-.633,1.419.7.7,0,0,0-.119.294.672.672,0,0,0,.064.283c.079.206.11.359.291.48A.568.568,0,0,1,602.153,263.766Z" transform="translate(-541.298 -232.203)" fill="#3f3d56"/>
    <g id="Group_389" data-name="Group 389" transform="translate(54.878 23.685)" opacity="0.1">
      <path id="Path_2424" data-name="Path 2424" d="M557.325,301.553a3.7,3.7,0,0,0-.8.321.459.459,0,0,1-.159.09.348.348,0,0,1-.2-.039,8.244,8.244,0,0,1-1.212-.629.16.16,0,0,1,.066.184,2.431,2.431,0,0,1-1.53-1.414c-.088-.226.017.241,0,0-.024.352-.128,0,0,.331a2.431,2.431,0,0,0,1.525,1.414.16.16,0,0,0-.066-.184,8.238,8.238,0,0,0,1.212.629.348.348,0,0,0,.2.039.458.458,0,0,0,.159-.09,3.591,3.591,0,0,1,.8-.321c.266-.108.53-.331.514-.623a.464.464,0,0,0-.032-.14A.857.857,0,0,1,557.325,301.553Z" transform="translate(-553.432 -292.694)"/>
      <path id="Path_2425" data-name="Path 2425" d="M600.17,245.129a.661.661,0,0,0,.02.14,2.847,2.847,0,0,1,.127-.388,4.3,4.3,0,0,0,.255-1.631,4.263,4.263,0,0,1-.255,1.3A1.581,1.581,0,0,0,600.17,245.129Z" transform="translate(-595.019 -242.195)"/>
      <path id="Path_2426" data-name="Path 2426" d="M677.828,288.311a2.2,2.2,0,0,0-.7-.741c.031.131.058.263.084.4a1.965,1.965,0,0,1,.614.674,1.6,1.6,0,0,1,.123.605v-.3A1.631,1.631,0,0,0,677.828,288.311Z" transform="translate(-663.498 -281.631)"/>
      <path id="Path_2427" data-name="Path 2427" d="M567.6,234.612c.033-.162.121-.091.049-.245-.12-.249-.391-.45-.487-.688a.412.412,0,0,0-.026.082c-.072.36.306.519.465.851C567.626,234.66,567.5,234.376,567.6,234.612Z" transform="translate(-565.62 -233.68)"/>
      <path id="Path_2428" data-name="Path 2428" d="M585.356,276.92a.813.813,0,0,0-.11.02,3.186,3.186,0,0,0-.89.456l-1.358.888a1.119,1.119,0,0,0-.331.284.6.6,0,0,0-.074.493.523.523,0,0,1,.074-.162,1.118,1.118,0,0,1,.331-.284l1.358-.888a3.255,3.255,0,0,1,.866-.449C585.269,277.159,585.314,277.039,585.356,276.92Z" transform="translate(-579.358 -272.155)"/>
      <path id="Path_2429" data-name="Path 2429" d="M692.233,317.11a1.007,1.007,0,0,1-.212.434,1.579,1.579,0,0,1-.654.441.813.813,0,0,0-.392.235.51.51,0,0,0-.043.415.343.343,0,0,1,.043-.085.788.788,0,0,1,.392-.235,1.58,1.58,0,0,0,.654-.441.919.919,0,0,0,.22-.741A.051.051,0,0,0,692.233,317.11Z" transform="translate(-675.757 -307.916)"/>
      <path id="Path_2430" data-name="Path 2430" d="M702.46,299.7c-.143.3-.455.533-.451.863a.637.637,0,0,0,.025.163,5.833,5.833,0,0,1,.425-.7,1.212,1.212,0,0,0,.089-.661,1.032,1.032,0,0,1-.089.331Z" transform="translate(-685.635 -292.131)"/>
      <path id="Path_2431" data-name="Path 2431" d="M608.66,295.836a.4.4,0,0,0,.239.11,1.785,1.785,0,0,0,.821-.047.472.472,0,0,0,.322-.229.513.513,0,0,0,.033-.174c.019-.271.024-.542.019-.813,0,.161-.008.322-.019.483a.513.513,0,0,1-.033.174.472.472,0,0,1-.322.229,1.784,1.784,0,0,1-.821.047.4.4,0,0,1-.239-.11.441.441,0,0,1-.08-.22q-.063-.367-.123-.732a1.319,1.319,0,0,1-1.1-.151c-.331-.187-.622-.449-.943-.661a1.526,1.526,0,0,0-1.084-.3,1.834,1.834,0,0,0-.58.244,4.053,4.053,0,0,0-.992.742,1.846,1.846,0,0,1-.654.585.692.692,0,0,1-.863-.441,3.885,3.885,0,0,1-.043-.633.568.568,0,0,0-.331-.45c-.182-.119-.212-.274-.291-.48-.01-.026-.021-.055-.03-.083a.412.412,0,0,0-.034.13.671.671,0,0,0,.064.283c.079.206.11.359.291.48a.583.583,0,0,1,.331.45,3.885,3.885,0,0,0,.043.633.692.692,0,0,0,.863.441,1.867,1.867,0,0,0,.654-.585,4.051,4.051,0,0,1,.992-.742,1.834,1.834,0,0,1,.58-.244,1.549,1.549,0,0,1,1.084.3c.323.208.608.471.943.661a1.31,1.31,0,0,0,1.1.151l.123.732A.441.441,0,0,0,608.66,295.836Z" transform="translate(-596.212 -286.4)"/>
      <path id="Path_2432" data-name="Path 2432" d="M667.709,338.078c-.208.066-.457.021-.629.154s-.19.4-.3.6a.685.685,0,0,1-.9.269.694.694,0,0,1,.039-.3.564.564,0,0,1-.629-.257.576.576,0,0,1-.056-.144.678.678,0,0,0,.056.475.564.564,0,0,0,.629.257.694.694,0,0,0-.039.3.685.685,0,0,0,.9-.269c.11-.2.118-.46.3-.6s.421-.088.629-.154a.832.832,0,0,0,.464-.949A.734.734,0,0,1,667.709,338.078Z" transform="translate(-652.9 -326.023)"/>
    </g>
    <path id="Path_2433" data-name="Path 2433" d="M604.728,271.34a3.958,3.958,0,0,1-.483.828,1.137,1.137,0,0,0-.126.022,2.029,2.029,0,0,0-.339.129,6.88,6.88,0,0,1,.415-1.109C604.317,271.25,604.525,271.284,604.728,271.34Z" transform="translate(-543.353 -243.389)" fill="#6c63ff"/>
    <path id="Path_2434" data-name="Path 2434" d="M676.05,284.707c-.091-.079-.188-.154-.283-.23-.055-.22-.11-.484-.147-.719a1.094,1.094,0,0,0,.22-.018A3.034,3.034,0,0,1,676.05,284.707Z" transform="translate(-607.276 -254.538)" fill="#6c63ff"/>
    <path id="Path_2435" data-name="Path 2435" d="M861.547,325.386c.034-.017.067-.033.1-.052-.067-.013-.134-.029-.2-.045-.047.013-.1.023-.144.034a5.43,5.43,0,0,1-2.425-1.462,3.823,3.823,0,0,1-1.133-2.6c.008-.7.266-1.389.258-2.094a1.514,1.514,0,0,0-1.136-1.579,5.247,5.247,0,0,0-.753.046.6.6,0,0,1-.672-.878c.192-.539.623-.974.808-1.515a1.821,1.821,0,0,0,.05-1,1,1,0,0,0-.467-.684c-.425-.22-.931.035-1.4.125a3.373,3.373,0,0,1-2.326-.627,10.171,10.171,0,0,0-2.133-1.2,5.132,5.132,0,0,0-1.583-.2,1.388,1.388,0,0,0-.932.241c-.012.011-.021.023-.033.034a.85.85,0,0,1,.1-.193.689.689,0,0,0-.1.076c-.506.446-.152,1.3-.45,1.9a.99.99,0,0,1-.121.185,1.454,1.454,0,0,0,.2-.181c-.011.026-.021.053-.034.079a1.79,1.79,0,0,1-.882.721,2.917,2.917,0,0,0-.982.617c-.007.007-.011.013-.018.021a1.08,1.08,0,0,1,.176-.291,1.444,1.444,0,0,0-.2.186c-.277.321-.3.587-.174.792a.951.951,0,0,0,.671.488c-.015.069-.03.139-.042.209a3.481,3.481,0,0,0-.042.529,3.442,3.442,0,0,0,2.737,3.333,1.986,1.986,0,0,1-.018.22c-.053.5-.207,1.043-.612,1.175-.378-.129-1.135.441-1.3.606s-.771.018-1.323.036a1.109,1.109,0,0,1-.737-.147,3.136,3.136,0,0,0-.02.9c.057.551-.4.57-.4.57a2.705,2.705,0,0,1-.11,1.194,1.339,1.339,0,0,0-.151.755s.643-.055.585.165a.2.2,0,0,0,.037.147l-.007.21-.087,2.912-.17,1.736a.293.293,0,0,0-.19.174c-.153.348-.4.812-.594,1.167-.788.477-1.972,1.362-1.637,2.213.492,1.25,1.191,1.084,1.607.937s1.158-1.3,1.158-1.3.246-.46.434-.46a2.44,2.44,0,0,0,.3-.032v.032a6.935,6.935,0,0,0-.264,1.947,1.891,1.891,0,0,1,.019.882,5.309,5.309,0,0,0,.037,1.507,3.053,3.053,0,0,1-.2,1.357s.1.031.277.074c-.013.063-.029.132-.045.209a14.432,14.432,0,0,0-.174,5.649s.264,1.1.3,1.4a2.149,2.149,0,0,1,.11,1.212,4.434,4.434,0,0,0,.3,1.875,5.612,5.612,0,0,1,.095,1.689c-.132.532,1.38,6.5,1.38,6.5l.247-.035.055.213.246.948.026.1a.815.815,0,0,0-.441.278,4.716,4.716,0,0,1-1.493,1.929c-.22.11-.49.258-.75.418-.743.454-1.38,1-.3,1.015,1.186.015,3.134.078,3.833.1a1.669,1.669,0,0,0,.788.119,22.361,22.361,0,0,0,4.764-.422c.028-.089-.088-.279-.214-.45s-.279-.341-.279-.341l-.056-1.672s-.159-.143-.4-.341l-.009-.117-.123-1.612-.017-.22a.637.637,0,0,0,.231-.1l.133-1.67a9.69,9.69,0,0,0-.227-5.529s-.907-1.891-.661-2.571l.039-1.451s.434-1.709.642-2.168a11.745,11.745,0,0,0,.648-2.191,5.116,5.116,0,0,0,.624-2.755l.529-1.653.737-2.112s.208-1.286.284-1.543a11.83,11.83,0,0,0,0-1.653s.639-5.091.1-7.081v-.076h.006v-.11c.009-.01.582-.607.32-.771a8.319,8.319,0,0,1-.918-1.112c-.041-.047-.078-.09-.11-.129a3.779,3.779,0,0,0,.909-1.009c.093-.151.206-.331.387-.338a.488.488,0,0,1,.27.089c1.385.83,1.608,2.905,3.068,3.6a2.18,2.18,0,0,0,1.95-.056Zm-11.082,33.187-.012.11a.6.6,0,0,0-.138.068,4.465,4.465,0,0,1-.3,1.047.914.914,0,0,0-.14.247l-.028-.05c-.009.02-.019.04-.028.061l-.051-.093-.014-.11-.315-2.437a11.167,11.167,0,0,1,.009-2.155c.132-.735.11-3.306-.737-4.334a2.027,2.027,0,0,1-.037-1.543l.056-3.822.132-.129.019,3.527a3.556,3.556,0,0,0,.851,2.021l.133,1.855a17.358,17.358,0,0,0,.453,3.141v1.727s.091.015.238.036l-.023.22Z" transform="translate(-754.841 -279.366)" fill="url(#linear-gradient-2)"/>
    <path id="Path_2436" data-name="Path 2436" d="M897.8,366.731l-.79,1.763-.292.171-1.967,1.152s-2.48-.239-2.552-.276-.19-2.142.452-2.585a.424.424,0,0,1,.116-.058h0c.393-.132.543-.674.6-1.175.008-.074.013-.145.017-.22a5.218,5.218,0,0,0,0-.7s.6-.6,1.323-1.224c1.277-1.1,2.929-2.265,2.3-.282a6.619,6.619,0,0,0-.258,1.1c-.013.087-.022.172-.029.252a2.047,2.047,0,0,0,.536,1.783c.033.031.067.057.1.083A1.212,1.212,0,0,0,897.8,366.731Z" transform="translate(-799.936 -324.367)" fill="#cf6f80"/>
    <path id="Path_2437" data-name="Path 2437" d="M839.68,711.843l-.276.128-1.855-.422-.165-.657-.239-.948-.165-.655h2.379l.306,2.439Z" transform="translate(-744.754 -631.128)" fill="#cf6f80"/>
    <path id="Path_2438" data-name="Path 2438" d="M898.02,743.218l-1.855-.422-.165-.661a2.781,2.781,0,0,1,1.727.381c-.067.234.461.423.551.455l.014.11Z" transform="translate(-803.369 -662.374)" opacity="0.1"/>
    <path id="Path_2439" data-name="Path 2439" d="M904.342,752.456l-1.33,1.3-.469.46-.255-.009c-.479-.269.142-.922.558-1.285.082-.072.155-.131.212-.175a4.055,4.055,0,0,0,.755-1.291Z" transform="translate(-808.81 -670.712)" opacity="0.1"/>
    <path id="Path_2440" data-name="Path 2440" d="M903.812,751.46l.53.992-1.33,1.3-.469.464-.255-.009c-.479-.269.142-.922.558-1.285.082-.072.155-.131.212-.175A4.055,4.055,0,0,0,903.812,751.46Z" transform="translate(-808.81 -670.712)" opacity="0.1"/>
    <path id="Path_2441" data-name="Path 2441" d="M924.773,739.721l-2.443-.827.073-.7c.637-.22,1.745.581,2.336,1.067Z" transform="translate(-826.797 -658.878)" opacity="0.1"/>
    <path id="Path_2442" data-name="Path 2442" d="M871.173,745.153l-1.33,1.3-.469.46s-2.553-.091-3.975-.11c-1.051-.014-.433-.561.289-1.015.253-.16.519-.307.73-.418a4.712,4.712,0,0,0,1.45-1.929c.606-.771,2.131.11,2.131.11-.074.257.569.46.569.46Z" transform="translate(-775.641 -663.299)" fill="#3f3d56"/>
    <path id="Path_2443" data-name="Path 2443" d="M869.843,767.956l-.469.46s-2.553-.091-3.975-.11c-1.051-.014-.433-.561.289-1.015a1.154,1.154,0,0,1,.913.661Z" transform="translate(-775.641 -684.798)" opacity="0.1"/>
    <path id="Path_2444" data-name="Path 2444" d="M869.423,709.747l-2.443-.827.073-.7.063-.609.085-.823h2l.066.887.12,1.612Z" transform="translate(-771.447 -628.903)" fill="#cf6f80"/>
    <path id="Path_2445" data-name="Path 2445" d="M907.685,743.07a21.119,21.119,0,0,1-4.629.422c-1.642.032-.753-.932-.212-1.4.082-.072.155-.131.212-.175.422-.331.808-1.525.918-1.6a4.558,4.558,0,0,0,.294-1.047c.827-.589,2.883,1.34,2.883,1.34l.055,1.672s.141.16.271.341S907.711,742.981,907.685,743.07Z" transform="translate(-808.808 -659.765)" fill="#3f3d56"/>
    <path id="Path_2446" data-name="Path 2446" d="M907.685,766.742a21.119,21.119,0,0,1-4.629.422c-1.642.032-.753-.932-.212-1.4a2.435,2.435,0,0,1,1.038.834h2.112a12.338,12.338,0,0,0,1.483-.3C907.6,766.463,907.711,766.653,907.685,766.742Z" transform="translate(-808.808 -683.437)" opacity="0.1"/>
    <path id="Path_2447" data-name="Path 2447" d="M894.7,728c.012.2.023.331.023.331l-2.223.324L892.33,728Z" transform="translate(-800.104 -649.838)" opacity="0.1"/>
    <path id="Path_2448" data-name="Path 2448" d="M925.713,726.387a6.993,6.993,0,0,1-2.153-.064l.085-.823h2Z" transform="translate(-827.892 -647.613)" opacity="0.1"/>
    <path id="Path_2449" data-name="Path 2449" d="M878.109,564.517a9.963,9.963,0,0,1,.22,5.529l-.129,1.672c-.46.367-2.571,0-2.571,0v-1.727a18.115,18.115,0,0,1-.441-3.141L875.06,565a3.615,3.615,0,0,1-.827-2.021l-.019-3.527-.128.129-.055,3.821a2.08,2.08,0,0,0,.036,1.543c.827,1.028.845,3.6.716,4.334a12.434,12.434,0,0,0,0,2.259l-2.516.367a62.618,62.618,0,0,1-1.341-6.5,5.76,5.76,0,0,0-.091-1.689,4.6,4.6,0,0,1-.294-1.873,2.232,2.232,0,0,0-.11-1.212c-.036-.294-.294-1.4-.294-1.4a14.862,14.862,0,0,1,.17-5.649c.072-.352.125-.559.125-.559s6.833-1.984,7.99-.331a2.374,2.374,0,0,1,.313.651c.565,1.786-.429,4.582-.607,4.988-.2.458-.624,2.167-.624,2.167l-.037,1.451C877.227,562.626,878.109,564.517,878.109,564.517Z" transform="translate(-780.17 -493.262)" fill="#3f3d56"/>
    <circle id="Ellipse_259" data-name="Ellipse 259" cx="0.074" cy="0.074" r="0.074" transform="translate(96.101 73.919)" fill="#6c63ff"/>
    <circle id="Ellipse_260" data-name="Ellipse 260" cx="0.074" cy="0.074" r="0.074" transform="translate(92.445 75.762)" fill="#6c63ff"/>
    <circle id="Ellipse_261" data-name="Ellipse 261" cx="0.074" cy="0.074" r="0.074" transform="translate(92.189 74.599)" fill="#6c63ff"/>
    <circle id="Ellipse_262" data-name="Ellipse 262" cx="0.074" cy="0.074" r="0.074" transform="translate(92.694 74.691)" fill="#6c63ff"/>
    <circle id="Ellipse_263" data-name="Ellipse 263" cx="0.074" cy="0.074" r="0.074" transform="translate(92.478 75.313)" fill="#6c63ff"/>
    <circle id="Ellipse_264" data-name="Ellipse 264" cx="0.074" cy="0.074" r="0.074" transform="translate(95.789 75.131)" fill="#6c63ff"/>
    <circle id="Ellipse_265" data-name="Ellipse 265" cx="0.074" cy="0.074" r="0.074" transform="translate(97.332 75.554)" fill="#6c63ff"/>
    <circle id="Ellipse_266" data-name="Ellipse 266" cx="0.074" cy="0.074" r="0.074" transform="translate(97.828 75.058)" fill="#6c63ff"/>
    <circle id="Ellipse_267" data-name="Ellipse 267" cx="0.074" cy="0.074" r="0.074" transform="translate(96.249 74.764)" fill="#6c63ff"/>
    <circle id="Ellipse_268" data-name="Ellipse 268" cx="0.074" cy="0.074" r="0.074" transform="translate(93.252 74.261)" fill="#6c63ff"/>
    <circle id="Ellipse_269" data-name="Ellipse 269" cx="0.074" cy="0.074" r="0.074" transform="translate(93.865 74.691)" fill="#6c63ff"/>
    <circle id="Ellipse_270" data-name="Ellipse 270" cx="0.074" cy="0.074" r="0.074" transform="translate(92.812 76.555)" fill="#6c63ff"/>
    <circle id="Ellipse_271" data-name="Ellipse 271" cx="0.074" cy="0.074" r="0.074" transform="translate(93.065 77.446)" fill="#6c63ff"/>
    <circle id="Ellipse_272" data-name="Ellipse 272" cx="0.074" cy="0.074" r="0.074" transform="translate(93.897 77.757)" fill="#6c63ff"/>
    <circle id="Ellipse_273" data-name="Ellipse 273" cx="0.074" cy="0.074" r="0.074" transform="translate(93.399 77.813)" fill="#6c63ff"/>
    <circle id="Ellipse_274" data-name="Ellipse 274" cx="0.074" cy="0.074" r="0.074" transform="translate(92.958 78.233)" fill="#6c63ff"/>
    <circle id="Ellipse_275" data-name="Ellipse 275" cx="0.074" cy="0.074" r="0.074" transform="translate(93.326 75.239)" fill="#6c63ff"/>
    <circle id="Ellipse_276" data-name="Ellipse 276" cx="0.074" cy="0.074" r="0.074" transform="translate(93.326 76.142)" fill="#6c63ff"/>
    <circle id="Ellipse_277" data-name="Ellipse 277" cx="0.074" cy="0.074" r="0.074" transform="translate(93.792 76.736)" fill="#6c63ff"/>
    <circle id="Ellipse_278" data-name="Ellipse 278" cx="0.074" cy="0.074" r="0.074" transform="translate(93.369 77.004)" fill="#6c63ff"/>
    <circle id="Ellipse_279" data-name="Ellipse 279" cx="0.074" cy="0.074" r="0.074" transform="translate(92.517 78.233)" fill="#6c63ff"/>
    <circle id="Ellipse_280" data-name="Ellipse 280" cx="0.074" cy="0.074" r="0.074" transform="translate(93.824 77.159)" fill="#6c63ff"/>
    <circle id="Ellipse_281" data-name="Ellipse 281" cx="0.074" cy="0.074" r="0.074" transform="translate(97.332 74.525)" fill="#6c63ff"/>
    <circle id="Ellipse_282" data-name="Ellipse 282" cx="0.074" cy="0.074" r="0.074" transform="translate(96.607 75.554)" fill="#6c63ff"/>
    <circle id="Ellipse_283" data-name="Ellipse 283" cx="0.074" cy="0.074" r="0.074" transform="translate(96.101 77.078)" fill="#6c63ff"/>
    <circle id="Ellipse_284" data-name="Ellipse 284" cx="0.074" cy="0.074" r="0.074" transform="translate(95.936 78.088)" fill="#6c63ff"/>
    <circle id="Ellipse_285" data-name="Ellipse 285" cx="0.074" cy="0.074" r="0.074" transform="translate(96.8 74.911)" fill="#6c63ff"/>
    <circle id="Ellipse_286" data-name="Ellipse 286" cx="0.074" cy="0.074" r="0.074" transform="translate(96.533 75.994)" fill="#6c63ff"/>
    <circle id="Ellipse_287" data-name="Ellipse 287" cx="0.074" cy="0.074" r="0.074" transform="translate(96.754 76.81)" fill="#6c63ff"/>
    <circle id="Ellipse_288" data-name="Ellipse 288" cx="0.074" cy="0.074" r="0.074" transform="translate(95.597 77.64)" fill="#6c63ff"/>
    <circle id="Ellipse_289" data-name="Ellipse 289" cx="0.074" cy="0.074" r="0.074" transform="translate(96.249 77.372)" fill="#6c63ff"/>
    <circle id="Ellipse_290" data-name="Ellipse 290" cx="0.074" cy="0.074" r="0.074" transform="translate(96.029 77.592)" fill="#6c63ff"/>
    <circle id="Ellipse_291" data-name="Ellipse 291" cx="0.074" cy="0.074" r="0.074" transform="translate(97.332 77.272)" fill="#6c63ff"/>
    <circle id="Ellipse_292" data-name="Ellipse 292" cx="0.074" cy="0.074" r="0.074" transform="translate(97.332 77.52)" fill="#6c63ff"/>
    <circle id="Ellipse_293" data-name="Ellipse 293" cx="0.074" cy="0.074" r="0.074" transform="translate(96.607 78.088)" fill="#6c63ff"/>
    <circle id="Ellipse_294" data-name="Ellipse 294" cx="0.074" cy="0.074" r="0.074" transform="translate(96.396 78.306)" fill="#6c63ff"/>
    <circle id="Ellipse_295" data-name="Ellipse 295" cx="0.074" cy="0.074" r="0.074" transform="translate(96.9 77.64)" fill="#6c63ff"/>
    <circle id="Ellipse_296" data-name="Ellipse 296" cx="0.074" cy="0.074" r="0.074" transform="translate(96.322 78.016)" fill="#6c63ff"/>
    <circle id="Ellipse_297" data-name="Ellipse 297" cx="0.074" cy="0.074" r="0.074" transform="translate(97.606 77.078)" fill="#6c63ff"/>
    <circle id="Ellipse_298" data-name="Ellipse 298" cx="0.074" cy="0.074" r="0.074" transform="translate(97.754 77.52)" fill="#6c63ff"/>
    <circle id="Ellipse_299" data-name="Ellipse 299" cx="0.074" cy="0.074" r="0.074" transform="translate(96.68 77.372)" fill="#6c63ff"/>
    <circle id="Ellipse_300" data-name="Ellipse 300" cx="0.074" cy="0.074" r="0.074" transform="translate(96.9 78.122)" fill="#6c63ff"/>
    <circle id="Ellipse_301" data-name="Ellipse 301" cx="0.074" cy="0.074" r="0.074" transform="translate(97.332 78.016)" fill="#6c63ff"/>
    <circle id="Ellipse_302" data-name="Ellipse 302" cx="0.074" cy="0.074" r="0.074" transform="translate(97.258 78.306)" fill="#6c63ff"/>
    <circle id="Ellipse_303" data-name="Ellipse 303" cx="0.074" cy="0.074" r="0.074" transform="translate(96.9 78.38)" fill="#6c63ff"/>
    <circle id="Ellipse_304" data-name="Ellipse 304" cx="0.074" cy="0.074" r="0.074" transform="translate(97.258 76.511)" fill="#6c63ff"/>
    <circle id="Ellipse_305" data-name="Ellipse 305" cx="0.074" cy="0.074" r="0.074" transform="translate(92.197 77.085)" fill="#6c63ff"/>
    <circle id="Ellipse_306" data-name="Ellipse 306" cx="0.074" cy="0.074" r="0.074" transform="translate(92.197 77.333)" fill="#6c63ff"/>
    <circle id="Ellipse_307" data-name="Ellipse 307" cx="0.074" cy="0.074" r="0.074" transform="translate(92.47 76.893)" fill="#6c63ff"/>
    <circle id="Ellipse_308" data-name="Ellipse 308" cx="0.074" cy="0.074" r="0.074" transform="translate(92.693 77.757)" fill="#6c63ff"/>
    <circle id="Ellipse_309" data-name="Ellipse 309" cx="0.074" cy="0.074" r="0.074" transform="translate(92.619 77.333)" fill="#6c63ff"/>
    <circle id="Ellipse_310" data-name="Ellipse 310" cx="0.074" cy="0.074" r="0.074" transform="translate(92.197 77.829)" fill="#6c63ff"/>
    <circle id="Ellipse_311" data-name="Ellipse 311" cx="0.074" cy="0.074" r="0.074" transform="translate(92.123 76.326)" fill="#6c63ff"/>
    <path id="Path_2450" data-name="Path 2450" d="M850.48,541.1l.184,5.62.2-.148.148-5.786Z" transform="translate(-756.766 -481.198)" opacity="0.1"/>
    <path id="Path_2451" data-name="Path 2451" d="M858.237,487.684s-1.267-1.195-1.543-.551-.864,1.689-.864,1.689l1.4,1.322s.239-.46.422-.46a6.046,6.046,0,0,0,.716-.11Z" transform="translate(-767.626 -435.346)" fill="#cf6f80"/>
    <path id="Path_2452" data-name="Path 2452" d="M812.2,419.576l-.845,6.354-.317-.486-1.06-1.626.165-1.746.085-2.912.025-.872Z" transform="translate(-720.729 -372.198)" fill="#cf6f80"/>
    <path id="Path_2453" data-name="Path 2453" d="M906.878,363.326a6.1,6.1,0,0,0-.286,1.348,3.409,3.409,0,0,1-2.57,1.166,3.447,3.447,0,0,1-.771-.088,5.319,5.319,0,0,0,.011-.919S907.87,360.221,906.878,363.326Z" transform="translate(-809.82 -324.397)" opacity="0.1"/>
    <path id="Path_2454" data-name="Path 2454" d="M886.083,334.2a3.4,3.4,0,0,1-.818,2.218,3.416,3.416,0,0,1-6.015-2.218,3.48,3.48,0,0,1,.041-.529,3.416,3.416,0,0,1,6.792.529Z" transform="translate(-788.465 -296.398)" fill="#cf6f80"/>
    <path id="Path_2455" data-name="Path 2455" d="M868.581,438.745a5.871,5.871,0,0,1-.981-.873l.025-.872,1.947,1.286-.845,6.354-.312-.486a2.454,2.454,0,0,1,.134-.8,2.839,2.839,0,0,0,.055-1.341c0-.22.312-.57.293-.716a8.735,8.735,0,0,0-.11-.918C868.71,440.031,869.077,439.168,868.581,438.745Z" transform="translate(-778.099 -390.908)" opacity="0.1"/>
    <path id="Path_2456" data-name="Path 2456" d="M881.8,553.34v.01a10.222,10.222,0,0,0-4.28.276,7.9,7.9,0,0,1-4.147-.047c.072-.352.125-.559.125-.559s6.833-1.984,7.99-.331A2.375,2.375,0,0,1,881.8,553.34Z" transform="translate(-783.233 -493.262)" opacity="0.1"/>
    <path id="Path_2457" data-name="Path 2457" d="M897.8,400.714l-.79,1.763-2.259,1.322s-2.48-.239-2.552-.276-.19-2.142.452-2.585c-.181.509-.378,1.543.962,1.63a5.561,5.561,0,0,0,3.629-2.159A1.267,1.267,0,0,0,897.8,400.714Z" transform="translate(-799.936 -358.35)" opacity="0.1"/>
    <path id="Path_2458" data-name="Path 2458" d="M874.025,404.641l-.037.827-2.2,13.151a10.217,10.217,0,0,0-4.279.276,8.251,8.251,0,0,1-4.372-.11,3.09,3.09,0,0,0,.2-1.359,5.351,5.351,0,0,1-.037-1.507,1.951,1.951,0,0,0-.018-.882,7.153,7.153,0,0,1,.257-1.947,7.561,7.561,0,0,1,.129-2.112,2.838,2.838,0,0,0,.055-1.341c0-.22.312-.57.293-.716a8.72,8.72,0,0,0-.11-.918c-.073-.349.294-1.212-.2-1.635s-1.066-.789-1.011-1.009-.569-.165-.569-.165a1.365,1.365,0,0,1,.147-.754,2.758,2.758,0,0,0,.11-1.194s.441-.019.386-.57a3.219,3.219,0,0,1,.019-.9,1.061,1.061,0,0,0,.716.147c.533-.019,1.12.129,1.285-.036s.9-.735,1.267-.606h0c-.029.056-.907,1.8.846,1.909a5.56,5.56,0,0,0,3.729-2.3s.2-.22.863.5,1.23.441,1.23.441l.735.055s-.477.4-.184.679a1.9,1.9,0,0,1,.173.193,8.536,8.536,0,0,0,.893,1.112C874.593,404.035,874.025,404.641,874.025,404.641Z" transform="translate(-773.22 -358.751)" fill="#6c63ff"/>
    <path id="Path_2459" data-name="Path 2459" d="M845.766,496s-2.7,1.322-2.223,2.571,1.157,1.084,1.562.937,1.138-1.3,1.138-1.3Z" transform="translate(-756.643 -443.406)" fill="#cf6f80"/>
    <path id="Path_2460" data-name="Path 2460" d="M930.778,428.93c0,.118-.689,1.606,0,1.991S930.778,428.93,930.778,428.93Z" transform="translate(-834.042 -383.727)" opacity="0.1"/>
    <path id="Path_2461" data-name="Path 2461" d="M878.609,424.25s-.973,1.047-.57,1.157S878.609,424.25,878.609,424.25Z" transform="translate(-787.301 -379.563)" opacity="0.1"/>
    <path id="Path_2462" data-name="Path 2462" d="M930.186,430.453s.422,2.609.441,3.38.129,2.02.129,2.02a13.075,13.075,0,0,1-.165,4.188,6.823,6.823,0,0,0-.4,2.535s-1.4,2.719-1.6,2.994.165,2.884,1.634,1.782,1.286-3.509,1.286-3.509l.515-1.653.716-2.112s.2-1.286.276-1.543a12.181,12.181,0,0,0,0-1.653s.863-7.072-.294-7.807S930.186,430.453,930.186,430.453Z" transform="translate(-832.321 -383.719)" fill="#cf6f80"/>
    <path id="Path_2463" data-name="Path 2463" d="M940.566,419.533s1.727-1.892,2.259-1.727.68.093.68.093a1.555,1.555,0,0,0-.716-1.433c-.789-.386-1.653-1.562-2.314-.165A4.629,4.629,0,0,0,940.566,419.533Z" transform="translate(-842.7 -371.898)" opacity="0.1"/>
    <path id="Path_2464" data-name="Path 2464" d="M940.566,418.533s1.727-1.892,2.259-1.727.68.093.68.093a1.555,1.555,0,0,0-.716-1.433c-.789-.386-1.653-1.562-2.314-.165A4.629,4.629,0,0,0,940.566,418.533Z" transform="translate(-842.7 -371.008)" fill="#6c63ff"/>
    <path id="Path_2465" data-name="Path 2465" d="M888.992,340.429a3.5,3.5,0,0,1-.4.3,2.975,2.975,0,0,1-1.156.441,2.582,2.582,0,0,1-1.043-.058,2.524,2.524,0,0,1-.842-.391,2.14,2.14,0,0,1-.638-.709c-.022-.04-.042-.079-.061-.119a10.44,10.44,0,0,1-.434-2.57c-.012-.061-.025-.122-.04-.183a3,3,0,0,0-.849-1.507,9.315,9.315,0,0,0-2.2-1.346,4.026,4.026,0,0,0-1.424-.521,1.845,1.845,0,0,1-.312-.067,3.416,3.416,0,1,1,5.974,2.747c-.013.087-.022.172-.029.252a2.047,2.047,0,0,0,.536,1.783c.033.031.067.057.1.083,0,0,.2-.22.863.5s1.23.441,1.23.441l.735.055s-.477.4-.184.679A1.905,1.905,0,0,1,888.992,340.429Z" transform="translate(-788.768 -296.421)" opacity="0.1"/>
    <path id="Path_2466" data-name="Path 2466" d="M874.044,316.171a2.784,2.784,0,0,1,.954-.617,1.735,1.735,0,0,0,.86-.721c.289-.6-.055-1.449.441-1.9a1.319,1.319,0,0,1,.9-.241,4.889,4.889,0,0,1,1.543.2,9.689,9.689,0,0,1,2.072,1.2,3.191,3.191,0,0,0,2.26.627c.46-.089.95-.344,1.364-.125a1,1,0,0,1,.454.684,1.874,1.874,0,0,1-.048,1c-.18.541-.6.976-.785,1.515a.733.733,0,0,0,.01.613.713.713,0,0,0,.648.266,4.938,4.938,0,0,1,.731-.046c.7.079,1.1.876,1.1,1.579s-.244,1.389-.251,2.094a3.873,3.873,0,0,0,1.1,2.6,5.218,5.218,0,0,0,2.733,1.557,2.062,2.062,0,0,1-1.894.056c-1.418-.7-1.635-2.772-2.976-3.6a.456.456,0,0,0-.262-.089c-.175.011-.285.187-.376.337a3.4,3.4,0,0,1-2.329,1.66,2.491,2.491,0,0,1-2.523-1.158c-.475-.864-.3-1.919-.535-2.872-.4-1.653-1.694-2.138-3.049-2.852a4.026,4.026,0,0,0-1.424-.521C874.08,317.337,873.436,316.889,874.044,316.171Z" transform="translate(-783.617 -280.3)" fill="#512e4e"/>
    <g id="Group_390" data-name="Group 390" transform="translate(90.143 32.477)" opacity="0.1">
      <path id="Path_2467" data-name="Path 2467" d="M891.338,315.211c.26-.538.009-1.282.315-1.751a.727.727,0,0,0-.1.076c-.49.446-.147,1.3-.435,1.9a1.042,1.042,0,0,1-.118.182A1.17,1.17,0,0,0,891.338,315.211Z" transform="translate(-889.063 -313.46)"/>
      <path id="Path_2468" data-name="Path 2468" d="M977.624,405.612c-1.419-.7-1.637-2.772-2.982-3.6a.462.462,0,0,0-.262-.089.45.45,0,0,0-.32.248.277.277,0,0,1,.1-.028.462.462,0,0,1,.262.089c1.346.831,1.563,2.9,2.982,3.6a2.063,2.063,0,0,0,1.893-.056c-.065-.014-.131-.03-.2-.046A2.067,2.067,0,0,1,977.624,405.612Z" transform="translate(-962.97 -392.171)"/>
      <path id="Path_2469" data-name="Path 2469" d="M882.133,350.424a2.491,2.491,0,0,1-2.521-1.158c-.474-.863-.3-1.92-.534-2.872-.4-1.653-1.695-2.138-3.05-2.852a4,4,0,0,0-1.423-.521c-.661-.087-1.3-.521-.743-1.22a1.339,1.339,0,0,0-.193.186c-.6.719.04,1.166.715,1.254a4,4,0,0,1,1.423.521c1.356.714,2.645,1.195,3.051,2.852.23.952.062,2.013.534,2.872a2.5,2.5,0,0,0,2.521,1.158,3.238,3.238,0,0,0,1.865-1.038,3.163,3.163,0,0,1-1.644.818Z" transform="translate(-873.427 -338.677)"/>
    </g>
    <path id="Path_2470" data-name="Path 2470" d="M130.281,329.262a5.815,5.815,0,0,1-2.246-1.212c.3-.175.5-.3.5-.3s-1.433-1.44-1.26-2.383a38.508,38.508,0,0,0-.344-5.236s-.8-.609-.372-2.161a9.934,9.934,0,0,0,.43-1.94,10.35,10.35,0,0,1-.086-2.438,6.161,6.161,0,0,0,.173-1.5l.343-3.559.185-1.331c.312,1.021.834,1.695,1.653,1.122,1.891-1.33.487-5.68.487-5.68s-.244-.936-.414-1.718l.094-.249s-.057-.969.43-1.3,0-7.508,0-7.508l-.162-4.351h0v-.129A4.031,4.031,0,0,0,127.6,284l-.117-.061c-.007-.04-.013-.079-.02-.121-.093-.564-.2-1.243-.264-1.915-.008-.073-.014-.144-.021-.22a4.456,4.456,0,0,0,3.42-4.286,4.285,4.285,0,0,0-.161-1.165c-.008-.029-.017-.057-.025-.085.262-.262.477-.338.5-.168.029.249.244-.069.258-.319s.072-.069.22-.069.172-.263-.057-.4.043-.291.11-.318.072-.291,0-.291a.072.072,0,0,1-.025-.008h-.008l-.036-.019h0l-.045-.029-.012-.008-.05-.035h0c-.131-.094-.282-.22-.282-.22l.072-.055c.072-.055-.086-.194-.22-.207h-.028c-.134-.021-.349-.1-.213-.162.031-.014.044-.031.046-.048h0a.066.066,0,0,0-.024-.051h0a.29.29,0,0,0-.066-.046h0l-.041-.019h0l-.04-.013h0a.3.3,0,0,0-.043-.009h-.08a3.108,3.108,0,0,1-.541-.192v-.291l-.241-.112h0l-.2-.088.072-.268h-.63l.086-.236-.29-.056-.068-.013v-.11l-.387-.152v-.166h-.465l.179-.139H127.5c-.936-.641-3.571-.6-4.621-.245s-1.357.609-2.788,3.62c-.916,1.924.253,3.79,1.281,4.831h0c.034.035.068.068.1.1l.014.014.091.087.009.008.1.089.011.009.086.075.012.01.093.076h0l.084.065.014.011a1.76,1.76,0,0,0,.16.11l.015.01.066.043h.006c.022.014.044.026.065.039l.013.008.05.026h.011l.052.023h.009l.036.013h.01l.036.008h.039a.054.054,0,0,0,.02-.009,1.374,1.374,0,0,1,.425-.137l.11.088c.053.043.11.084.163.123.013.08.024.162.034.247a4.436,4.436,0,0,1-.1,1.613c-.011.041-.023.082-.035.122a2.169,2.169,0,0,0-1.19.907,31.3,31.3,0,0,0-1.777,3.048,4.412,4.412,0,0,1-.493,1.6c-.311.306.573,5.79.573,5.79s-1.06,2.1-.11,2.48-.086.679-.086.679.287.637-.258.692-.86,1.026-.86,1.026l-1.689,1.828.425.145c-.036.057-.074.117-.11.184a6.96,6.96,0,0,0-.856,5.18c.8,3.325,1.032,4.045,1,4.629s.916,2.882.687,3.408a4.39,4.39,0,0,0,.036,2.827.459.459,0,0,1-.15.747s.586.693.293,1.164.365,6.289.365,6.289,1.06,1.5,1,1.967-.544.721-.11.915.258.471.258.471l.11.009c-.1.088-.192.181-.278.274a2.594,2.594,0,0,0-.235.3,1.373,1.373,0,0,0-.1.172c-.386.849.641,1.5.641,1.5h.35a24.858,24.858,0,0,0,5.146-.22l.024.015s5.042.271,6.044-.422S131.342,329.384,130.281,329.262Zm-5.163.244-.036-.005-.057-.01h-.041l-.064-.01h-.026c-.047-.007-.095-.013-.141-.018a2.3,2.3,0,0,1-.652-.2c-.145-.065-.293-.143-.441-.227l.291-.007a2.041,2.041,0,0,0,.22-.008l.131-.007h0c.331,0,.8.044.929.268a1.15,1.15,0,0,0-.112.223Z" transform="translate(-109.824 -243.496)" fill="url(#linear-gradient-3)"/>
    <path id="Path_2471" data-name="Path 2471" d="M176.854,346.818c-.083,0-6.585,1.24-4.959-.964a3.953,3.953,0,0,0,.661-1.382,4.555,4.555,0,0,0,.1-1.6,5.659,5.659,0,0,0-.54-1.862s5.373-1.185,4.518-.276c-.372.4-.363,1.608-.239,2.845.066.669.165,1.345.255,1.905C176.774,346.261,176.88,346.818,176.854,346.818Z" transform="translate(-158.832 -304.941)" fill="#ffccd0"/>
    <path id="Path_2472" data-name="Path 2472" d="M150.227,783.22a7.47,7.47,0,0,0,2.7,1.671c1.019.121,2.452.561,1.488,1.25s-5.813.42-5.813.42-1.123-.734-.523-1.66A6.407,6.407,0,0,1,150.227,783.22Z" transform="translate(-137.715 -698.972)" fill="#3f3d56"/>
    <path id="Path_2473" data-name="Path 2473" d="M154.414,786.14a1.788,1.788,0,0,1-.6.235,26.249,26.249,0,0,1-5.209.185s-1.123-.734-.523-1.66a6.407,6.407,0,0,1,2.149-1.681,7.47,7.47,0,0,0,2.7,1.671l.144.019C154.074,785.053,155.334,785.484,154.414,786.14Z" transform="translate(-137.715 -698.972)" opacity="0.1"/>
    <path id="Path_2474" data-name="Path 2474" d="M195.588,799.781a1.787,1.787,0,0,1-.6.235l-.11-.005s-.966-.63-.627-1.46C195.247,798.693,196.507,799.124,195.588,799.781Z" transform="translate(-178.888 -712.613)" opacity="0.1"/>
    <path id="Path_2475" data-name="Path 2475" d="M198.477,781.5a7.55,7.55,0,0,0,2.7,1.67c1.019.127,2.452.562,1.488,1.251s-5.813.419-5.813.419-1.123-.733-.523-1.653A6.533,6.533,0,0,1,198.477,781.5Z" transform="translate(-180.648 -697.442)" fill="#3f3d56"/>
    <path id="Path_2476" data-name="Path 2476" d="M198.477,781.5a7.55,7.55,0,0,0,2.7,1.67c1.019.127,2.452.562,1.488,1.251s-5.813.419-5.813.419-1.123-.733-.523-1.653A6.533,6.533,0,0,1,198.477,781.5Z" transform="translate(-180.648 -697.442)" opacity="0.1"/>
    <path id="Path_2477" data-name="Path 2477" d="M130.757,566.409a3.159,3.159,0,0,1-1.39.284h-.01l-.12.007c-.071,0-.143.007-.22.008-1.612.052-3.692-.133-3.692-.133s.165-.276-.248-.468.055-.441.11-.909-.96-1.956-.96-1.956-.634-5.786-.352-6.254-.282-1.157-.282-1.157a.464.464,0,0,0,.144-.744,4.5,4.5,0,0,1-.034-2.81c.22-.523-.689-2.81-.661-3.389s-.193-1.295-.964-4.6a7.122,7.122,0,0,1,.823-5.155,5.218,5.218,0,0,1,.417-.63h5.262l.133,1.239.007.068c.044.418.1.923.159,1.5C129.614,548.3,131.4,565.946,130.757,566.409Z" transform="translate(-114.581 -481.222)" fill="#3f3d56"/>
    <path id="Path_2478" data-name="Path 2478" d="M143.68,576.963a3.459,3.459,0,0,1-1.52.291,3.707,3.707,0,0,0-.551.008s-.083-.188-1.075-.882,0-2.259,0-2.259L139.5,569.9a4.243,4.243,0,0,1-.039-1.786.627.627,0,0,0-.475-.827.58.58,0,0,0,0-1.019c-.7-.579-.792-2.7-.792-2.7s-.992-1.322-.551-1.763-.276-1.488-.276-1.488-1.047-1.653-.937-2.2,1.6-.358,1.157-2.121,2.276.661,2.276.661l1.777-6.3C142.22,555.809,144.374,576.46,143.68,576.963Z" transform="translate(-127.505 -491.775)" opacity="0.1"/>
    <path id="Path_2479" data-name="Path 2479" d="M144.929,568.782s-2.976,1.874-3.168,1.515c-.12-.22-.571-.266-.894-.267h-.01c-.192,0-.336.014-.336.014s-.083-.188-1.075-.882,0-2.259,0-2.259l-1.032-4.215a4.216,4.216,0,0,1-.043-1.786.627.627,0,0,0-.475-.827.58.58,0,0,0,0-1.019c-.7-.579-.792-2.7-.792-2.7s-.992-1.322-.551-1.763-.276-1.488-.276-1.488-1.047-1.653-.937-2.2,0-.441-.441-2.2c-.331-1.329.525-4.317.968-5.708.144-.455.245-.74.245-.74l4.1.825,4.11.828.11,1.46-.031.231-.551,4.078-.331,3.539a6.269,6.269,0,0,1-.165,1.488,10.642,10.642,0,0,0,.083,2.424,10.175,10.175,0,0,1-.413,1.929c-.413,1.543.358,2.149.358,2.149a39.781,39.781,0,0,1,.331,5.207C143.549,567.345,144.929,568.782,144.929,568.782Z" transform="translate(-126.081 -484.559)" fill="#3f3d56"/>
    <path id="Path_2480" data-name="Path 2480" d="M171.63,690c.413.069,2.548.11,1.984.372S171.63,690,171.63,690Z" transform="translate(-158.829 -616.026)" opacity="0.1"/>
    <path id="Path_2481" data-name="Path 2481" d="M169.5,699.9a8.956,8.956,0,0,1,1.13-.317,5.769,5.769,0,0,1,.731,0c.248.058.712.22.452.318s-.8.013-1.117.11A3.709,3.709,0,0,1,169.5,699.9Z" transform="translate(-156.933 -624.533)" opacity="0.1"/>
    <path id="Path_2482" data-name="Path 2482" d="M149,696.511c.11-.014.964-.235.9,0S149,696.511,149,696.511Z" transform="translate(-138.693 -621.724)" opacity="0.1"/>
    <path id="Path_2483" data-name="Path 2483" d="M136.63,634.63c.083.11.564,1.212.8,1.212S136.63,634.63,136.63,634.63Z" transform="translate(-127.686 -566.758)" opacity="0.1"/>
    <path id="Path_2484" data-name="Path 2484" d="M180.518,340.729c-.372.4-.363,1.608-.239,2.845a4.419,4.419,0,0,1-1.134.148c-.978,0-1.055-1.233-1.785-1.77C177.244,340.878,176,341,176,341S181.373,339.82,180.518,340.729Z" transform="translate(-162.717 -304.941)" opacity="0.1"/>
    <path id="Path_2485" data-name="Path 2485" d="M173.353,293.045a4.408,4.408,0,1,1-.154-1.158A4.408,4.408,0,0,1,173.353,293.045Z" transform="translate(-152.517 -258.892)" fill="#ffccd0"/>
    <path id="Path_2486" data-name="Path 2486" d="M176.854,378.723c-.083,0-6.585,1.24-4.959-.964a3.953,3.953,0,0,0,.661-1.382,4.871,4.871,0,0,1,2.926.28l.744.551a2.561,2.561,0,0,1,.429.177C176.774,378.167,176.88,378.723,176.854,378.723Z" transform="translate(-158.832 -336.846)" opacity="0.1"/>
    <path id="Path_2487" data-name="Path 2487" d="M141,542.062l-.031.231c-.175.06-.981.283-2.907-.507-.31-.127-.692-.277-1.116-.441-1.368-.523-3.184-1.182-4.511-1.653-.636-.228-1.159-.414-1.467-.522a5.217,5.217,0,0,1,.417-.63h5.262l.133,1.239,4.11.823Z" transform="translate(-122.65 -481.257)" opacity="0.1"/>
    <path id="Path_2488" data-name="Path 2488" d="M136.874,377.659s-2.92-1.267-4.105.634a31.415,31.415,0,0,0-1.708,3.031,4.3,4.3,0,0,1-.468,1.57c-.3.3.551,5.758.551,5.758s-1.019,2.094-.11,2.465-.083.676-.083.676.276.634-.248.689-.827,1.019-.827,1.019l-1.626,1.818s5.309,1.874,7.394,2.728,2.855.523,2.938.5,1.35-3.5,1.35-3.5-.055-.964.413-1.295,0-7.466,0-7.466l-.161-4.456a4.028,4.028,0,0,0-2.007-3.369,2.792,2.792,0,0,0-.56-.248Z" transform="translate(-120.229 -337.738)" fill="#6c63ff"/>
    <path id="Path_2489" data-name="Path 2489" d="M198.579,445.329l.579,1.019s-4.629,1.322-4.81.055a12.9,12.9,0,0,1,1.807-1.653Z" transform="translate(-179.042 -397.804)" fill="#6c63ff"/>
    <path id="Path_2490" data-name="Path 2490" d="M198.579,445.329l.579,1.019s-4.629,1.322-4.81.055a12.9,12.9,0,0,1,1.807-1.653Z" transform="translate(-179.042 -397.804)" opacity="0.1"/>
    <path id="Path_2491" data-name="Path 2491" d="M161.25,497.065s2.2-.716,1.736-.138S161.25,497.065,161.25,497.065Z" transform="translate(-149.593 -444.03)" opacity="0.1"/>
    <path id="Path_2492" data-name="Path 2492" d="M184.07,501.46s1.127,1.408,1.4.882S184.07,501.46,184.07,501.46Z" transform="translate(-169.898 -448.264)" opacity="0.1"/>
    <path id="Path_2493" data-name="Path 2493" d="M173.2,291.914a2.85,2.85,0,0,0-.388.493c-.386.606-.674.62-.674.62s0,1.311-.179,1.448-1.2-.581-1.212-.759-1.26-2.121-1.8.344l-.1,2s-1.785.22-2.7.42a4.408,4.408,0,1,1,7.053-4.564Z" transform="translate(-152.515 -258.92)" opacity="0.1"/>
    <path id="Path_2494" data-name="Path 2494" d="M157.355,274.377h.345l-.173.138h.449v.165l.371.151v.11l.345.069-.083.234h.606l-.069.266.413.19v.289a2.436,2.436,0,0,0,.551.193c.138,0,.366.125.22.193s.11.152.23.165.276.152.206.207l-.068.055a2.417,2.417,0,0,0,.441.316c.069,0,.068.262,0,.29s-.331.179-.11.316.193.4.055.4-.193-.18-.207.068-.22.565-.248.317-.454.028-.84.634-.676.619-.676.619,0,1.311-.179,1.448-1.2-.58-1.212-.759-1.26-2.121-1.8.345l-.1,2a21.952,21.952,0,0,0-3.21.579c-.235.206-3.766-2.645-2.388-5.639s1.672-3.251,2.682-3.6S156.454,273.738,157.355,274.377Z" transform="translate(-139.498 -245.766)" fill="#3f3d56"/>
    <path id="Path_2495" data-name="Path 2495" d="M194.583,445.8a17.089,17.089,0,0,1-.22,2.783c-.193.551,1.322,5.7,1.322,5.7s1.212,2.717.992,3.554.083,6.2,1.9,4.877.468-5.648.468-5.648-.579-2.409-.579-2.706-.606-4.761-.606-4.761a6.711,6.711,0,0,1-.331-2.342c.138-.882.193-2.507.193-2.507Z" transform="translate(-179.041 -397.804)" fill="#ffccd0"/>
    <path id="Path_2496" data-name="Path 2496" d="M194.321,416.25s-2.211.716-2.3,2.672a8.5,8.5,0,0,0,0,2.121s3.3-1.653,4.81-.055l-.155-4.326Z" transform="translate(-176.933 -372.444)" opacity="0.1"/>
    <path id="Path_2497" data-name="Path 2497" d="M196.321,416.25s-2.211.716-2.3,2.672a8.5,8.5,0,0,0,0,2.121s3.3-1.653,4.81-.055l-.155-4.326Z" transform="translate(-178.713 -372.444)" fill="#6c63ff"/>
    <g id="Group_391" data-name="Group 391" transform="translate(11.962 28.749)" opacity="0.1">
      <path id="Path_2498" data-name="Path 2498" d="M242.159,294.73c-.05.062.155.128.266.14a.181.181,0,0,1,.033.008c.008-.067-.158-.145-.268-.145Z" transform="translate(-233.539 -293.066)"/>
      <path id="Path_2499" data-name="Path 2499" d="M235.5,289.63s.1.047.22.095v-.163l-.22-.1Z" transform="translate(-227.621 -288.377)"/>
      <path id="Path_2500" data-name="Path 2500" d="M245.936,298l-.056.045s.127.11.247.2l.042-.033c.069-.055-.083-.193-.206-.207Z" transform="translate(-236.857 -295.976)"/>
      <path id="Path_2501" data-name="Path 2501" d="M176.4,267.586l.248.112.041-.159h-.277Z" transform="translate(-168.935 -266.81)"/>
      <path id="Path_2502" data-name="Path 2502" d="M168.256,324.625l-.1,2a21.949,21.949,0,0,0-3.21.579c-.073.065-.468-.17-.936-.614.558.585,1.071.909,1.156.834a21.953,21.953,0,0,1,3.21-.579l.1-2c.316-1.446.882-1.376,1.287-1.036C169.358,323.332,168.638,322.9,168.256,324.625Z" transform="translate(-164.01 -318.564)"/>
      <path id="Path_2503" data-name="Path 2503" d="M224.409,303.046c-.22-.138.041-.289.11-.316s.068-.29,0-.29a.512.512,0,0,1-.17-.1c0,.073-.014.154-.051.17-.069.028-.331.179-.11.316s.193.4.055.4-.193-.18-.207.068-.22.565-.248.317-.454.028-.84.634-.676.619-.676.619,0,1.311-.179,1.448c-.125.094-.647-.22-.964-.478.162.24,1.02.823,1.185.7s.179-1.448.179-1.448.29-.013.676-.619.812-.882.84-.634.235-.069.248-.317.069-.068.207-.068S224.629,303.184,224.409,303.046Z" transform="translate(-214.835 -299.837)"/>
      <path id="Path_2504" data-name="Path 2504" d="M171.52,264.979h.3l0-.013-.278-.056Z" transform="translate(-164.592 -264.47)"/>
      <path id="Path_2505" data-name="Path 2505" d="M167.085,260.954v-.034H167Z" transform="translate(-160.571 -260.92)"/>
    </g>
    <path id="Path_2506" data-name="Path 2506" d="M248.66,520.55s9.074-13.782,19.764-5.958,13.316,12.784,22.253,10.029,8.6-8.171,15.658-6.179,9.5-4.529,9.5-4.529" transform="translate(-227.37 -457.81)" fill="none" stroke="#6c63ff" stroke-miterlimit="10" stroke-width="4"/>
    <rect id="Rectangle_1609" data-name="Rectangle 1609" width="1.947" height="4.352" rx="0.974" transform="translate(88.43 53.104) rotate(23.32)" fill="#6c63ff"/>
  </g>
</svg>
