<svg xmlns="http://www.w3.org/2000/svg" width="120.351" height="93.269" viewBox="0 0 120.351 93.269">
  <g id="Group_393" data-name="Group 393" transform="translate(-0.001 0.01)">
    <g id="Group_594" data-name="Group 594" transform="translate(-458.999 -2189.741)">
      <path id="Path_2676" data-name="Path 2676" d="M745.162,453.726s-1.1,7.152-1.428,7.513,2.286,8.78,2.286,8.78l8.379-4.885s1.63-9.039,2.167-9.34S745.162,453.726,745.162,453.726Z" transform="translate(-187.921 1758.978)" fill="#ffb8b8"/>
      <path id="Path_2677" data-name="Path 2677" d="M745.162,453.726s-1.1,7.152-1.428,7.513,2.286,8.78,2.286,8.78l8.379-4.885s1.63-9.039,2.167-9.34S745.162,453.726,745.162,453.726Z" transform="translate(-187.921 1758.978)" opacity="0.1"/>
      <circle id="Ellipse_319" data-name="Ellipse 319" cx="8.272" cy="8.272" r="8.272" transform="translate(555.451 2203.084)" fill="#ffb8b8"/>
      <path id="Path_2678" data-name="Path 2678" d="M710.451,487.277l-.721-.654-3.24-4.612s-.372-.245-.725,1.013l-.353,1.258-3.044,1.181-6.736,28.86,18.026,5.055,7.424-28.893-3.487-3.691-.386-1.781-5.383,2.2Z" transform="translate(-150.314 1736.866)" fill="#fff"/>
      <path id="Path_2679" data-name="Path 2679" d="M670,517.161l.435.122,28.074,7.872L707.9,494.1a11.018,11.018,0,0,0-3.958-2.016s-2.917-3.3-4.173-3.657-2.649-3.455-2.649-3.455a30.86,30.86,0,0,1-3.995,8.6c-2.525,3.361-6.923,15.017-6.923,15.017l-1.241-21.375,1.393-5.375a9.9,9.9,0,0,0-2.19,1.761,10.9,10.9,0,0,1-3.487,1.959s-6.6,1.768-7.767,1.894a4.808,4.808,0,0,0-1.7.427l-.768,5.288-.435,3Z" transform="translate(-130.261 1736.985)" fill="#2f2e41"/>
      <path id="Path_2680" data-name="Path 2680" d="M673.831,526.831c-.261,1.735-2.948,8.9-2.948,8.9l-.448.451-.435.438V510.1a1.223,1.223,0,0,1,.435-.3,2.985,2.985,0,0,1,.768-.2l.84.235S674.093,525.094,673.831,526.831Z" transform="translate(-130.261 1715.276)" fill="#2f2e41"/>
      <path id="Path_2681" data-name="Path 2681" d="M775.443,609.757s4.12-7.436,7.239-5.657-1.881,6.708-1.881,6.708Z" transform="translate(-212.75 1641.555)" fill="#ffb8b8"/>
      <path id="Path_2682" data-name="Path 2682" d="M681.251,610.872s-7.906-2.443-8.083-1.814-2.341,4.317-1.712,4.494,5.509,1.319,5.45,1.528,2.339,1.334,2.339,1.334Z" transform="translate(-131.311 1637.542)" fill="#ffb8b8"/>
      <path id="Path_2683" data-name="Path 2683" d="M606.245,374.134l-5.032.2-1.048-.294-4.2-2.785-1.39,4.158,5.291-.325,1.048.294,4.351,3.029Z" transform="translate(-40.891 1850.767)" fill="#6c63ff"/>
      <path id="Path_2684" data-name="Path 2684" d="M542.593,508.321l-.773,1.646-11.1-3.048-.218-.634V502.8l.435.17.448.176Z" transform="translate(9.239 1747.86)" fill="#2f2e41"/>
      <path id="Path_2685" data-name="Path 2685" d="M707.634,617.146s-2.607-1.183-2.666-.974-3.558,6.237-2.719,6.472,3.806,1.746,3.806,1.746Z" transform="translate(-155.388 1631.916)" fill="#fff"/>
      <path id="Path_2686" data-name="Path 2686" d="M742.624,536.212l1.467.411s.839.235.9,1.61,1.2,7.8.668,8.1-.688.033-.386.57.57.386.243.746-1.078,11.907-3.511,15.746-3.172,5.667-4.01,5.432l-21.733-6.094s.968-8.546,1.865-8.521,15.6,3.243,15.6,3.243S739.421,535.54,742.624,536.212Z" transform="translate(-166.456 1694.461)" fill="#2f2e41"/>
      <path id="Path_2687" data-name="Path 2687" d="M739.6,393.932l-1.357-.973a11.161,11.161,0,0,1,8.366-.766l-.89-1.583a5.825,5.825,0,0,1,5.27,3.4,25.5,25.5,0,0,1,2.669,6.474l1.618.454-1.054,1.162,1.985,2.014-2.359-.923a7.081,7.081,0,0,1-1.211,3.435l-.973,1.357a45.261,45.261,0,0,1-.811-5.563l-.385,1.374s-1.165-1.66-.933-2.485l-1.094.731.012-1.627-5.507.086,1.171-1.005-3.276-.474,1.66-1.165s-4.073.784-4.634,2.257-2.887,2.9-2.887,2.9l-.439-1.605S735.041,394.875,739.6,393.932Z" transform="translate(-180.754 1808.358)" fill="#2f2e41"/>
    </g>
    <path id="Path_2508" data-name="Path 2508" d="M676.093,121.643l-.271-.562c-.025-.053-.048-.108-.075-.163a5.039,5.039,0,0,0,5.688-8.015l-1.092,1.767.248-2.518-.011-.009a5.04,5.04,0,0,0-7.022,1.226c-.056.078-.1.16-.154.241a6.015,6.015,0,0,1-.052-1.775A8.609,8.609,0,0,1,675,108.4c1.64-2.44,3.335-4.871,5.058-7.274A5.038,5.038,0,0,0,686.39,99.5c.089-.124.169-.256.248-.386.019-.032.037-.066.055-.1.071-.124.137-.258.2-.39l.026-.066a3.239,3.239,0,0,0,.124-.343c.015-.043.03-.086.042-.124.04-.124.074-.256.1-.385.01-.043.017-.087.026-.124.019-.1.035-.2.047-.292.007-.052.015-.1.02-.154V97.1h0a5.034,5.034,0,0,0-3.618-5.34l-1.42,2.3.248-2.485a5.007,5.007,0,0,0-4.94,3.295h0c-.012.035-.021.07-.034.1-.022.065-.043.124-.063.2s-.046.168-.067.248c-.015.063-.031.124-.045.191-.019.093-.032.188-.046.282-.009.055-.019.109-.025.164-.016.144-.026.289-.029.434v.153c0,.1,0,.2.009.3a1.488,1.488,0,0,0,.019.184c.009.088.019.178.032.265.01.063.021.124.034.186.017.088.037.176.058.263.015.058.03.117.046.175.027.094.06.189.093.283.016.047.031.1.05.143.053.138.112.275.178.408.012.025.027.05.041.075.056.109.116.217.18.323.027.045.058.089.087.134.056.083.112.165.172.248.036.047.072.093.109.139.061.076.124.15.191.224a1.607,1.607,0,0,0,.118.124c.075.076.153.149.232.221l.015.015q-1.09,1.521-2.162,3.055a5.035,5.035,0,0,0-4.731-5.591l-.557,2.538-.6-2.467a5.017,5.017,0,0,0-3.24,2.064,4.931,4.931,0,0,0-.637,1.242,5.038,5.038,0,0,0,7.082,6.127c-.071.106-.143.21-.214.314a9.936,9.936,0,0,0-1.864,4.015,8.844,8.844,0,0,0,.224,3.106q.2.959.47,1.9a5.056,5.056,0,0,0,.724,2.254c.345.947.733,1.878,1.168,2.788l.272.565c.248.508.5,1.03.734,1.557-.067-.052-.133-.106-.2-.155a5.044,5.044,0,0,0-5.948.108l1.285,3.851-2.493-2.534a5.042,5.042,0,0,0,3.665,7.7l-.353.124-.7.239c-3.121,1.092-4.924,2.866-5.074,5l1.4.1c.147-2.074,2.655-3.253,4.138-3.771.225-.08.453-.157.683-.235,1.977-.671,4.224-1.431,5.4-3.361C679.145,127.967,677.451,124.461,676.093,121.643Z" transform="translate(-599.162 -89.472)" fill="#f2f2f2"/>
    <path id="Path_2509" data-name="Path 2509" d="M168.625,97.52,168,97.474l-.179-.017a5.039,5.039,0,0,0-4.1-8.933l.986,1.828-2.059-1.472-.012.006a5.039,5.039,0,0,0-2.44,6.7c.04.087.087.169.132.248a6.039,6.039,0,0,1-1.565-.841,8.531,8.531,0,0,1-2.163-3.132c-1.3-2.639-2.559-5.321-3.782-8.012a5.038,5.038,0,0,0,1.751-6.3c-.065-.14-.138-.273-.214-.405l-.057-.1c-.077-.124-.157-.248-.242-.363-.014-.02-.03-.037-.043-.056-.075-.1-.153-.193-.232-.283l-.092-.1c-.091-.1-.184-.191-.282-.281-.032-.03-.067-.057-.1-.087-.075-.065-.152-.124-.23-.188-.041-.031-.081-.063-.124-.093l-.032-.025h0a5.035,5.035,0,0,0-6.427.483l1.285,2.378-2.036-1.451a5.008,5.008,0,0,0,.391,5.925h0c.024.029.05.053.073.081.045.052.091.1.138.152l.184.185c.06.061.094.091.144.134.072.062.147.124.221.18.043.035.086.071.13.1.117.086.237.165.362.241.043.026.088.048.133.073.086.05.173.1.262.142.056.027.112.051.168.076.082.037.163.072.248.1.06.024.118.045.179.065.084.03.17.056.256.081l.175.047c.1.024.194.043.292.061.05.01.1.021.148.029.147.022.294.04.444.048h.084c.124,0,.248.007.373,0,.052,0,.106-.006.159-.01a2.7,2.7,0,0,0,.3-.025l.174-.025c.1-.015.194-.034.289-.055.057-.011.114-.024.171-.039.1-.026.2-.057.307-.089l.021-.006q.774,1.7,1.57,3.4a5.038,5.038,0,0,0-7.206,1.309l1.922,1.749-2.455-.7a5.022,5.022,0,0,0,.173,3.838,4.919,4.919,0,0,0,.758,1.17,5.038,5.038,0,0,0,8.846-3.085c.055.114.109.229.165.343a10.006,10.006,0,0,0,2.548,3.622,8.857,8.857,0,0,0,2.805,1.355q.933.3,1.885.543a5.058,5.058,0,0,0,2.315.5c.994.174,1.994.3,3,.379l.621.046c.563.041,1.141.083,1.714.14-.078.032-.158.063-.235.1a5.043,5.043,0,0,0-2.869,5.216l3.976.809-3.44.9a5.042,5.042,0,0,0,8.507.667c-.024.124-.047.248-.072.367-.047.248-.1.483-.14.722-.61,3.25.029,5.7,1.8,6.89l.784-1.163c-1.723-1.162-1.491-3.925-1.2-5.466.043-.235.091-.472.138-.709.41-2.052.866-4.378-.211-6.366C175.628,98.025,171.744,97.745,168.625,97.52Z" transform="translate(-143.071 -74.64)" fill="#f2f2f2"/>
    <rect id="Rectangle_1610" data-name="Rectangle 1610" width="11.554" height="23.978" transform="translate(8.927 68.076)" fill="#3f3d56"/>
    <rect id="Rectangle_1611" data-name="Rectangle 1611" width="11.554" height="23.978" transform="translate(8.927 68.076)" opacity="0.1"/>
    <path id="Path_2510" data-name="Path 2510" d="M320.276,153.235h0a28.824,28.824,0,0,0-57.646.47v52.327a5.094,5.094,0,0,0,5.094,5.094h52.553a28.945,28.945,0,0,0,0-57.89Z" transform="translate(-246.125 -118.454)" fill="#6c63ff"/>
    <g id="Group_398" data-name="Group 398" transform="translate(-412.998 -2173.74)">
      <path id="Path_2702" data-name="Path 2702" d="M412.463,446.809c-2.964-5.008-8.827-5.241-8.827-5.241s-5.714-.731-9.379,6.9c-3.416,7.109-8.131,13.973-.759,15.637l1.332-4.145.825,4.453a28.867,28.867,0,0,0,3.154.054c7.9-.255,15.414.075,15.172-2.758C413.658,457.938,415.315,451.627,412.463,446.809Z" transform="translate(89.102 1768.505)" fill="#2f2e41"/>
      <path id="Path_2703" data-name="Path 2703" d="M429.992,519.827a3.127,3.127,0,0,1-.27,1.648c-.555.97-1.911,1.115-2.726,1.88a4.579,4.579,0,0,0-1,3.284,9.077,9.077,0,0,0,.369,3.641,8.85,8.85,0,0,0,1.034,1.777q.747,1.076,1.507,2.143a9.256,9.256,0,0,0,.9,1.133,7.686,7.686,0,0,0,3.4,1.8,4.247,4.247,0,0,0,2.468.163,4.724,4.724,0,0,0,1.435-.883,7.687,7.687,0,0,0,1.625-1.575,7.331,7.331,0,0,0,.994-3.358,72.462,72.462,0,0,0,.478-10.439,2.558,2.558,0,0,0-.2-1.109c-.413-.806-1.519-.978-2.1-1.672a3.343,3.343,0,0,1-.514-2.214l.011-1.971a.826.826,0,0,0-.1-.48.813.813,0,0,0-.565-.264,19.065,19.065,0,0,0-3.709-.248c-1.007.031-2.938-.053-3.808.507-.79.509.2,1.914.382,2.7A17.612,17.612,0,0,1,429.992,519.827Z" transform="translate(60.639 1712.549)" fill="#a0616a"/>
      <circle id="Ellipse_320" data-name="Ellipse 320" cx="7.968" cy="7.968" r="7.968" transform="translate(484.973 2213.053)" fill="#a0616a"/>
      <path id="Path_2704" data-name="Path 2704" d="M413.357,563.1a11.656,11.656,0,0,1-1.243-2.414,3.919,3.919,0,0,1-.022-2.665,2.183,2.183,0,0,0-2.657.678,4.815,4.815,0,0,0-.874,2.8,18.3,18.3,0,0,1-.213,2.974c-.479,2.15-2.254,3.917-2.387,6.116-.13,2.163,1.353,4.047,2.083,6.087a10.151,10.151,0,0,1,.544,3.962,1.589,1.589,0,0,0,.255,1.236,1.41,1.41,0,0,0,.552.3c3.521,1.239,7.324,1.346,11.055,1.44l6.163.156a1.964,1.964,0,0,0,1.088-.182c.553-.339.627-1.1.636-1.747.081-5.585-.157-11.17-.394-16.75a35.564,35.564,0,0,0-.6-6.036,1.732,1.732,0,0,0-.754-1.287,1.662,1.662,0,0,0-1.27.085,10.113,10.113,0,0,0-4.737,3.646c-1.265,1.8-1.887,3.959-3.124,5.772-.9,1.316-1.418.169-2.016-.8Z" transform="translate(76.303 1677.659)" fill="#fff"/>
      <path id="Path_2705" data-name="Path 2705" d="M391.607,546.98c-.157.111-.311.229-.459.353a8.89,8.89,0,0,0-1.48,1.559,12.347,12.347,0,0,0-1.676,3.163,30.624,30.624,0,0,0-1.337,6.169,14.889,14.889,0,0,0-.211,2.325c.046,2.865,1.739,5.519,1.742,8.386,0,.109,0,.215-.009.324a9.423,9.423,0,0,1-.165,1.4c-.124.673-.3,1.337-.479,2a19.085,19.085,0,0,1-1.789,4.835c-.087.148-.181.294-.276.435h-6.1c.048-.146.1-.29.146-.435q1.558-4.614,3.113-9.226c.318-.94.636-1.885.86-2.852a27.009,27.009,0,0,0,.525-3.62q.359-3.785.472-7.585a9.222,9.222,0,0,1,.342-2.7,8.837,8.837,0,0,1,1.084-1.977l1.887-2.841a4.365,4.365,0,0,1,1.258-1.4c.451-.276.986-.377,1.461-.609a7.466,7.466,0,0,0,.858-.568c.71-.5,1.543-1.032,2.155-.518a1.2,1.2,0,0,1,.253.29,1.461,1.461,0,0,1,.094.168C394.465,545.323,392.4,546.42,391.607,546.98Z" transform="translate(97.1 1688.838)" fill="#2f2e41"/>
      <path id="Path_2706" data-name="Path 2706" d="M426.371,670.873H398.14c.152-.139.3-.285.448-.435l.063-.065c1.08-1.121,1.326-2.5,1.868-3.958l1.221-3.3a1.7,1.7,0,0,1,.311-.586.967.967,0,0,1,.429-.257,1.662,1.662,0,0,1,.379-.07,4.23,4.23,0,0,1,.551,0q7.6.392,15.186.956l1.959.15c.533.4,1.06.816,1.563,1.26a13.99,13.99,0,0,1,3.864,5.127c.1.242.187.488.261.738C426.292,670.581,426.334,670.727,426.371,670.873Z" transform="translate(82.416 1595.89)" fill="#2f2e41"/>
      <path id="Path_2707" data-name="Path 2707" d="M293.615,327.325l-5.793-3.034-8,1.241-1.655,7.31,4.12-.158L283.438,330v2.641l1.9-.073,1.1-4.276.69,4.552,6.758-.138Z" transform="translate(206.64 1887.505)" fill="#2f2e41"/>
      <path id="Path_2708" data-name="Path 2708" d="M486.181,573.875h-6.374c-.046-.144-.089-.29-.131-.435a34.243,34.243,0,0,1-.988-4.937c-.067-.477-.126-.956-.181-1.432-.035-.3-.068-.6-.1-.906a50.514,50.514,0,0,0-1.674-9.973c-.124-.39-.259-.777-.39-1.165a13.737,13.737,0,0,1-.566-2.049c-.279-1.594-.07-3.244-.357-4.835-.161-.888-.481-1.67-.675-2.484a5.032,5.032,0,0,1-.144-1.5,3.239,3.239,0,0,1,1.7-.84.893.893,0,0,0,.6-.242.754.754,0,0,0,.1-.444,21.321,21.321,0,0,0-.176-3.072c-.044-.357-.1-.714-.163-1.069,0-.017-.007-.033-.009-.05a4.217,4.217,0,0,1,1.707-.231l1.883,0,3.481.011a7.665,7.665,0,0,1,3.178.459,5.058,5.058,0,0,1,2.294,2.351,13.533,13.533,0,0,1,1.036,3.172,4.254,4.254,0,0,1,.109.916c.048,2.451-1.781,4.92-1.964,7.426-.059.812.009,1.63-.065,2.443s-.292,1.611-.331,2.425c0,.041,0,.085,0,.126a8.729,8.729,0,0,0,.642,3.1c.553,1.552,1.226,3.056,1.92,4.552.671,1.448,1.358,2.889,1.977,4.356a7.459,7.459,0,0,1,.642,2.153,2.988,2.988,0,0,1-.329,1.739,2.036,2.036,0,0,1-.259.368l0,0c-.02.022-.039.043-.059.063Z" transform="translate(22.605 1692.888)" fill="#2f2e41"/>
      <path id="Path_2709" data-name="Path 2709" d="M539.7,686.182a2.414,2.414,0,0,1-.233.834l-.033.076c-.126.3-.255.592-.388.888-.065.144-.131.29-.2.435h-3.6a4.02,4.02,0,0,0,.361-.435c.553-.768.873-1.7,1.437-2.532a1.954,1.954,0,0,1,.263-.313C538.2,684.26,539.753,684.438,539.7,686.182Z" transform="translate(-24.838 1578.347)" fill="#ffb8b8"/>
      <path id="Path_2710" data-name="Path 2710" d="M531.625,585.415a4.273,4.273,0,0,0,.115-.435c.026-.115.048-.229.065-.344.115-.76.113-1.537.294-2.284.255-1.069,1.019-2.334.39-3.233a3.417,3.417,0,0,0,1.352-.605,1.162,1.162,0,0,0,.366-1.337c-.224-.438-.832-.727-.749-1.213a1.155,1.155,0,0,1,.213-.422,3.163,3.163,0,0,0-.054-3.47c-.2-.283-.442-.531-.623-.827a4.932,4.932,0,0,1-.451-1.147,21.371,21.371,0,0,0-2.749-5.7,3.782,3.782,0,0,1-.607-1.123,4.636,4.636,0,0,1-.048-1.334,8.946,8.946,0,0,0-1.561-4.957c-.07-.109-.142-.216-.213-.322a28.715,28.715,0,0,0-3.178-3.7,2.038,2.038,0,0,0-1.119.812,2.413,2.413,0,0,0-.216.81c-.309,2.155-.577,4.323-.786,6.49a15.863,15.863,0,0,0-.087,3.292,5.313,5.313,0,0,0,1.237,3c.464.509,1.051.888,1.554,1.358q.121.114.235.235a7.713,7.713,0,0,1,.96,1.26,10.867,10.867,0,0,1,1.6,6.516,10.577,10.577,0,0,1-.163,1.228,5.077,5.077,0,0,1-.579,1.654c-.229.377-.529.705-.736,1.095a1.385,1.385,0,0,0-.1,1.265,2.572,2.572,0,0,1,.9.161,3.816,3.816,0,0,1,1.7,1.3,5.644,5.644,0,0,1,.431.662,8.137,8.137,0,0,1,.431.888c.052.12.1.244.15.368a.359.359,0,0,1,.026.068Z" transform="translate(-14.42 1681.348)" fill="#2f2e41"/>
      <path id="Path_2711" data-name="Path 2711" d="M307.066,402.8l-4.616,2.013-1.083.107-4.921-1.07.217,4.379,4.811-2.226,1.083-.107,5.154,1.24Z" transform="translate(192.34 1826.083)" fill="#6c63ff"/>
    </g>
    <path id="Path_2511" data-name="Path 2511" d="M131.94,595.88h13.194v18.636h-8.093a5.094,5.094,0,0,1-5.094-5.094V595.88Z" transform="translate(-115.547 -521.858)" fill="#5f5478"/>
    <rect id="Rectangle_1612" data-name="Rectangle 1612" width="14.13" height="14.13" transform="translate(20.478 64.744)" fill="#d4a1a1"/>
    <rect id="Rectangle_1613" data-name="Rectangle 1613" width="14.13" height="14.13" transform="translate(20.478 66.111)" opacity="0.1"/>
    <path id="Path_2512" data-name="Path 2512" d="M471.305,593.79s13.7,6.3,13.279,9.448a4.047,4.047,0,0,1-3.23,3.574l-8.256-4-5.788-4.6Z" transform="translate(-425.376 -529.3)" fill="#5f5478"/>
    <path id="Path_2513" data-name="Path 2513" d="M382.98,612.123a3.651,3.651,0,0,1-.073,1.864c-.248.644-.8,1.118-1.1,1.739a3.252,3.252,0,0,0,.217,2.957,7.832,7.832,0,0,0,2.1,2.236,12.429,12.429,0,0,0,3.976,2.229,16.259,16.259,0,0,0,5.445.363,2.734,2.734,0,0,0,.887-.142,2.675,2.675,0,0,0,.559-.339,9.748,9.748,0,0,0,2.568-2.4,5.06,5.06,0,0,0,.442-4.609c-.6-1.462-1.877-2.6-2.312-4.118a12.566,12.566,0,0,1-.153-3.427,1.085,1.085,0,0,0-.108-.559,1.135,1.135,0,0,0-.88-.4,41.4,41.4,0,0,0-6.79-.436,21.017,21.017,0,0,0-3.424.386c-.61.124-2.078.236-2.236,1.02-.092.468.324,1.172.451,1.615A16.743,16.743,0,0,1,382.98,612.123Z" transform="translate(-350.26 -540.923)" fill="#fbbebe"/>
    <path id="Path_2514" data-name="Path 2514" d="M382.98,612.123a3.651,3.651,0,0,1-.073,1.864c-.248.644-.8,1.118-1.1,1.739a3.252,3.252,0,0,0,.217,2.957,7.832,7.832,0,0,0,2.1,2.236,12.429,12.429,0,0,0,3.976,2.229,16.259,16.259,0,0,0,5.445.363,2.734,2.734,0,0,0,.887-.142,2.675,2.675,0,0,0,.559-.339,9.748,9.748,0,0,0,2.568-2.4,5.06,5.06,0,0,0,.442-4.609c-.6-1.462-1.877-2.6-2.312-4.118a12.566,12.566,0,0,1-.153-3.427,1.085,1.085,0,0,0-.108-.559,1.135,1.135,0,0,0-.88-.4,41.4,41.4,0,0,0-6.79-.436,21.017,21.017,0,0,0-3.424.386c-.61.124-2.078.236-2.236,1.02-.092.468.324,1.172.451,1.615A16.743,16.743,0,0,1,382.98,612.123Z" transform="translate(-350.26 -540.923)" opacity="0.1"/>
    <circle id="Ellipse_312" data-name="Ellipse 312" cx="10.725" cy="10.725" r="10.725" transform="translate(12.221 48.827)" fill="#d4a1a1"/>
    <circle id="Ellipse_313" data-name="Ellipse 313" cx="10.725" cy="10.725" r="10.725" transform="translate(28.097 50.316)" fill="#fbbebe"/>
    <path id="Path_2515" data-name="Path 2515" d="M383.011,436.775c-.462.2-.86.53-1.309.76a6.38,6.38,0,0,1-4.264.132c-.752-.168-1.634-.5-1.777-1.252-.153-.8.641-1.451.895-2.226a4.97,4.97,0,0,0-3.49.636c-1.306.8-2.26,2.214-3.74,2.6a1.366,1.366,0,0,1-.839,0,1.261,1.261,0,0,1-.627-.65c-.678-1.4.248-3.008.481-4.55.19-1.285-.068-2.769.8-3.735.9-.994,2.461-.851,3.771-1.141a5.236,5.236,0,0,0,2.4-1.25,4.335,4.335,0,0,1,.6-.512,2.377,2.377,0,0,1,.9-.3,5.293,5.293,0,0,1,3.566.718,9.9,9.9,0,0,0,2.219,1.348,9.7,9.7,0,0,0,1.382.2,5.264,5.264,0,0,1,4.169,3.52,3.908,3.908,0,0,0,.383.994c.389.593,1.144.815,1.677,1.282a4.158,4.158,0,0,1,1.041,1.836,20.386,20.386,0,0,1,1.042,5.614,4.286,4.286,0,0,1-.688,2.969,6.842,6.842,0,0,0-.447.522c-.461.69-.212,1.615-.313,2.434a2.832,2.832,0,0,1-.886,1.724.655.655,0,0,1-.447.215.644.644,0,0,1-.461-.344,13.028,13.028,0,0,1-.757-1.964,1.67,1.67,0,0,0-1.577-1.165c-.178.025-.345.094-.523.124a1.462,1.462,0,0,1-1.319-.6,3.367,3.367,0,0,1-.564-1.4,15.1,15.1,0,0,1-.171-4.292,7.7,7.7,0,0,0,.215-2.064C384.207,436.437,383.442,436.584,383.011,436.775Z" transform="translate(-338.068 -381.681)" fill="#fff"/>
    <path id="Path_2516" data-name="Path 2516" d="M302.02,660.12a8.255,8.255,0,0,1-4.048-3.479c-.68-1.163-1.07-2.485-1.841-3.593-1.124-1.615-3.245-.8-5.209-.811-2.516-.012-4.572-.344-6.638,1.092-1.377.955-2.857,2.057-3.23,3.689-.329,1.414.258,2.922-.071,4.337-.222.954.061,1.831-.1,2.8a5.439,5.439,0,0,0,.289,3.837l2.415,4.122,26.214.1c-.016,0-.048.048-.065.048h18.772a9.109,9.109,0,0,0-.373-2.6,18.4,18.4,0,0,0-1.154-2.5l-4.736-9.043c-.9-1.729-1.895-3.548-3.584-4.525a24.069,24.069,0,0,0-2.968-1.172c-1.286-.526-1.63-.158-2.972-.518s-3.831-1.3-4.563-.124c-.576.929-.408,2.12-.621,3.192a7.169,7.169,0,0,1-1.283,2.666,7.977,7.977,0,0,1-1.864,1.988A2.423,2.423,0,0,1,302.02,660.12Z" transform="translate(-261.931 -579.577)" fill="#3f3d56"/>
    <path id="Path_2517" data-name="Path 2517" d="M390.043,764.73s-8.852.681-8.767,2.553c0,0,8.427,2.3,8.427,2.214S390.043,764.73,390.043,764.73Z" transform="translate(-350.03 -679.003)" fill="#fbbebe"/>
    <path id="Path_2518" data-name="Path 2518" d="M308.819,710.969s.681,5.362,3.148,6.383,10.3,1.191,10.3,1.191l5.276,3.405H301.5s-1.191-14.039,0-14.039S308.819,710.969,308.819,710.969Z" transform="translate(-279.7 -629.242)" fill="#3f3d56"/>
    <path id="Path_2519" data-name="Path 2519" d="M444.543,716.08l6.132,5.107-16.683.426s-2.42,2.982-1.422,3.832,5.678,1.446,5.678,1.446l4.341,2.213,18.246-.022-6.073-10.958Z" transform="translate(-394.741 -636.397)" fill="#3f3d56"/>
    <path id="Path_2520" data-name="Path 2520" d="M444.543,716.08l6.132,5.107-16.683.426s-2.42,2.982-1.422,3.832,5.678,1.446,5.678,1.446l4.341,2.213,18.246-.022-6.073-10.958Z" transform="translate(-394.741 -636.397)" opacity="0.1"/>
    <path id="Path_2521" data-name="Path 2521" d="M352.825,578.07l-10.555,8.682,7.746,6.129,8.767-11.491Z" transform="translate(-299.746 -506.26)" fill="#5f5478"/>
    <path id="Path_2522" data-name="Path 2522" d="M506.083,702.963s7.064-1.277,8.341-1.873,6.386-2.809,5.019-1.106-1.957,1.787-1.957,1.787,5.276.426,5.106,1.447-.765,1.191-.765,1.191,2.213,1.277,1.7,1.615-.17,1.532-.256,1.788.6,1.615-.084,1.788a63.631,63.631,0,0,1-9.442-.511c-1.526-.34-8.427.084-8.427.084Z" transform="translate(-458.664 -621.747)" fill="#e0aaaa"/>
    <path id="Path_2523" data-name="Path 2523" d="M238.808,636.27a6.153,6.153,0,0,0,0,7.32c2.723,4,8.341,8.6,11.406,9.363s23.408,1.107,23.408,1.107.937-9.194,0-9.534-17.535.767-19.833-.936-9.194-6.639-11.235-6.809A37.08,37.08,0,0,1,238.808,636.27Z" transform="translate(-224.203 -566.503)" fill="#5f5478"/>
    <path id="Path_2524" data-name="Path 2524" d="M159.712,416.754a12.8,12.8,0,0,0-2.313-.724c-3.906-.821-7.668,3.771-6.736,7.588.373,1.541,1.424,2.967,1.257,4.545-.157,1.5-1.383,2.7-1.636,4.188a1.646,1.646,0,0,0,.093,1.006c.236.478.789.724,1.067,1.179a1.75,1.75,0,0,1-.835,2.262,6.2,6.2,0,0,1-2.609.535,18.512,18.512,0,0,0-3.3.578,4.654,4.654,0,0,0-1.728.77,3.9,3.9,0,0,0-.906,4.147,29.627,29.627,0,0,0,1.962,4.049,5.222,5.222,0,0,1,.393,4.342c-.663,1.425-2.369,2.44-2.3,4.012a11.2,11.2,0,0,1,.145,1.261,1.9,1.9,0,0,1-2.128,1.543,3.835,3.835,0,0,1-2.429-1.526,8.2,8.2,0,0,1-1.834-4.418c-.152-1.575.157-3.193-.214-4.732a14.065,14.065,0,0,0-2.005-3.9,26.139,26.139,0,0,1-3.859-13.379,11.319,11.319,0,0,1,.422-3.535,30.568,30.568,0,0,1,1.988-4.007c.694-1.42,2.318-5.575,3.786-9.422a9.422,9.422,0,0,1,9.553-6.047,6.061,6.061,0,0,0,1.594-.037c.947-.184,1.816-.65,2.749-.9a6.407,6.407,0,0,1,6.985,2.872A22.8,22.8,0,0,0,158,411.076a17.1,17.1,0,0,0,1.449,1.523,7.55,7.55,0,0,1,.732.908" transform="translate(-129.79 -364.786)" fill="#3f3d56"/>
    <path id="Path_2525" data-name="Path 2525" d="M370.755,151.235h0A28.763,28.763,0,0,0,320.27,132.57a28.516,28.516,0,0,1,17.458-5.935,28.821,28.821,0,0,1,28.8,28.575h0A28.823,28.823,0,0,1,388.3,202.926a28.823,28.823,0,0,0-17.544-51.692Z" transform="translate(-296.604 -116.703)" opacity="0.1"/>
  </g>
</svg>
