<svg xmlns="http://www.w3.org/2000/svg" xmlns:xlink="http://www.w3.org/1999/xlink" width="98.506" height="81.941" viewBox="0 0 98.506 81.941"><defs><linearGradient id="a" x1="0.5" y1="1" x2="0.5" gradientUnits="objectBoundingBox"><stop offset="0" stop-color="gray" stop-opacity="0.251"/><stop offset="0.54" stop-color="gray" stop-opacity="0.122"/><stop offset="1" stop-color="gray" stop-opacity="0.102"/></linearGradient><clipPath id="b"><rect width="4.752" height="8.304" fill="none"/></clipPath><linearGradient id="d" xlink:href="#a"/></defs><g transform="translate(-11 -70)"><g transform="translate(11 70)"><g transform="translate(51.755)" opacity="0.8"><rect width="46.75" height="52.178" fill="url(#a)"/></g><rect width="45.205" height="16.205" transform="translate(52.527 34.838)" fill="#fff"/><rect width="1.752" height="8.304" transform="translate(56.238 38.681)" fill="#64ffda"/><g transform="translate(59.696 38.681)" opacity="0.7"><rect width="1.752" height="8.304" fill="#64ffda"/></g><g transform="translate(63.155 38.681)" opacity="0.6"><rect width="1.752" height="8.304" fill="#64ffda"/></g><g transform="translate(66.613 38.681)" opacity="0.5"><rect width="1.752" height="8.304" fill="#64ffda"/></g><g transform="translate(70.071 38.681)" opacity="0.5"><rect width="1.752" height="8.304" fill="#64ffda"/></g><g transform="translate(73.529 38.681)" opacity="0.4"><rect width="1.752" height="8.304" fill="#64ffda"/></g><g transform="translate(76.988 38.681)" opacity="0.3"><rect width="1.752" height="8.304" fill="#64ffda"/></g><rect width="45.205" height="16.205" transform="translate(52.527 18.002)" fill="#fff"/><g transform="translate(63.238 21.845)" clip-path="url(#b)"><g transform="translate(-56.238 -21.845)"><rect width="1.752" height="8.304" transform="translate(56.238 21.845)" fill="#64ffda"/></g><g transform="translate(-53.238 -21.845)"><rect width="1.752" height="8.304" transform="translate(56.238 21.845)" fill="#64ffda"/></g></g><g transform="translate(59.696 21.845)" opacity="0.7"><rect width="1.752" height="8.304" transform="translate(10)" fill="#64ffda"/></g><g transform="translate(63.155 21.845)" opacity="0.6"><rect width="1.752" height="8.304" transform="translate(10)" fill="#64ffda"/></g><g transform="translate(66.613 21.845)" opacity="0.5"><rect width="1.752" height="8.304" transform="translate(10)" fill="#64ffda"/></g><g transform="translate(70.071 21.845)" opacity="0.5"><rect width="1.752" height="8.304" transform="translate(10)" fill="#64ffda"/></g><g transform="translate(73.529 21.845)" opacity="0.4"><rect width="1.752" height="8.304" transform="translate(10)" fill="#64ffda"/></g><g transform="translate(76.988 21.845)" opacity="0.3"><rect width="1.752" height="8.304" transform="translate(10)" fill="#64ffda"/></g><rect width="45.205" height="16.205" transform="translate(52.527 1)" fill="#fff"/><rect width="1.752" height="8.304" transform="translate(66.238 5.011)" fill="#64ffda"/><g transform="translate(59.696 5.011)" opacity="0.7"><rect width="1.752" height="8.304" transform="translate(10)" fill="#64ffda"/></g><g transform="translate(63.155 5.011)" opacity="0.6"><rect width="1.752" height="8.304" transform="translate(10)" fill="#64ffda"/></g><g transform="translate(66.613 5.011)" opacity="0.5"><rect width="1.752" height="8.304" transform="translate(10)" fill="#64ffda"/></g><g transform="translate(70.071 5.011)" opacity="0.5"><rect width="1.752" height="8.304" transform="translate(10)" fill="#64ffda"/></g><g transform="translate(73.529 5.011)" opacity="0.4"><rect width="1.752" height="8.304" transform="translate(10)" fill="#64ffda"/></g><g transform="translate(76.988 5.011)" opacity="0.3"><rect width="1.752" height="8.304" transform="translate(10)" fill="#64ffda"/></g><g transform="translate(3.761 37.354)" opacity="0.8"><path d="M262.638,459.943H200.07V420a1.8,1.8,0,0,1,1.8-1.8H260.84a1.8,1.8,0,0,1,1.8,1.8Z" transform="translate(-200.07 -418.2)" fill="url(#a)"/></g><path d="M42.447,334.85H99.7a1.8,1.8,0,0,1,1.8,1.8v39.211H40.65V336.647a1.8,1.8,0,0,1,1.8-1.8Z" transform="translate(-36.027 -296.761)" fill="#fff"/><rect width="56.926" height="37.338" transform="translate(6.582 40.474)" fill="#f5f5f5"/><rect width="56.685" height="33.592" transform="translate(6.801 42.287)" fill="#e0e0e0" opacity="0.8"/><rect width="56.685" height="1.785" transform="translate(6.801 40.502)" fill="#f5f5f5"/><circle cx="0.432" cy="0.432" r="0.432" transform="translate(7.583 40.934)" fill="#ff5252"/><circle cx="0.432" cy="0.432" r="0.432" transform="translate(8.773 40.934)" fill="#ff0"/><circle cx="0.432" cy="0.432" r="0.432" transform="translate(9.964 40.934)" fill="#69f0ae"/><g transform="translate(0 75.153)" opacity="0.8"><path d="M235.08,757.137c-3.483.264-63.3.158-65.387,0-2.74-1.321-2.694-6.444-2.694-6.444l27.43-.183.092,1.559h11.743l.455-1.376h30.4S237.727,755.394,235.08,757.137Z" transform="translate(-167 -750.51)" fill="url(#d)"/></g><path d="M239.894,755.75H210.085a.91.91,0,0,1-.695,1.514H198.016a.91.91,0,0,1-.7-1.514H170.63s-.045,4.45,2.661,5.6c2.065.138,61.146.227,64.586,0C240.491,759.832,239.894,755.75,239.894,755.75Z" transform="translate(-170.217 -680.001)" fill="#f5f5f5"/><circle cx="0.367" cy="0.367" r="0.367" transform="translate(6.238 76.344)" fill="#e0e0e0"/><circle cx="0.367" cy="0.367" r="0.367" transform="translate(7.339 76.344)" fill="#e0e0e0"/><circle cx="0.367" cy="0.367" r="0.367" transform="translate(8.44 76.344)" fill="#e0e0e0"/><g transform="translate(22.236 43.608)" opacity="0.7"><path d="M373.53,473.18l-11.04,6.794s0,14.014,11.04,21.656c11.04-7.644,11.04-21.656,11.04-21.656Z" transform="translate(-362.49 -473.18)" fill="url(#a)"/></g><path d="M378.414,480.23,368,486.642s0,13.224,10.419,20.437c10.419-7.213,10.419-20.437,10.419-20.437Z" transform="translate(-345.137 -435.821)" fill="#6c63ff"/><path d="M459.719,480.23l-.179.114v26.617l.179.125c10.419-7.213,10.419-20.437,10.419-20.437Z" transform="translate(-426.265 -435.821)" opacity="0.05"/><path d="M239,122.926V99.38h19.451" transform="translate(-211.815 -88.076)" fill="none" stroke="#3ad29f" stroke-miterlimit="10" stroke-width="2" stroke-dasharray="1.5"/><path d="M186,59.926V36.38h19.451" transform="translate(-164.843 -32.242)" fill="none" stroke="#3ad29f" stroke-miterlimit="10" stroke-width="2" stroke-dasharray="1"/><path d="M636.237,477.38v18.427H626" transform="translate(-554.794 -423.079)" fill="none" stroke="#3ad29f" stroke-miterlimit="10" stroke-width="2" stroke-dasharray="1"/><path d="M690.237,513.38v18.427H680" transform="translate(-602.652 -454.984)" fill="none" stroke="#3ad29f" stroke-miterlimit="10" stroke-width="2" stroke-dasharray="1.5"/><rect width="1.752" height="8.304" transform="translate(57.238 5)" fill="#64ffda"/><rect width="1.752" height="8.304" transform="translate(60.238 5)" fill="rgba(100,255,218,0.95)"/><rect width="1.752" height="8.304" transform="translate(63.238 5)" fill="rgba(100,255,218,0.9)"/><rect width="1.752" height="8.304" transform="translate(66.238 5)" fill="rgba(100,255,218,0.85)"/></g><g transform="translate(-6 -78)"><path d="M387.764,493.85l-9.214,5.671s0,11.7,9.214,18.079c9.214-6.381,9.214-18.079,9.214-18.079Z" transform="translate(-337.487 -299.891)" fill="#6c63ff"/><path d="M459.55,494.24v23.746c9.214-6.381,9.214-18.079,9.214-18.079Z" transform="translate(-409.273 -300.237)" opacity="0.08"/><path d="M347.5,3174.483l1.845,1.845,4.687-4.687" transform="translate(-300.105 -2968.596)" fill="none" stroke="#fff" stroke-linecap="round" stroke-linejoin="round" stroke-width="1"/></g></g></svg>