<svg xmlns="http://www.w3.org/2000/svg" width="22" height="22" viewBox="0 0 22 22"><defs><style>.a{fill:none;}</style></defs><path class="a" d="M0,0H22V22H0Z"/><path d="M14.75,10.5A2.75,2.75,0,1,0,12,7.75,2.739,2.739,0,0,0,14.75,10.5Zm-7.333,0a2.75,2.75,0,1,0-2.75-2.75A2.739,2.739,0,0,0,7.417,10.5Zm0,1.833C5.281,12.333,1,13.406,1,15.542v2.292H13.833V15.542C13.833,13.406,9.552,12.333,7.417,12.333Zm7.333,0c-.266,0-.568.018-.889.046a3.868,3.868,0,0,1,1.806,3.162v2.292h5.5V15.542C21.167,13.406,16.886,12.333,14.75,12.333Z" transform="translate(-0.083 -0.417)"/></svg>