<svg xmlns="http://www.w3.org/2000/svg" width="20" height="19.133" viewBox="0 0 20 19.133"><defs><style>.a{fill:#fff;}</style></defs><g transform="translate(1654 1065)"><path class="a" d="M27.222,5.4V18.113H21.06v2.007a2.74,2.74,0,0,1-5.478,0s-.059-11.192-.119-15.2A1.3,1.3,0,0,0,15,4.1H25.853A1.355,1.355,0,0,1,27.222,5.4ZM24.107,8.08H18.629a.669.669,0,1,0,0,1.338h5.478a.669.669,0,1,0,0-1.338Zm0,2.675H20a.669.669,0,1,0,0,1.338h4.108a.669.669,0,1,0,0-1.338Z" transform="translate(-1665.091 -1069.063)"/><path class="a" d="M27.762,47H36.9v.574c0,1.268-1.5,3.156-2.942,3.156H26.418a2.994,2.994,0,0,0,1.343-3.156Z" transform="translate(-1670.898 -1096.596)"/><path class="a" d="M5.457,4H6.04s.779.154.874,1.481v.741H4V5.481A1.469,1.469,0,0,1,5.457,4Z" transform="translate(-1658 -1069)"/></g></svg>