<svg xmlns="http://www.w3.org/2000/svg" width="24" height="24" viewBox="0 0 24 24"><defs><style>.a{fill:none;}.b{fill:#ff715b;fill-rule:evenodd;}</style></defs><path class="a" d="M0,0H24V24H0Z"/><path class="b" d="M15.621,18.743l-1.857-1.966,1.857-1.857c-.437,0-1.857-.109-2.184-.109-2.949,0-8.737,1.42-8.737,4.368v2.184h9.829l-.764-.655Zm-2.184-6.006A4.368,4.368,0,1,0,9.068,8.368a4.381,4.381,0,0,0,4.368,4.368m6.443,3.385-1.966,1.966-1.966-1.966-.764.764,1.966,1.966-1.966,1.966.764.655,1.966-1.966,1.966,1.966.764-.764-1.966-1.966,1.966-1.966Z" transform="translate(-0.672 -0.473)"/></svg>