<?xml version="1.0" encoding="utf-8"?>
<!-- Generator: Adobe Illustrator 24.0.0, SVG Export Plug-In . SVG Version: 6.00 Build 0)  -->
<svg version="1.1" id="Layer_1" xmlns="http://www.w3.org/2000/svg" xmlns:xlink="http://www.w3.org/1999/xlink" x="0px" y="0px"
	 viewBox="0 0 24 24" style="enable-background:new 0 0 24 24;" xml:space="preserve">
<style type="text/css">
	.st0{fill:none;}
	.st1{fill-rule:evenodd;clip-rule:evenodd;fill:#FFFFFF;}
</style>
<path class="st0" d="M0,0h24v24H0V0z"/>
<path class="st1" d="M14.7,17.5L13,15.7l1.7-1.7c-0.4,0-1.7-0.1-2-0.1c-2.7,0-8,1.3-8,4v2h9L13,19.3L14.7,17.5z M12.7,12
	c2.2,0,4-1.8,4-4s-1.8-4-4-4s-4,1.8-4,4S10.5,12,12.7,12 M18.6,15.1l-1.8,1.8L15,15.1l-0.7,0.7l1.8,1.8l-1.8,1.8L15,20l1.8-1.8
	l1.8,1.8l0.7-0.7l-1.8-1.8l1.8-1.8L18.6,15.1z"/>
</svg>
