<svg xmlns="http://www.w3.org/2000/svg" width="7.5" height="10" viewBox="0 0 7.5 10"><defs><style>.a{fill:rgba(45,48,71,0.5);opacity:0.6;}</style></defs><path class="a" d="M4.375,2.656V0H.469A.468.468,0,0,0,0,.469V9.531A.468.468,0,0,0,.469,10H7.031A.468.468,0,0,0,7.5,9.531V3.125H4.844A.47.47,0,0,1,4.375,2.656ZM5.648,6.875H4.375V8.438a.312.312,0,0,1-.312.313H3.438a.312.312,0,0,1-.312-.312V6.875H1.852a.313.313,0,0,1-.22-.534L3.515,4.472a.333.333,0,0,1,.47,0L5.868,6.341A.312.312,0,0,1,5.648,6.875ZM7.363,2.051,5.451.137A.468.468,0,0,0,5.119,0H5V2.5H7.5V2.381A.467.467,0,0,0,7.363,2.051Z"/></svg>