<svg xmlns="http://www.w3.org/2000/svg" xmlns:xlink="http://www.w3.org/1999/xlink" width="232.033" height="142.897" viewBox="0 0 232.033 142.897">
  <defs>
    <linearGradient id="linear-gradient" x1="0.472" y1="-0.114" x2="0.472" y2="0.851" gradientUnits="objectBoundingBox">
      <stop offset="0" stop-color="gray" stop-opacity="0.251"/>
      <stop offset="0.54" stop-color="gray" stop-opacity="0.122"/>
      <stop offset="1" stop-color="gray" stop-opacity="0.102"/>
    </linearGradient>
    <linearGradient id="linear-gradient-2" x1="0.516" y1="0.011" x2="0.516" y2="1.011" xlink:href="#linear-gradient"/>
    <linearGradient id="linear-gradient-3" x1="0.5" y1="0.007" x2="0.5" y2="1.007" xlink:href="#linear-gradient"/>
    <linearGradient id="linear-gradient-4" x1="1.968" y1="-3.037" x2="1.968" y2="-2.046" xlink:href="#linear-gradient"/>
    <linearGradient id="linear-gradient-5" x1="0.5" y1="-1.985" x2="0.5" y2="-0.985" xlink:href="#linear-gradient"/>
    <linearGradient id="linear-gradient-6" x1="7.93" y1="-9.347" x2="7.93" y2="-8.348" gradientUnits="objectBoundingBox">
      <stop offset="0" stop-color="gray" stop-opacity="0.251"/>
      <stop offset="0.54" stop-color="gray" stop-opacity="0.122"/>
      <stop offset="1" stop-color="#fff" stop-opacity="0.922"/>
    </linearGradient>
  </defs>
  <g id="Layer_2" data-name="Layer 2" transform="translate(0.002 -0.03)">
    <g id="ffa0e257-4b46-4632-a8d6-93195cbf254d" transform="translate(-0.002 0.03)">
      <rect id="Rectangle_1852" data-name="Rectangle 1852" width="100.848" height="104.547" transform="translate(104.941 112.996) rotate(-74.995)" fill="url(#linear-gradient)"/>
      <rect id="Rectangle_1853" data-name="Rectangle 1853" width="91.358" height="93.494" transform="matrix(0.261, -0.965, 0.965, 0.261, 111.201, 111.03)" fill="#77b2f6"/>
      <rect id="Rectangle_1854" data-name="Rectangle 1854" width="5.296" height="7.599" transform="matrix(0.261, -0.965, 0.965, 0.261, 137.836, 35.247)" fill="#fff"/>
      <rect id="Rectangle_1855" data-name="Rectangle 1855" width="5.296" height="7.599" transform="matrix(0.261, -0.965, 0.965, 0.261, 135.478, 43.983)" fill="#fff"/>
      <rect id="Rectangle_1856" data-name="Rectangle 1856" width="5.296" height="7.599" transform="matrix(0.261, -0.965, 0.965, 0.261, 133.12, 52.717)" fill="#fff"/>
      <rect id="Rectangle_1857" data-name="Rectangle 1857" width="3.09" height="61.272" transform="matrix(0.261, -0.965, 0.965, 0.261, 157.612, 39.438)" fill="#fff"/>
      <rect id="Rectangle_1858" data-name="Rectangle 1858" width="3.09" height="61.272" transform="matrix(0.261, -0.965, 0.965, 0.261, 155.257, 48.175)" fill="#fff"/>
      <rect id="Rectangle_1859" data-name="Rectangle 1859" width="3.09" height="61.272" transform="matrix(0.261, -0.965, 0.965, 0.261, 152.899, 56.912)" fill="#fff"/>
      <rect id="Rectangle_1860" data-name="Rectangle 1860" width="124.483" height="117.273" transform="matrix(0.973, -0.231, 0.231, 0.973, 0, 28.807)" fill="url(#linear-gradient-2)"/>
      <rect id="Rectangle_1861" data-name="Rectangle 1861" width="111.795" height="106.687" transform="matrix(0.973, -0.231, 0.231, 0.973, 7.687, 32.965)" fill="#77b2f6"/>
      <rect id="Rectangle_1862" data-name="Rectangle 1862" width="9.087" height="6.185" transform="matrix(0.973, -0.231, 0.231, 0.973, 16.248, 38.082)" fill="#fff"/>
      <rect id="Rectangle_1863" data-name="Rectangle 1863" width="9.087" height="6.185" transform="matrix(0.973, -0.231, 0.231, 0.973, 18.69, 48.36)" fill="#fff"/>
      <rect id="Rectangle_1864" data-name="Rectangle 1864" width="9.059" height="6.166" transform="translate(20.995 58.504) rotate(-13.339)" fill="#fff"/>
      <rect id="Rectangle_1865" data-name="Rectangle 1865" width="73.264" height="3.606" transform="matrix(0.973, -0.231, 0.231, 0.973, 40.025, 33.747)" fill="#fff"/>
      <rect id="Rectangle_1866" data-name="Rectangle 1866" width="73.264" height="3.606" transform="matrix(0.973, -0.231, 0.231, 0.973, 42.473, 44.028)" fill="#fff"/>
      <rect id="Rectangle_1867" data-name="Rectangle 1867" width="73.264" height="3.606" transform="matrix(0.973, -0.231, 0.231, 0.973, 44.916, 54.306)" fill="#fff"/>
      <rect id="Rectangle_1868" data-name="Rectangle 1868" width="124.483" height="129.228" transform="translate(57.575 6.242)" fill="url(#linear-gradient-3)"/>
      <rect id="Rectangle_1869" data-name="Rectangle 1869" width="111.795" height="117.563" transform="translate(64.089 12.662)" fill="#77b2f6"/>
      <rect id="Rectangle_1870" data-name="Rectangle 1870" width="9.087" height="6.815" transform="translate(71.234 20.329)" fill="#fff"/>
      <rect id="Rectangle_1871" data-name="Rectangle 1871" width="9.087" height="6.815" transform="translate(71.234 31.972)" fill="#fff"/>
      <rect id="Rectangle_1872" data-name="Rectangle 1872" width="9.087" height="6.815" transform="translate(71.234 43.615)" fill="#fff"/>
      <rect id="Rectangle_1873" data-name="Rectangle 1873" width="73.264" height="3.976" transform="translate(95.371 21.749)" fill="#fff"/>
      <rect id="Rectangle_1874" data-name="Rectangle 1874" width="73.264" height="3.976" transform="translate(95.371 33.392)" fill="#fff"/>
      <rect id="Rectangle_1875" data-name="Rectangle 1875" width="73.264" height="3.976" transform="translate(95.371 45.035)" fill="#fff"/>
      <path id="Path_3816" data-name="Path 3816" d="M373.593,255.765c0-6.849,4.393-11.947,11.242-11.947s11.245,5.1,11.245,11.947v7.951h3.473v-7.951c.105-8.769-5.756-15.507-14.522-15.618s-14.8,6.46-14.911,15.226v8.34h3.473Z" transform="translate(-265.017 -171.96)" fill="url(#linear-gradient-4)"/>
      <rect id="Rectangle_1876" data-name="Rectangle 1876" width="42.354" height="34.84" transform="translate(98.64 88.484)" fill="url(#linear-gradient-5)"/>
      <rect id="Rectangle_1877" data-name="Rectangle 1877" width="39.622" height="32.335" transform="translate(100.006 89.85)" fill="#fff"/>
      <rect id="Rectangle_1878" data-name="Rectangle 1878" width="39.622" height="19.582" transform="translate(100.006 96.225)" fill="#2d3047"/>
      <path id="Path_3817" data-name="Path 3817" d="M417.516,352.962a2.908,2.908,0,1,0-5.009,1.988v6.2a2.113,2.113,0,1,0,4.225,0v-6.2A2.894,2.894,0,0,0,417.516,352.962Z" transform="translate(-294.79 -250.642)" fill="url(#linear-gradient-6)"/>
      <path id="Path_3818" data-name="Path 3818" d="M418.129,355.8a2.5,2.5,0,1,0-4.328,1.7v5.353a1.823,1.823,0,0,0,3.643,0v-5.341A2.5,2.5,0,0,0,418.129,355.8Z" transform="translate(-295.807 -252.969)" opacity="0.2"/>
      <path id="Path_3819" data-name="Path 3819" d="M373.806,255.633a11.386,11.386,0,1,1,22.773,0v7.275h3.189v-7.275a14.573,14.573,0,1,0-29.146,0v7.275h3.186Z" transform="translate(-265.375 -172.615)" fill="#fff"/>
    </g>
  </g>
</svg>
