<svg xmlns="http://www.w3.org/2000/svg" xmlns:xlink="http://www.w3.org/1999/xlink" width="129.949" height="102.856" viewBox="0 0 129.949 102.856"><defs><style>.a{fill:url(#a);}.b{fill:url(#d);}.c{fill:#fff;}.d{fill:url(#g);}.e{filter:url(#e);}.f{filter:url(#b);}</style><linearGradient id="a" x1="0.932" y1="0.523" x2="-0.067" y2="0.473" gradientUnits="objectBoundingBox"><stop offset="0" stop-color="#fff"/><stop offset="0.28" stop-color="#fff"/><stop offset="0.607" stop-color="#d5e8ff"/><stop offset="1" stop-color="#d5e8ff"/></linearGradient><filter id="b" x="0" y="0" width="129.949" height="102.856" filterUnits="userSpaceOnUse"><feOffset dy="3" input="SourceAlpha"/><feGaussianBlur stdDeviation="3" result="c"/><feFlood flood-color="#0039aa" flood-opacity="0.502"/><feComposite operator="in" in2="c"/><feComposite in="SourceGraphic"/></filter><linearGradient id="d" y1="0.5" x2="1" y2="0.5" gradientUnits="objectBoundingBox"><stop offset="0" stop-color="#fff"/><stop offset="1" stop-color="#d5e8ff" stop-opacity="0.988"/></linearGradient><filter id="e" x="5.597" y="14.335" width="109.789" height="74.186" filterUnits="userSpaceOnUse"><feOffset dy="3" input="SourceAlpha"/><feGaussianBlur stdDeviation="3" result="f"/><feFlood flood-color="#0039aa" flood-opacity="0.502"/><feComposite operator="in" in2="f"/><feComposite in="SourceGraphic"/></filter><linearGradient id="g" y1="0.5" x2="1" y2="0.5" gradientUnits="objectBoundingBox"><stop offset="0" stop-color="#fff"/><stop offset="1" stop-color="#d5e8ff"/></linearGradient></defs><g transform="translate(9 6)"><g transform="translate(0 0)"><g class="f" transform="matrix(1, 0, 0, 1, -9, -6)"><path class="a" d="M111.94,42.425A42.426,42.426,0,0,1,73.2,84.7c-1.213.106-2.447.16-3.7.16H36.263l-8.726-8.738V22.974a8.732,8.732,0,0,1,8.732,8.732V76.118H69.284a33.693,33.693,0,0,0,0-67.386H0A8.732,8.732,0,0,1,8.732,0H69.515q1.851,0,3.7.16a42.425,42.425,0,0,1,38.732,42.271Z" transform="translate(9 6)"/></g><path class="b" d="M109.478,38.17A37.951,37.951,0,0,1,71.527,76.121c-.38,0-.759,0-1.132-.018q1.419-.046,2.811-.207A33.693,33.693,0,0,0,69.29,8.732H0A8.732,8.732,0,0,1,8.732,0H69.515q1.851,0,3.7.16c.861.071,1.715.173,2.558.309A42.2,42.2,0,0,1,95.306,8.741q1.422,1.086,2.74,2.286h0A37.824,37.824,0,0,1,109.478,38.17Z" transform="translate(0 0)"/><g class="e" transform="matrix(1, 0, 0, 1, -9, -6)"><path class="c" d="M109.929,74.55a28.363,28.363,0,0,1-7.639,19.367,27.966,27.966,0,0,1-16.931,8.729H63.3a8.935,8.935,0,0,1-8.667-8.966l8.735.234H82.169a19.363,19.363,0,1,0,0-38.725l-64.029,0a8.729,8.729,0,0,1,8.732-8.732H85.359a27.966,27.966,0,0,1,16.93,8.732A28.355,28.355,0,0,1,109.929,74.55Z" transform="translate(-3.54 -26.13)"/></g><path class="d" d="M108.361,70.857A23.739,23.739,0,0,1,79.01,93.914h3.159a19.363,19.363,0,1,0,0-38.725l-64.029,0a8.729,8.729,0,0,1,8.732-8.732H85.359a27.479,27.479,0,0,1,8.846,2.687,28.223,28.223,0,0,1,8.084,6.044,28.729,28.729,0,0,1,2.138,2.586A23.594,23.594,0,0,1,108.361,70.857Z" transform="translate(-12.543 -32.125)"/><path class="c" d="M144.893,81.2a.774.774,0,0,0,.774-.774V79.6a.774.774,0,0,0-.774-.774H139.34v-3.7a.774.774,0,0,0-.774-.774h-4.5a.774.774,0,0,0-.774.774V88.435h-.525a.774.774,0,0,0-.774.774v.926a.774.774,0,0,0,.774.768h.525v22.215h6.063V90.9h.525a.774.774,0,0,0,.774-.774V89.2a.774.774,0,0,0-.774-.774h-.525V85.961h5.554a.774.774,0,0,0,.774-.778v-.824a.774.774,0,0,0-.774-.778h-1.725V81.2Z" transform="translate(-91.265 -51.41)"/><path class="c" d="M97.982,83.192v53.144h0L89.25,127.6V74.46A8.732,8.732,0,0,1,97.982,83.192Z" transform="translate(-61.712 -51.486)"/></g></g></svg>