<svg xmlns="http://www.w3.org/2000/svg" xmlns:xlink="http://www.w3.org/1999/xlink" width="25.261" height="29.54" viewBox="0 0 25.261 29.54"><defs><style>.a,.d{fill:#2d3047;}.b{fill:none;}.c,.d{stroke:none;}.e{filter:url(#c);}.f{filter:url(#a);}</style><filter id="a" x="12.446" y="3.03" width="8.81" height="8.81" filterUnits="userSpaceOnUse"><feOffset dx="-0.5" dy="0.5" input="SourceAlpha"/><feGaussianBlur stdDeviation="0.5" result="b"/><feFlood flood-color="#2d3047" flood-opacity="0.251"/><feComposite operator="in" in2="b"/><feComposite in="SourceGraphic"/></filter><filter id="c" x="0" y="0" width="25.261" height="29.54" filterUnits="userSpaceOnUse"><feOffset dy="1" input="SourceAlpha"/><feGaussianBlur stdDeviation="0.5" result="d"/><feFlood flood-opacity="0.161"/><feComposite operator="in" in2="d"/><feComposite in="SourceGraphic"/></filter></defs><g transform="translate(1.816 0.58)"><g class="f" transform="matrix(1, 0, 0, 1, -1.82, -0.58)"><path class="a" d="M13.63,8.26h5.81L13.63,2.45Z" transform="translate(0.82 1.58)"/></g><rect class="a" width="2" height="1.19" transform="translate(4.97 2.56)"/><rect class="a" width="2" height="1.19" transform="translate(6.97 3.76)"/><rect class="a" width="2" height="1.19" transform="translate(4.97 4.95)"/><rect class="a" width="2" height="1.19" transform="translate(6.97 6.15)"/><rect class="a" width="2" height="1.19" transform="translate(4.97 7.34)"/><rect class="a" width="2" height="1.19" transform="translate(6.97 8.53)"/><rect class="a" width="2" height="1.19" transform="translate(4.97 9.73)"/><rect class="a" width="2" height="1.19" transform="translate(6.97 10.92)"/><rect class="a" width="2" height="1.19" transform="translate(4.97 12.12)"/><path class="a" d="M5,13.31v3.35a.663.663,0,0,0,.665.65h2.68a.658.658,0,0,0,.483-.179.648.648,0,0,0,.2-.471V13.31Zm3.274,2.77a.231.231,0,0,1-.232.23H6.007a.231.231,0,0,1-.232-.23v-.73a.231.231,0,0,1,.232-.23H8.022a.231.231,0,0,1,.232.23Z" transform="translate(-0.03)"/><g class="e" transform="matrix(1, 0, 0, 1, -1.82, -0.58)"><g class="b" transform="translate(3.54 2.5)"><path class="c" d="M-.033,0H12.2l6.024,5.923L18.191,22.54H0Z"/><path class="d" d="M -0.03294181823730469 -1.9073486328125e-06 L -1.9073486328125e-06 22.53991889953613 L 18.19054794311523 22.53991889953613 L 18.22305870056152 5.92304801940918 L 12.19911861419678 -1.9073486328125e-06 L -0.03294181823730469 -1.9073486328125e-06 M -2.035861968994141 -2.000001907348633 L -0.03294181823730469 -2.000001907348633 L 12.19911861419678 -2.000001907348633 L 13.01766777038574 -2.000001907348633 L 13.60133838653564 -1.426111221313477 L 19.62527847290039 4.496938705444336 L 20.22469902038574 5.086328506469727 L 20.22305870056152 5.926958084106445 L 20.19054794311523 22.5438289642334 L 20.18663787841797 24.53991889953613 L 18.19054794311523 24.53991889953613 L -1.9073486328125e-06 24.53991889953613 L -1.997081756591797 24.53991889953613 L -2.000001907348633 22.54283905029297 L -2.032941818237305 0.002918243408203125 L -2.035861968994141 -2.000001907348633 Z"/></g></g></g></svg>