<svg xmlns="http://www.w3.org/2000/svg" width="16" height="16" viewBox="0 0 16 16"><defs><style>.a{fill:none;}.b{fill:#707070;}</style></defs><path class="a" d="M0,0H16V16H0Z"/><path class="b" d="M13.667,2H4.333A1.333,1.333,0,0,0,3,3.333v9.333A1.333,1.333,0,0,0,4.333,14H7l2,2,2-2h2.667A1.337,1.337,0,0,0,15,12.667V3.333A1.337,1.337,0,0,0,13.667,2Zm-4,10.667H8.333V11.333H9.667ZM11.047,7.5l-.6.613A2.27,2.27,0,0,0,9.667,10H8.333V9.667a2.683,2.683,0,0,1,.78-1.887l.827-.84A1.3,1.3,0,0,0,10.333,6,1.333,1.333,0,1,0,7.667,6H6.333a2.667,2.667,0,0,1,5.333,0A2.121,2.121,0,0,1,11.047,7.5Z" transform="translate(-1 -0.667)"/></svg>