<svg xmlns="http://www.w3.org/2000/svg" xmlns:xlink="http://www.w3.org/1999/xlink" width="69.19" height="63.777" viewBox="0 0 69.19 63.777"><defs><style>.a{opacity:0.7;}.b,.c{fill:#6c63ff;}.b{opacity:0.24;}.d{fill:url(#a);}.e{fill:url(#b);}.f{fill:#fff;}.g{fill:#f5c7c8;}.h{fill:url(#c);}.i{fill:url(#d);}.j{fill:url(#e);}.k{fill:url(#f);}.l{fill:url(#h);}.m{fill:url(#k);}.n{fill:url(#l);}.o{fill:url(#m);}.p{fill:url(#n);}.q{fill:url(#o);}.r{fill:#3f3d56;}</style><linearGradient id="a" y1="0.5" x2="1" y2="0.5" gradientUnits="objectBoundingBox"><stop offset="0" stop-color="#010101" stop-opacity="0"/><stop offset="0.95" stop-color="#010101"/></linearGradient><linearGradient id="b" x1="0.118" y1="1.391" x2="0.919" y2="-0.476" gradientUnits="objectBoundingBox"><stop offset="0" stop-color="#010101" stop-opacity="0"/><stop offset="0.47" stop-color="#010101" stop-opacity="0.471"/><stop offset="0.95" stop-color="#010101"/></linearGradient><linearGradient id="c" x1="0.188" y1="0.687" x2="3.447" y2="-1.527" xlink:href="#b"/><linearGradient id="d" x1="0.116" y1="0.545" x2="3.744" y2="-0.034" xlink:href="#b"/><linearGradient id="e" x1="0.89" y1="0.074" x2="-1.333" y2="2.485" xlink:href="#a"/><linearGradient id="f" x1="0" y1="0.5" x2="1" y2="0.5" xlink:href="#a"/><linearGradient id="h" x1="0" y1="0.502" x2="1" y2="0.502" xlink:href="#a"/><linearGradient id="k" x1="-0.886" y1="0.421" x2="3.182" y2="0.6" xlink:href="#b"/><linearGradient id="l" x1="0.536" y1="-0.537" x2="0.474" y2="1.266" gradientUnits="objectBoundingBox"><stop offset="0" stop-color="#fff" stop-opacity="0"/><stop offset="0.95" stop-color="#fff"/></linearGradient><linearGradient id="m" x1="-1.466" y1="0.276" x2="20.159" y2="2.259" xlink:href="#a"/><linearGradient id="n" x1="0.863" y1="0.45" x2="-2.052" y2="0.835" xlink:href="#b"/><linearGradient id="o" x1="0.583" y1="0.389" x2="0.413" y2="0.591" xlink:href="#l"/></defs><g class="a" transform="translate(0.086 0.006)"><path class="b" d="M85.077,61.083a11.457,11.457,0,0,1-2.625,1.44c-1.617.627-3.34.908-5,1.391-.737.212-1.46.47-2.169.75-4.3,1.691-8.238,4.373-12.756,5.352-8.373,1.828-16.465-2.328-24.469-4.09-6.857-1.506-12.43,2.095-15.2-8.8-1.157-4.536-2.589-9.34-.838-13.693S26.24,35.06,27.91,30.685c2.385-6.248,3.268-13.446,7.962-18.214,3.251-3.3,7.9-4.9,12.5-5.461s9.262-.2,13.9-.183c5.581.018,11.526-.374,16.353,2.436a13.861,13.861,0,0,1,6.572,9.395c.958,5.366-1.317,10.93-.294,16.286.949,4.987,4.656,9.16,5.38,14.188A12.9,12.9,0,0,1,85.077,61.083Z" transform="translate(-21.29 -6.7)"/><path class="c" d="M192.462,48.733V92.84a4.226,4.226,0,0,1-4.223,4.228H160.383a4.224,4.224,0,0,1-4.223-4.228V48.733a4.223,4.223,0,0,1,4.223-4.223h27.856a4.226,4.226,0,0,1,4.223,4.223Z" transform="translate(-137.767 -39.338)"/><path class="d" d="M163.028,242.27c-.838,2.054-2.658,3.444-4.232,4.913-.811.756-1.436,1.6-2.159,2.418a1.723,1.723,0,0,1-.456.351v-8.391a10.023,10.023,0,0,0,.429-2.191c.274.9.151,2,.846,2.644a2.622,2.622,0,0,0,1.718.52,17.737,17.737,0,0,0,3.854-.264Z" transform="translate(-137.784 -207.516)"/><rect class="e" width="29.479" height="44.175" transform="translate(21.463 8.934)"/><path class="f" d="M210.415,69.43v44.048H184.629s-3.574-.752-3.763-6.775.189-37.273.189-37.273Z" transform="translate(-159.045 -60.845)"/><path class="g" d="M374.7,219.718a5.889,5.889,0,0,0,.548,1.791,2.568,2.568,0,0,0,2.291.835.95.95,0,0,0,.327-.062.79.79,0,0,0,.29-.26,2.846,2.846,0,0,0,.255-2.514,5.006,5.006,0,0,0-2.129-2.756c-.556-.345-2.963-1.356-3.222-.411C372.846,217.155,374.467,218.9,374.7,219.718Z" transform="translate(-324.953 -187.302)"/><path class="h" d="M374.7,219.718a5.889,5.889,0,0,0,.548,1.791,2.568,2.568,0,0,0,2.291.835.95.95,0,0,0,.327-.062.79.79,0,0,0,.29-.26,2.846,2.846,0,0,0,.255-2.514,5.006,5.006,0,0,0-2.129-2.756c-.556-.345-2.963-1.356-3.222-.411C372.846,217.155,374.467,218.9,374.7,219.718Z" transform="translate(-324.953 -187.302)"/><path class="i" d="M353.988,231.036c-.093-4.313-.2-8.719-1.679-12.774-.839-2.3-2.106-4.447-2.791-6.8a19.942,19.942,0,0,1-.394-5.759,9.534,9.534,0,0,0-.3-3.044,14.663,14.663,0,0,1-.912-2.517,6.979,6.979,0,0,1,2.9,3.257,15.519,15.519,0,0,1,.316,2.131c.367,2.295,1.966,4.164,3.105,6.189,2.5,4.453,2.815,9.779,2.791,14.887a7.353,7.353,0,0,1-.519,3.251A2.172,2.172,0,0,1,353.988,231.036Z" transform="translate(-303.261 -173.658)"/><path class="g" d="M61.231,194.139c-2.095,2.34-5.34,3.486-7.216,6.006-1.676,2.243-1.99,5.185-2.837,7.857a39.222,39.222,0,0,1-4.172,8.309,1.908,1.908,0,0,1-.83.869,1.817,1.817,0,0,1-1.05,0c-2.611-.548-5.47-1.925-6.056-4.531a7.289,7.289,0,0,1,1.12-4.9c2.808-5.246,7.235-9.593,9.385-15.143,1.4-3.624,2.128-7.734,5.578-10.031a.3.3,0,0,0,0,.07c-.17,1.436.137,4.536-.092,6.742a.852.852,0,0,0,.014.24h0a6.309,6.309,0,0,0,.655,1.335c.534,1,2.007.779,3.081.411s2.537-.613,3.09.382C62.318,192.528,61.817,193.481,61.231,194.139Z" transform="translate(-36.618 -158.502)"/><path class="f" d="M187.151,348.373a.612.612,0,0,0-.051.042h-2.137s-3.574-.752-3.763-6.775a4.84,4.84,0,0,0,5.692,3.186S184.557,348.631,187.151,348.373Z" transform="translate(-159.378 -295.783)"/><path class="j" d="M187.151,348.373a.612.612,0,0,0-.051.042h-2.137s-3.574-.752-3.763-6.775a4.84,4.84,0,0,0,5.692,3.186S184.557,348.631,187.151,348.373Z" transform="translate(-159.378 -295.783)"/><rect class="k" width="21.785" height="0.778" rx="0.389" transform="translate(26.303 17.881)"/><rect class="k" width="21.785" height="0.778" rx="0.389" transform="translate(26.303 20.215)"/><rect class="l" width="21.785" height="0.778" rx="0.389" transform="translate(26.303 22.548)"/><rect class="k" width="21.785" height="0.778" rx="0.389" transform="translate(26.303 24.883)"/><rect class="k" width="21.785" height="0.778" rx="0.389" transform="translate(26.303 27.218)"/><path class="c" d="M253.767,38.8v1.271a2.8,2.8,0,0,1-2.8,2.8h-7.493a2.8,2.8,0,0,1-2.8-2.8V38.8a2.8,2.8,0,0,1,2.8-2.8h7.493A2.8,2.8,0,0,1,253.767,38.8Z" transform="translate(-210.705 -31.993)"/><path class="m" d="M240.82,38.56v1.272a2.8,2.8,0,0,0,2.8,2.807h.563a2.8,2.8,0,0,1-2.8-2.807V38.56a2.8,2.8,0,0,1,2.8-2.8h-.563A2.8,2.8,0,0,0,240.82,38.56Z" transform="translate(-210.835 -31.786)"/><path class="n" d="M257.306,38.8v1.271a2.8,2.8,0,0,1-2.8,2.8h-6.931a2.8,2.8,0,0,1-2.8-2.8V38.8a2.8,2.8,0,0,1,2.8-2.8h6.931A2.8,2.8,0,0,1,257.306,38.8Z" transform="translate(-214.244 -31.993)"/><path class="o" d="M147.823,189.832a.852.852,0,0,0,.014.24,3.452,3.452,0,0,1-.822-1.432,17.9,17.9,0,0,1-.566-2.9,3.972,3.972,0,0,1,1.464-2.648C147.745,184.526,148.049,187.626,147.823,189.832Z" transform="translate(-129.386 -158.942)"/><path class="g" d="M375.451,230.42a11.456,11.456,0,0,1-2.625,1.44c-1.617.627-3.34.908-5,1.391-.737.212-1.46.47-2.169.75a51.662,51.662,0,0,0-5.711-18.622,24.329,24.329,0,0,1-2-4.33c-.544-1.612-.274-5.965.257-6.047.9-.148,1.488.906,1.78,1.773.489,1.413.931,2.707,2.257,3.56a1.7,1.7,0,0,0,1.888.183,1.506,1.506,0,0,0,.5-.893,3.435,3.435,0,0,0-1.064-3.086,6.173,6.173,0,0,0-3.012-1.477,3.786,3.786,0,0,1-1.806-.664,1.143,1.143,0,0,1-.294-1.4c.253-.387,1.76.493,2.211.427a9.919,9.919,0,0,1,2.054-.326,7.986,7.986,0,0,1,2.975.487,8.874,8.874,0,0,1,2.533,1.828c1.179,1.124,2.237,1.465,3.26,2.739a9.256,9.256,0,0,1,1.612,2.63c.618,1.75.263,3.675.083,5.526a28.384,28.384,0,0,0,2.142,13.812C375.358,230.217,375.41,230.319,375.451,230.42Z" transform="translate(-311.664 -176.038)"/><path class="p" d="M401.754,256.529a30.7,30.7,0,0,0,2.875,3.848c.288.345.755.723,1.13.475.286-.19.274-.611.2-.946a8.536,8.536,0,0,0-2.069-3.813,25.751,25.751,0,0,0-3.264-2.922c.04.031-.4.648-.218.978C400.726,254.693,401.424,255.973,401.754,256.529Z" transform="translate(-348.534 -219.426)"/><path class="c" d="M347.031,199.385s8.072,8.657,9.722,10.375,3.012,2.982,3.012,2.982,1.621.162,1.686-.389-12.286-12.547-13.519-13.13l-1.232-.583Z" transform="translate(-302.217 -172.363)"/><path class="q" d="M361.57,212.336c-.031.274-.45.372-.861.4a5.477,5.477,0,0,1-.822-.014s-1.362-1.261-3.012-2.98-9.722-10.376-9.722-10.376l-.323-.746,1.232.586C349.284,199.791,361.641,211.783,361.57,212.336Z" transform="translate(-302.329 -172.346)"/><path class="c" d="M360.857,212.658l-.148.078a5.477,5.477,0,0,1-.822-.014s-1.362-1.261-3.012-2.98-9.722-10.376-9.722-10.376l-.323-.746Z" transform="translate(-302.329 -172.346)"/><path class="f" d="M412.347,276.352c-.094.182-.234.423-.43.363a.382.382,0,0,1-.137-.086L408.726,274c-.059.472.368.845.738,1.145a14.533,14.533,0,0,1,1.88,1.814,1.373,1.373,0,0,0,.563.46.445.445,0,0,0,.585-.274.394.394,0,0,1,.031-.146.241.241,0,0,1,.108-.082l.5-.242a1.781,1.781,0,0,0,.523-.338.605.605,0,0,0,.172-.571C413.584,274.975,412.513,276.029,412.347,276.352Z" transform="translate(-355.745 -237.404)"/><path class="f" d="M445.443,297.317a1.334,1.334,0,0,0,.808.433.368.368,0,0,0,.305-.111.319.319,0,0,0,.025-.314.925.925,0,0,0-.193-.267l-.316-.345a.822.822,0,0,0-.411-.293c-.185-.033-.611.108-.649.325S445.32,297.192,445.443,297.317Z" transform="translate(-387.064 -256.75)"/><path class="r" d="M438.348,691.852a4.121,4.121,0,0,1,1.243-.66,1.308,1.308,0,0,1,1.231.226.754.754,0,0,1,.182.954.606.606,0,0,1-.4.292.484.484,0,0,1-.435-.17.444.444,0,0,1-.111-.436.571.571,0,0,1,.366-.311,2.706,2.706,0,0,1,.546-.113l.759-.1,3.106-.425,3.459-.474a.108.108,0,0,0,.075-.132.11.11,0,0,0-.132-.075l-6.883.942c-.249.034-.5.058-.748.109a1.257,1.257,0,0,0-.537.223.641.641,0,0,0,0,1,.71.71,0,0,0,1.022-.076.927.927,0,0,0,.07-1.135,1.377,1.377,0,0,0-1.343-.551,3.657,3.657,0,0,0-1.576.735C438.126,691.744,438.233,691.93,438.348,691.852Z" transform="translate(-399.651 -644.618)"/></g></svg>