<?xml version="1.0" standalone="no"?>
<!DOCTYPE svg PUBLIC "-//W3C//DTD SVG 20010904//EN"
 "http://www.w3.org/TR/2001/REC-SVG-20010904/DTD/svg10.dtd">
<svg version="1.0" xmlns="http://www.w3.org/2000/svg"
 width="107.000000pt" height="59.000000pt" viewBox="0 0 107.000000 59.000000"
 preserveAspectRatio="xMidYMid meet">

<g transform="translate(0.000000,59.000000) scale(0.100000,-0.100000)"
fill="#000000" stroke="none">
<path d="M29 561 l-29 -29 0 -232 0 -232 29 -29 29 -29 331 0 330 0 28 24 c24
21 28 32 31 95 l4 71 71 -50 c65 -46 76 -50 126 -50 88 0 86 -4 89 185 4 206
0 215 -84 215 -51 0 -62 -4 -127 -50 l-72 -51 -3 43 c-5 88 -12 108 -45 128
-30 19 -52 20 -355 20 l-324 0 -29 -29z m697 -15 c18 -14 19 -28 19 -244 0
-179 -3 -233 -14 -245 -12 -15 -48 -17 -339 -17 -289 0 -327 2 -344 17 -16 15
-18 36 -18 240 0 210 1 224 20 243 19 19 33 20 338 20 259 0 322 -3 338 -14z
m304 -246 l0 -170 -48 0 c-43 0 -58 6 -123 53 l-74 53 -3 61 -3 60 78 57 c69
49 83 56 125 56 l48 0 0 -170z"/>
<path d="M217 524 c-17 -18 14 -24 114 -24 90 0 109 3 109 15 0 12 -19 15
-108 15 -60 0 -112 -3 -115 -6z"/>
<path d="M487 524 c-13 -13 5 -24 39 -24 24 0 34 5 34 15 0 10 -10 15 -33 15
-19 0 -37 -3 -40 -6z"/>
<path d="M310 431 c-106 -56 -107 -203 -2 -264 77 -45 189 -11 227 69 21 45
16 110 -11 147 -47 63 -145 85 -214 48z m168 -45 c33 -31 37 -39 37 -85 0 -41
-5 -55 -29 -80 -84 -88 -227 -36 -226 81 1 70 55 118 133 118 40 0 53 -5 85
-34z"/>
<path d="M319 361 c-38 -39 -39 -80 -1 -122 47 -53 130 -39 158 26 39 95 -83
170 -157 96z m107 -9 c42 -28 34 -93 -15 -110 -66 -23 -119 50 -71 98 20 20
65 26 86 12z"/>
</g>
</svg>
