<svg xmlns="http://www.w3.org/2000/svg" width="24.2" height="24" viewBox="0 0 24.2 24"><path d="M0,0H24V24H0Z" fill="none"/><path d="M19.5,10.5a7.417,7.417,0,0,0-7.3-6,7.584,7.584,0,0,0-6.7,4,6.022,6.022,0,0,0,.7,12h13a4.951,4.951,0,0,0,5-5A5.024,5.024,0,0,0,19.5,10.5Zm-3.9,6.7a.789.789,0,0,1-.8.8H9.6a.789.789,0,0,1-.8-.8V12.8a.789.789,0,0,1,.8-.8H10v-.7A2.182,2.182,0,0,1,12.2,9a2.156,2.156,0,0,1,2.2,2.2V12h.4a.789.789,0,0,1,.8.8v4.4Zm-2.1-6.1v.8H10.8v-.8a1.43,1.43,0,0,1,1.4-1.4A1.415,1.415,0,0,1,13.5,11.1Zm-.4,4v1.8H11.3V15.1H10l2.2-2.2,2.2,2.2H13.1Z" fill="#2d3047"/></svg>