<svg xmlns="http://www.w3.org/2000/svg" xmlns:xlink="http://www.w3.org/1999/xlink" width="50" height="50" viewBox="0 0 50 50"><defs><style>.a{fill:#2d3047;}.b{clip-path:url(#a);}</style><clipPath id="a"><path class="a" d="M50,50H0V0H50Z"/></clipPath></defs><g class="b"><path class="a" d="M6.25,7.25V1h4.167V7.25h6.25v4.167h-6.25v6.25H6.25v-6.25H0V7.25Zm6.25,12.5V13.5h6.25V7.25H33.333l3.813,4.167h6.6a4.179,4.179,0,0,1,4.167,4.167v25A4.179,4.179,0,0,1,43.75,44.75H10.417A4.179,4.179,0,0,1,6.25,40.583V19.75ZM27.083,38.5A10.417,10.417,0,1,0,16.667,28.083,10.42,10.42,0,0,0,27.083,38.5ZM20.417,28.083a6.667,6.667,0,1,0,6.667-6.667,6.66,6.66,0,0,0-6.667,6.667Z" transform="translate(0 1.083)"/></g></svg>