<svg xmlns="http://www.w3.org/2000/svg" width="18" height="18" viewBox="0 0 18 18"><defs><style>.a{fill:#fff;}</style></defs><g transform="translate(-3.849 -3.964)"><path class="a" d="M12.839,3.966a.5.5,0,0,0-.053.013.429.429,0,0,0-.334.428V6.976a.427.427,0,1,0,.854,0V4.408a.428.428,0,0,0-.467-.441ZM6.755,6.481a.425.425,0,0,0-.334.3.431.431,0,0,0,.12.435L8.356,9.036a.427.427,0,1,0,.6-.6L7.142,6.615A.428.428,0,0,0,6.8,6.481Zm12.113,0a.429.429,0,0,0-.253.134L16.8,8.434a.428.428,0,1,0,.6.6l1.814-1.819a.428.428,0,0,0-.347-.736Zm-6.03,2.207a.366.366,0,0,0-.04.013.445.445,0,0,0-.08.013l-.013.013a4.256,4.256,0,1,0,.374,0c-.015,0-.025-.013-.04-.013a.411.411,0,0,0-.133-.027h-.067Zm.013.856h.067a3.422,3.422,0,1,1-.067,0Zm-8.631,3a.432.432,0,0,0,.12.856H6.9a.428.428,0,1,0,0-.856H4.22Zm14.515,0a.432.432,0,0,0,.12.856h2.561a.428.428,0,1,0,0-.856H18.735ZM8.61,16.768a.429.429,0,0,0-.253.134L6.542,18.721a.428.428,0,1,0,.6.6L8.956,17.5a.428.428,0,0,0-.307-.736Zm8.4,0a.424.424,0,0,0-.333.3.431.431,0,0,0,.12.435l1.814,1.819a.428.428,0,1,0,.6-.6L17.4,16.9a.426.426,0,0,0-.307-.134h-.08ZM12.839,18.52a.5.5,0,0,0-.053.013.429.429,0,0,0-.334.428V21.53a.427.427,0,1,0,.854,0V18.962a.428.428,0,0,0-.467-.441Z" transform="translate(0 0)"/></g></svg>