<svg xmlns="http://www.w3.org/2000/svg" xmlns:xlink="http://www.w3.org/1999/xlink" width="95.82" height="72.686" viewBox="0 0 95.82 72.686"><defs><linearGradient id="a" x1="0.5" y1="1" x2="0.5" gradientUnits="objectBoundingBox"><stop offset="0" stop-color="gray" stop-opacity="0.251"/><stop offset="0.54" stop-color="gray" stop-opacity="0.122"/><stop offset="1" stop-color="gray" stop-opacity="0.102"/></linearGradient></defs><g transform="translate(-0.041 -0.105)"><path d="M211.886,62.979c-.017.078-.033.157-.051.234a25.18,25.18,0,0,1-2.924,7.585l-.141.235a21.8,21.8,0,0,1-3.3,4.161,9.994,9.994,0,0,1-2.368,1.819,13.406,13.406,0,0,1-4.214,1.153c-1.516.23-3.053.422-4.585.628q-.817.108-1.624.23c-1.481.219-2.95.473-4.385.809a25.709,25.709,0,0,0-5.117,1.722q-.195.088-.385.187c-.127.063-.254.128-.379.193s-.248.13-.371.2c-.063.034-.127.069-.189.1s-.124.068-.185.1c-.183.1-.363.207-.542.312l-.007,0c-.119.07-.236.141-.352.212-.664.4-1.313.824-1.963,1.247l-.408.264-.633.409c-.123.08-.249.16-.373.239-.088.058-.176.116-.272.176-.461.29-.929.576-1.408.848-.114.065-.228.13-.343.194a19.509,19.509,0,0,1-3.03,1.366l-.014.005a13.818,13.818,0,0,1-1.609.454c-.314.069-.629.125-.948.168a10.162,10.162,0,0,1-2.57.036c-1.679-.195-3.251-.839-4.929-1.056-3.454-.44-6.808.978-10.056,2.089q-1.2.409-2.414.767c-.539.159-1.079.31-1.624.455a61.106,61.106,0,0,1-10.184,1.786,28.68,28.68,0,0,1-4.326.1,15.884,15.884,0,0,1-1.623-.176,10.331,10.331,0,0,1-4.892-1.954,9.554,9.554,0,0,1-2.539-3.257A14.212,14.212,0,0,1,123.3,83.1c-.033-.186-.063-.372-.088-.559q-.066-.479-.1-.963a13.783,13.783,0,0,1,.606-5.092c.581-1.841,1.549-3.609,1.975-5.464q.026-.118.05-.235a8.136,8.136,0,0,0,.129-.853c.217-2.28-.616-4.5-1.27-6.732-.023-.077-.046-.156-.068-.234q-.106-.371-.2-.742A15.471,15.471,0,0,1,124.1,55c.017-.078.037-.157.056-.234a10.591,10.591,0,0,1,1.991-4.078,15.788,15.788,0,0,1,3.754-3.25q1.036-.678,2.142-1.267.792-.423,1.623-.8a31.965,31.965,0,0,1,14.516-2.795c.264.011.528.026.792.045s.553.042.829.068a59.538,59.538,0,0,1,9.484,1.9c1.045.277,2.088.562,3.13.841.464.123.927.246,1.391.366,2.272.587,4.577,1.119,6.911,1.516q.811.14,1.623.255a46.494,46.494,0,0,0,5.676.481q1.108.022,2.217-.019.56-.02,1.12-.061a74.8,74.8,0,0,0,11.327-2.032q.811-.185,1.624-.364c.711-.157,1.422-.308,2.137-.448a20.226,20.226,0,0,1,12.547,1.432,5.95,5.95,0,0,1,2.455,1.672,5.243,5.243,0,0,1,.827,2.623c.152,1.3.252,2.612.29,3.933,0,.077,0,.156.005.234A35.3,35.3,0,0,1,211.886,62.979Z" transform="translate(-117.247 -42.082)" fill="#4895F1" opacity="0.18"/><path d="M192.935,71.188h-.29v.235h.329Zm-3.295,0a.015.015,0,0,0,0,.006c-.008.064-.017.129-.026.194v.035h2.517v-.014l.176-.221Zm-6.747,0V63.6h2.9c-.031-.02-.063-.041-.1-.061l-.042-.027-.055-.033c-.032-.018-.063-.037-.1-.055l-.082-.045-.019-.011h-2.506v-.418l-.068.026-.071.033h-.005l-.015.008-.045.024-.045.024c-.044.024-.088.05-.132.077l-.042.028-.088.056c-.114.076-.225.155-.341.229-.029.018-.058.037-.088.054-.062.037-.127.072-.193.1a.736.736,0,0,1-.088.038l-.048.018-.044.015h0a2.062,2.062,0,0,1-.317.083v7.415h-4.342c0,.009.006.016.009.025.024.07.048.14.07.21h4.269v8.13h.066l.077,0,.138.008.221.026.1.01.11.011H182l.195.024.041.005.094.013.135.019h0l.323-.014h0l.044.008a.306.306,0,0,1,.055.009V71.423h6.72v-.035c.009-.065.018-.129.026-.194a.015.015,0,0,1,0-.006Zm10.041,0h-.29v.235h.329Zm-3.476,0c-.011.078-.02.157-.031.235h2.807l.191-.235Zm-6.565,0V63.6h2.9c-.031-.02-.063-.041-.1-.061l-.042-.027-.055-.033c-.032-.018-.063-.037-.1-.055l-.082-.045-.019-.011h-2.506v-.418l-.068.026-.071.033h-.005l-.015.008-.045.024-.045.024c-.044.024-.088.05-.132.077l-.042.028-.088.056c-.114.076-.225.155-.341.229-.029.018-.058.037-.088.054-.063.037-.127.072-.193.1a.737.737,0,0,1-.088.038l-.048.018-.044.015h0a2.063,2.063,0,0,1-.317.083v7.415h-4.342c0,.009.006.016.009.025.024.07.048.14.071.21h4.268V79.55h.066l.077,0,.138.008.221.027.1.01.11.011H182l.195.024.041.005.094.013.135.019h0l.323-.014h0l.044.008a.306.306,0,0,1,.055.009V71.423h6.543c.011-.078.02-.157.031-.235Zm21.965-15.795H223.12c0-.078,0-.157-.005-.234H204.858V45.95q-.813.176-1.624.364v8.844H183.373l-.05-.045.076-.067h0l7.388-6.639q-1.109.042-2.217.019l-5.676,5.1v-5.58q-.813-.115-1.623-.255v5.578l-8.3-7.46c-1.042-.279-2.085-.563-3.13-.841l11.287,10.144-.05.045h-20.72V43.083q-.415-.039-.829-.068c-.264-.019-.528-.033-.792-.045V55.159H144.217V45.765q-.822.377-1.623.8v8.594h-7.888c-.019.077-.04.156-.056.234h7.944v7.976h-7.507c.022.078.045.157.068.234h7.44v7.585h-6.3q-.024.117-.05.235h6.349V92.63c.528.082,1.075.139,1.623.176V71.423h14.516v19.5c.545-.145,1.085-.3,1.624-.455V71.423H181.27V88.459a13.818,13.818,0,0,0,1.609-.454l.014-.005V71.423h20.341v7.991q.81-.119,1.624-.228V71.423h14.464l.141-.235h-14.6V63.6h17.529c.018-.077.034-.156.051-.234h-17.58Zm-60.641,0h14.516v7.976H144.217Zm0,15.795V63.6h14.516v7.585Zm16.14-15.795H181.27v7.976H160.357Zm0,15.795V63.6H181.27v7.585Zm42.878,0H182.893V63.6h20.341Zm0-7.819H182.893V55.607l.285-.214h20.056ZM189.64,71.188a.015.015,0,0,0,0,.006c-.008.064-.017.129-.026.194v.035h2.517v-.014l.176-.221Zm3.295,0h-.29v.235h.329Zm-10.041,0V63.6h2.9c-.031-.02-.063-.041-.1-.061l-.042-.027-.055-.033c-.032-.018-.063-.037-.1-.055l-.082-.045-.019-.011h-2.506v-.418l-.068.026-.071.033h-.005l-.015.008-.045.024-.045.024c-.044.024-.088.05-.132.077l-.042.028-.088.056c-.114.076-.225.155-.341.229-.029.018-.058.037-.088.054-.062.037-.127.072-.193.1a.736.736,0,0,1-.088.038l-.048.018-.044.015h0a2.062,2.062,0,0,1-.317.083v7.415h-4.342c0,.009.006.016.009.025.024.07.048.14.07.21h4.269v8.13h.066l.077,0,.138.008.221.026.1.01.11.011H182l.195.024.041.005.094.013.135.019h0l.323-.014h0l.044.008a.306.306,0,0,1,.055.009V71.423h6.72v-.035c.009-.065.018-.129.026-.194a.015.015,0,0,1,0-.006Z" transform="translate(-127.798 -42.472)" fill="#4895F1" opacity="0.1"/><path d="M317.067,116.559h.126a.255.255,0,0,1-.154-.205h0c0-.162.242-.294.538-.294h3.764c.3,0,.537.132.537.294h0c0,.161-.241.294-.537.294h-.126a.253.253,0,0,1,.154.2c0,.138-.176.254-.411.285h1.084c.295,0,.537.132.537.294s-.242.294-.537.294h-3.765c-.295,0-.537-.133-.537-.294,0-.138.176-.254.411-.285h-1.084c-.3,0-.537-.132-.537-.294S316.771,116.559,317.067,116.559Z" transform="translate(-293.669 -109.129)" fill="#4895F1" opacity="0.1"/><path d="M780.507,148.329h.126a.255.255,0,0,1-.153-.205h0c0-.162.241-.294.537-.294h3.764c.3,0,.538.132.538.294h0c0,.161-.242.293-.538.293h-.125a.255.255,0,0,1,.153.205c0,.138-.176.254-.411.285h1.084c.3,0,.537.132.537.294s-.241.294-.537.294h-3.764c-.3,0-.538-.133-.538-.294,0-.138.176-.254.411-.285h-1.084c-.295,0-.537-.132-.537-.294S780.212,148.329,780.507,148.329Z" transform="translate(-716.317 -138.102)" fill="#4895F1" opacity="0.1"/><path d="M251.428,284.289h.125a.254.254,0,0,1-.153-.205h0c0-.161.242-.294.537-.294H255.7c.295,0,.537.133.537.294h0c0,.162-.242.294-.537.294h-.126a.252.252,0,0,1,.153.2c0,.138-.176.254-.411.285H256.4c.3,0,.538.133.538.294s-.242.294-.538.294h-3.76c-.3,0-.537-.132-.537-.294,0-.137.176-.253.411-.285h-1.087c-.3,0-.538-.132-.538-.294S251.136,284.289,251.428,284.289Z" transform="translate(-233.807 -262.095)" fill="#4895F1" opacity="0.1"/><path d="M944.507,407.55l1.67.109-2.767.828-1.409-.1Z" transform="translate(-859.322 -371.818)" opacity="0.1"/><path d="M944.507,406.72l1.67.109-2.767.829-1.409-.1Z" transform="translate(-859.322 -371.061)" fill="#fff"/><path d="M1022.32,444.477c.066-.028.136.026.206.039.041.008.082,0,.122.008.082.011.163.065.241.038" transform="translate(-937.335 -408.63)" fill="#d3dae1"/><path d="M1021.34,445.046c.065-.028.136.025.206.039.041.007.082,0,.122.007.082.011.163.066.241.039" transform="translate(-936.441 -409.149)" fill="#d3dae1"/><path d="M1019.08,446.186c.066-.028.136.025.207.038.04.008.082,0,.122.008.083.011.164.066.241.038" transform="translate(-934.38 -410.189)" fill="#d3dae1"/><path d="M862.507,398.21l1.67.11-2.767.828-1.409-.1Z" transform="translate(-784.539 -363.3)" opacity="0.1"/><path d="M862.507,397.39l1.67.109-2.767.828-1.409-.1Z" transform="translate(-784.539 -362.552)" fill="#fff"/><path d="M940.32,435.146c.066-.028.135.025.206.039.041.007.082,0,.122.007.082.011.163.066.241.039" transform="translate(-862.552 -400.12)" fill="#d3dae1"/><path d="M939.34,435.715c.065-.028.135.025.206.038.04.008.082,0,.122.008.082.011.163.066.241.038" transform="translate(-861.659 -400.64)" fill="#d3dae1"/><path d="M937.08,436.847c.066-.028.136.026.207.039.04.008.082,0,.121.008.083.011.164.066.241.038" transform="translate(-859.598 -401.672)" fill="#d3dae1"/><path d="M901.837,402.88l1.671.109-2.767.829-1.41-.1Z" transform="translate(-820.408 -367.559)" opacity="0.1"/><path d="M901.837,402.06l1.671.109L900.74,403l-1.41-.1Z" transform="translate(-820.408 -366.811)" fill="#fff"/><path d="M979.65,439.815c.066-.028.136.025.207.038.04.008.081,0,.121.008.082.011.164.066.241.038" transform="translate(-898.421 -404.379)" fill="#d3dae1"/><path d="M978.67,440.376c.066-.028.136.026.207.039.04.008.081,0,.121.008.082.011.164.066.241.038" transform="translate(-897.527 -404.891)" fill="#d3dae1"/><path d="M976.42,441.516c.065-.028.136.025.206.039.041.007.082,0,.122.007.082.011.163.066.241.039" transform="translate(-895.475 -405.93)" fill="#d3dae1"/><ellipse cx="17.823" cy="3.669" rx="17.823" ry="3.669" transform="translate(25.803 62.18)" fill="#4895F1" opacity="0.18"/><path d="M421.689,245.269a11.94,11.94,0,0,0-.943-3.265l.057-.563s.012-.282-.006-.7a3.211,3.211,0,0,1,.1-.782,1.61,1.61,0,0,0-.232-1.144,4.286,4.286,0,0,0-.327-1.652,10.68,10.68,0,0,0-2.656-1.5s-.124-.26-.3-.563l.016-.031a3.307,3.307,0,0,0-.528-.712c-.142-.151-.278-.238-.388-.2a3.164,3.164,0,0,1-.1-.446c.023.006.047.012.07.017a.718.718,0,0,0,.291.007.863.863,0,0,0,.477-.423,6.735,6.735,0,0,0,1.216-2.974,1.893,1.893,0,0,0-.031-.657,2.217,2.217,0,0,0-.206-.48,3.855,3.855,0,0,0-.581-.856,3.309,3.309,0,0,0-1.561-.855,5.4,5.4,0,0,0-2.016-.151c-.176.02-.352.049-.528.061a5.488,5.488,0,0,1-.67-.011l-1.152-.067-.005-.018-.192-.011a.486.486,0,0,0,.094.47.8.8,0,0,1,.195.454.929.929,0,0,1-.223.44.423.423,0,0,0-.071.46.267.267,0,0,0,.047.051.58.58,0,0,0,.423.113h.026a2.867,2.867,0,0,0-.584,1.736,2.919,2.919,0,0,0,1.592,2.586c.017.057.033.116.049.176a5.392,5.392,0,0,1,.185,1.9l-.02.044-.012-.047s-1.357.921-1.76,1.165a2.544,2.544,0,0,0-.827,1.3c-.019.225-.655,3.624-.655,3.624a8.33,8.33,0,0,0-.319,1.049l-.811.712a12.468,12.468,0,0,1-2.157.038l.014.093a7.314,7.314,0,0,0-1.3-.176,1.377,1.377,0,0,0-.7.094l-.017.008-.013.006a2.789,2.789,0,0,0-.739.208l-.078.034.005-.115-1.81-.093-.924-.187s-.327-.264-.52-.225-.6-.225-.6-.225a1.614,1.614,0,0,0-.3-.185c-.031-.213-.05-.342-.05-.342s-.719-2.854-1.258-4.531a3.862,3.862,0,0,0-1.187-1.913c-.136-.238-.226-.391-.226-.391a1.747,1.747,0,0,0-.466-.681c-.013-.021-.023-.032-.028-.032a.1.1,0,0,0-.052.008,5.6,5.6,0,0,1-.008-2.521,2.782,2.782,0,0,0,1.016-2.144v-.075a2.77,2.77,0,0,0-.654-1.787l-.03-.033.023-.018a.472.472,0,0,0,.166-.454,3.116,3.116,0,0,0-.239-.462,2.969,2.969,0,0,1-.1-.377,1.163,1.163,0,0,0-.277-.483l.013.035a1.673,1.673,0,0,0-1.473-.495c-.4.063-.767.248-1.165.305-.286.04-.577.014-.865.043a2.246,2.246,0,0,0-.768.222.44.44,0,0,0-.163.12.644.644,0,0,0-.081.226,2.989,2.989,0,0,1-.632.908,2.126,2.126,0,0,0-.426,1.174.919.919,0,0,0,.031.321c.019.062.049.121.063.185a1.27,1.27,0,0,1-.107.578,1.126,1.126,0,0,0,.062.734c.348.778,1.489,1.038,1.727,1.855a2.271,2.271,0,0,0,.571.176c.016.081.03.163.041.246l-.015.009a1.751,1.751,0,0,0-.385.88l-.037.03c-.126.1-.556.452-.945.721-.462.319-1.232,1.39-1.771,1.709s-.982,2.289-.866,3a13.12,13.12,0,0,1,.4,3.455,22.444,22.444,0,0,0,.289,4.074,4.922,4.922,0,0,1,.944.28l-.01.146-.029.44a16.794,16.794,0,0,0-.539,5.583c.334,2.428-.154,2.679-.154,2.679a3.209,3.209,0,0,1-.154,1.452,3.126,3.126,0,0,0-.308,1.2s-.025,1.853.026,2.377a3.9,3.9,0,0,1-.1,1.7,6.522,6.522,0,0,0-.488,2.152c.026.451-.642,1.478-.282,2.8s-1.056,1.352-1.056,1.352a9.091,9.091,0,0,0,.565,2.6l.056.083-.03.106c-.145.528-.344,1.362-.206,1.563.205.3.308.25.308.25l.077,1.352a5.285,5.285,0,0,0,2.722,1.253c1.181-.049.95-1.253.95-1.253l-1.006-2.609-.034-.088,1.118-2.113s.308-.926.385-1.252.495-1.48.495-1.48,1.056-2.5,1.078-2.8a9.716,9.716,0,0,1,.308-2.253,20.851,20.851,0,0,0,.77-2.2l.014.012a.742.742,0,0,1,.192.739,5.9,5.9,0,0,0-.052,1.451,9.868,9.868,0,0,1-.154,1.253,26.773,26.773,0,0,0,.052,4.731,13.4,13.4,0,0,1,.132,2.367c-.121.5-.226,1.115-.03,1.188a12.421,12.421,0,0,0,2.029.1s.718-.251,1.694.626,3.979-.25,3.979-.25.924-.251-.9-.976a15.5,15.5,0,0,1-2.63-1.2c.012-.024.026-.048.037-.073a1.635,1.635,0,0,1-.128-1.952,5.437,5.437,0,0,0,.591-2.3l.1-4.207-.308-5.584-.239-5.86.042-.014c.04,1.077.251,3.642,1.352,3.145,1.386-.626.205-2.253.205-2.253l-.622-1.213.186-.063-.7-2.25a5.072,5.072,0,0,1-.026-1.326,5.251,5.251,0,0,0-.016-.775,13.891,13.891,0,0,1,1.942-.29c.185.045,1.219.054,1.626.055-.133.1-.239.207-.239.207l1.656,1.114s.562-.307.679-.633A.731.731,0,0,0,406,246c.018.385.12.8.475.811a.616.616,0,0,0,.259-.051l2.708-.536-.232,1.451.162.288c-.082,1.224-.176,2.524-.259,3.668l-.038.25.019,0c-.129,1.76-.232,3.094-.232,3.094a1.622,1.622,0,0,1,.675-.679l.018,2.612s.136,4.131.136,4.694.019,1.821.019,1.821.29,1.539.462,2.046a22.566,22.566,0,0,1,.308,2.817s.4.638.231.88.674.769.674.769a3.305,3.305,0,0,0-.578,1.221c0,.056.051.116.151.176-.032.026-.064.051-.1.076a1.759,1.759,0,0,1-1.167.236c-1.5-.132-2.561,1.258-1.637,1.539a22.579,22.579,0,0,0,3.7.338,2.065,2.065,0,0,1,1.5-.288c-.01.551.018,1.056.022,1.123l-.008.006a6.107,6.107,0,0,1-1.878,1.2c-1.056.356-1.29,1.8.077,1.99a12.492,12.492,0,0,0,3.369-.225,6.21,6.21,0,0,1,1.829-.938c.79-.169,1.464-.545,1.329-1-.088-.288-.314-1.042-.467-1.549q-.013-.046-.026-.088c.024-.053.047-.107.07-.164,0,0-.4-2.1-.077-2.628s.154-5.784.154-5.784a3.8,3.8,0,0,1-.269-2.14c.29-.807-.462-1.953-.462-1.953a35.684,35.684,0,0,1,.3-3.576l.029-.158a7.206,7.206,0,0,0,1.074-.415s.193-2.892.308-3.549c.011-.062.027-.161.047-.29l.088-.464h0l.1-.528h0l.352-1.8.635-.822,1.637-1.672A5.293,5.293,0,0,0,421.689,245.269Zm-25.248-10.328-.012.009a.174.174,0,0,1,0-.019Zm16.176,2.05-.063.138.232-.231-.314.352.106-.222Zm-1.563,3.23-.194.517.124-.371Z" transform="translate(-358.547 -209.464)" fill="url(#a)"/><path d="M595.583,440.844s-.216,1.436.431,1.454,1.079-1.107,1.079-1.107l-.264-.9Z" transform="translate(-548.128 -404.819)" fill="#585b8a"/><path d="M595.583,440.844s-.216,1.436.431,1.454,1.079-1.107,1.079-1.107l-.264-.9Z" transform="translate(-548.128 -404.819)" opacity="0.2"/><path d="M399.467,749.324a5.1,5.1,0,0,1-2.653-1.251l-.075-1.351s-.1.05-.3-.25a3.5,3.5,0,0,1,.2-1.562c.069-.257.125-.44.125-.44l2.526.676.121.319.981,2.607S400.617,749.274,399.467,749.324Z" transform="translate(-366.503 -682.225)" fill="#636992"/><path d="M484.361,726.376s-2.927,1.126-3.873.25-1.651-.626-1.651-.626a11.785,11.785,0,0,1-1.977-.1c-.192-.073-.088-.7.032-1.2.081-.344.169-.629.169-.629s2.877-.976,3.327-.376a2.157,2.157,0,0,0,.48.458,13.954,13.954,0,0,0,2.623,1.244C485.261,726.125,484.361,726.376,484.361,726.376Z" transform="translate(-439.789 -663.104)" fill="#636992"/><path d="M525.825,496.35l.8,1.6s1.151,1.627-.2,2.252-1.326-3.6-1.326-3.6Z" transform="translate(-483.88 -455.945)" fill="#ffd6d6"/><path d="M495.25,338.61a3.265,3.265,0,0,1,1.4,2.076c.526,1.676,1.226,4.529,1.226,4.529a34.632,34.632,0,0,1,.4,4.028,5.2,5.2,0,0,0,.026,1.326l.675,2.252-1.351.475-2.076-7.955Z" transform="translate(-456.658 -312.089)" fill="#dce6f2"/><path d="M495.25,338.61a3.265,3.265,0,0,1,1.4,2.076c.526,1.676,1.226,4.529,1.226,4.529a34.632,34.632,0,0,1,.4,4.028,5.2,5.2,0,0,0,.026,1.326l.675,2.252-1.351.475-2.076-7.955Z" transform="translate(-456.658 -312.089)" opacity="0.05"/><path d="M401.814,745.165l.121.32-.148.283a5.454,5.454,0,0,1-2,.05s-.264-.335-.625-.887c.069-.257.125-.44.125-.44Z" transform="translate(-369.026 -682.243)" opacity="0.1"/><path d="M482.305,724.273c-.73,1.653-3.21,1.04-3.9.833-.114-.034-.176-.057-.176-.057s0-.135.006-.347c.081-.344.169-.629.169-.629s2.877-.976,3.327-.376a2.156,2.156,0,0,0,.48.458A.844.844,0,0,0,482.305,724.273Z" transform="translate(-441.136 -663.104)" opacity="0.1"/><path d="M404.1,482.607a1.663,1.663,0,0,0,.126,1.951c-.73,1.652-3.21,1.04-3.9.832-.114-.033-.176-.056-.176-.056a15.238,15.238,0,0,0-.125-2.553,27.414,27.414,0,0,1-.05-4.728,10.059,10.059,0,0,0,.15-1.252,6.1,6.1,0,0,1,.05-1.451.749.749,0,0,0-.187-.738l-.013-.013a20.821,20.821,0,0,1-.751,2.2,10.119,10.119,0,0,0-.3,2.252c-.026.3-1.051,2.8-1.051,2.8s-.4,1.15-.474,1.475-.376,1.252-.376,1.252l-1.206,2.327a5.455,5.455,0,0,1-2,.05s-.275-.352-.65-.926a9.2,9.2,0,0,1-.55-2.6,1.017,1.017,0,0,0,1.025-1.351c-.35-1.326.3-2.352.275-2.8a6.661,6.661,0,0,1,.475-2.151,3.977,3.977,0,0,0,.1-1.7c-.05-.525-.025-2.377-.025-2.377a3.178,3.178,0,0,1,.3-1.2,3.281,3.281,0,0,0,.151-1.451s.474-.25.15-2.677a17.155,17.155,0,0,1,.528-5.579l.029-.44.046-.713s7.155-.451,7.731.1a1.9,1.9,0,0,1,.365.524,5.21,5.21,0,0,1,.414,1.332l.3,7.58.3,5.579-.1,4.2A5.587,5.587,0,0,1,404.1,482.607Z" transform="translate(-363.062 -423.538)" fill="#565988"/><path d="M477.43,538.42l-.751,16.261-.9,1.482c-.114-.033-.176-.056-.176-.056a15.237,15.237,0,0,0-.125-2.553,27.414,27.414,0,0,1-.05-4.728,10.056,10.056,0,0,0,.15-1.252,6.1,6.1,0,0,1,.05-1.451.749.749,0,0,0-.187-.738l.012-.088Z" transform="translate(-438.508 -494.312)" opacity="0.1"/><path d="M406.629,730.834s1.951-.775,2.252-.528-2.3.625-2.3.625Z" transform="translate(-375.793 -669.263)" opacity="0.1"/><path d="M497.793,713.5c-.075.026-1.976.7-1.8,1.426S497.793,713.5,497.793,713.5Z" transform="translate(-457.324 -653.981)" opacity="0.1"/><path d="M449.07,283.449a4.073,4.073,0,0,1,.3,2.327c-.337.789,3.64,2.139,3.64,2.139s-1.163-3-.037-4.692S449.07,283.449,449.07,283.449Z" transform="translate(-414.543 -260.944)" fill="#ffd6d6"/><path d="M651.534,767.514a6,6,0,0,0-1.782.938,11.877,11.877,0,0,1-3.284.225c-1.333-.187-1.106-1.633-.075-1.989a5.99,5.99,0,0,0,1.832-1.2c.169-.156.269-.264.269-.264l3.735-.751.145.5c.15.508.371,1.261.455,1.548C652.96,766.97,652.3,767.345,651.534,767.514Z" transform="translate(-593.721 -700.465)" fill="#505484"/><path d="M622.26,736.836a5.136,5.136,0,0,1-2.233-.206c-.657-.375-1.595.225-1.595.225a21.455,21.455,0,0,1-3.6-.338c-.9-.282.131-1.672,1.595-1.539a1.681,1.681,0,0,0,1.138-.236,1.2,1.2,0,0,0,.5-.743l3.169.188.44,1.123Z" transform="translate(-565.405 -672.677)" fill="#505484"/><path d="M653.523,735.823s-3.683-.6-4.153-1.08a1.2,1.2,0,0,0,.5-.743l3.169.188.44,1.123Z" transform="translate(-597.212 -672.677)" opacity="0.1"/><path d="M634.52,512.8l.038,5.5s.131,4.128.131,4.692.018,1.819.018,1.819.282,1.539.451,2.046a22.972,22.972,0,0,1,.3,2.817s.394.638.225.88.657.769.657.769a3.289,3.289,0,0,0-.562,1.22c-.034.488,4.2,1.18,4.2,1.18L638.33,516.8l-1.314-4.24Z" transform="translate(-583.669 -470.728)" fill="#575988"/><path d="M634.52,512.8l.038,5.5s.131,4.128.131,4.692.018,1.819.018,1.819.282,1.539.451,2.046a22.972,22.972,0,0,1,.3,2.817s.394.638.225.88.657.769.657.769a3.289,3.289,0,0,0-.562,1.22c-.034.488,4.2,1.18,4.2,1.18L638.33,516.8l-1.314-4.24Z" transform="translate(-583.669 -470.728)" opacity="0.1"/><path d="M680.159,764.971c-1.226,2.923-4.142.667-4.142.667s0-.056-.007-.153c.169-.156.269-.264.269-.264l3.735-.751S680.075,764.683,680.159,764.971Z" transform="translate(-621.507 -700.465)" opacity="0.1"/><path d="M650.316,528.6c-1.2,3.081-4.185.769-4.185.769a10.783,10.783,0,0,1,.094-2.326,11.637,11.637,0,0,0-.207-2.928,15.773,15.773,0,0,0-.431-2.4,4.279,4.279,0,0,1-.187-1.426,2.722,2.722,0,0,0-.094-1.089,7.328,7.328,0,0,1-.264-1.426,15.045,15.045,0,0,0-.169-2.27l-.582-2.9-1.051-5.948.328-.056,5.883-1.032s1.107,5.633.731,6.211a2.423,2.423,0,0,0-.211.761c-.215,1.278-.295,3.573-.295,3.573a2.82,2.82,0,0,1,.451,1.951,3.889,3.889,0,0,0,.264,2.139s.169,5.254-.151,5.78S650.316,528.6,650.316,528.6Z" transform="translate(-591.622 -464.344)" fill="#575988"/><path d="M671.832,292.132s-5.329,3.752-4.128,1.876a4.178,4.178,0,0,0,.275-3.269,7.714,7.714,0,0,0-.528-1.434s4.528-1.926,3.928-.2a3.234,3.234,0,0,0-.176,1.253A3.344,3.344,0,0,0,671.832,292.132Z" transform="translate(-613.701 -266.287)" fill="#d28690"/><path d="M579.668,425.536s-2.252-.65-2.627-.012a1.907,1.907,0,0,0,.792,2.264c.68.225,2.239-.763,2.239-.763Z" transform="translate(-531.131 -391.098)" fill="#d28690"/><path d="M604.068,416l-.938.863a11.868,11.868,0,0,1-2.1.037s.432,2.89-.187,3.246l3.79-.769Z" transform="translate(-552.954 -382.668)" fill="#585b8a"/><path d="M604.068,416l-.938.863a11.868,11.868,0,0,1-2.1.037s.432,2.89-.187,3.246l3.79-.769Z" transform="translate(-552.954 -382.668)" opacity="0.1"/><path d="M442.26,244.753a2.817,2.817,0,0,1-2.817,2.817c-1.445-.694-2.817-1.26-2.817-2.817a2.817,2.817,0,1,1,5.629,0Z" transform="translate(-403.193 -223.824)" opacity="0.1"/><path d="M442.389,245.118a2.811,2.811,0,1,1-.637-1.781A2.811,2.811,0,0,1,442.389,245.118Z" transform="translate(-403.322 -224.264)" fill="#ffd6d6"/><path d="M434.96,461.643a6.362,6.362,0,0,1-.872.452s-1.426-.207-1.632.037a6.782,6.782,0,0,1-2.025.338s-2.777-.131-3.19-.488a1.692,1.692,0,0,0-.422-.25l.046-.713s7.155-.451,7.731.1A1.9,1.9,0,0,1,434.96,461.643Z" transform="translate(-394.251 -423.566)" opacity="0.1"/><path d="M418.687,321.95c-.056.319-1.22.806-1.22.806s-1.426-.206-1.632.038a6.785,6.785,0,0,1-2.024.338s-2.777-.132-3.19-.488a3.581,3.581,0,0,0-1.333-.528,22.943,22.943,0,0,1-.281-4.071,13.424,13.424,0,0,0-.394-3.453c-.113-.713.319-2.683.844-3s1.276-1.389,1.726-1.708c.379-.268.8-.616.921-.721l.036-.03a1.776,1.776,0,0,1,.376-.88c.3-.3,3.058,1.9,3.058,1.9s.019.169.207-.15c.042-.071.406.453.469.675a26.044,26.044,0,0,1,1.595,3.169c.094.541.488,2.308.563,2.739.019.111.051.5.088,1.021.007.1.013.21.021.323.055.864.115,1.968.151,2.8,0,.1.008.187.011.275A9.337,9.337,0,0,1,418.687,321.95Z" transform="translate(-377.63 -284.377)" fill="#dce6f2"/><path d="M415,387.21s1.032,1.257,1.37,1.257S415,387.21,415,387.21Z" transform="translate(-383.472 -356.412)" opacity="0.1"/><path d="M424.309,417.91s-1.689,1.839-1.464,2.177S424.309,417.91,424.309,417.91Z" transform="translate(-390.608 -384.409)" opacity="0.1"/><path d="M425.62,429.932s1.936-2.12,2.024-2.852Z" transform="translate(-393.157 -392.772)" opacity="0.1"/><path d="M453.33,437.357s2.233-1.182,2.421-2.12S453.33,437.357,453.33,437.357Z" transform="translate(-418.428 -400.048)" opacity="0.1"/><path d="M482.31,329.045l-.31.75.516.244.507,1.417s1.4,2.8,1.341,4.25a25.757,25.757,0,0,0,.254,3.64l.806-.15-.38-4.277a6.171,6.171,0,0,0-.491-1.92c-.644-1.475-1.843-4.2-1.919-4.2-.1,0-.031.038-.031.038Z" transform="translate(-444.574 -303.143)" opacity="0.1"/><path d="M483.16,328.194l-.31.751.517.244.506,1.417s1.4,2.8,1.341,4.25a25.762,25.762,0,0,0,.253,3.64l.807-.15-.381-4.277a6.146,6.146,0,0,0-.49-1.92c-.644-1.476-1.843-4.2-1.918-4.2-.1,0-.032.038-.032.038Z" transform="translate(-445.349 -302.368)" fill="#575989"/><path d="M570.837,428.934a7.033,7.033,0,0,1-1.709-.7l-.158-.088.019-1.453a2.554,2.554,0,0,1,.287-.145,1.475,1.475,0,0,1,2.039.44C572.009,428.264,571.334,428.968,570.837,428.934Z" transform="translate(-523.889 -392.081)" fill="#ffd6d6"/><path d="M441.594,243.239a.416.416,0,0,1-.131.054c-.327.071-.7-.21-.978-.029a.709.709,0,0,0-.233.543q-.06.528-.12,1.049a1.3,1.3,0,0,1-.077.362.908.908,0,0,1-.864.459.515.515,0,0,1-.372-.123c-.061-.062-.093-.148-.16-.2-.44-.369-.574.535-.458.792.187.42.849.825.571,1.358a.509.509,0,0,1-.2.205,2.817,2.817,0,1,1,3.026-4.466Z" transform="translate(-403.164 -224.166)" opacity="0.1"/><path d="M429.2,232.161c.066.055.1.142.16.2a.516.516,0,0,0,.372.123.9.9,0,0,0,.863-.46,1.253,1.253,0,0,0,.078-.361l.12-1.049a.706.706,0,0,1,.233-.543c.28-.176.651.1.978.029a.478.478,0,0,0,.352-.551,3.1,3.1,0,0,0-.232-.461,3.019,3.019,0,0,1-.1-.376,1.49,1.49,0,0,0-1.681-.952c-.387.064-.747.249-1.135.305-.278.04-.562.014-.843.044a2.128,2.128,0,0,0-.748.221.435.435,0,0,0-.158.12.661.661,0,0,0-.079.225,3.009,3.009,0,0,1-.616.908,2.164,2.164,0,0,0-.417,1.172.939.939,0,0,0,.03.321c.018.062.048.121.062.185a1.288,1.288,0,0,1-.1.577,1.155,1.155,0,0,0,.062.734c.338.777,1.451,1.037,1.683,1.853a1.849,1.849,0,0,0,.655.176.632.632,0,0,0,.577-.295c.277-.528-.385-.938-.571-1.357C428.623,232.694,428.754,231.791,429.2,232.161Z" transform="translate(-393.778 -210.981)" fill="#353045"/><path d="M671.418,289.1a3.234,3.234,0,0,0-.176,1.253c-.135.115-.283-.23-.44-.141-.43.248-.926.839-1.458.839a2.92,2.92,0,0,1-1.326-.318,7.714,7.714,0,0,0-.528-1.434S672.019,287.379,671.418,289.1Z" transform="translate(-613.737 -266.287)" opacity="0.1"/><path d="M661.115,253.428a2.928,2.928,0,1,1-2.928-2.928A2.928,2.928,0,0,1,661.115,253.428Z" transform="translate(-602.584 -231.735)" fill="#d28690"/><path d="M645.441,321.221s-.551.6-.626.65-1.672,6.778-1.7,6.856-1.9,6.154-1.9,6.154l-3,1.476.251-7.431,2.2-6.128s.726-.826.951-1.126,3.027-2.1,3.027-2.1l.479.987Z" transform="translate(-587.034 -294.725)" fill="#f0f3f7"/><path d="M679.508,322.267l-3.452,2.472L676,323.381c.225-.3,3.027-2.1,3.027-2.1Z" transform="translate(-621.498 -296.285)" opacity="0.1"/><path d="M680.376,320.557l-3.452,2.472-.054-1.356c.225-.3,3.027-2.1,3.027-2.1Z" transform="translate(-622.292 -294.725)" fill="#f0f3f7"/><path d="M631.5,336.59l.115.6-.772.784.616-1.379s-1.32.92-1.716,1.164a2.505,2.505,0,0,0-.807,1.295c-.015.225-.638,3.621-.638,3.621a4.422,4.422,0,0,0-.337,1.613c.132.357-.713,11.6-.713,11.6a1.672,1.672,0,0,1,1.128-.865l-.3-6.642s.366-4.419.385-4.475l.854-2.618Z" transform="translate(-577.039 -310.247)" fill="#585b8a"/><path d="M636.025,344.3l-.06,1.232a30.124,30.124,0,0,1-1.116,3.068,30.8,30.8,0,0,0-1.135,3l-.481,4.466-.826.376L632,355.7l.676-4.313s1.275-3.64,1.464-4.015l.941-1.982Z" transform="translate(-581.371 -317.279)" opacity="0.1"/><path d="M635.138,343.45l-.059,1.232a29.942,29.942,0,0,1-1.117,3.068,30.522,30.522,0,0,0-1.135,3l-.479,4.465-.826.375-.413-.75.676-4.313s1.276-3.641,1.463-4.016l.948-1.98Z" transform="translate(-580.559 -316.503)" fill="#663d5c"/><path d="M566.31,446.069l1.613,1.117s1.138-.638.475-1.051a2.939,2.939,0,0,0-1.464-.475C566.722,445.66,566.31,446.069,566.31,446.069Z" transform="translate(-521.463 -409.717)" fill="#d28690"/><path d="M578.787,425.312a.248.248,0,0,0-.117.212c0,.342.039,1.249.326.84.352-.5.288-.951.826-.626a3.169,3.169,0,0,1,.863.792l-.15-1.076S579.429,424.909,578.787,425.312Z" transform="translate(-532.735 -391.024)" fill="#d28690"/><path d="M653.122,511.731a2.424,2.424,0,0,0-.211.761,6.36,6.36,0,0,1-5.7-1.1,28.724,28.724,0,0,1-.713-3,9.8,9.8,0,0,1,.009-1.84l5.882-1.032S653.5,511.149,653.122,511.731Z" transform="translate(-594.56 -464.308)" opacity="0.1"/><path d="M656.448,325.1a5.831,5.831,0,0,0-.093,1.482L655,332.962s-.657,4.916-.769,5.573-.3,3.546-.3,3.546a6.356,6.356,0,0,1-6.778-.675,28.756,28.756,0,0,1-.713-3c-.188-1.114.366-5.579.628-7.562.078-.587.131-.957.131-.957l.985-3.659s1.21-3.087,1.661-3.987a22.526,22.526,0,0,1,2.26-2.923c.224-.143.584.361.85.82.2.347.352.669.352.669a10.4,10.4,0,0,1,2.589,1.5,4.389,4.389,0,0,1,.319,1.651A1.653,1.653,0,0,1,656.448,325.1Z" transform="translate(-594.508 -294.47)" fill="#585b8a"/><path d="M658.858,323.6s.169.995-.264,1.295-3.531,6.411-3.724,6.793c.078-.588.131-.958.131-.958l.985-3.658s1.211-3.087,1.661-3.988a22.362,22.362,0,0,1,2.261-2.923c.224-.143.583.361.849.819C660.356,321.82,659.517,323.4,658.858,323.6Z" transform="translate(-602.228 -295.245)" opacity="0.1"/><path d="M657.99,322.755s.168.995-.264,1.295-3.53,6.41-3.726,6.792c.078-.587.131-.957.131-.957l.985-3.659s1.21-3.087,1.661-3.987a22.514,22.514,0,0,1,2.26-2.923c.224-.143.584.361.85.819C659.487,320.969,658.647,322.549,657.99,322.755Z" transform="translate(-601.435 -294.47)" fill="#585b8a"/><path d="M586.111,407.358l-1.059,5.509h0l-.1.527h0l-.228,1.186-.973-.206-.453-.1-6.273-1.329-.461-.1-1.053-.223.206-1.368.085-.569.76-5.044Z" transform="translate(-525.09 -370.085)" fill="#4895F1"/><path d="M662.528,511.92s-2.5.9-1.951,1.97,4.034-.826,4.034-.826Z" transform="translate(-607.361 -470.145)" fill="#d28690"/><path d="M703.8,599.1a2.549,2.549,0,0,0,.469,1.37C704.644,600.807,703.8,599.1,703.8,599.1Z" transform="translate(-646.851 -549.651)" opacity="0.1"/><path d="M675.24,637.68a3.236,3.236,0,0,0,2.232,1.745C679.255,639.932,675.24,637.68,675.24,637.68Z" transform="translate(-620.805 -584.835)" opacity="0.1"/><path d="M667.016,253.506a2.927,2.927,0,0,1-1.467,2.538,1.558,1.558,0,0,1-.44-.367.569.569,0,0,1-.151-.551c.062-.149.225-.243.264-.4a.584.584,0,0,0-.014-.283c-.033-.145-.063-.29-.1-.435-.027-.123-.076-.268-.2-.3s-.224.072-.32.148a1,1,0,0,1-.968.159c-.283-.152-.2-.662-.249-.937a.164.164,0,0,0-.062-.124.257.257,0,0,0-.128-.009.367.367,0,0,1-.319-.283,2.434,2.434,0,0,1-.051-.453.506.506,0,0,0-.2-.392.626.626,0,0,0-.334-.055l-.552.006a2.928,2.928,0,0,1,5.281,1.736Z" transform="translate(-608.484 -231.814)" opacity="0.1"/><path d="M659.375,245.683c.1-.076.2-.176.32-.147s.17.176.2.3l.1.434a.59.59,0,0,1,.015.284c-.045.155-.207.248-.269.4a.569.569,0,0,0,.151.55,1.584,1.584,0,0,0,.906.541.666.666,0,0,0,.283.006.836.836,0,0,0,.465-.422,6.827,6.827,0,0,0,1.185-2.973,1.906,1.906,0,0,0-.03-.656,2.2,2.2,0,0,0-.2-.48,3.872,3.872,0,0,0-.566-.856,3.214,3.214,0,0,0-1.521-.853,5.151,5.151,0,0,0-1.964-.154c-.176.02-.345.049-.518.061a5.211,5.211,0,0,1-.653-.011l-1.3-.077a.5.5,0,0,0,.088.47.844.844,0,0,1,.19.454.934.934,0,0,1-.217.44.433.433,0,0,0-.07.46.493.493,0,0,0,.44.144l.653-.007a.624.624,0,0,1,.332.057.507.507,0,0,1,.2.392,2.589,2.589,0,0,0,.051.453.366.366,0,0,0,.319.283.238.238,0,0,1,.128.01.162.162,0,0,1,.062.123c.046.275-.039.784.249.937A1.014,1.014,0,0,0,659.375,245.683Z" transform="translate(-603.187 -223.636)" fill="#663d5c"/><path d="M679.984,353.386a1.435,1.435,0,0,0-1.51.964,10.286,10.286,0,0,0-.792,3.526c.207,1.013.451,2.7.451,2.7s1.07.616.528,1.238a3.505,3.505,0,0,0-.694,1.5,1.561,1.561,0,0,0-.844.938,4.341,4.341,0,0,1-1.164,1.519l-1.519,1.52a22.616,22.616,0,0,0,3.021,2.683l1.557-1.82,1.839-2.439,1.595-1.672a5.492,5.492,0,0,0,.188-2.553,12.218,12.218,0,0,0-.92-3.265l.056-.563S681.948,353.63,679.984,353.386Z" transform="translate(-620.075 -325.558)" opacity="0.1"/><path d="M681.693,353.388a1.435,1.435,0,0,0-1.508.964,10.283,10.283,0,0,0-.792,3.526c.206,1.013.45,2.7.45,2.7s1.069.616.528,1.238a3.5,3.5,0,0,0-.694,1.5,1.564,1.564,0,0,0-.845.938,4.353,4.353,0,0,1-1.163,1.519l-1.52,1.52a22.619,22.619,0,0,0,3.021,2.683l1.557-1.82,1.834-2.439,1.595-1.672a5.477,5.477,0,0,0,.188-2.553,12.269,12.269,0,0,0-.919-3.265l.056-.563S683.657,353.632,681.693,353.388Z" transform="translate(-621.635 -325.56)" fill="#585b8a"/><path d="M721.28,418.34s1.595,1.951,2.271,1.519S721.28,418.34,721.28,418.34Z" transform="translate(-662.792 -384.802)" opacity="0.1"/><path d="M728.1,401.28c.169.056,1.558,1.989,2.271,1.76S728.1,401.28,728.1,401.28Z" transform="translate(-669.012 -369.243)" opacity="0.1"/><path d="M732.58,439a1.045,1.045,0,0,0,1.239.957C734.963,439.806,732.58,439,732.58,439Z" transform="translate(-673.098 -403.643)" opacity="0.1"/><path d="M614.609,301.83l-.619,1.379.773-.784Z" transform="translate(-560.183 -275.404)" opacity="0.1"/><path d="M614.609,300.98l-.619,1.379.773-.784Z" transform="translate(-560.183 -274.628)" fill="#f0f3f7"/><path d="M579.158,465.207l-.461-.1-.847-1.591.085-.569Z" transform="translate(-527.225 -422.342)" opacity="0.3"/><path d="M665.735,487.65l-.1.527h0l-1.2.98-.453-.1Z" transform="translate(-605.773 -444.868)" opacity="0.3"/><path d="M429.28,353.741c-.232.039-.458.074-.664.1-1.144.15-3.866-1.2-3.866-1.2s-3.321-2.777-4.278-5.4,1.144-3.021,1.144-3.021c.792-.451,2.515.806,2.759,1.013a1.567,1.567,0,0,1,.431,1.069c-.019.338.563.769.563.769a16.706,16.706,0,0,0,1.238,1.914.979.979,0,0,1,.375.676c.075.32.731.582,1.013.562s.616.094.616.244c0,.121.275.18.5.2C429.182,351.626,429.248,352.887,429.28,353.741Z" transform="translate(-388.235 -317.114)" opacity="0.1"/><path d="M430.829,350.357c-.176.028-.345.054-.5.075-1.144.151-3.865-1.2-3.865-1.2s-3.321-2.777-4.278-5.4,1.144-3.021,1.144-3.021c.792-.451,2.514.806,2.758,1.013a1.571,1.571,0,0,1,.432,1.069c-.018.338.562.769.562.769a16.714,16.714,0,0,0,1.239,1.914.983.983,0,0,1,.376.676c.076.32.732.581,1.013.562s.616.094.616.244c0,.088.157.147.331.176.007.1.013.21.021.323C430.733,348.419,430.793,349.522,430.829,350.357Z" transform="translate(-389.794 -314.004)" opacity="0.1"/><path d="M569.276,428.84l-.071,1.686h-.077l-.158-.088.019-1.453A2.539,2.539,0,0,1,569.276,428.84Z" transform="translate(-523.889 -394.377)" opacity="0.1"/><path d="M421.617,342.51s-2.1.394-1.144,3.021,4.278,5.4,4.278,5.4,2.721,1.35,3.866,1.2,2.889-.544,3.114-.488,1.745.056,1.745.056l.075-1.76-1.76-.094-.9-.187s-.32-.264-.507-.225-.581-.225-.581-.225a1.121,1.121,0,0,0-.528-.244c-.227,0-.657-.056-.657-.206s-.338-.264-.616-.244-.943-.244-1.02-.567a.979.979,0,0,0-.375-.675,16.714,16.714,0,0,1-1.238-1.914s-.582-.431-.563-.768a1.574,1.574,0,0,0-.431-1.07C424.129,343.316,422.4,342.06,421.617,342.51Z" transform="translate(-388.235 -315.558)" fill="#dce6f2"/><path d="M490.883,412.15s-.807.807-.6.957Z" transform="translate(-452.096 -379.156)" opacity="0.1"/><path d="M498.792,419.4s-1.051.807-.769.863S498.792,419.4,498.792,419.4Z" transform="translate(-459.143 -385.768)" opacity="0.1"/><path d="M487,433c.151.076,2.383,1.408,3.228,1.389Z" transform="translate(-449.134 -398.171)" opacity="0.1"/><path d="M452.77,311.884s-.394,1.295-.545,1.295c-.118,0-2.1-1.6-2.925-2.278l.036-.03a1.772,1.772,0,0,1,.375-.88C450.011,309.692,452.77,311.884,452.77,311.884Z" transform="translate(-414.752 -285.964)" opacity="0.1"/><path d="M451.91,310.174s-.393,1.295-.544,1.295c-.119,0-2.1-1.6-2.926-2.278l.036-.03a1.776,1.776,0,0,1,.376-.88C449.152,307.982,451.91,310.174,451.91,310.174Z" transform="translate(-413.968 -284.404)" fill="#dce6f2"/><g transform="translate(32.628 17.241)" opacity="0.15"><path d="M427.49,282.54h0c.264.6.991.9,1.413,1.376C428.652,283.325,427.919,283.036,427.49,282.54Z" transform="translate(-427.49 -278.196)"/><path d="M446.077,293.049a.633.633,0,0,1-.577.295,1.685,1.685,0,0,1-.579-.148,1.126,1.126,0,0,1,.15.319,1.84,1.84,0,0,0,.655.176.626.626,0,0,0,.577-.295c.168-.321-.007-.6-.212-.856A.559.559,0,0,1,446.077,293.049Z" transform="translate(-443.386 -287.316)"/><path d="M455,234.511a3.02,3.02,0,0,0-.232-.461,2.884,2.884,0,0,1-.1-.377,1.167,1.167,0,0,0-.27-.483,1.132,1.132,0,0,1,.045.133,3.02,3.02,0,0,0,.1.379,3.015,3.015,0,0,1,.232.461.478.478,0,0,1-.352.551c-.326.071-.7-.21-.977-.029a.7.7,0,0,0-.234.542q-.059.528-.12,1.05a1.259,1.259,0,0,1-.078.361.907.907,0,0,1-.863.46.518.518,0,0,1-.371-.123,2.451,2.451,0,0,0-.161-.2c-.44-.37-.574.534-.458.792a1.594,1.594,0,0,0,.215.323c-.1-.29.039-1.127.468-.768a2.274,2.274,0,0,1,.16.2.522.522,0,0,0,.372.123.907.907,0,0,0,.863-.46,1.258,1.258,0,0,0,.077-.362q.06-.528.12-1.049a.706.706,0,0,1,.233-.542c.281-.181.652.1.978.028A.477.477,0,0,0,455,234.511Z" transform="translate(-449.047 -233.19)"/></g><path d="M661.045,247.685a.681.681,0,0,1-.282-.007,1.584,1.584,0,0,1-.9-.54.567.567,0,0,1-.151-.551c.062-.149.224-.242.264-.4a.589.589,0,0,0-.015-.284l-.1-.434c-.027-.123-.075-.268-.2-.3s-.224.071-.32.147a1,1,0,0,1-.968.159c-.282-.153-.2-.662-.249-.937a.164.164,0,0,0-.062-.123.25.25,0,0,0-.128-.01.368.368,0,0,1-.319-.283,2.492,2.492,0,0,1-.05-.453.508.508,0,0,0-.2-.392.633.633,0,0,0-.332-.057l-.653.007c-.161,0-.352-.011-.44-.144a.438.438,0,0,1,.07-.46.911.911,0,0,0,.217-.44.828.828,0,0,0-.19-.454.817.817,0,0,1-.111-.252l-.187-.011a.507.507,0,0,0,.088.47.84.84,0,0,1,.19.453.934.934,0,0,1-.217.44.431.431,0,0,0-.069.46.492.492,0,0,0,.44.145l.653-.008a.632.632,0,0,1,.332.058.505.505,0,0,1,.2.392,2.429,2.429,0,0,0,.051.453.364.364,0,0,0,.319.282.258.258,0,0,1,.128.01.166.166,0,0,1,.062.124c.046.275-.039.784.249.937a1,1,0,0,0,.968-.159c.1-.076.2-.176.321-.148s.17.176.2.3l.1.435a.587.587,0,0,1,.014.284c-.044.154-.207.248-.268.4a.568.568,0,0,0,.151.551,1.584,1.584,0,0,0,.911.54.681.681,0,0,0,.282.007.663.663,0,0,0,.366-.278A.489.489,0,0,1,661.045,247.685Z" transform="translate(-602.973 -223.5)" opacity="0.1"/><ellipse cx="2.127" cy="0.327" rx="2.127" ry="0.327" transform="translate(15.564 62.406)" fill="#4895F1" opacity="0.1"/><ellipse cx="2.127" cy="0.327" rx="2.127" ry="0.327" transform="translate(89.847 53.915)" fill="#4895F1" opacity="0.1"/><ellipse cx="6.161" cy="0.945" rx="6.161" ry="0.945" transform="translate(64.123 66.456)" fill="#4895F1" opacity="0.18"/><ellipse cx="4.806" cy="0.738" rx="4.806" ry="0.738" transform="translate(82.994 62.659)" fill="#4895F1" opacity="0.18"/><ellipse cx="8.15" cy="1.251" rx="8.15" ry="1.251" transform="translate(78.859 69.495)" fill="#4895F1" opacity="0.18"/><ellipse cx="6.161" cy="0.945" rx="6.161" ry="0.945" transform="translate(2.424 70.901)" fill="#4895F1" opacity="0.1"/><path d="M252.017,631.85s.241.315-.111.792-.643.88-.528,1.174c0,0,.528-.88.968-.9S252.493,632.382,252.017,631.85Z" transform="translate(-234.228 -579.518)" fill="#4895F1"/><path d="M252.179,631.85a.351.351,0,0,1,.049.1c.422.5.647.959.241.968-.378.011-.831.687-.939.857a.339.339,0,0,0,.012.039s.528-.88.968-.9S252.655,632.382,252.179,631.85Z" transform="translate(-234.39 -579.518)" opacity="0.1"/><path d="M263.416,635.671c0,.111-.013.2-.028.2s-.028-.088-.028-.2.016-.058.031-.058S263.416,635.56,263.416,635.671Z" transform="translate(-245.179 -582.938)" fill="#ffd037"/><path d="M263.774,637.126c-.1.053-.182.088-.189.071s.065-.067.163-.121.059-.014.066,0S263.872,637.073,263.774,637.126Z" transform="translate(-245.384 -584.26)" fill="#ffd037"/><path d="M238.835,631.85s-.241.315.111.792.643.88.528,1.174c0,0-.528-.88-.964-.9S238.356,632.382,238.835,631.85Z" transform="translate(-222.32 -579.518)" fill="#4895F1"/><path d="M238.815,631.85a.386.386,0,0,0-.049.1c-.423.5-.647.959-.241.968.378.011.831.687.94.857a.35.35,0,0,1-.013.039s-.528-.88-.964-.9S238.336,632.382,238.815,631.85Z" transform="translate(-222.3 -579.518)" opacity="0.1"/><path d="M239.35,635.671c0,.111.012.2.027.2s.028-.088.028-.2-.016-.058-.031-.058S239.35,635.56,239.35,635.671Z" transform="translate(-223.283 -582.938)" fill="#ffd037"/><path d="M236.987,637.126c.1.053.182.088.19.071s-.066-.067-.164-.121-.059-.014-.066,0S236.889,637.073,236.987,637.126Z" transform="translate(-221.073 -584.26)" fill="#ffd037"/><ellipse cx="2.52" cy="0.386" rx="2.52" ry="0.386" transform="translate(14.632 55.935)" fill="#4895F1" opacity="0.1"/><path d="M239.519,647.827l-.012.1-.017.139-.007.058-.017.139-.008.058-.017.139-.193,1.584c-.017.141-.247.251-.528.251h-1c-.278,0-.509-.11-.528-.251L237,648.459l-.017-.139-.007-.058-.018-.139-.007-.058-.017-.139-.012-.1c-.01-.08.115-.147.273-.147h2.05C239.4,647.68,239.529,647.747,239.519,647.827Z" transform="translate(-221.07 -593.955)" fill="#65617d"/><path d="M185.53,614.76l-.017.139h-2.537l-.017-.139Z" transform="translate(-167.093 -560.789)" fill="#9d9cb5"/><path d="M185.753,617l-.017.139h-2.488L183.23,617Z" transform="translate(-167.339 -562.832)" fill="#9d9cb5"/><path d="M185.984,619.24l-.018.139h-2.44l-.017-.139Z" transform="translate(-167.595 -564.875)" fill="#9d9cb5"/><path d="M1082.37,618s-.3,1.4,1.038,1.567l.083-.156S1082.453,618.435,1082.37,618Z" transform="translate(-992.072 -566.887)" fill="#4895F1"/><path d="M1088.192,612.076l-.312.066-.031.007a2.813,2.813,0,0,1-.82-2.179,3.71,3.71,0,0,0,.4.628A3.753,3.753,0,0,1,1088.192,612.076Z" transform="translate(-996.348 -559.564)" fill="#4895F1"/><path d="M1093.766,606.849a.2.2,0,0,1-.167.022c-.8-.187-.528-2.791-.528-2.791.044.02.088.352.276.78C1093.669,605.611,1094.023,606.661,1093.766,606.849Z" transform="translate(-1001.818 -554.192)" fill="#4895F1"/><path d="M1107.37,618a1.5,1.5,0,0,1-1.287,1.567l-.084-.158S1107.288,618.435,1107.37,618Z" transform="translate(-1013.649 -566.887)" fill="#4895F1"/><path d="M1102.591,610a2.591,2.591,0,0,1-1.069,2.179l-.032-.007-.311-.066a3.8,3.8,0,0,1,.765-1.479A3.391,3.391,0,0,1,1102.591,610Z" transform="translate(-1009.253 -559.591)" fill="#4895F1"/><path d="M1099.515,606.723a.486.486,0,0,1-.176.136h0a.338.338,0,0,1-.066.022c-.2.046-.264-.1-.253-.337a6.243,6.243,0,0,1,.528-1.73,2.163,2.163,0,0,1,.5-.724S1100.037,606.117,1099.515,606.723Z" transform="translate(-1007.281 -554.202)" fill="#4895F1"/><path d="M1097.6,593.7s-.893,3.169-.124,3.642S1097.8,593.98,1097.6,593.7Z" transform="translate(-1005.591 -544.726)" fill="#4895F1"/><path d="M1082.37,618s-.3,1.4,1.038,1.567l.083-.156S1082.453,618.435,1082.37,618Z" transform="translate(-992.072 -566.887)" opacity="0.1"/><path d="M1088.192,612.076l-.312.066-.031.007a2.813,2.813,0,0,1-.82-2.179,3.71,3.71,0,0,0,.4.628A3.753,3.753,0,0,1,1088.192,612.076Z" transform="translate(-996.348 -559.564)" opacity="0.1"/><path d="M1093.766,606.849a.2.2,0,0,1-.167.022c-.8-.187-.528-2.791-.528-2.791.044.02.088.352.276.78C1093.669,605.611,1094.023,606.661,1093.766,606.849Z" transform="translate(-1001.818 -554.192)" opacity="0.1"/><path d="M1107.37,618a1.5,1.5,0,0,1-1.287,1.567l-.084-.158S1107.288,618.435,1107.37,618Z" transform="translate(-1013.649 -566.887)" opacity="0.1"/><path d="M1102.591,610a2.591,2.591,0,0,1-1.069,2.179l-.032-.007-.311-.066a3.8,3.8,0,0,1,.765-1.479A3.391,3.391,0,0,1,1102.591,610Z" transform="translate(-1009.253 -559.591)" opacity="0.1"/><path d="M1099.515,606.723a.486.486,0,0,1-.176.136h0a.338.338,0,0,1-.066.022c-.2.046-.264-.1-.253-.337a6.243,6.243,0,0,1,.528-1.73,2.163,2.163,0,0,1,.5-.724S1100.037,606.117,1099.515,606.723Z" transform="translate(-1007.281 -554.202)" opacity="0.1"/><path d="M1097.6,593.7s-.893,3.169-.124,3.642S1097.8,593.98,1097.6,593.7Z" transform="translate(-1005.591 -544.726)" opacity="0.1"/><path d="M1082.591,618a1.362,1.362,0,0,0,1.162,1.567l.083-.156S1082.674,618.435,1082.591,618Z" transform="translate(-992.293 -566.887)" fill="#4895F1"/><path d="M1088.289,612.1l-.312.066-.031.007A2.676,2.676,0,0,1,1087,610s.245.264.521.628A3.7,3.7,0,0,1,1088.289,612.1Z" transform="translate(-996.321 -559.591)" fill="#4895F1"/><path d="M1093.716,618.579l-.312.066a2.559,2.559,0,0,1-.454-1.545A3.754,3.754,0,0,1,1093.716,618.579Z" transform="translate(-1001.747 -566.066)" opacity="0.1"/><path d="M1094.233,606.849a.2.2,0,0,1-.168.022c-.8-.187-.653-2.791-.653-2.791a3.618,3.618,0,0,1,.4.78C1094.135,605.611,1094.489,606.661,1094.233,606.849Z" transform="translate(-1002.159 -554.192)" fill="#4895F1"/><path d="M1108.675,618a1.361,1.361,0,0,1-1.162,1.567l-.083-.156S1108.592,618.435,1108.675,618Z" transform="translate(-1014.953 -566.887)" fill="#4895F1"/><path d="M1103.877,610a2.671,2.671,0,0,1-.944,2.179l-.031-.007-.312-.066a3.793,3.793,0,0,1,.766-1.479C1103.632,610.264,1103.877,610,1103.877,610Z" transform="translate(-1010.539 -559.591)" fill="#4895F1"/><path d="M1103.356,617.1a2.88,2.88,0,0,1-.4,1.487.475.475,0,0,1-.057.058l-.312-.066A3.744,3.744,0,0,1,1103.356,617.1Z" transform="translate(-1010.539 -566.066)" opacity="0.1"/><path d="M1100.926,606.723a.476.476,0,0,1-.176.136h0a.351.351,0,0,1-.065.022c-.2.046-.264-.1-.255-.337a6.3,6.3,0,0,1,.528-1.73,3.389,3.389,0,0,1,.378-.724S1101.448,606.117,1100.926,606.723Z" transform="translate(-1008.569 -554.202)" fill="#4895F1"/><path d="M1098,614.929a.21.21,0,0,1-.127-.041c-.376-.234-.384-1.112-.294-1.949C1097.9,613.691,1098.257,614.741,1098,614.929Z" transform="translate(-1005.927 -562.273)" opacity="0.1"/><path d="M1100.936,614.228c-.043.094-.1.144-.176.136h0a.237.237,0,0,1-.106-.041.568.568,0,0,1-.213-.275,6.293,6.293,0,0,1,.528-1.73A4.917,4.917,0,0,1,1100.936,614.228Z" transform="translate(-1008.578 -561.707)" opacity="0.1"/><path d="M1098.585,593.7s-.767,3.169,0,3.642S1098.783,593.98,1098.585,593.7Z" transform="translate(-1006.576 -544.726)" fill="#4895F1"/><path d="M1031.636,597.61h-3.2v.529h.488l.012.063.2,1.027h1.858l.2-1.027.011-.063h.436Z" transform="translate(-938.153 -545.149)" fill="#4b4770"/><path d="M1031.636,597.61h-3.2v.529h.488l.012.063.2,1.027h1.858l.2-1.027.011-.063h.436Z" transform="translate(-938.153 -545.149)" opacity="0.1"/><path d="M1037.276,601.14l-.054.281-.2,1.027h-1.858l-.2-1.027-.054-.281Z" transform="translate(-944.063 -548.368)" fill="#4b4770"/><path d="M1037.276,601.14l-.054.281h-2.249l-.054-.281Z" transform="translate(-944.063 -548.368)" opacity="0.1"/><rect width="3.196" height="0.529" transform="translate(90.411 52.461)" fill="#4b4770"/><path d="M136.594,729.374a1.534,1.534,0,0,0-.2.378c-.012.033-.025.07-.037.106a.394.394,0,0,0-.07-.025.971.971,0,0,0-.314-.026c0-.041.005-.088.006-.129.013-.464-.041-1.11-.484-.836-.424.264-.121.7.152.986.024.025.048.048.07.07-.25.176-.3.592-.339,1.025a2.389,2.389,0,0,1-.652,1.173c-.025.027-.047.052-.069.075a.893.893,0,0,0-.709-.182c-.01-.038-.021-.077-.033-.119-.2-.712-.606-1.945-1.128-2.216l.069-.088c.222-.29.472-.721.1-.831s-.4.373-.382.736q.005.069.011.129a.54.54,0,0,0-.386.188l-.057-.068c-.3-.352-.848-.913-1.014-.49-.155.394.328.907.668,1.2l.021.018c-.228.925.768,1.679,1.3,2.01l.07.042a8.086,8.086,0,0,0-1.2,2.505l2.07.37s1.373-1.185,1.2-2.3h.014a2.092,2.092,0,0,0,1.47-2.606l.025-.01a1.554,1.554,0,0,0,.636-.481A.51.51,0,0,0,136.594,729.374Z" transform="translate(-124.562 -667.861)" fill="#4895F1"/><path d="M136.594,729.374a1.534,1.534,0,0,0-.2.378c-.012.033-.025.07-.037.106a.394.394,0,0,0-.07-.025.971.971,0,0,0-.314-.026c0-.041.005-.088.006-.129.013-.464-.041-1.11-.484-.836-.424.264-.121.7.152.986.024.025.048.048.07.07-.25.176-.3.592-.339,1.025a2.389,2.389,0,0,1-.652,1.173c-.025.027-.047.052-.069.075a.893.893,0,0,0-.709-.182c-.01-.038-.021-.077-.033-.119-.2-.712-.606-1.945-1.128-2.216l.069-.088c.222-.29.472-.721.1-.831s-.4.373-.382.736q.005.069.011.129a.54.54,0,0,0-.386.188l-.057-.068c-.3-.352-.848-.913-1.014-.49-.155.394.328.907.668,1.2l.021.018c-.228.925.768,1.679,1.3,2.01l.07.042a8.086,8.086,0,0,0-1.2,2.505l2.07.37s1.373-1.185,1.2-2.3h.014a2.092,2.092,0,0,0,1.47-2.606l.025-.01a1.554,1.554,0,0,0,.636-.481A.51.51,0,0,0,136.594,729.374Z" transform="translate(-124.562 -667.861)" opacity="0.1"/><path d="M133.786,733.719l-.242.7s-.135-.1-.3-.245c-.34-.3-.823-.809-.668-1.2.166-.423.715.135,1.014.49C133.706,733.606,133.786,733.719,133.786,733.719Z" transform="translate(-125.876 -671.604)" fill="#4895F1"/><path d="M149.544,729.58a3.36,3.36,0,0,1-.236.278,3.715,3.715,0,0,1-.043-.373c-.02-.363.018-.844.382-.736S149.766,729.291,149.544,729.58Z" transform="translate(-141.123 -667.874)" fill="#4895F1"/><path d="M180.8,730.276c-.007.233-.03.42-.03.42a3.074,3.074,0,0,1-.3-.27c-.274-.284-.577-.723-.152-.986S180.809,729.812,180.8,730.276Z" transform="translate(-169.252 -668.458)" fill="#4895F1"/><path d="M192.454,734.687a1.554,1.554,0,0,1-.636.481,1.9,1.9,0,0,1-.213.077l-.285-.4a2.834,2.834,0,0,1,.118-.389,1.534,1.534,0,0,1,.2-.378A.509.509,0,0,1,192.454,734.687Z" transform="translate(-179.48 -672.564)" fill="#4895F1"/><path d="M140.816,740.11c.121.141.2.25.2.25l-.242.7s-.135-.1-.3-.245a1.382,1.382,0,0,1,.273-.622Z" transform="translate(-133.106 -678.249)" opacity="0.1"/><path d="M149.589,737.365a3.365,3.365,0,0,1-.236.278,3.722,3.722,0,0,1-.043-.373A.486.486,0,0,1,149.589,737.365Z" transform="translate(-141.168 -675.659)" opacity="0.1"/><path d="M142.569,741.493l-.6.264s-.131-.063-.32-.181c-.633-.389-1.9-1.369-1.056-2.524s1.564.916,1.848,1.929C142.524,741.29,142.569,741.493,142.569,741.493Z" transform="translate(-132.958 -676.974)" fill="#4895F1"/><path d="M184.18,739.77a.5.5,0,0,1,.332-.15c-.007.233-.03.42-.03.42A3.068,3.068,0,0,1,184.18,739.77Z" transform="translate(-172.969 -677.802)" opacity="0.1"/><path d="M191.838,741.172a1.889,1.889,0,0,1-.213.077l-.285-.4a2.832,2.832,0,0,1,.118-.389A1.039,1.039,0,0,1,191.838,741.172Z" transform="translate(-179.498 -678.568)" opacity="0.1"/><path d="M167.458,744.308c-.033.007-.067.013-.1.018-2.018.306-.665-.783-.665-.783s.088-.088.214-.221a2.384,2.384,0,0,0,.652-1.173c.063-.654.136-1.268.908-1.088S169.369,743.925,167.458,744.308Z" transform="translate(-156.615 -679.088)" fill="#4895F1"/><rect width="3.856" height="1.014" transform="translate(6.949 70.245)" fill="#d4dfec"/><rect width="5.038" height="3.538" transform="translate(6.337 66.95)" fill="#d4dfec"/><rect width="3.856" height="1.014" transform="translate(6.949 70.245)" opacity="0.1"/><rect width="5.038" height="3.538" transform="translate(6.337 66.95)" opacity="0.1"/><rect width="3.856" height="1.014" transform="translate(7.203 70.245)" fill="#d4dfec"/><path d="M156.312,764.51c.088.3.13.511.13.511l-.6.264s-.131-.063-.32-.181A1.546,1.546,0,0,1,156.312,764.51Z" transform="translate(-146.831 -700.501)" opacity="0.1"/><path d="M167.458,768.065c-.033.007-.067.013-.1.018-2.018.306-.665-.783-.665-.783s.088-.088.214-.221A1.336,1.336,0,0,1,167.458,768.065Z" transform="translate(-156.615 -702.845)" opacity="0.1"/><path d="M142.72,768.711s1.13-4.049,2.715-2.8-.645,3.169-.645,3.169Z" transform="translate(-135.158 -701.561)" fill="#4895F1"/><circle cx="0.127" cy="0.127" r="0.127" transform="translate(8.006 62.586)" opacity="0.1"/><circle cx="0.127" cy="0.127" r="0.127" transform="translate(7.995 63.178)" opacity="0.1"/><circle cx="0.127" cy="0.127" r="0.127" transform="translate(11.672 62.703)" opacity="0.1"/><circle cx="0.127" cy="0.127" r="0.127" transform="translate(8.714 65.735)" opacity="0.1"/><circle cx="0.127" cy="0.127" r="0.127" transform="translate(11.408 63.685)" opacity="0.1"/><circle cx="0.127" cy="0.127" r="0.127" transform="translate(10.098 64.995)" opacity="0.1"/><circle cx="0.127" cy="0.127" r="0.127" transform="translate(8.439 62.84)" opacity="0.1"/><circle cx="0.127" cy="0.127" r="0.127" transform="translate(11.323 63.083)" opacity="0.1"/><circle cx="0.127" cy="0.127" r="0.127" transform="translate(10.89 64.065)" opacity="0.1"/><circle cx="0.127" cy="0.127" r="0.127" transform="translate(9.559 65.64)" opacity="0.1"/><circle cx="0.127" cy="0.127" r="0.127" transform="translate(9.285 65.017)" opacity="0.1"/><circle cx="0.127" cy="0.127" r="0.127" transform="translate(8.629 63.611)" opacity="0.1"/><rect width="3.856" height="0.371" transform="translate(7.203 70.245)" opacity="0.1"/><rect width="5.038" height="3.538" transform="translate(6.59 66.95)" fill="#d4dfec"/><circle cx="0.127" cy="0.127" r="0.127" transform="translate(9.728 66.21)" opacity="0.1"/><circle cx="0.127" cy="0.127" r="0.127" transform="translate(8.968 66.369)" opacity="0.1"/><circle cx="0.921" cy="0.921" r="0.921" transform="translate(3.243 3.515)" fill="#4895F1" opacity="0.18"/><circle cx="1.232" cy="1.232" r="1.232" transform="translate(91.355 32.171)" fill="#4895F1" opacity="0.1"/><circle cx="0.9" cy="0.9" r="0.9" transform="translate(94.063 29.863)" fill="#4895F1" opacity="0.1"/><ellipse cx="1.5" cy="1" rx="1.5" ry="1" transform="translate(4.041 0.106)" fill="#4895F1" opacity="0.18"/><circle cx="1" cy="1" r="1" transform="translate(0.041 6.106)" fill="#4895F1" opacity="0.18"/></g></svg>