<svg xmlns="http://www.w3.org/2000/svg" width="78.029" height="91.064" viewBox="0 0 78.029 91.064">
  <g id="undraw_sync_files_xb3r" transform="translate(0 0)">
    <path id="Path_3886" data-name="Path 3886" d="M362.724,112.5H312.756A1.758,1.758,0,0,0,311,114.256V181.78a1.758,1.758,0,0,0,1.756,1.756h49.968a1.758,1.758,0,0,0,1.756-1.756V114.256A1.758,1.758,0,0,0,362.724,112.5Z" transform="translate(-311 -112.5)" fill="#f2f2f2"/>
    <path id="Path_3887" data-name="Path 3887" d="M327.705,128.5a1.227,1.227,0,0,0-1.206,1.244V193.97a1.227,1.227,0,0,0,1.206,1.244h46.881a1.227,1.227,0,0,0,1.206-1.244V129.744a1.227,1.227,0,0,0-1.206-1.244Z" transform="translate(-324.406 -126.339)" fill="#fff"/>
    <path id="Path_3888" data-name="Path 3888" d="M348.31,150.5a.868.868,0,0,0-.81.914v8.84a.868.868,0,0,0,.81.914h42a.868.868,0,0,0,.81-.914v-8.84a.868.868,0,0,0-.81-.914Z" transform="translate(-342.571 -145.368)" fill="#e6e6e6"/>
    <path id="Path_3889" data-name="Path 3889" d="M348.31,261.25a.823.823,0,0,0-.81.834v18.894a.823.823,0,0,0,.81.834h42a.823.823,0,0,0,.81-.834V262.083a.823.823,0,0,0-.81-.834Z" transform="translate(-342.57 -241.161)" fill="#e6e6e6"/>
    <rect id="Rectangle_1998" data-name="Rectangle 1998" width="33.222" height="1.891" transform="translate(10.129 6.381)" fill="#fff"/>
    <rect id="Rectangle_1999" data-name="Rectangle 1999" width="33.222" height="0.878" transform="translate(10.196 10.365)" fill="#fff"/>
    <rect id="Rectangle_2000" data-name="Rectangle 2000" width="33.222" height="0.878" transform="translate(10.196 11.918)" fill="#fff"/>
    <rect id="Rectangle_2001" data-name="Rectangle 2001" width="33.222" height="0.878" transform="translate(10.196 13.471)" fill="#fff"/>
    <path id="Path_3890" data-name="Path 3890" d="M390.587,311.547h15.289a.492.492,0,0,0,.348-.84l-9.785-9.785a.493.493,0,0,0-.7,0l-2.433,2.433a1.032,1.032,0,0,1-1.46,0l-7.621-7.621a.493.493,0,0,0-.7,0l-14.906,14.906a.492.492,0,0,0,.348.84h21.632Z" transform="translate(-360.719 -270.864)" fill="#fff"/>
    <circle id="Ellipse_541" data-name="Ellipse 541" cx="1.891" cy="1.891" r="1.891" transform="translate(9.791 22.654)" fill="#fff"/>
    <path id="Path_3891" data-name="Path 3891" d="M348.31,446.25a.823.823,0,0,0-.81.834v18.894a.823.823,0,0,0,.81.834h42a.823.823,0,0,0,.81-.834V447.083a.823.823,0,0,0-.81-.834Z" transform="translate(-342.57 -401.177)" fill="#e6e6e6"/>
    <path id="Path_3892" data-name="Path 3892" d="M390.587,496.548h15.289a.492.492,0,0,0,.348-.84l-9.785-9.785a.493.493,0,0,0-.7,0l-2.433,2.433a1.032,1.032,0,0,1-1.46,0l-7.621-7.621a.493.493,0,0,0-.7,0L368.626,495.64a.492.492,0,0,0,.348.84h21.632Z" transform="translate(-360.719 -430.88)" fill="#fff"/>
    <circle id="Ellipse_542" data-name="Ellipse 542" cx="1.891" cy="1.891" r="1.891" transform="translate(9.791 47.638)" fill="#fff"/>
    <path id="Path_3893" data-name="Path 3893" d="M446.215,227.5A1.217,1.217,0,0,0,445,228.715V296.24a1.217,1.217,0,0,0,1.215,1.215h49.968a1.217,1.217,0,0,0,1.215-1.215V228.715a1.217,1.217,0,0,0-1.215-1.215Z" transform="translate(-426.904 -211.969)" fill="#e6e6e6"/>
    <path id="Path_3894" data-name="Path 3894" d="M457.205,241.5A1.227,1.227,0,0,0,456,242.744V306.97a1.227,1.227,0,0,0,1.206,1.244h46.881a1.227,1.227,0,0,0,1.206-1.244V242.744a1.227,1.227,0,0,0-1.206-1.244Z" transform="translate(-436.417 -224.079)" fill="#fff"/>
    <path id="Path_3895" data-name="Path 3895" d="M515.79,310.683a.541.541,0,0,0-.54.54V313.7a.541.541,0,0,0,.54.54h31.871a.541.541,0,0,0,.54-.54v-2.479a.541.541,0,0,0-.54-.54Z" transform="translate(-487.666 -283.919)" fill="#4895F1"/>
    <path id="Path_3896" data-name="Path 3896" d="M516.885,371.439a.135.135,0,0,0-.135.135v.968a.135.135,0,0,0,.135.135H549.3a.135.135,0,0,0,.135-.135v-.968a.135.135,0,0,0-.135-.135Z" transform="translate(-488.964 -336.47)" fill="#ccc"/>
    <path id="Path_3897" data-name="Path 3897" d="M516.885,394.734a.135.135,0,0,0-.135.135v.968a.135.135,0,0,0,.135.135H549.3a.135.135,0,0,0,.135-.135v-.968a.135.135,0,0,0-.135-.135Z" transform="translate(-488.964 -356.619)" fill="#ccc"/>
    <path id="Path_3898" data-name="Path 3898" d="M516.885,418.029a.135.135,0,0,0-.135.135v.968a.135.135,0,0,0,.135.135H549.3a.135.135,0,0,0,.135-.135v-.968a.135.135,0,0,0-.135-.135Z" transform="translate(-488.964 -376.768)" fill="#ccc"/>
    <path id="Path_3899" data-name="Path 3899" d="M516.385,464.561a.135.135,0,0,0-.135.135v.968a.135.135,0,0,0,.135.135H548.8a.135.135,0,0,0,.135-.135V464.7a.135.135,0,0,0-.135-.135Z" transform="translate(-488.531 -417.016)" fill="#ccc"/>
    <path id="Path_3900" data-name="Path 3900" d="M516.385,487.856a.135.135,0,0,0-.135.135v.968a.135.135,0,0,0,.135.135H548.8a.135.135,0,0,0,.135-.135v-.968a.135.135,0,0,0-.135-.135Z" transform="translate(-488.531 -437.165)" fill="#ccc"/>
    <path id="Path_3901" data-name="Path 3901" d="M516.385,511.15a.135.135,0,0,0-.135.135v.968a.135.135,0,0,0,.135.135H548.8a.135.135,0,0,0,.135-.135v-.968a.135.135,0,0,0-.135-.135Z" transform="translate(-488.531 -457.313)" fill="#ccc"/>
    <path id="Path_3902" data-name="Path 3902" d="M516.385,534.561a.135.135,0,0,0-.135.135v.968a.135.135,0,0,0,.135.135H548.8a.135.135,0,0,0,.135-.135V534.7a.135.135,0,0,0-.135-.135Z" transform="translate(-488.531 -477.562)" fill="#ccc"/>
    <path id="Path_3903" data-name="Path 3903" d="M516.385,557.855a.135.135,0,0,0-.135.135v.968a.135.135,0,0,0,.135.135H548.8a.135.135,0,0,0,.135-.135v-.968a.135.135,0,0,0-.135-.135Z" transform="translate(-488.531 -497.711)" fill="#ccc"/>
    <path id="Path_3904" data-name="Path 3904" d="M516.385,581.15a.135.135,0,0,0-.135.135v.968a.135.135,0,0,0,.135.135H548.8a.135.135,0,0,0,.135-.135v-.968a.135.135,0,0,0-.135-.135Z" transform="translate(-488.531 -517.86)" fill="#ccc"/>
    <path id="Path_3905" data-name="Path 3905" d="M516.385,604.561a.135.135,0,0,0-.135.135v.968a.135.135,0,0,0,.135.135H548.8a.135.135,0,0,0,.135-.135V604.7a.135.135,0,0,0-.135-.135Z" transform="translate(-488.531 -538.109)" fill="#ccc"/>
    <path id="Path_3906" data-name="Path 3906" d="M516.385,627.855a.135.135,0,0,0-.135.135v.968a.135.135,0,0,0,.135.135H548.8a.135.135,0,0,0,.135-.135v-.968a.135.135,0,0,0-.135-.135Z" transform="translate(-488.531 -558.257)" fill="#ccc"/>
    <path id="Path_3907" data-name="Path 3907" d="M516.385,651.15a.135.135,0,0,0-.135.135v.968a.135.135,0,0,0,.135.135H548.8a.135.135,0,0,0,.135-.135v-.968a.135.135,0,0,0-.135-.135Z" transform="translate(-488.531 -578.406)" fill="#ccc"/>
    <circle id="Ellipse_543" data-name="Ellipse 543" cx="10" cy="10" r="10" transform="translate(58.029 71.064)" fill="#4895F1"/>
    <path id="Path_3908" data-name="Path 3908" d="M479.145,579.563l-2.951-3.794,1.716-1.335,1.4,1.8,4.72-4.982,1.578,1.5Z" transform="translate(-411.885 -494.102)" fill="#fff"/>
  </g>
</svg>
