<svg xmlns="http://www.w3.org/2000/svg" width="56.592" height="73.82" viewBox="0 0 56.592 73.82">
  <g id="upload_1_" data-name="upload (1)" transform="translate(-58.408)">
    <g id="Group_2474" data-name="Group 2474" transform="translate(58.408 0)">
      <path id="Path_4923" data-name="Path 4923" d="M106.3,0H61.268a2.864,2.864,0,0,0-2.86,2.86v54.35a2.864,2.864,0,0,0,2.86,2.86h2.894a.716.716,0,0,0,.523-.227l44.322-47.469a.716.716,0,0,0,.193-.489V2.9A2.9,2.9,0,0,0,106.3,0Z" transform="translate(-58.408 0)" fill="#e8edf9"/>
      <path id="Path_4924" data-name="Path 4924" d="M145.145,49.814V94.352a2.864,2.864,0,0,1-2.86,2.861H96.453a2.864,2.864,0,0,1-2.861-2.861V40.36a2.864,2.864,0,0,1,2.861-2.86H132.83l1.323,1.323Z" transform="translate(-88.554 -32.13)" fill="#fff"/>
      <path id="Path_4925" data-name="Path 4925" d="M145.145,57.731v44.538a2.864,2.864,0,0,1-2.86,2.861H96.453a2.864,2.864,0,0,1-2.861-2.861v-.719h45.725a2.892,2.892,0,0,0,2.891-2.893V57.731L134.153,46.74Z" transform="translate(-88.554 -40.047)" fill="#e8edf9"/>
      <path id="Path_4926" data-name="Path 4926" d="M379.908,49.814H368.534a.942.942,0,0,1-.942-.942V37.5a.715.715,0,0,1,.507.209l11.6,11.6A.714.714,0,0,1,379.908,49.814Z" transform="translate(-323.316 -32.13)" fill="#1273eb"/>
      <path id="Path_4927" data-name="Path 4927" d="M382.941,51.065H380L371.132,38.96l11.6,11.6A.714.714,0,0,1,382.941,51.065Z" transform="translate(-326.349 -33.381)" fill="#0f62c7"/>
      <g id="Group_2473" data-name="Group 2473" transform="translate(16.921 25.126)">
        <path id="Path_4928" data-name="Path 4928" d="M177.643,177.6h25.694a1.074,1.074,0,1,0,0-2.148H177.643a1.074,1.074,0,1,0,0,2.148Z" transform="translate(-176.569 -175.456)" fill="#1273eb"/>
        <path id="Path_4929" data-name="Path 4929" d="M203.337,219.688H177.643a1.074,1.074,0,1,0,0,2.148h25.694a1.074,1.074,0,1,0,0-2.148Z" transform="translate(-176.569 -213.354)" fill="#1273eb"/>
        <path id="Path_4930" data-name="Path 4930" d="M326.694,264.8h-5.076a1.074,1.074,0,1,0,0,2.148h5.076a1.074,1.074,0,0,0,0-2.148Z" transform="translate(-299.926 -252.007)" fill="#1273eb"/>
        <path id="Path_4931" data-name="Path 4931" d="M193.206,264.8H177.643a1.074,1.074,0,0,0,0,2.148h15.563a1.074,1.074,0,0,0,0-2.148Z" transform="translate(-176.569 -252.007)" fill="#1273eb"/>
      </g>
      <path id="Path_4932" data-name="Path 4932" d="M206.562,337.1a13.495,13.495,0,0,1-15.205,13.38h-.006a13.491,13.491,0,0,1,0-26.76h.006A13.495,13.495,0,0,1,206.562,337.1Z" transform="translate(-162.229 -277.268)" fill="#fff" stroke="#1273eb" stroke-width="1"/>
      <path id="Path_4934" data-name="Path 4934" d="M244.711,371.53a1.074,1.074,0,0,1-1.519,0l-2.863-2.863V379.05a1.074,1.074,0,1,1-2.148,0V368.667l-2.863,2.863a1.074,1.074,0,0,1-1.519-1.519l4.7-4.7a1.074,1.074,0,0,1,1.519,0l4.7,4.7A1.074,1.074,0,0,1,244.711,371.53Z" transform="translate(-208.413 -312.731)" fill="#1273eb"/>
    </g>
  </g>
</svg>
