<svg id="will_1_" data-name="will (1)" xmlns="http://www.w3.org/2000/svg" width="58" height="58" viewBox="0 0 58 58">
  <g id="Page-1">
    <g id="_051---Will-Document" data-name="051---Will-Document">
      <path id="Shape" d="M58,8v4a1,1,0,0,1-1,1H41V8c0-4.42,4.58-8,9-8A8,8,0,0,1,58,8Z" fill="#e8edf9"/>
      <path id="Shape-2" data-name="Shape" d="M58,46v4a8,8,0,0,1-8,8c-4.42,0-9-3.58-9-8V45H57A1,1,0,0,1,58,46Z" fill="#e8edf9"/>
      <path id="Shape-3" data-name="Shape" d="M50,58H8a8,8,0,0,1-8-8V8A8,8,0,0,1,8,0H50a8,8,0,0,0-8,8V50A8,8,0,0,0,50,58Z" fill="#fdfdfd"/>
      <path id="Shape-4" data-name="Shape" d="M38,47c0,.876-1.21,1.505-1.526,2.267-.328.79.071,2.088-.524,2.683s-1.893.2-2.683.524C32.505,52.79,31.876,54,31,54s-1.5-1.21-2.267-1.526c-.79-.328-2.088.071-2.683-.524s-.2-1.893-.524-2.683C25.21,48.5,24,47.876,24,47s1.21-1.505,1.526-2.267c.328-.79-.071-2.088.524-2.683s1.893-.2,2.683-.524C29.5,41.21,30.124,40,31,40s1.5,1.21,2.267,1.526c.79.328,2.088-.071,2.683.524s.2,1.893.524,2.683C36.79,45.5,38,46.124,38,47Z" fill="#e64c3c"/>
      <circle id="Oval" cx="2" cy="2" r="2" transform="translate(29 45)" fill="#f0c419"/>
      <path id="Shape-5" data-name="Shape" d="M14,15a1,1,0,0,1-.832-.445L12,12.8l-1.168,1.752a1,1,0,0,1-1.781-.239l-2-6a1,1,0,0,1,1.9-.632l1.353,4.06.866-1.3a1.039,1.039,0,0,1,1.664,0l.866,1.3,1.353-4.06a1,1,0,1,1,1.9.632l-2,6A1,1,0,0,1,14,15Z" fill="#1273eb"/>
      <path id="Shape-6" data-name="Shape" d="M20,15a1,1,0,0,1-1-1V8a1,1,0,0,1,2,0v6A1,1,0,0,1,20,15Z" fill="#1273eb"/>
      <path id="Shape-7" data-name="Shape" d="M27,15H25a2,2,0,0,1-2-2V8a1,1,0,0,1,2,0v5h2a1,1,0,0,1,0,2Z" fill="#1273eb"/>
      <path id="Shape-8" data-name="Shape" d="M34,15H32a2,2,0,0,1-2-2V8a1,1,0,0,1,2,0v5h2a1,1,0,0,1,0,2Z" fill="#1273eb"/>
      <g id="Group_2472" data-name="Group 2472">
        <path id="Shape-9" data-name="Shape" d="M37,21H5a1,1,0,0,1,0-2H37a1,1,0,0,1,0,2Z" fill="#e8edf9"/>
        <path id="Shape-10" data-name="Shape" d="M37,25H13a1,1,0,0,1,0-2H37a1,1,0,0,1,0,2Z" fill="#e8edf9"/>
        <path id="Shape-11" data-name="Shape" d="M9,25H5a1,1,0,0,1,0-2H9a1,1,0,0,1,0,2Z" fill="#e8edf9"/>
        <path id="Shape-12" data-name="Shape" d="M37,29H5a1,1,0,0,1,0-2H37a1,1,0,0,1,0,2Z" fill="#e8edf9"/>
        <path id="Shape-13" data-name="Shape" d="M37,33H27a1,1,0,0,1,0-2H37a1,1,0,0,1,0,2Z" fill="#e8edf9"/>
        <path id="Shape-14" data-name="Shape" d="M23,33H5a1,1,0,0,1,0-2H23a1,1,0,0,1,0,2Z" fill="#e8edf9"/>
        <path id="Shape-15" data-name="Shape" d="M37,37H5a1,1,0,0,1,0-2H37a1,1,0,0,1,0,2Z" fill="#e8edf9"/>
        <path id="Shape-16" data-name="Shape" d="M9,41H5a1,1,0,0,1,0-2H9a1,1,0,0,1,0,2Z" fill="#e8edf9"/>
      </g>
      <path id="Shape-17" data-name="Shape" d="M10,51a3,3,0,0,1,0-6,4.473,4.473,0,0,1,1.874.384A20.545,20.545,0,0,0,12,43a1,1,0,0,1,2,0,19.419,19.419,0,0,1-.3,3.672A4.4,4.4,0,0,0,17,48a2.723,2.723,0,0,0,2.108-1.453,1,1,0,0,1,1.787.9A4.694,4.694,0,0,1,17,50a6.123,6.123,0,0,1-3.938-1.263A3.316,3.316,0,0,1,10,51Zm0-4a1,1,0,0,0-1,1c0,1.052,1.606,1.781,2.437-.58A2.45,2.45,0,0,0,10,47Z" fill="#5f5346"/>
      <path id="Shape-18" data-name="Shape" d="M21,55H7a1,1,0,0,1,0-2H21a1,1,0,0,1,0,2Z" fill="#1273eb"/>
    </g>
  </g>
</svg>
