<?xml version="1.0" standalone="no"?>
<!DOCTYPE svg PUBLIC "-//W3C//DTD SVG 20010904//EN"
 "http://www.w3.org/TR/2001/REC-SVG-20010904/DTD/svg10.dtd">
<svg version="1.0" xmlns="http://www.w3.org/2000/svg"
 width="73.000000pt" height="85.000000pt" viewBox="0 0 73.000000 85.000000"
 preserveAspectRatio="xMidYMid meet">

<g transform="translate(0.000000,85.000000) scale(0.100000,-0.100000)"
fill="#000000" stroke="none">
<path d="M100 831 c-5 -11 -10 -27 -10 -35 0 -11 -10 -16 -33 -16 -18 0 -38
-5 -45 -12 -18 -18 -16 -133 3 -148 13 -11 15 -56 15 -294 0 -228 3 -286 14
-302 13 -18 30 -19 250 -22 l236 -3 25 25 c24 24 25 30 25 154 l0 129 58 74
c95 120 97 125 78 153 -8 14 -26 28 -38 32 -18 5 -29 -1 -60 -37 l-38 -44 0
67 c0 44 4 68 13 70 8 3 12 27 12 72 0 71 -9 86 -51 86 -16 0 -23 8 -27 29
-11 54 -77 49 -77 -5 l0 -24 -140 0 c-139 0 -140 0 -140 23 0 45 -50 65 -70
28z m40 -66 c0 -30 -4 -55 -10 -55 -5 0 -10 25 -10 55 0 30 5 55 10 55 6 0 10
-25 10 -55z m360 -1 c0 -40 -4 -55 -12 -52 -14 5 -23 70 -14 94 12 32 26 11
26 -42z m50 -236 l0 -81 -69 -91 c-47 -63 -72 -106 -80 -140 -7 -27 -10 -51
-7 -53 12 -13 85 24 119 60 l37 40 0 -104 c0 -68 -4 -109 -12 -117 -9 -9 -75
-12 -234 -12 -189 0 -225 2 -238 16 -14 13 -16 54 -16 290 l0 274 250 0 250 0
0 -82z m102 -83 c-4 -6 -43 -58 -87 -113 -78 -100 -80 -102 -99 -83 -21 22
-31 6 102 174 52 65 55 68 73 51 10 -9 15 -22 11 -29z"/>
<path d="M120 510 c0 -6 68 -10 185 -10 117 0 185 4 185 10 0 6 -68 10 -185
10 -117 0 -185 -4 -185 -10z"/>
<path d="M123 398 c5 -18 329 -18 335 0 3 9 -35 12 -168 12 -133 0 -171 -3
-167 -12z"/>
<path d="M120 285 c0 -13 21 -15 130 -15 109 0 130 2 130 15 0 13 -21 15 -130
15 -109 0 -130 -2 -130 -15z"/>
<path d="M127 183 c-19 -18 3 -23 108 -23 96 0 115 3 115 15 0 12 -19 15 -108
15 -60 0 -112 -3 -115 -7z"/>
</g>
</svg>
