<svg xmlns="http://www.w3.org/2000/svg" width="24" height="24" viewBox="0 0 24 24">
  <g id="Group_2614" data-name="Group 2614" transform="translate(-6542 11253)">
    <g id="privacy_tip-24px" transform="translate(6542 -11253)">
      <rect id="Rectangle_2382" data-name="Rectangle 2382" width="24" height="24" fill="none"/>
      <path id="Path_4897" data-name="Path 4897" d="M12,1,3,5v6c0,5.55,3.84,10.74,9,12,5.16-1.26,9-6.45,9-12V5L12,1Z" fill="#fff"/>
    </g>
    <path id="Path_4900" data-name="Path 4900" d="M8.928,3.464H8.576v-.7a1.76,1.76,0,1,0-3.52,0v.7H4.7a.706.706,0,0,0-.7.7v3.52a.706.706,0,0,0,.7.7H8.928a.706.706,0,0,0,.7-.7V4.168A.706.706,0,0,0,8.928,3.464ZM6.816,6.632a.7.7,0,1,1,.7-.7A.706.706,0,0,1,6.816,6.632ZM7.907,3.464H5.725v-.7a1.091,1.091,0,1,1,2.182,0Z" transform="translate(6547 -11246)" fill="#4895F1"/>
  </g>
</svg>
