<svg id="bold" enable-background="new 0 0 24 24" height="512" viewBox="0 0 24 24" width="512" xmlns="http://www.w3.org/2000/svg"><path d="m17 0h-10c-1.654 0-3 1.346-3 3v18c0 1.654 1.346 3 3 3h10c1.654 0 3-1.346 3-3v-18c0-1.654-1.346-3-3-3zm-10 2h10c.551 0 1 .448 1 1v17h-12v-17c0-.552.449-1 1-1z"/><path d="m7.75 10c-.414 0-.75-.336-.75-.75v-1.5c0-.965.785-1.75 1.75-1.75h1.5c.414 0 .75.336.75.75s-.336.75-.75.75h-1.5c-.138 0-.25.112-.25.25v1.5c0 .414-.336.75-.75.75z"/><path d="m16.25 10c-.414 0-.75-.336-.75-.75v-1.5c0-.138-.112-.25-.25-.25h-1.5c-.414 0-.75-.336-.75-.75s.336-.75.75-.75h1.5c.965 0 1.75.785 1.75 1.75v1.5c0 .414-.336.75-.75.75z"/><path d="m10.25 16h-1.5c-.965 0-1.75-.785-1.75-1.75v-1.5c0-.414.336-.75.75-.75s.75.336.75.75v1.5c0 .138.112.25.25.25h1.5c.414 0 .75.336.75.75s-.336.75-.75.75z"/><path d="m15.25 16h-1.5c-.414 0-.75-.336-.75-.75s.336-.75.75-.75h1.5c.138 0 .25-.112.25-.25v-1.5c0-.414.336-.75.75-.75s.75.336.75.75v1.5c0 .965-.785 1.75-1.75 1.75z"/></svg>